<svg id="Layer_1" xmlns="http://www.w3.org/2000/svg" viewBox="0 0 200 200"><style>.st0{fill:none;stroke:#fff;stroke-width:6;stroke-miterlimit:10}.st1{fill:#fff}.st2{fill:none;stroke:#fff;stroke-width:6;stroke-linecap:round;stroke-linejoin:round;stroke-miterlimit:10}</style><g id="WHITE"><path class="st0" d="M146 157.3c-11.4 11.4-27.1 18.4-44.4 18.4-22.2 0-41.7-11.5-52.8-28.9"/><path class="st1" d="M137.2 153.4l16.9-6.1-3.1 17.6z"/><path class="st0" d="M56.9 39.6C68.3 28.2 84 21.2 101.3 21.2c22.2 0 41.7 11.5 52.8 28.9"/><path class="st1" d="M65.6 43.5l-16.9 6.1 3.1-17.7z"/><ellipse class="st0" cx="46.8" cy="76.8" rx="10.9" ry="14.1"/><path class="st2" d="M46.8 133.3c13.1 0 27-2.3 27-2.3l-.7-17.4c-.7-17.4-13.7-18.1-13.7-18.1l-12.6 20.3-12.6-20.3s-13 .7-13.7 18.1l-.7 17.4s13.9 2.3 27 2.3z"/><ellipse class="st0" cx="154.6" cy="76.8" rx="10.9" ry="14.1"/><path class="st2" d="M154.6 133.3c13.1 0 27-2.3 27-2.3l-.7-17.4c-.7-17.4-13.7-18.1-13.7-18.1l-12.6 20.3L142 95.5s-13 .7-13.7 18.1l-.7 17.4s13.9 2.3 27 2.3z"/></g></svg>