<svg id="Layer_1" xmlns="http://www.w3.org/2000/svg" viewBox="0 0 200 200"><style>.st0{fill:none;stroke:#fff;stroke-width:6;stroke-miterlimit:10}</style><g id="WHITE"><path class="st0" d="M95.7 95.3L82.5 68.4m-.5 39.4L35.6 78.2M117.1 32l-3.9 60m24.5 14.2l16.7-10.4m11.5 73.3l-29.5-23.2M85.6 167l8-13"/><ellipse transform="rotate(-15.93 110.402 125.192)" class="st0" cx="110.4" cy="125.2" rx="33.3" ry="33.3"/><ellipse transform="rotate(-22.043 117.599 24.113)" class="st0" cx="117.6" cy="24.1" rx="7.9" ry="7.9"/><ellipse transform="rotate(-15.93 78.994 61.303)" class="st0" cx="79" cy="61.3" rx="7.9" ry="7.9"/><ellipse transform="rotate(-.725 160.678 91.927) scale(.99998)" class="st0" cx="160.7" cy="91.9" rx="7.9" ry="7.9"/><ellipse transform="rotate(-22.043 29.217 73.61)" class="st0" cx="29.2" cy="73.6" rx="7.9" ry="7.9"/><ellipse transform="rotate(-15.93 172.325 173.703)" class="st0" cx="172.3" cy="173.7" rx="7.9" ry="7.9"/><ellipse transform="matrix(.04208 -.9991 .9991 .04208 -95.383 247.814)" class="st0" cx="81.5" cy="173.6" rx="7.9" ry="7.9"/><path class="st0" d="M122.3 141.6H98.4v-14.1c0-3 2.4-5.5 5.5-5.5h13c3 0 5.5 2.4 5.5 5.5l-.1 14.1z"/><path class="st0" d="M118.8 122.5v-8.7c0-4.6-3.7-8.4-8.4-8.4-4.6 0-8.4 3.7-8.4 8.4v8.7"/></g></svg>