<svg id="Layer_1" xmlns="http://www.w3.org/2000/svg" viewBox="0 0 200 200"><style>.st0,.st1{fill:none;stroke:#fff;stroke-width:6;stroke-miterlimit:10}.st1{stroke-width:3;stroke-dasharray:3.0192,5.032}</style><g id="WHITE"><path class="st0" d="M17.9 117.7h27.5c2.3 0 4.2 1.9 4.2 4.2v50.7c0 2.3-1.9 4.2-4.2 4.2H28.7s-19-29.5-10.8-59.1zm19.7 58v-56.8m55.6 40.2h39.4c5.2 0 9.4-4.2 9.4-9.4s-4.2-9.4-9.4-9.4h-26s-21-20.4-55.8-14.3"/><path class="st0" d="M49.5 169l51.9 16.4s11 4 25.1-1.9c11-4.6 43.3-22.8 57-30.6 3.3-1.9 4.2-6.3 1.8-9.3-1.6-2.1-4.4-2.9-6.9-2l-37.6 12.7"/><circle class="st0" cx="113.1" cy="102.9" r="22"/><circle class="st0" cx="100" cy="45.1" r="22"/><circle class="st0" cx="158.5" cy="64.4" r="22"/><circle class="st1" cx="113.1" cy="102.9" r="14.1"/><circle class="st1" cx="158.5" cy="64.4" r="14.1"/><circle class="st1" cx="100" cy="45.1" r="14.1"/></g></svg>