<svg id="Layer_1" xmlns="http://www.w3.org/2000/svg" viewBox="0 0 200 200"><style>.st0{fill:none;stroke:#00afd7;stroke-width:6;stroke-linejoin:round;stroke-miterlimit:10}.st1{fill:#00afd7}</style><path class="st0" d="M103 51.7h-6m77.4 0H185v121.6H15V51.7h10.6"/><path class="st1" d="M30 30s37 0 67 20v120c-30-20-67-20-67-20V30m0-6c-3.3 0-6 2.7-6 6v120c0 3.3 2.7 6 6 6 .3 0 35.6.3 63.7 19 1 .7 2.2 1 3.3 1 1 0 1.9-.2 2.8-.7 2-1 3.2-3.1 3.2-5.3V50c0-2-1-3.9-2.7-5C69.2 24.2 31.6 24 30 24z"/><path class="st1" d="M170 30v120s-37 0-67 20V50c30-20 67-20 67-20m0-6c-1.6 0-39.2.2-70.3 21-1.7 1.1-2.7 3-2.7 5v120c0 2.2 1.2 4.2 3.2 5.3.9.5 1.9.7 2.8.7 1.2 0 2.3-.3 3.3-1 28.2-18.8 63.3-19 63.7-19 3.3 0 6-2.7 6-6V30c0-3.3-2.7-6-6-6z"/></svg>