<svg xmlns="http://www.w3.org/2000/svg" viewBox="0 0 253.5 61.6"><path fill="#FFF" d="M87.1 31.9H100s1.1 0 .7-.8c0 0-1.3-4.6-7-4.6 0 0-4.8-.3-6.6 5.2v.2zm22.2 3s.5 3.2-3.2 3.2H87s.7 6.4 6.6 6.4c0 0 4.2.4 6.8-3 0 0 .6-1 3.5-1h1.5s4 .1 2.3 2.8c-1.5 3.2-4.2 5-4.2 5l-.2.2c-2.5 1.8-5.6 2.9-9.1 2.9-8.7 0-15.6-7-15.6-15.6 0-8.7 6.9-15.7 15.6-15.7 3.6 0 6.8 1.2 9.4 3.2 5.4 4.5 5.6 11.5 5.6 11.5l.1.1zm19.5-7.4s.7 1.9 4.4 1.9h.8s3.4 0 2.5-2.3c0 0-1.4-7.3-13.4-7.3 0 0-12.3.5-12.3 9.1 0 0-.1 7.4 7.3 8.7l10 1.8s1.7.3 1.7 2.3c0 0 .2 2-3 2.5 0 0-6.8 1.2-8.9-1.6 0 0-.6-2.2-2.5-2.2h-2.1s-4-.2-3 3.2c0 0 .9 7.4 13 7.4 0 0 14.1.5 14.1-9.4 0 0 .9-7.5-8.9-9.5l-8.3-1.6s-2.5-.8-1.7-2.9c0 0 .6-1.1 2.2-1.4 0 0 2.2-.6 4.8-.2 0 0 2 0 2.9 1.2l.4.3zm47 4.4h12.9s1.1 0 .7-.8c0 0-1.4-4.6-7-4.6 0 0-4.8-.3-6.6 5.2v.2zm22.1 3s.6 3.2-3.2 3.2h-19.1s.7 6.4 6.6 6.4c0 0 4.2.4 6.8-3 0 0 .6-1 3.5-1h1.4s4.1.1 2.5 2.8c-1.6 3.2-4.2 5-4.2 5l-.2.2c-2.5 1.8-5.8 2.9-9.1 2.9-8.7 0-15.6-7-15.6-15.6 0-8.7 7-15.7 15.6-15.7 3.6 0 6.8 1.2 9.3 3.2 5.4 4.5 5.6 11.5 5.6 11.5l.1.1zm-41.3-22.8s-.2-1.9 3.1-1.9h2.2c3.3 0 3.1 1.9 3.1 1.9v37.1s.2 1.9-3.1 1.9h-2.2c-3.3 0-3.1-1.9-3.1-1.9V12.1zm14.8-.7s-2.1-.1-2.1 1.9v1s-.3 1.9 2.2 1.9h23.7s1.9.2 1.9-3v-1s.2-3.2-2-3l-23.7 2.2zm-31.6 1.2s-.3-2.3 3.5-2.3h1.3s3.6-.3 3.6 2.1v8.9h5.2s1.7-.1 1.7 2.3v1s.2 2.8-1.7 2.8c-1.8 0 0 0 0 0h-5.2v13.1s-.2 4.1 4.8 4.3c0 0 2.3-.1 2.1 2.9v.9s.3 2.9-3 2.5c0 0-12.2 1-12.2-12.4V27.3s-2.3.3-2.3-2.5V24s-.3-2.8 2.3-2.8v-8.5l-.1-.1z"/><path fill="#FFF" d="M131.7 10.6H71.9c-5.6 0-5 2.5-5 2.5v22.3l-15-23.7-.1-.1c-1.5-2.1-5.1-1.7-5.1-1.7-5.7 0-5.3 2.8-5.3 2.8v36.2s-.6 2.3 4 2.3h1.2c4.6 0 4-2.3 4-2.3V25.7l14.5 23c1.7 2.7 5.2 2.3 5.2 2.3h.3c5.6 0 5.2-2 5.2-2V17.5c0-1.1.9-.8.9-.8h57c2 0 1.8-3 1.8-3v-.9c0-2.3-1.7-2.3-1.7-2.3h-2.1v.1zm76.6 31.8c.9.9 1.3 1.9 1.3 3.1 0 1.1-.4 2.2-1.3 3-.8.8-1.8 1.3-3 1.3s-2.2-.5-3-1.3c-.8-.8-1.2-1.9-1.2-3 0-1.2.4-2.2 1.2-3.1.8-.8 1.8-1.2 3-1.2s2.2.4 3 1.2zm.5-.4c-.9-.9-2.1-1.4-3.5-1.4s-2.5.5-3.5 1.4c-1 1-1.4 2.2-1.4 3.6 0 1.3.4 2.5 1.4 3.5s2.1 1.4 3.5 1.4 2.5-.4 3.5-1.4c1-1 1.5-2.2 1.5-3.5 0-1.5-.5-2.7-1.5-3.6zm-2.7 3.2c-.2.1-.6.1-1 .1h-.8v-1.9h.8c.5 0 .9 0 1.2.2.2.1.3.4.3.8.1.4-.1.7-.5.8zm-2.7 3h1V46h.7c.5 0 .9.1 1.1.2.3.2.5.6.5 1.2v.7c.1 0 .1 0 .1.1h.9l-.1-.1V47c0-.3-.1-.5-.3-.8-.2-.3-.5-.5-1-.6.4 0 .6-.1.8-.2.4-.3.6-.6.6-1.1 0-.7-.3-1.2-.9-1.4-.3-.1-.8-.2-1.5-.2h-1.9v5.5z"/></svg>