<svg id="Layer_1" xmlns="http://www.w3.org/2000/svg" viewBox="0 0 284.8 85"><style>.st0{fill:#fff}</style><path class="st0" d="M18.2 49.6c-3.2-.4-5.9-1.5-8.4-3.3-2.3-1.7-4.1-3.9-5.4-6.6-1.3-2.6-1.9-5.4-1.9-8.3 0-3.5.9-6.8 2.7-9.7 1.7-3 4.2-5.2 7.2-6.7 2.6-1.3 5.3-1.9 8.1-1.9 5 0 9.2 1.7 12.7 5.2 1.8 1.7 3.2 3.7 4.1 6.1.9 2.2 1.4 4.6 1.4 7.1 0 4.1-1.2 7.8-3.7 11-2.4 3.3-5.5 5.5-9.4 6.6 3.7 1.5 6.6 2.2 9 2.2.8 0 1.5-.1 2.1-.3.5-.1 1.3-.6 2.3-1.2l.5.6-4.3 4.4c-3.3-.1-6.3-.5-9-1.3-2.7-.7-5.4-2.1-8-3.9zm2.3-32.5c-3.8 0-7.1 1.4-9.8 4.4-2.4 2.7-3.7 6-3.7 9.8 0 4.5 1.4 8 4.3 10.7 2.6 2.5 5.7 3.7 9.3 3.7 3.5 0 6.6-1.2 9.2-3.7 2.8-2.7 4.2-6.3 4.2-10.6 0-4-1.2-7.3-3.7-9.9-2.6-2.8-5.9-4.3-9.8-4.4zm64.9-3.6v20.2c0 4.7-1.2 8.3-3.4 10.9-2.9 3.4-6.8 5-11.7 5-3 0-5.6-.6-8-1.9-2.5-1.4-4.3-3.2-5.5-5.6-1.2-2.4-1.8-5.4-1.8-9.1V13.5h4.5v18.4c0 2.3.1 4 .2 5 .6 3.2 1.9 5.5 4.1 7 1.9 1.2 4 1.9 6.4 1.9 2.2 0 4.2-.6 6-1.8 2.5-1.7 4-4.2 4.4-7.6.1-1.3.2-3 .2-5V13.5h4.6zm22.8 3.6v12.4h15V33h-15v12.8h15.7v3.6h-20.2V13.5h19.8v3.6zm64.3-3.6v35.9h-3.8l-24.1-28.2v28.2h-4.5V13.5h3.5L168 42.1V13.5zm46.8 2.6v4.5c-4-2.2-7.6-3.4-10.9-3.4-4.3 0-7.9 1.4-10.7 4.2-1.3 1.4-2.3 3-3 5-.7 1.8-1.1 3.6-1.1 5.4 0 4 1.4 7.4 4.3 10.2 2.7 2.5 6 3.8 10 3.8 3.7 0 7.5-1.2 11.3-3.4v4.2c-1.7 1-3.6 1.8-5.7 2.4-2 .5-4 .8-6 .8-5.8 0-10.4-1.8-13.8-5.5-3.2-3.3-4.8-7.5-4.8-12.3 0-3.7.9-7.1 2.9-10.2 1.9-3.2 4.6-5.5 8.1-7 2.4-1.1 5-1.7 7.8-1.7 4 0 7.8 1 11.6 3zm46.6-2.6v35.9h-4.5V32.9h-21.1v16.5h-4.4V13.5h4.4v15.9h21.1V13.5z"/><path class="st0" d="M18.2 49.6c-3.2-.4-5.9-1.5-8.4-3.3-2.3-1.7-4.1-3.9-5.4-6.6-1.3-2.6-1.9-5.4-1.9-8.3 0-3.5.9-6.8 2.7-9.7 1.7-3 4.2-5.2 7.2-6.7 2.6-1.3 5.3-1.9 8.1-1.9 5 0 9.2 1.7 12.7 5.2 1.8 1.7 3.2 3.7 4.1 6.1.9 2.2 1.4 4.6 1.4 7.1 0 4.1-1.2 7.8-3.7 11-2.4 3.3-5.5 5.5-9.4 6.6 3.7 1.5 6.6 2.2 9 2.2.8 0 1.5-.1 2.1-.3.5-.1 1.3-.6 2.3-1.2l.5.6-4.3 4.4c-3.3-.1-6.3-.5-9-1.3-2.7-.7-5.4-2.1-8-3.9zm2.3-32.5c-3.8 0-7.1 1.4-9.8 4.4-2.4 2.7-3.7 6-3.7 9.8 0 4.5 1.4 8 4.3 10.7 2.6 2.5 5.7 3.7 9.3 3.7 3.5 0 6.6-1.2 9.2-3.7 2.8-2.7 4.2-6.3 4.2-10.6 0-4-1.2-7.3-3.7-9.9-2.6-2.8-5.9-4.3-9.8-4.4zm64.9-3.6v20.2c0 4.7-1.2 8.3-3.4 10.9-2.9 3.4-6.8 5-11.7 5-3 0-5.6-.6-8-1.9-2.5-1.4-4.3-3.2-5.5-5.6-1.2-2.4-1.8-5.4-1.8-9.1V13.5h4.5v18.4c0 2.3.1 4 .2 5 .6 3.2 1.9 5.5 4.1 7 1.9 1.2 4 1.9 6.4 1.9 2.2 0 4.2-.6 6-1.8 2.5-1.7 4-4.2 4.4-7.6.1-1.3.2-3 .2-5V13.5h4.6zm22.8 3.6v12.4h15V33h-15v12.8h15.7v3.6h-20.2V13.5h19.8v3.6zm64.3-3.6v35.9h-3.8l-24.1-28.2v28.2h-4.5V13.5h3.5L168 42.1V13.5zm46.8 2.6v4.5c-4-2.2-7.6-3.4-10.9-3.4-4.3 0-7.9 1.4-10.7 4.2-1.3 1.4-2.3 3-3 5-.7 1.8-1.1 3.6-1.1 5.4 0 4 1.4 7.4 4.3 10.2 2.7 2.5 6 3.8 10 3.8 3.7 0 7.5-1.2 11.3-3.4v4.2c-1.7 1-3.6 1.8-5.7 2.4-2 .5-4 .8-6 .8-5.8 0-10.4-1.8-13.8-5.5-3.2-3.3-4.8-7.5-4.8-12.3 0-3.7.9-7.1 2.9-10.2 1.9-3.2 4.6-5.5 8.1-7 2.4-1.1 5-1.7 7.8-1.7 4 0 7.8 1 11.6 3zm46.6-2.6v35.9h-4.5V32.9h-21.1v16.5h-4.4V13.5h4.4v15.9h21.1V13.5zM6.3 69.3v2.6h3.3v.8H6.3v3.9H5.2v-8.2h4.7v.9zm7.4-.9h1.1v8.2h-1.1zm13.5 0v8.2h-.9l-5.9-6.5v6.5h-1.1v-8.2h.9l5.9 6.6v-6.6zm5.6.9V72h3.7v.8h-3.7v3h3.9v.8h-5v-8.2h4.9v.9zm18.9-.3v1c-.9-.5-1.9-.7-2.7-.7-1.1 0-1.9.3-2.6.9-.3.4-.6.7-.7 1.2-.2.4-.3.9-.3 1.2 0 .9.4 1.7 1.1 2.4.6.6 1.4.9 2.4.9.9 0 1.8-.3 2.7-.8v1c-.4.2-.9.4-1.4.5-.5.1-1 .2-1.4.2-1.4 0-2.6-.4-3.4-1.3-.8-.8-1.2-1.7-1.2-2.8 0-.9.3-1.7.7-2.4.5-.6 1.2-1.2 1.9-1.5.6-.2 1.3-.4 1.9-.4 1.1-.1 2.1.2 3 .6zm7.8-.7c1.2 0 2.3.4 3.1 1.2.4.4.8.8 1 1.4.2.5.4 1.1.4 1.6 0 .8-.2 1.6-.6 2.2-.4.6-1 1.2-1.7 1.5-.6.4-1.4.5-2.1.5-1.2 0-2.2-.4-3.1-1.2-.9-.8-1.3-1.9-1.3-3 0-.8.2-1.5.6-2.2.4-.6 1-1.1 1.8-1.4.5-.4 1.2-.6 1.9-.6zm0 1c-.9 0-1.7.4-2.4.9-.6.6-.9 1.4-.9 2.2 0 1 .4 1.8 1.1 2.4.6.6 1.4.9 2.2.9.9 0 1.7-.3 2.3-.9.6-.6 1-1.4 1-2.4 0-.9-.3-1.7-.9-2.3-.6-.5-1.5-.8-2.4-.8zm16.4-.9v8.2H75l-5.9-6.5v6.5H68v-8.2h.8l6 6.6v-6.6zm7.7.9v7.3h-1.1v-7.3h-3v-.9h7.1v.9zm7.7 0V72H95v.8h-3.7v3h3.8v.8h-4.9v-8.2H95v.9zm15.9-.9v8.2h-1.1v-6.7l-2.9 3.6-3-3.6v6.7h-1v-8.2h1l3 3.5 3-3.5zm5.6 4.5v3.7h-1.1v-8.2h2.4c.9 0 1.5.1 2 .4.4.2.6.4.8.8.2.3.3.6.3 1 0 .5-.1.9-.4 1.3-.4.5-.9.8-1.6.9-.3.1-.6.1-1 .1h-1.4zm0-.7h1.2c.4 0 .7 0 .9-.1.2 0 .4-.1.6-.1.2-.1.4-.3.5-.5.1-.3.2-.5.2-.8 0-.6-.3-.9-.7-1.2-.3-.1-.7-.2-1.3-.2h-1.4v2.9zm12.3-3.9c1.2 0 2.2.4 3.1 1.2.4.4.7.8 1 1.4.2.5.3 1.1.3 1.6 0 .8-.2 1.6-.6 2.2-.4.6-1 1.2-1.7 1.5-.6.4-1.3.5-2 .5-1.3 0-2.3-.4-3.2-1.2-.9-.8-1.3-1.9-1.3-3 0-.8.2-1.5.6-2.2.4-.6 1-1.1 1.8-1.4.5-.4 1.3-.6 2-.6zm0 1c-1 0-1.8.4-2.4.9-.6.6-.9 1.4-.9 2.2 0 1 .3 1.8 1 2.4.6.6 1.4.9 2.3.9.9 0 1.6-.3 2.2-.9.7-.6 1.1-1.4 1.1-2.4 0-.9-.4-1.7-.9-2.3-.7-.5-1.5-.8-2.4-.8zm8.4 7.3v-8.2h2.7c.6 0 1.2.1 1.7.4.3.2.6.4.7.8.2.3.3.5.3.9 0 .6-.2 1-.6 1.4-.3.2-.6.4-1 .5.2.1.4.2.5.4.1.1.4.4.6.7l1.9 3H139l-1.4-2.2c-.1-.1-.1-.1-.2-.4-.4-.5-.6-.9-.9-1.1-.3-.2-.5-.4-.9-.4h-1.1v4h-1v.2zm1.1-4.6h1c.6 0 1.1-.1 1.4-.3.2-.1.4-.3.5-.5.1-.2.1-.5.1-.7 0-.2-.1-.4-.1-.6-.1-.2-.3-.4-.5-.5-.2-.1-.6-.2-1.1-.2h-1.4V72zm14.4 2h-3.8l-1.2 2.6h-1.2l3.8-8.2h.9l3.8 8.2h-1.2L149 74zm-.2-.7l-1.6-3.4-1.6 3.4h3.2zm6.2 3.3v-8.2h2.7c.6 0 1.2.1 1.7.4.4.2.6.4.7.8.2.3.3.5.3.9 0 .6-.2 1-.6 1.4-.2.2-.6.4-1 .5.2.1.4.2.5.4.1.1.4.4.6.7l1.9 3h-1.2l-1.4-2.2c0-.1-.1-.1-.2-.4-.3-.5-.6-.9-.9-1.1-.3-.2-.6-.4-1-.4h-1v4H155v.2zm1.1-4.6h1c.6 0 1.2-.1 1.4-.3.2-.1.4-.3.5-.5.1-.2.1-.5.1-.7 0-.2 0-.4-.1-.6-.1-.2-.3-.4-.4-.5-.3-.1-.6-.2-1.2-.2h-1.3V72zm15.1-3.6l-3.2 3.9v4.3h-1.1v-4.3l-3.2-3.9h1.3l2.4 3 2.5-3zm15.1 0v8.2h-1.1v-3.8H180v3.8h-1.1v-8.2h1.1V72h5.2v-3.6zm8.5-.1c1.2 0 2.2.4 3.1 1.2.4.4.7.8 1 1.4.2.5.3 1.1.3 1.6 0 .8-.2 1.6-.6 2.2-.4.6-1.1 1.2-1.8 1.5-.6.4-1.3.5-2 .5-1.2 0-2.3-.4-3.2-1.2-.9-.8-1.3-1.9-1.3-3 0-.8.2-1.5.6-2.2.4-.6 1-1.1 1.8-1.4.6-.4 1.3-.6 2.1-.6zm0 1c-.9 0-1.8.4-2.4.9-.6.6-.9 1.4-.9 2.2 0 1 .4 1.8 1 2.4.6.6 1.4.9 2.3.9.9 0 1.6-.3 2.2-.9.7-.6 1.1-1.4 1.1-2.4 0-.9-.3-1.7-.9-2.3-.7-.5-1.5-.8-2.4-.8zm16.5-.9v8.2h-1.1v-6.7l-3 3.6-2.9-3.6v6.7h-1.1v-8.2h1.1l2.9 3.5 3.1-3.5zm5.6.9V72h3.6v.8h-3.6v3h3.9v.8h-5v-8.2h4.8v.9zm11.9 7.3v-8.2h2.7c.4 0 .9.1 1.3.4.4.1.6.4.9.8.1.4.2.6.2.9 0 .5-.1.9-.4 1.2-.2.2-.4.4-.9.6.5.1.9.2 1.2.5.3.2.4.4.6.7.1.3.2.6.2.9 0 .3-.1.6-.2.9-.2.3-.4.6-.7.7-.4.4-1.1.6-1.8.6h-3.1zm1.1-.8h1.1c.5 0 .9 0 1.2-.1.2 0 .5-.1.6-.2.2-.1.4-.3.5-.5.1-.2.1-.4.1-.7 0-.3-.1-.6-.2-.8-.1-.2-.4-.4-.7-.6-.1-.1-.4-.1-.6-.1-.2 0-.5-.1-.9-.1h-1.1v3.1zm0-3.7h.6c.7 0 1.3-.1 1.6-.3.5-.3.7-.7.7-1.2 0-.4-.1-.7-.4-1-.4-.3-.7-.4-1.2-.4H230v2.9zm13.8 1.9h-3.8l-1.2 2.6h-1.2l3.8-8.2h.9l3.8 8.2h-1.2l-1.1-2.6zm-.4-.7l-1.5-3.4-1.6 3.4h3.1zm6.3 3.3v-8.2h2.7c.6 0 1.2.1 1.7.4.3.2.6.4.7.8.1.3.3.5.3.9 0 .6-.2 1-.6 1.4-.3.2-.6.4-1 .5.2.1.4.2.5.4.1.1.4.4.6.7l1.9 3h-1.2l-1.4-2.2c-.1-.1-.1-.1-.2-.4-.4-.5-.6-.9-.9-1.1-.3-.2-.6-.4-1-.4h-1.1v4h-1v.2zm1-4.6h1c.7 0 1.2-.1 1.5-.3.2-.1.4-.3.5-.5.1-.2.1-.5.1-.7 0-.2-.1-.4-.1-.6-.1-.2-.3-.4-.5-.5-.2-.1-.6-.2-1.2-.2h-1.4V72zm13.6-3v.9c-.6-.4-1.3-.7-1.9-.7-.3 0-.6.1-.8.2-.5.3-.7.6-.7 1.1 0 .4.1.7.4.9.1.1.6.4 1.2.7.7.4 1.2.6 1.5.9.4.4.6.8.6 1.4 0 .6-.2 1-.6 1.4-.2.3-.5.5-.9.6-.4.1-.7.2-1.2.2-.7 0-1.4-.2-2.2-.6v-1c.7.6 1.4.9 2.1.9.5 0 .9-.2 1.3-.5.2-.3.3-.6.3-.9 0-.4-.1-.8-.6-1.1-.2-.1-.6-.4-1.2-.6-.6-.4-1.1-.6-1.3-.7-.5-.4-.7-.9-.7-1.6 0-.6.2-1.1.6-1.5.5-.4 1.1-.6 1.8-.6.9-.1 1.6.2 2.3.6z"/><path class="st0" d="M6.3 69.3v2.6h3.3v.8H6.3v3.9H5.2v-8.2h4.7v.9zm7.4-.9h1.1v8.2h-1.1zm13.5 0v8.2h-.9l-5.9-6.5v6.5h-1.1v-8.2h.9l5.9 6.6v-6.6zm5.6.9V72h3.7v.8h-3.7v3h3.9v.8h-5v-8.2h4.9v.9zm18.9-.3v1c-.9-.5-1.9-.7-2.7-.7-1.1 0-1.9.3-2.6.9-.3.4-.6.7-.7 1.2-.2.4-.3.9-.3 1.2 0 .9.4 1.7 1.1 2.4.6.6 1.4.9 2.4.9.9 0 1.8-.3 2.7-.8v1c-.4.2-.9.4-1.4.5-.5.1-1 .2-1.4.2-1.4 0-2.6-.4-3.4-1.3-.8-.8-1.2-1.7-1.2-2.8 0-.9.3-1.7.7-2.4.5-.6 1.2-1.2 1.9-1.5.6-.2 1.3-.4 1.9-.4 1.1-.1 2.1.2 3 .6zm7.8-.7c1.2 0 2.3.4 3.1 1.2.4.4.8.8 1 1.4.2.5.4 1.1.4 1.6 0 .8-.2 1.6-.6 2.2-.4.6-1 1.2-1.7 1.5-.6.4-1.4.5-2.1.5-1.2 0-2.2-.4-3.1-1.2-.9-.8-1.3-1.9-1.3-3 0-.8.2-1.5.6-2.2.4-.6 1-1.1 1.8-1.4.5-.4 1.2-.6 1.9-.6zm0 1c-.9 0-1.7.4-2.4.9-.6.6-.9 1.4-.9 2.2 0 1 .4 1.8 1.1 2.4.6.6 1.4.9 2.2.9.9 0 1.7-.3 2.3-.9.6-.6 1-1.4 1-2.4 0-.9-.3-1.7-.9-2.3-.6-.5-1.5-.8-2.4-.8zm16.4-.9v8.2H75l-5.9-6.5v6.5H68v-8.2h.8l6 6.6v-6.6zm7.7.9v7.3h-1.1v-7.3h-3v-.9h7.1v.9zm7.7 0V72H95v.8h-3.7v3h3.8v.8h-4.9v-8.2H95v.9zm15.9-.9v8.2h-1.1v-6.7l-2.9 3.6-3-3.6v6.7h-1v-8.2h1l3 3.5 3-3.5zm5.6 4.5v3.7h-1.1v-8.2h2.4c.9 0 1.5.1 2 .4.4.2.6.4.8.8.2.3.3.6.3 1 0 .5-.1.9-.4 1.3-.4.5-.9.8-1.6.9-.3.1-.6.1-1 .1h-1.4zm0-.7h1.2c.4 0 .7 0 .9-.1.2 0 .4-.1.6-.1.2-.1.4-.3.5-.5.1-.3.2-.5.2-.8 0-.6-.3-.9-.7-1.2-.3-.1-.7-.2-1.3-.2h-1.4v2.9zm12.3-3.9c1.2 0 2.2.4 3.1 1.2.4.4.7.8 1 1.4.2.5.3 1.1.3 1.6 0 .8-.2 1.6-.6 2.2-.4.6-1 1.2-1.7 1.5-.6.4-1.3.5-2 .5-1.3 0-2.3-.4-3.2-1.2-.9-.8-1.3-1.9-1.3-3 0-.8.2-1.5.6-2.2.4-.6 1-1.1 1.8-1.4.5-.4 1.3-.6 2-.6zm0 1c-1 0-1.8.4-2.4.9-.6.6-.9 1.4-.9 2.2 0 1 .3 1.8 1 2.4.6.6 1.4.9 2.3.9.9 0 1.6-.3 2.2-.9.7-.6 1.1-1.4 1.1-2.4 0-.9-.4-1.7-.9-2.3-.7-.5-1.5-.8-2.4-.8zm8.4 7.3v-8.2h2.7c.6 0 1.2.1 1.7.4.3.2.6.4.7.8.2.3.3.5.3.9 0 .6-.2 1-.6 1.4-.3.2-.6.4-1 .5.2.1.4.2.5.4.1.1.4.4.6.7l1.9 3H139l-1.4-2.2c-.1-.1-.1-.1-.2-.4-.4-.5-.6-.9-.9-1.1-.3-.2-.5-.4-.9-.4h-1.1v4h-1v.2zm1.1-4.6h1c.6 0 1.1-.1 1.4-.3.2-.1.4-.3.5-.5.1-.2.1-.5.1-.7 0-.2-.1-.4-.1-.6-.1-.2-.3-.4-.5-.5-.2-.1-.6-.2-1.1-.2h-1.4V72zm14.4 2h-3.8l-1.2 2.6h-1.2l3.8-8.2h.9l3.8 8.2h-1.2L149 74zm-.2-.7l-1.6-3.4-1.6 3.4h3.2zm6.2 3.3v-8.2h2.7c.6 0 1.2.1 1.7.4.4.2.6.4.7.8.2.3.3.5.3.9 0 .6-.2 1-.6 1.4-.2.2-.6.4-1 .5.2.1.4.2.5.4.1.1.4.4.6.7l1.9 3h-1.2l-1.4-2.2c0-.1-.1-.1-.2-.4-.3-.5-.6-.9-.9-1.1-.3-.2-.6-.4-1-.4h-1v4H155v.2zm1.1-4.6h1c.6 0 1.2-.1 1.4-.3.2-.1.4-.3.5-.5.1-.2.1-.5.1-.7 0-.2 0-.4-.1-.6-.1-.2-.3-.4-.4-.5-.3-.1-.6-.2-1.2-.2h-1.3V72zm15.1-3.6l-3.2 3.9v4.3h-1.1v-4.3l-3.2-3.9h1.3l2.4 3 2.5-3zm15.1 0v8.2h-1.1v-3.8H180v3.8h-1.1v-8.2h1.1V72h5.2v-3.6zm8.5-.1c1.2 0 2.2.4 3.1 1.2.4.4.7.8 1 1.4.2.5.3 1.1.3 1.6 0 .8-.2 1.6-.6 2.2-.4.6-1.1 1.2-1.8 1.5-.6.4-1.3.5-2 .5-1.2 0-2.3-.4-3.2-1.2-.9-.8-1.3-1.9-1.3-3 0-.8.2-1.5.6-2.2.4-.6 1-1.1 1.8-1.4.6-.4 1.3-.6 2.1-.6zm0 1c-.9 0-1.8.4-2.4.9-.6.6-.9 1.4-.9 2.2 0 1 .4 1.8 1 2.4.6.6 1.4.9 2.3.9.9 0 1.6-.3 2.2-.9.7-.6 1.1-1.4 1.1-2.4 0-.9-.3-1.7-.9-2.3-.7-.5-1.5-.8-2.4-.8zm16.5-.9v8.2h-1.1v-6.7l-3 3.6-2.9-3.6v6.7h-1.1v-8.2h1.1l2.9 3.5 3.1-3.5zm5.6.9V72h3.6v.8h-3.6v3h3.9v.8h-5v-8.2h4.8v.9zm11.9 7.3v-8.2h2.7c.4 0 .9.1 1.3.4.4.1.6.4.9.8.1.4.2.6.2.9 0 .5-.1.9-.4 1.2-.2.2-.4.4-.9.6.5.1.9.2 1.2.5.3.2.4.4.6.7.1.3.2.6.2.9 0 .3-.1.6-.2.9-.2.3-.4.6-.7.7-.4.4-1.1.6-1.8.6h-3.1zm1.1-.8h1.1c.5 0 .9 0 1.2-.1.2 0 .5-.1.6-.2.2-.1.4-.3.5-.5.1-.2.1-.4.1-.7 0-.3-.1-.6-.2-.8-.1-.2-.4-.4-.7-.6-.1-.1-.4-.1-.6-.1-.2 0-.5-.1-.9-.1h-1.1v3.1zm0-3.7h.6c.7 0 1.3-.1 1.6-.3.5-.3.7-.7.7-1.2 0-.4-.1-.7-.4-1-.4-.3-.7-.4-1.2-.4H230v2.9zm13.8 1.9h-3.8l-1.2 2.6h-1.2l3.8-8.2h.9l3.8 8.2h-1.2l-1.1-2.6zm-.4-.7l-1.5-3.4-1.6 3.4h3.1zm6.3 3.3v-8.2h2.7c.6 0 1.2.1 1.7.4.3.2.6.4.7.8.1.3.3.5.3.9 0 .6-.2 1-.6 1.4-.3.2-.6.4-1 .5.2.1.4.2.5.4.1.1.4.4.6.7l1.9 3h-1.2l-1.4-2.2c-.1-.1-.1-.1-.2-.4-.4-.5-.6-.9-.9-1.1-.3-.2-.6-.4-1-.4h-1.1v4h-1v.2zm1-4.6h1c.7 0 1.2-.1 1.5-.3.2-.1.4-.3.5-.5.1-.2.1-.5.1-.7 0-.2-.1-.4-.1-.6-.1-.2-.3-.4-.5-.5-.2-.1-.6-.2-1.2-.2h-1.4V72zm13.6-3v.9c-.6-.4-1.3-.7-1.9-.7-.3 0-.6.1-.8.2-.5.3-.7.6-.7 1.1 0 .4.1.7.4.9.1.1.6.4 1.2.7.7.4 1.2.6 1.5.9.4.4.6.8.6 1.4 0 .6-.2 1-.6 1.4-.2.3-.5.5-.9.6-.4.1-.7.2-1.2.2-.7 0-1.4-.2-2.2-.6v-1c.7.6 1.4.9 2.1.9.5 0 .9-.2 1.3-.5.2-.3.3-.6.3-.9 0-.4-.1-.8-.6-1.1-.2-.1-.6-.4-1.2-.6-.6-.4-1.1-.6-1.3-.7-.5-.4-.7-.9-.7-1.6 0-.6.2-1.1.6-1.5.5-.4 1.1-.6 1.8-.6.9-.1 1.6.2 2.3.6zm8.5-55.9V8.9h-1.6v-.6h3.8v.6h-1.6v4.2zm2.8 0V8.3h1l1.1 3.4c.1.4.2.6.3.7 0-.1.1-.4.2-.8l1.2-3.3h.9v4.8h-.6v-4l-1.4 4h-.6L276.1 9v4.1h-.6z"/><path class="st0" d="M272.7 13.1V8.9h-1.6v-.6h3.8v.6h-1.6v4.2zm2.8 0V8.3h1l1.1 3.4c.1.4.2.6.3.7 0-.1.1-.4.2-.8l1.2-3.3h.9v4.8h-.6v-4l-1.4 4h-.6L276.1 9v4.1h-.6z"/></svg>