<svg xmlns="http://www.w3.org/2000/svg" viewBox="0 0 305.3 306"><style>.st0{fill:none}.st1{stroke:#fff;stroke-width:.25}.st1,.st2{fill:#fff}.st3,.st4{fill:#fff;stroke:#fff;stroke-width:1.05}.st4{fill:none;stroke-width:1.2096}</style><g id="Layer_1"><path class="st0" d="M3.1 3.9h297.6v297.6H3.1z"/><path class="st1" d="M3.7 257.8h1.8v7.4c0 1.1.2 1.9.7 2.5.5.6 1.1.8 2 .8.9 0 1.6-.3 2-.8.5-.6.7-1.4.7-2.5v-7.4h1.8v7.6c0 1.7-.4 2.9-1.1 3.7-.7.8-1.9 1.2-3.4 1.2s-2.6-.4-3.4-1.2c-.7-.8-1.1-2.1-1.1-3.7v-7.6zM16.6 270v-12.7l6.9 7.5c.2.2.4.4.6.7.2.2.4.5.6.8v-8.5h1.7v12.7l-7.1-7.6c-.2-.2-.4-.4-.5-.7-.2-.2-.3-.5-.5-.7v8.5h-1.7zm13.7 0v-12.2h1.8v4.5h5.4v-4.5h1.8V270h-1.8v-5.9h-5.4v5.9h-1.8zm21.7-9.3c-.5-.5-1-.8-1.6-1.1-.6-.2-1.1-.4-1.8-.4-1.2 0-2.2.4-2.9 1.3-.7.9-1.1 2-1.1 3.3 0 1.3.4 2.4 1.1 3.3.7.9 1.6 1.3 2.8 1.3.6 0 1.3-.1 1.8-.4.6-.3 1.1-.6 1.7-1.2v2.2c-.5.4-1 .7-1.6.9-.6.2-1.2.3-1.8.3-.8 0-1.6-.2-2.3-.5-.7-.3-1.3-.8-1.9-1.4-.5-.6-.9-1.3-1.2-2.1-.3-.8-.4-1.6-.4-2.5 0-.9.1-1.7.4-2.5.3-.8.7-1.5 1.2-2.1.5-.6 1.2-1.1 1.9-1.4.7-.3 1.5-.5 2.3-.5.6 0 1.3.1 1.8.3.6.2 1.1.5 1.7.9l-.1 2.3zm5.2 3.8v5.5h-1.7v-12.2H58c.7 0 1.3.1 1.7.2.4.1.7.3 1 .5.3.3.6.7.8 1.1.2.5.3 1 .3 1.5 0 1-.2 1.7-.6 2.3-.4.6-1.1.9-1.9 1l3.8 5.6h-2l-3.7-5.5h-.2zm.2-1.5h.3c1 0 1.6-.1 1.9-.4.3-.2.5-.7.5-1.3 0-.7-.2-1.1-.5-1.4-.3-.3-1-.4-1.9-.4h-.3v3.5zm8.7 1c0-.5.2-1 .5-1.4.3-.4.7-.6 1.2-.6s.9.2 1.2.6c.3.4.5.8.5 1.4 0 .5-.2 1-.5 1.4-.3.4-.7.6-1.2.6s-.9-.2-1.2-.6c-.3-.4-.5-.8-.5-1.4zm7.6-6.2h1.8v7.4c0 1.1.2 1.9.7 2.5.5.6 1.1.8 2 .8.9 0 1.6-.3 2-.8.5-.6.7-1.4.7-2.5v-7.4h1.8v7.6c0 1.7-.4 2.9-1.1 3.7-.7.8-1.9 1.2-3.4 1.2s-2.6-.4-3.4-1.2c-.7-.8-1.1-2.1-1.1-3.7v-7.6zM86.5 270v-12.7l6.9 7.5c.2.2.4.4.6.7.2.2.4.5.6.8v-8.5h1.7v12.7l-7.1-7.6c-.2-.2-.4-.4-.5-.7-.2-.2-.3-.5-.5-.7v8.5h-1.7zm13.8 0v-12.2h1.8V270h-1.8zm14.5-9.3c-.5-.5-1-.8-1.6-1.1-.6-.2-1.1-.4-1.8-.4-1.2 0-2.2.4-2.9 1.3-.7.9-1.1 2-1.1 3.3 0 1.3.4 2.4 1.1 3.3.7.9 1.6 1.3 2.8 1.3.6 0 1.3-.1 1.8-.4.6-.3 1.1-.6 1.7-1.2v2.2c-.5.4-1 .7-1.6.9-.6.2-1.2.3-1.8.3-.8 0-1.6-.2-2.3-.5-.7-.3-1.3-.8-1.9-1.4-.5-.6-.9-1.3-1.2-2.1-.3-.8-.4-1.6-.4-2.5 0-.9.1-1.7.4-2.5.3-.8.7-1.5 1.2-2.1.5-.6 1.2-1.1 1.9-1.4.7-.3 1.5-.5 2.3-.5.6 0 1.3.1 1.8.3.6.2 1.1.5 1.7.9l-.1 2.3zm3.7 9.3v-12.2h6.1v1.7h-4.3v3.1h4.3v1.8h-4.3v3.9h4.3v1.8h-6.1zm9.5 0v-12.2h6.1v1.7h-4.3v3h4.3v1.8h-4.3v5.8H128zm10-6c0-.5.2-1 .5-1.4.3-.4.7-.6 1.2-.6s.9.2 1.2.6c.3.4.5.8.5 1.4 0 .5-.2 1-.5 1.4-.3.4-.7.6-1.2.6s-.9-.2-1.2-.6c-.3-.4-.5-.8-.5-1.4zm6.3-6.2h1.7l2.1 6.2c.1.4.2.8.3 1.1.1.3.2.6.2.9.2-.6.4-1.3.5-1.9 0-.1 0-.1.1-.2l2.2-6.5 2.3 6.7c.1.3.2.6.3 1 .1.3.2.6.3 1 0-.3.1-.5.2-.8.1-.3.2-.7.3-1.1l2.1-6.2h1.8l-4.2 12.7-2.5-7-.3-.9c-.1-.3-.2-.6-.2-.8l-.3.9c-.1.3-.2.6-.3.8l-2.4 6.9-4.2-12.8zm17.1 12.2v-12.2h6.1v1.7h-4.3v3h4.3v1.8h-4.3v5.8h-1.8zm11.1-5.5v5.5h-1.7v-12.2h2.7c.8 0 1.4 0 1.8.1.4.1.7.3 1 .5.3.3.6.7.8 1.1.2.5.3 1 .3 1.6 0 .6-.1 1.1-.3 1.6-.2.5-.5.9-.8 1.2-.3.2-.6.4-1 .5-.4.1-1 .1-1.8.1h-1zm.2-1.6h.5c1 0 1.6-.1 2-.4.3-.2.5-.7.5-1.3 0-.7-.2-1.1-.5-1.4-.3-.3-1-.4-1.9-.4h-.5v3.5zm8.3 1.1c0-.5.2-1 .5-1.4.3-.4.7-.6 1.2-.6s.9.2 1.2.6c.3.4.5.8.5 1.4 0 .5-.2 1-.5 1.4-.3.4-.7.6-1.2.6s-.9-.2-1.2-.6c-.3-.4-.5-.8-.5-1.4zm7.6-6.2h1.8v7.4c0 1.1.2 1.9.7 2.5.5.6 1.1.8 2 .8.9 0 1.6-.3 2-.8.5-.6.7-1.4.7-2.5v-7.4h1.8v7.6c0 1.7-.4 2.9-1.1 3.7-.7.8-1.9 1.2-3.4 1.2s-2.6-.4-3.4-1.2c-.7-.8-1.1-2.1-1.1-3.7v-7.6zm12.8 12.2v-12.7l6.9 7.5c.2.2.4.4.6.7.2.2.4.5.6.8v-8.5h1.7v12.7l-7.1-7.6c-.2-.2-.4-.4-.5-.7-.2-.2-.3-.5-.5-.7v8.5h-1.7zm13.7 0v-12.2h2.4c1.6 0 2.7.1 3.3.3.6.2 1.2.5 1.7.9.6.5 1.1 1.2 1.4 2.1s.5 1.8.5 2.9c0 1.1-.2 2-.5 2.9-.3.8-.8 1.5-1.4 2.1-.5.4-1 .7-1.6.9-.6.2-1.6.3-2.8.3h-3zm1.8-1.8h1.5c.8 0 1.4-.1 1.8-.2s.8-.3 1.1-.6c.4-.4.7-.9.9-1.5.2-.6.3-1.3.3-2.1s-.1-1.5-.3-2.1c-.2-.6-.5-1.1-.9-1.5-.3-.3-.7-.5-1.1-.6-.4-.1-1.1-.2-2-.2H217v8.8zm12.6-3.7v5.5h-1.7v-12.2h2.7c.8 0 1.4 0 1.8.1.4.1.7.3 1 .5.3.3.6.7.8 1.1.2.5.3 1 .3 1.6 0 .6-.1 1.1-.3 1.6-.2.5-.5.9-.8 1.2-.3.2-.6.4-1 .5-.4.1-1 .1-1.8.1h-1zm.2-1.6h.5c1 0 1.6-.1 2-.4.3-.2.5-.7.5-1.3 0-.7-.2-1.1-.5-1.4-.3-.3-1-.4-1.9-.4h-.5v3.5zm8.3 1.1c0-.5.2-1 .5-1.4.3-.4.7-.6 1.2-.6s.9.2 1.2.6c.3.4.5.8.5 1.4 0 .5-.2 1-.5 1.4-.3.4-.7.6-1.2.6s-.9-.2-1.2-.6c-.3-.4-.5-.8-.5-1.4zm7.6-6.2h1.8v7.4c0 1.1.2 1.9.7 2.5.5.6 1.1.8 2 .8.9 0 1.6-.3 2-.8.5-.6.7-1.4.7-2.5v-7.4h1.8v7.6c0 1.7-.4 2.9-1.1 3.7-.7.8-1.9 1.2-3.4 1.2s-2.6-.4-3.4-1.2c-.7-.8-1.1-2.1-1.1-3.7v-7.6zm12.8 12.2v-12.7l6.9 7.5c.2.2.4.4.6.7.2.2.4.5.6.8v-8.5h1.7v12.7l-7.1-7.6c-.2-.2-.4-.4-.5-.7-.2-.2-.3-.5-.5-.7v8.5h-1.7zm13.7 0v-12.2h6.1v1.7h-4.3v3h4.3v1.8h-4.3v5.8h-1.8zm11.1-5.5v5.5h-1.7v-12.2h2.7c.8 0 1.4 0 1.8.1.4.1.7.3 1 .5.3.3.6.7.8 1.1.2.5.3 1 .3 1.6 0 .6-.1 1.1-.3 1.6-.2.5-.5.9-.8 1.2-.3.2-.6.4-1 .5-.4.1-1 .1-1.8.1h-1zm.2-1.6h.5c1 0 1.6-.1 2-.4.3-.2.5-.7.5-1.3 0-.7-.2-1.1-.5-1.4-.3-.3-1-.4-1.9-.4h-.5v3.5zm14.2 7.1l-1.2-3.2H292l-1.3 3.2h-1.9l5.3-12.7 5.3 12.7h-1.8zm-5-4.8h3.1l-1.1-2.8c-.1-.2-.1-.4-.2-.6-.1-.2-.1-.5-.2-.8-.1.3-.1.5-.2.7-.1.2-.1.4-.2.6l-1.2 2.9zM3.7 279.3h1.7v7.4c0 1.1.2 1.9.7 2.5.4.6 1.1.8 1.9.8.9 0 1.5-.3 1.9-.8.4-.6.7-1.4.7-2.5v-7.4h1.7v7.6c0 1.7-.4 2.9-1.1 3.7-.7.8-1.8 1.2-3.2 1.2-1.4 0-2.5-.4-3.2-1.2-.7-.8-1.1-2.1-1.1-3.7v-7.6zm10.8 12.2v-12.7l6.6 7.5c.2.2.4.4.5.7.2.2.4.5.6.8v-8.5h1.6V292l-6.7-7.6c-.2-.2-.4-.4-.5-.7-.2-.2-.3-.5-.5-.7v8.5h-1.6zm22.3-6.1c0 .9-.1 1.7-.4 2.5-.3.8-.7 1.5-1.2 2.1-.5.6-1.1 1.1-1.8 1.4-.7.3-1.4.5-2.1.5-.8 0-1.5-.2-2.1-.5-.7-.3-1.3-.8-1.8-1.4-.5-.6-.9-1.3-1.2-2.1-.3-.8-.4-1.6-.4-2.5 0-.9.1-1.7.4-2.5.3-.8.7-1.5 1.2-2.1.5-.6 1.1-1.1 1.8-1.4.7-.3 1.4-.5 2.1-.5.8 0 1.5.2 2.1.5.7.3 1.3.8 1.8 1.4.5.6.9 1.3 1.2 2.1.3.8.4 1.6.4 2.5zm-1.8 0c0-.6-.1-1.2-.3-1.8-.2-.6-.5-1-.8-1.5-.4-.4-.8-.8-1.2-1-.5-.2-.9-.3-1.5-.3-.5 0-1 .1-1.5.3-.5.2-.9.6-1.2 1-.4.4-.6.9-.8 1.5-.2.6-.3 1.1-.3 1.8 0 .6.1 1.2.3 1.7.2.5.5 1 .8 1.5.4.4.8.8 1.2 1 .5.2.9.3 1.5.3.5 0 1-.1 1.4-.3.5-.2.9-.6 1.2-1 .4-.4.6-.9.8-1.5.3-.5.4-1.1.4-1.7zm3.6 6.1v-12.2h2.3c1.5 0 2.5.1 3.1.3.6.2 1.1.5 1.6.9.6.5 1.1 1.2 1.4 2.1.3.8.5 1.8.5 2.9 0 1.1-.2 2-.5 2.9-.3.8-.8 1.5-1.4 2.1-.5.4-1 .7-1.6.9-.6.2-1.5.3-2.7.3h-2.7zm1.7-1.8h1.4c.8 0 1.4-.1 1.8-.2.4-.1.7-.3 1-.6.4-.4.7-.9.9-1.5.2-.6.3-1.3.3-2.1s-.1-1.5-.3-2.1c-.2-.6-.5-1.1-.9-1.5-.3-.3-.6-.5-1.1-.6-.4-.1-1.1-.2-1.9-.2h-1.2v8.8zm17.4-7.5c-.5-.5-1-.8-1.5-1.1-.5-.2-1.1-.4-1.7-.4-1.1 0-2.1.4-2.8 1.3-.7.9-1.1 2-1.1 3.3 0 1.3.3 2.4 1 3.3.7.9 1.6 1.3 2.6 1.3.6 0 1.2-.1 1.8-.4.6-.3 1.1-.6 1.6-1.2v2.2c-.5.4-1 .7-1.5.9-.5.2-1.1.3-1.7.3-.8 0-1.5-.2-2.2-.5-.7-.3-1.3-.8-1.8-1.4-.5-.6-.9-1.3-1.2-2.1-.3-.8-.4-1.6-.4-2.5 0-.9.1-1.7.4-2.5.3-.8.7-1.5 1.2-2.1.5-.6 1.1-1.1 1.8-1.4.7-.3 1.4-.5 2.2-.5.6 0 1.2.1 1.7.3.6.2 1.1.5 1.6.9v2.3zm2.6 3.3c0-.5.2-1 .5-1.4.3-.4.7-.6 1.2-.6s.8.2 1.2.6c.3.4.5.8.5 1.4 0 .5-.2 1-.5 1.4-.3.4-.7.6-1.2.6s-.8-.2-1.2-.6c-.4-.4-.5-.8-.5-1.4zm6.1 6v-12.2h1.7v12.2h-1.7zm4 0v-12.2h1.7v10.4h3.8v1.8h-5.5zm17-6.1c0 .9-.1 1.7-.4 2.5-.3.8-.7 1.5-1.2 2.1-.5.6-1.1 1.1-1.8 1.4-.7.3-1.4.5-2.1.5-.8 0-1.5-.2-2.1-.5-.7-.3-1.3-.8-1.8-1.4-.5-.6-.9-1.3-1.2-2.1-.3-.8-.4-1.6-.4-2.5 0-.9.1-1.7.4-2.5.3-.8.7-1.5 1.2-2.1.5-.6 1.1-1.1 1.8-1.4.7-.3 1.4-.5 2.1-.5.8 0 1.5.2 2.1.5.7.3 1.3.8 1.8 1.4.5.6.9 1.3 1.2 2.1.3.8.4 1.6.4 2.5zm-1.8 0c0-.6-.1-1.2-.3-1.8-.2-.6-.5-1-.8-1.5-.4-.4-.8-.8-1.2-1-.5-.2-.9-.3-1.5-.3-.5 0-1 .1-1.5.3-.5.2-.9.6-1.2 1-.4.4-.6.9-.8 1.5-.2.6-.3 1.1-.3 1.8 0 .6.1 1.2.3 1.7.2.5.5 1 .8 1.5.4.4.8.8 1.2 1 .5.2.9.3 1.5.3.5 0 1-.1 1.4-.3.5-.2.9-.6 1.2-1 .4-.4.6-.9.8-1.5.3-.5.4-1.1.4-1.7zm4.1.1c0-.5.2-1 .5-1.4.3-.4.7-.6 1.2-.6s.8.2 1.2.6c.3.4.5.8.5 1.4 0 .5-.2 1-.5 1.4-.3.4-.7.6-1.2.6s-.8-.2-1.2-.6c-.3-.4-.5-.8-.5-1.4zm6.1-6.2h1.7v7.4c0 1.1.2 1.9.7 2.5.4.6 1.1.8 1.9.8.9 0 1.5-.3 1.9-.8.4-.6.7-1.4.7-2.5v-7.4h1.7v7.6c0 1.7-.4 2.9-1.1 3.7-.7.8-1.8 1.2-3.2 1.2-1.4 0-2.5-.4-3.2-1.2-.7-.8-1.1-2.1-1.1-3.7v-7.6zm10.8 12.2v-12.7l6.6 7.5c.2.2.4.4.5.7.2.2.4.5.6.8v-8.5h1.6V292l-6.7-7.6c-.2-.2-.4-.4-.5-.7-.2-.2-.3-.5-.5-.7v8.5h-1.6zm11.6 0v-12.2h5.8v1.7h-4.1v3.1h4.1v1.8h-4.1v3.9h4.1v1.8h-5.8zm7.1-2.5l1.4-.7c.1.5.4.9.7 1.2.3.3.8.4 1.3.4s.9-.2 1.2-.5c.3-.3.4-.8.4-1.3 0-.7-.5-1.4-1.5-1.9-.1-.1-.3-.1-.3-.2-1.1-.7-1.9-1.3-2.3-1.8-.4-.5-.6-1.2-.6-1.9 0-1 .3-1.8.9-2.4.6-.6 1.3-.9 2.3-.9.8 0 1.4.2 1.9.5s.9.8 1.1 1.5l-1.3.8c-.2-.4-.4-.7-.7-.8-.2-.2-.5-.3-.9-.3-.5 0-.8.1-1.1.4-.3.3-.4.6-.4 1.1 0 .7.6 1.4 1.8 2 .1.1.2.1.2.1 1 .6 1.7 1.1 2.1 1.6.4.5.6 1.2.6 2 0 1.2-.3 2.1-.9 2.8-.6.7-1.5 1-2.5 1-.9 0-1.6-.2-2.2-.7-.6-.4-1-1.1-1.2-2zm16.9-6.8c-.5-.5-1-.8-1.5-1.1-.5-.2-1.1-.4-1.7-.4-1.1 0-2.1.4-2.8 1.3-.7.9-1.1 2-1.1 3.3 0 1.3.3 2.4 1 3.3.7.9 1.6 1.3 2.6 1.3.6 0 1.2-.1 1.8-.4.6-.3 1.1-.6 1.6-1.2v2.2c-.5.4-1 .7-1.5.9-.5.2-1.1.3-1.7.3-.8 0-1.5-.2-2.2-.5-.7-.3-1.3-.8-1.8-1.4-.5-.6-.9-1.3-1.2-2.1-.3-.8-.4-1.6-.4-2.5 0-.9.1-1.7.4-2.5.3-.8.7-1.5 1.2-2.1.5-.6 1.1-1.1 1.8-1.4.7-.3 1.4-.5 2.2-.5.6 0 1.2.1 1.7.3.6.2 1.1.5 1.6.9v2.3zm12.7 3.2c0 .9-.1 1.7-.4 2.5-.3.8-.7 1.5-1.2 2.1-.5.6-1.1 1.1-1.8 1.4-.7.3-1.4.5-2.1.5-.8 0-1.5-.2-2.1-.5-.7-.3-1.3-.8-1.8-1.4-.5-.6-.9-1.3-1.2-2.1-.3-.8-.4-1.6-.4-2.5 0-.9.1-1.7.4-2.5.3-.8.7-1.5 1.2-2.1.5-.6 1.1-1.1 1.8-1.4s1.4-.5 2.1-.5c.8 0 1.5.2 2.1.5.7.3 1.3.8 1.8 1.4.5.6.9 1.3 1.2 2.1.3.8.4 1.6.4 2.5zm-1.7 0c0-.6-.1-1.2-.3-1.8-.2-.6-.5-1-.8-1.5-.4-.4-.8-.8-1.2-1s-.9-.3-1.5-.3c-.5 0-1 .1-1.5.3-.5.2-.9.6-1.2 1-.4.4-.6.9-.8 1.5-.2.6-.3 1.1-.3 1.8 0 .6.1 1.2.3 1.7.2.5.5 1 .8 1.5.4.4.8.8 1.2 1 .5.2.9.3 1.5.3.5 0 1-.1 1.4-.3.5-.2.9-.6 1.2-1 .4-.4.6-.9.8-1.5.3-.5.4-1.1.4-1.7zm4.1.1c0-.5.2-1 .5-1.4.3-.4.7-.6 1.2-.6s.8.2 1.2.6c.3.4.5.8.5 1.4 0 .5-.2 1-.5 1.4-.3.4-.7.6-1.2.6s-.8-.2-1.2-.6c-.4-.4-.5-.8-.5-1.4zm4.9-6.2h1.7l2 6.2c.1.4.2.8.3 1.1.1.3.2.6.2.9.2-.6.3-1.3.5-1.9v-.2l2.1-6.5 2.2 6.7c.1.3.2.6.3 1 .1.3.2.6.3 1 0-.3.1-.5.2-.8.1-.3.2-.7.3-1.1l2-6.2h1.7l-4 12.7-2.4-7-.3-.9c-.1-.3-.2-.6-.2-.8-.1.3-.2.6-.2.9-.1.3-.2.6-.2.8l-2.3 6.9-4.2-12.8zm14.8 12.2v-12.2h1.7v4.5h5.1v-4.5h1.7v12.2h-1.7v-5.9h-5.1v5.9H177zm21.5-6.1c0 .9-.1 1.7-.4 2.5-.3.8-.7 1.5-1.2 2.1-.5.6-1.1 1.1-1.8 1.4-.7.3-1.4.5-2.1.5-.8 0-1.5-.2-2.1-.5-.7-.3-1.3-.8-1.8-1.4-.5-.6-.9-1.3-1.2-2.1-.3-.8-.4-1.6-.4-2.5 0-.9.1-1.7.4-2.5.3-.8.7-1.5 1.2-2.1.5-.6 1.1-1.1 1.8-1.4.7-.3 1.4-.5 2.1-.5.8 0 1.5.2 2.1.5.7.3 1.3.8 1.8 1.4.5.6.9 1.3 1.2 2.1.3.8.4 1.6.4 2.5zm-1.7 0c0-.6-.1-1.2-.3-1.8-.2-.6-.5-1-.8-1.5-.4-.4-.8-.8-1.2-1s-.9-.3-1.5-.3c-.5 0-1 .1-1.5.3-.5.2-.9.6-1.2 1-.4.4-.6.9-.8 1.5-.2.6-.3 1.1-.3 1.8 0 .6.1 1.2.3 1.7.2.5.5 1 .8 1.5.4.4.8.8 1.2 1 .5.2.9.3 1.5.3.5 0 1-.1 1.4-.3.5-.2.9-.6 1.2-1 .4-.4.6-.9.8-1.5s.4-1.1.4-1.7zm4.1.1c0-.5.2-1 .5-1.4.3-.4.7-.6 1.2-.6s.8.2 1.2.6c.3.4.5.8.5 1.4 0 .5-.2 1-.5 1.4-.3.4-.7.6-1.2.6s-.8-.2-1.2-.6c-.4-.4-.5-.8-.5-1.4zm4.9-6.2h1.7l2 6.2c.1.4.2.8.3 1.1.1.3.2.6.2.9.2-.6.3-1.3.5-1.9v-.2l2.1-6.5 2.2 6.7c.1.3.2.6.3 1 .1.3.2.6.3 1 0-.3.1-.5.2-.8.1-.3.2-.7.3-1.1l2-6.2h1.7l-4 12.7-2.4-7-.3-.9c-.1-.3-.2-.6-.2-.8-.1.3-.2.6-.2.9-.1.3-.2.6-.2.8l-2.3 6.9-4.2-12.8zm25.5 6.1c0 .9-.1 1.7-.4 2.5-.3.8-.7 1.5-1.2 2.1-.5.6-1.1 1.1-1.8 1.4-.7.3-1.4.5-2.1.5-.8 0-1.5-.2-2.1-.5-.7-.3-1.3-.8-1.8-1.4-.5-.6-.9-1.3-1.2-2.1-.3-.8-.4-1.6-.4-2.5 0-.9.1-1.7.4-2.5.3-.8.7-1.5 1.2-2.1.5-.6 1.1-1.1 1.8-1.4.7-.3 1.4-.5 2.1-.5.8 0 1.5.2 2.1.5.7.3 1.3.8 1.8 1.4.5.6.9 1.3 1.2 2.1.3.8.4 1.6.4 2.5zm-1.8 0c0-.6-.1-1.2-.3-1.8-.2-.6-.5-1-.8-1.5-.4-.4-.8-.8-1.2-1-.5-.2-.9-.3-1.5-.3s-1 .1-1.5.3c-.5.2-.9.6-1.2 1-.4.4-.6.9-.8 1.5-.2.6-.3 1.1-.3 1.8 0 .6.1 1.2.3 1.7.2.5.5 1 .8 1.5.4.4.8.8 1.2 1 .5.2.9.3 1.5.3.5 0 1-.1 1.4-.3.5-.2.9-.6 1.2-1 .4-.4.6-.9.8-1.5.3-.5.4-1.1.4-1.7zm5.2.6v5.5h-1.6v-12.2h2.4c.7 0 1.2.1 1.6.2.4.1.7.3 1 .5.3.3.6.7.7 1.1.2.5.3 1 .3 1.5 0 1-.2 1.7-.6 2.3-.4.6-1 .9-1.8 1l3.6 5.6h-1.9l-3.5-5.5h-.2zm.1-1.5h.3c.9 0 1.5-.1 1.8-.4.3-.2.4-.7.4-1.3 0-.7-.2-1.1-.5-1.4-.3-.3-.9-.4-1.7-.4h-.3v3.5zm6.4 7v-12.2h1.7v10.4h3.8v1.8h-5.5zm6.8 0v-12.2h2.3c1.5 0 2.5.1 3.1.3.6.2 1.1.5 1.6.9.6.5 1.1 1.2 1.4 2.1.3.8.5 1.8.5 2.9 0 1.1-.2 2-.5 2.9-.3.8-.8 1.5-1.4 2.1-.5.4-1 .7-1.6.9-.6.2-1.5.3-2.7.3H248zm1.7-1.8h1.4c.8 0 1.4-.1 1.8-.2.4-.1.7-.3 1-.6.4-.4.7-.9.9-1.5.2-.6.3-1.3.3-2.1s-.1-1.5-.3-2.1c-.2-.6-.5-1.1-.9-1.5-.3-.3-.6-.5-1.1-.6-.4-.1-1.1-.2-1.9-.2h-1.2v8.8zm12.1 1.8v-12.2h2.6c.7 0 1.3 0 1.7.1.4.1.7.3.9.5.3.3.6.6.8 1.1.2.5.3.9.3 1.5 0 .7-.1 1.2-.4 1.6-.3.4-.6.7-1.1.9.6.1 1.1.4 1.4 1 .4.5.5 1.2.5 2 0 .5-.1 1-.2 1.4-.1.4-.4.8-.6 1.1-.3.3-.6.6-1.1.7-.4.1-1.1.2-2.1.2h-2.7zm1.7-7.1h.7c.8 0 1.4-.1 1.7-.4.3-.3.5-.7.5-1.3 0-.7-.2-1.1-.5-1.4-.3-.3-.9-.4-1.8-.4h-.7v3.5zm0 5.4h.6c.6 0 1 0 1.3-.1.3-.1.5-.2.7-.3.2-.2.4-.4.5-.7.1-.3.2-.6.2-.9 0-.4-.1-.7-.2-1-.1-.3-.3-.5-.6-.7-.2-.1-.3-.2-.6-.2-.2 0-.5-.1-.8-.1h-1.1v4zm13.6 1.7l-1.2-3.2h-4.1l-1.2 3.2h-1.8l5-12.7 5 12.7h-1.7zm-4.7-4.8h2.9l-1.1-2.8c-.1-.2-.1-.4-.2-.6-.1-.2-.1-.5-.2-.8-.1.3-.1.5-.2.7-.1.2-.1.4-.2.6l-1 2.9zm7.3 4.8v-12.7l6.6 7.5c.2.2.4.4.5.7.2.2.4.5.6.8v-8.5h1.6V292l-6.7-7.6c-.2-.2-.4-.4-.5-.7-.2-.2-.3-.5-.5-.7v8.5h-1.6zm11.7 0v-12.2h1.7v5.1l3.7-5.1h2.1l-4.1 5.4 4.6 6.8h-2.2l-4.1-6.2v6.2h-1.7z"/><path class="st2" d="M300.4 300.4v-.8H3.3v1.4h297.1zm0-51.3v-.7H3.3v1.4h297.1zm-.2-70.6v-.7H3.1v1.4h297.1z"/><path class="st3" d="M52.5 186.7v34c0 7.4-2 13-6.1 16.6-4 3.7-10.1 5.5-18.3 5.5-8.3 0-14.4-1.8-18.4-5.5-4-3.7-6.1-9.2-6.1-16.6v-34h11.9v32.2c0 4.5 1 7.9 3.1 10.2 2.1 2.3 5.2 3.4 9.3 3.4 4.1 0 7.3-1.1 9.4-3.4 2.1-2.3 3.2-5.7 3.2-10.2v-32.2h12zm8 54.8v-54.7H73l25 31.9c.7.9 1.5 2.2 2.4 3.8.9 1.6 1.8 3.6 2.7 5.8-.3-1.6-.5-3.2-.6-4.8-.1-1.6-.2-3.6-.2-6v-30.6h11.6v54.7h-11.8L76.2 209c-.7-.9-1.5-2.2-2.3-3.8-.8-1.6-1.7-3.6-2.7-5.8.3 1.6.5 3.2.6 4.8.1 1.6.2 3.6.2 6.1v31.3H60.5zm60.9 0l21.5-54.7h13.8l21.8 54.7h-13.7l-4.6-11.7h-21.9l-3.9 11.7h-13zm36-20.9l-6.3-17.7c-.2-.5-.4-1.4-.7-2.7-.3-1.3-.6-2.8-.9-4.7-.3 1.8-.7 3.4-1 4.8-.3 1.4-.5 2.3-.7 2.8l-6.1 17.4h15.7zm27.8 20.9v-54.7h12.1v54.7h-12.1zm21.7 0v-54.7h15.4c6.1 0 10.8.4 14.3 1.2 3.5.8 6.6 2.2 9.2 4.1 3.4 2.5 6 5.6 7.8 9.3 1.8 3.8 2.6 8 2.6 12.8 0 4.9-.9 9.2-2.7 12.9-1.8 3.8-4.4 6.8-7.9 9.3-2.6 1.8-5.4 3.1-8.6 3.9-3.2.8-7.8 1.2-13.8 1.2h-16.3zm12-9.9h6.7c6.3 0 10.9-1.4 13.8-4.2 2.9-2.8 4.3-7.2 4.3-13.3 0-6-1.4-10.4-4.3-13.3-2.9-2.8-7.5-4.2-13.8-4.2h-6.7v35zm42.3 2.8l6.8-7.3c.8 2 2.2 3.6 4.1 4.7 1.9 1.1 4 1.7 6.3 1.7 2.8 0 5-.6 6.7-1.9 1.6-1.3 2.5-3 2.5-5.2 0-2.6-2.7-5.2-8.1-7.7-1.8-.8-3.1-1.5-4.2-2-5-2.5-8.4-4.9-10.3-7.3-1.9-2.4-2.9-5.2-2.9-8.5 0-4.5 1.8-8.2 5.5-11.1 3.7-2.9 8.5-4.4 14.4-4.4 3.4 0 6.4.6 8.8 1.7 2.5 1.2 4.7 3 6.6 5.4l-7.2 6.6c-.8-1.6-2-2.8-3.4-3.6-1.4-.8-3.1-1.2-5-1.2-2.4 0-4.3.6-5.7 1.7-1.5 1.2-2.2 2.7-2.2 4.5 0 2.9 2.9 5.5 8.6 7.9 1.1.5 2 .8 2.6 1.1 4.8 2.1 8.3 4.5 10.6 7.2 2.3 2.7 3.4 5.7 3.4 9.1 0 5.1-1.8 9.2-5.4 12.3-3.6 3.1-8.5 4.6-14.5 4.6-4.3 0-8-.7-11.1-2.2-3.1-1.2-5.4-3.3-6.9-6.1z"/><path class="st2" d="M3.8 169.5c.2.2.3.4.5.4.2.1.3.1.5.1.3 0 .5-.1.7-.3.1-.2.2-.6.2-1.2v-7.4h1.6v7.9c0 .9-.2 1.5-.6 1.9-.4.4-1 .6-1.8.6-.4 0-.8-.1-1.2-.3-.4-.2-.7-.4-1-.8l1.1-.9zm5-1.4c0-.5.1-.9.3-1.4.2-.4.4-.8.8-1.1.3-.3.7-.6 1.2-.8.4-.2.9-.3 1.4-.3.5 0 1 .1 1.4.3.4.2.8.4 1.2.8.3.3.6.7.8 1.1.2.4.3.9.3 1.3 0 .5-.1.9-.3 1.4-.2.4-.4.8-.8 1.1-.4.3-.8.6-1.2.8-.4.2-.9.3-1.4.3-.5 0-.9-.1-1.4-.3-.4-.2-.8-.4-1.2-.8-.3-.3-.6-.7-.8-1.1-.2-.4-.3-.8-.3-1.3zm5.7 0c0-.6-.2-1.1-.6-1.5-.4-.4-.9-.6-1.4-.6-.6 0-1 .2-1.4.6-.4.4-.6.9-.6 1.5s.2 1.1.6 1.5c.4.4.9.6 1.4.6.6 0 1-.2 1.4-.6.4-.4.6-.9.6-1.5zm3-6.1c0-.3.1-.5.3-.7.2-.2.4-.3.7-.3.3 0 .5.1.7.3.2.2.3.4.3.7 0 .3-.1.5-.3.7-.2.2-.4.3-.7.3-.3 0-.5-.1-.7-.3-.2-.3-.3-.5-.3-.7zm.2 9.4v-6.6h1.5v6.6h-1.5zm3.7 0v-6.6h1.4v1.1c.3-.5.7-.8 1.1-1 .4-.2.9-.3 1.5-.3.5 0 .9.1 1.2.2.3.2.6.4.8.7.1.2.2.4.2.6.1.2.1.7.1 1.3v4h-1.5V168c0-.9-.1-1.4-.3-1.7-.2-.3-.6-.4-1.1-.4-.4 0-.7.1-.9.2-.3.1-.5.3-.6.5-.1.2-.2.4-.2.6 0 .2-.1.6-.1 1.2v3h-1.6zm8.6 0v-5.3h-1.1v-1.3H30v-2.5h1.5v2.5h1.1v1.3h-1.1v5.3H30zm8.4-10.2H40v6.1c0 .9.2 1.6.6 2.1.4.5 1.1.7 1.9.7.8 0 1.5-.2 1.9-.7.4-.5.6-1.1.6-2.1v-6.1h1.6v6.3c0 1.4-.3 2.4-1 3.1-.7.7-1.7 1-3.1 1-1.4 0-2.4-.3-3.1-1-.7-.7-1-1.7-1-3.1v-6.3zm10.4 10.2v-6.6h1.4v1.1c.3-.5.7-.8 1.1-1 .4-.2.9-.3 1.5-.3.5 0 .9.1 1.2.2.3.2.6.4.8.7.1.2.2.4.2.6.1.2.1.7.1 1.3v4h-1.5V168c0-.9-.1-1.4-.3-1.7-.2-.3-.6-.4-1.1-.4-.4 0-.7.1-.9.2-.3.1-.5.3-.6.5-.1.2-.2.4-.2.6 0 .2-.1.6-.1 1.2v3h-1.6zM57 162c0-.3.1-.5.3-.7.2-.2.4-.3.7-.3.3 0 .5.1.7.3.2.2.3.4.3.7 0 .3-.1.5-.3.7-.2.2-.4.3-.7.3-.3 0-.5-.1-.7-.3s-.3-.5-.3-.7zm.2 9.4v-6.6h1.5v6.6h-1.5zm4 0v-5.3h-1.1v-1.3h1.1v-2.5h1.5v2.5h1.1v1.3h-1.1v5.3h-1.5zm10.3-3.1h-5.3c0 .6.2 1.1.5 1.4.3.3.8.5 1.3.5s.9-.1 1.2-.3c.3-.2.6-.5.8-1l1.3.7c-.4.7-.8 1.1-1.4 1.5-.5.3-1.2.5-1.9.5-1.1 0-1.9-.3-2.5-1-.6-.6-.9-1.5-.9-2.6 0-1 .3-1.9 1-2.5.6-.7 1.5-1 2.5-1 1.1 0 1.9.3 2.5.9.6.6.9 1.4.9 2.5v.4zm-1.6-1c-.1-.5-.2-.8-.5-1.1-.3-.2-.7-.4-1.2-.4s-.9.1-1.2.4c-.3.2-.5.6-.6 1.1h3.5zm7.8-6.7h1.5v10.7h-1.5v-.8c-.3.4-.6.7-.9.8-.4.2-.8.3-1.2.3-.9 0-1.7-.3-2.2-.9-.5-.6-.8-1.5-.8-2.6 0-1 .3-1.9.8-2.5.5-.6 1.3-1 2.1-1 .5 0 1 .1 1.4.3.4.2.7.5.8 1v-5.3zm.1 7.5c0-.7-.2-1.2-.5-1.6-.3-.4-.8-.6-1.3-.6-.6 0-1 .2-1.3.6-.3.4-.5.9-.5 1.6 0 .7.2 1.2.5 1.6.3.4.8.6 1.3.6s1-.2 1.3-.6c.3-.4.5-1 .5-1.6zm7.9 3.3v-10.5l6.4 6.2c.2.2.4.4.5.6.2.2.4.4.6.7v-7h1.5v10.5l-6.6-6.3-.5-.5c-.2-.2-.3-.4-.5-.6v7h-1.4zm17.5 0h-1.5v-.8c-.3.4-.6.7-.9.8-.4.2-.8.3-1.2.3-.9 0-1.7-.3-2.2-.9-.5-.6-.8-1.5-.8-2.6 0-1 .3-1.9.8-2.5.5-.6 1.3-1 2.1-1 .5 0 1 .1 1.4.3.4.2.7.5.8 1v-1.1h1.5v6.5zm-1.5-3.3c0-.7-.2-1.2-.5-1.6-.3-.4-.8-.6-1.3-.6-.6 0-1 .2-1.3.6-.3.4-.5.9-.5 1.6 0 .7.2 1.2.5 1.6.3.4.8.6 1.3.6s1-.2 1.3-.6c.3-.4.5-1 .5-1.6zm3.9 3.3v-5.3h-1.1v-1.3h1.1v-2.5h1.5v2.5h1.1v1.3h-1.1v5.3h-1.5zm3.8-9.4c0-.3.1-.5.3-.7.2-.2.4-.3.7-.3.3 0 .5.1.7.3.2.2.3.4.3.7 0 .3-.1.5-.3.7-.2.2-.4.3-.7.3-.3 0-.5-.1-.7-.3s-.3-.5-.3-.7zm.2 9.4v-6.6h1.5v6.6h-1.5zm3.2-3.3c0-.5.1-.9.3-1.4.2-.4.4-.8.8-1.1.3-.3.7-.6 1.2-.8.4-.2.9-.3 1.4-.3.5 0 1 .1 1.4.3.4.2.8.4 1.2.8.3.3.6.7.8 1.1.2.4.3.9.3 1.3 0 .5-.1.9-.3 1.4-.2.4-.4.8-.8 1.1-.4.3-.8.6-1.2.8-.4.2-.9.3-1.4.3-.5 0-.9-.1-1.4-.3-.4-.2-.8-.4-1.2-.8-.3-.3-.6-.7-.8-1.1-.3-.4-.3-.8-.3-1.3zm5.6 0c0-.6-.2-1.1-.6-1.5-.4-.4-.9-.6-1.4-.6-.6 0-1 .2-1.4.6-.4.4-.6.9-.6 1.5s.2 1.1.6 1.5c.4.4.9.6 1.4.6.6 0 1-.2 1.4-.6.4-.4.6-.9.6-1.5zm3.2 3.3v-6.6h1.4v1.1c.3-.5.7-.8 1.1-1 .4-.2.9-.3 1.5-.3.5 0 .9.1 1.2.2.3.2.6.4.8.7.1.2.2.4.2.6.1.2.1.7.1 1.3v4h-1.5V168c0-.9-.1-1.4-.3-1.7-.2-.3-.6-.4-1.1-.4-.4 0-.7.1-.9.2-.3.1-.5.3-.6.5-.1.2-.2.4-.2.6 0 .2-.1.6-.1 1.2v3h-1.6zm7.5-1.2l1.2-.7c.1.3.3.6.5.7.3.2.6.3 1 .3.3 0 .6-.1.8-.2.2-.2.3-.4.3-.6 0-.4-.3-.7-1-.9-.2-.1-.4-.2-.5-.2-.7-.3-1.2-.6-1.5-.9-.3-.3-.4-.7-.4-1.1 0-.6.2-1.1.7-1.4.5-.4 1.1-.5 1.8-.5.5 0 .9.1 1.3.3.4.2.6.5.8.8l-1.1.7c-.1-.2-.2-.4-.4-.5-.2-.1-.4-.2-.7-.2-.3 0-.5.1-.7.2-.2.1-.3.3-.3.5 0 .3.4.7 1.2.9.2.1.4.2.6.2.6.2 1 .5 1.3.8.3.3.4.7.4 1.1 0 .7-.2 1.2-.7 1.5-.5.4-1.1.6-2 .6-.6 0-1.2-.1-1.6-.4-.4-.2-.7-.5-1-1zm12.8-3.4v4.6h-1.5v-10.1h2.5c.7 0 1.3 0 1.6.1.3.1.7.2.9.4.3.2.6.6.7 1 .2.4.3.8.3 1.3s-.1.9-.3 1.3c-.2.4-.4.7-.7 1-.3.2-.6.3-.9.4-.3.1-.9.1-1.6.1h-1zm.1-1.3h.4c.9 0 1.5-.1 1.8-.3.3-.2.5-.5.5-1s-.2-.9-.5-1.1c-.3-.2-.9-.3-1.8-.3h-.4v2.7zm7 .3c.2-.4.4-.8.6-1 .3-.2.6-.3 1-.3.2 0 .4 0 .6.1.2.1.4.1.6.2l-.5 1.3c-.1-.1-.3-.2-.4-.2-.2 0-.3-.1-.5-.1-.5 0-.9.2-1.1.6-.2.4-.3 1.1-.3 2v2.9h-1.5v-6.6h1.5v1.1zm3.2 2.3c0-.5.1-.9.3-1.4.2-.4.4-.8.8-1.1.3-.3.7-.6 1.2-.8.4-.2.9-.3 1.4-.3.5 0 1 .1 1.4.3.4.2.8.4 1.2.8.3.3.6.7.8 1.1.2.4.3.9.3 1.3 0 .5-.1.9-.3 1.4-.2.4-.4.8-.8 1.1-.4.3-.8.6-1.2.8-.4.2-.9.3-1.4.3-.5 0-.9-.1-1.4-.3-.4-.2-.8-.4-1.2-.8-.3-.3-.6-.7-.8-1.1-.2-.4-.3-.8-.3-1.3zm5.7 0c0-.6-.2-1.1-.6-1.5-.4-.4-.9-.6-1.4-.6-.6 0-1 .2-1.4.6-.4.4-.6.9-.6 1.5s.2 1.1.6 1.5c.4.4.9.6 1.4.6.6 0 1-.2 1.4-.6.4-.4.6-.9.6-1.5zm9.3 2.8c0 1.3-.3 2.2-.8 2.7s-1.4.8-2.6.8c-.9 0-1.6-.2-2.2-.6-.5-.4-.8-.9-.8-1.5h1.6c0 .3.2.5.4.7.2.2.6.2 1 .2.6 0 1.1-.1 1.4-.4.3-.3.4-.8.4-1.4v-.9c-.3.4-.6.7-.9.8-.4.2-.8.3-1.2.3-.9 0-1.7-.3-2.2-.9-.5-.6-.8-1.5-.8-2.6 0-1 .3-1.9.8-2.5.5-.6 1.3-1 2.1-1 .5 0 1 .1 1.4.3.4.2.7.5.8 1v-1.1h1.5v6.1zm-1.4-2.8c0-.7-.2-1.2-.5-1.6-.3-.4-.8-.6-1.3-.6-.6 0-1 .2-1.3.6-.3.4-.5.9-.5 1.6 0 .7.2 1.2.5 1.6.3.4.8.6 1.3.6s1-.2 1.3-.6c.3-.4.5-1 .5-1.6zm5-2.3c.2-.4.4-.8.6-1 .3-.2.6-.3 1-.3.2 0 .4 0 .6.1.2.1.4.1.6.2l-.5 1.3c-.1-.1-.3-.2-.4-.2-.2 0-.3-.1-.5-.1-.5 0-.9.2-1.1.6-.2.4-.3 1.1-.3 2v2.9h-1.5v-6.6h1.5v1.1zm9.9 5.6h-1.5v-.8c-.3.4-.6.7-.9.8-.4.2-.8.3-1.2.3-.9 0-1.7-.3-2.2-.9-.5-.6-.8-1.5-.8-2.6 0-1 .3-1.9.8-2.5.5-.6 1.3-1 2.1-1 .5 0 1 .1 1.4.3.4.2.7.5.8 1v-1.1h1.5v6.5zm-1.5-3.3c0-.7-.2-1.2-.5-1.6-.3-.4-.8-.6-1.3-.6-.6 0-1 .2-1.3.6-.3.4-.5.9-.5 1.6 0 .7.2 1.2.5 1.6.3.4.8.6 1.3.6s1-.2 1.3-.6c.4-.4.5-1 .5-1.6zm5.1 3.3h-1.5v-6.6h1.4v1.1c.3-.5.6-.8 1-1 .4-.2.8-.3 1.3-.3s.9.1 1.3.3c.3.2.6.5.8 1 .3-.5.7-.8 1.1-1 .4-.2.8-.3 1.3-.3.4 0 .8.1 1.1.2.3.2.6.4.8.7.1.1.1.3.2.5 0 .2.1.5.1.9v4.5h-1.5V168c0-.9-.1-1.5-.3-1.7-.2-.3-.5-.4-1-.4-.6 0-1 .2-1.3.6-.3.4-.4 1-.4 2v3h-1.5V168c0-.8-.1-1.4-.3-1.7-.2-.3-.5-.5-1-.5-.3 0-.6.1-.8.2-.2.1-.4.3-.6.6-.1.2-.2.3-.2.6 0 .2-.1.6-.1 1.2v3zm12.4 0h-1.5v-6.6h1.4v1.1c.3-.5.6-.8 1-1 .4-.2.8-.3 1.3-.3s.9.1 1.3.3c.3.2.6.5.8 1 .3-.5.7-.8 1.1-1 .4-.2.8-.3 1.3-.3.4 0 .8.1 1.1.2.3.2.6.4.8.7.1.1.1.3.2.5 0 .2.1.5.1.9v4.5h-1.5V168c0-.9-.1-1.5-.3-1.7-.2-.3-.5-.4-1-.4-.6 0-1 .2-1.3.6-.3.4-.4 1-.4 2v3h-1.5V168c0-.8-.1-1.4-.3-1.7-.2-.3-.5-.5-1-.5-.3 0-.6.1-.8.2-.2.1-.4.3-.6.6-.1.2-.2.3-.2.6 0 .2-.1.6-.1 1.2v3zm17.2-3.1h-5.3c0 .6.2 1.1.5 1.4.3.3.8.5 1.3.5s.9-.1 1.2-.3c.3-.2.6-.5.8-1l1.3.7c-.4.7-.8 1.1-1.4 1.5-.5.3-1.2.5-1.9.5-1.1 0-1.9-.3-2.5-1-.6-.6-.9-1.5-.9-2.6 0-1 .3-1.9 1-2.5.6-.7 1.5-1 2.5-1 1.1 0 1.9.3 2.5.9.6.6.9 1.4.9 2.5v.4zm-1.5-1c-.1-.5-.2-.8-.5-1.1-.3-.2-.7-.4-1.2-.4s-.9.1-1.2.4c-.3.2-.5.6-.6 1.1h3.5zm6.9.8c0-.5.1-.9.3-1.4.2-.4.4-.8.8-1.1.3-.3.7-.6 1.2-.8.4-.2.9-.3 1.4-.3.5 0 1 .1 1.4.3.4.2.8.4 1.2.8.3.3.6.7.8 1.1.2.4.3.9.3 1.3 0 .5-.1.9-.3 1.4-.2.4-.4.8-.8 1.1-.4.3-.8.6-1.2.8-.4.2-.9.3-1.4.3-.5 0-.9-.1-1.4-.3-.4-.2-.8-.4-1.2-.8-.3-.3-.6-.7-.8-1.1-.2-.4-.3-.8-.3-1.3zm5.6 0c0-.6-.2-1.1-.6-1.5-.4-.4-.9-.6-1.4-.6-.6 0-1 .2-1.4.6-.4.4-.6.9-.6 1.5s.2 1.1.6 1.5c.4.4.9.6 1.4.6.6 0 1-.2 1.4-.6.4-.4.6-.9.6-1.5zm3.2 3.3v-6.6h1.4v1.1c.3-.5.7-.8 1.1-1 .4-.2.9-.3 1.5-.3.5 0 .9.1 1.2.2.3.2.6.4.8.7l.3.6c0 .2.1.7.1 1.3v4H233V168c0-.9-.1-1.4-.3-1.7-.2-.3-.6-.4-1.1-.4-.4 0-.7.1-.9.2-.3.1-.5.3-.6.5-.1.2-.2.4-.2.6 0 .2-.1.6-.1 1.2v3h-1.7zm12.7 0v-10.1h1.6v3.7h5v-3.7h1.6v10.1h-1.6v-4.9h-5v4.9h-1.6zm10.7 0v-10.1h1.6v10.1h-1.6zm7.2.4l-4.5-10.5h1.7l2.3 5.4.3.9c.1.3.2.5.2.8.1-.3.1-.5.2-.8.1-.3.2-.6.3-.8l2.3-5.4h1.7l-4.5 10.4zM268 161h1.2l-5 11.7H263l5-11.7zm9.1 10.4l-1.1-2.6h-4l-1.2 2.6H269l4.9-10.5 4.9 10.5h-1.7zm-4.6-4h2.8l-1-2.3c-.1-.1-.1-.3-.2-.5s-.1-.4-.2-.6c-.1.2-.1.4-.2.6-.1.2-.1.4-.2.5l-1 2.3zm7.3 4v-10.1h1.6v10.1h-1.6zm4 0v-10.1h2.2c1.4 0 2.5.1 3 .2.6.1 1.1.4 1.5.7.6.4 1 1 1.3 1.7.3.7.5 1.5.5 2.4 0 .9-.1 1.7-.5 2.4-.3.7-.7 1.3-1.3 1.7-.4.3-.9.6-1.5.7-.6.1-1.4.2-2.6.2h-2.6zm1.6-1.5h1.4c.8 0 1.3 0 1.7-.2.4-.1.7-.3 1-.5.4-.3.7-.7.9-1.2.2-.5.3-1.1.3-1.7 0-.6-.1-1.2-.3-1.7-.2-.5-.5-.9-.9-1.2-.3-.2-.6-.4-1-.5-.4-.1-1-.2-1.9-.2h-1.2v7.2zm8.3-.6l1.3-.6c.1.5.4.8.7 1 .3.2.8.4 1.3.4s.9-.1 1.2-.4c.3-.3.4-.6.4-1.1 0-.6-.5-1.1-1.5-1.6-.1-.1-.2-.1-.3-.2-1.1-.5-1.9-1-2.2-1.5-.4-.4-.6-1-.6-1.6 0-.8.3-1.5.8-2 .6-.5 1.3-.8 2.2-.8.7 0 1.4.1 1.9.4.5.3.9.7 1 1.2l-1.3.7c-.2-.3-.4-.6-.7-.7-.2-.2-.5-.2-.8-.2-.4 0-.8.1-1.1.3-.3.2-.4.5-.4.9 0 .6.6 1.2 1.7 1.7.1 0 .2.1.2.1 1 .5 1.7.9 2.1 1.4.4.4.6 1 .6 1.7 0 1-.3 1.7-.9 2.3-.6.6-1.4.8-2.5.8-.9 0-1.6-.2-2.1-.6-.5-.3-.8-.8-1-1.6z"/><path class="st4" d="M151.9 12c29.2 0 53.1 23.8 53.1 53.1 0 29.2-23.9 53-53.1 53-29.2 0-53.1-23.8-53.1-53 0-29.3 23.9-53.1 53.1-53.1z"/><path class="st2" d="M156.2 44.2l-1-.1-1.1-.1-1.1-.1h-1.1v.6h1.1l1 .1 1.1.1.9.2m3 .9l.8.4 1 .3.9.5.8.5.9.6.7.5.9.6.7.7.7.7.7.6.7.8.5.8.6.8.6.8.5.8.5 1 .3.9.4.9.3 1 .3.9.2 1 .2 1 .2 1.1.1 1v1.1h.6v-1.2l-.1-1-.2-1.1-.1-1-.2-1.1-.3-.9-.4-1.1-.4-.9-.4-.9-.4-.9-.5-.9-.6-.9-.6-.8-.6-.8-.7-.8-.7-.7-.7-.8-.8-.7-.8-.5-.8-.6-.9-.6-.9-.5-.9-.4-1-.5-.9-.4-1-.3m-6.3 41.5l1.1-.1 1.1-.1 1.1-.1 1-.2 1-.1 1-.3 1-.4.9-.4 1-.4.9-.5.9-.5.9-.5.8-.7.8-.6.8-.6.7-.7.7-.8.7-.7.6-.9.6-.7.6-.9.5-1 .4-.8.4-1 .4-.9.4-1 .3-1 .2-1.1.1-1.1.2-1 .1-1.1v-1h-.6v1l-.1 1.1-.2 1-.2 1-.2 1-.3.9-.3 1-.4.9-.3 1-.5.8-.5.9-.6.9-.6.7-.5.8-.7.8-.7.6-.7.8-.7.6-.9.6-.7.6-.9.5-.8.6-.9.4-1 .4-.8.3-1 .4-.9.3-1.1.2-.9.2-1.1.1-1 .1h-1.1zm-21.2-21.2v1l.1 1.1.1 1 .2 1.1.2 1.1.3 1 .4 1 .4.9.4 1 .4.8.5 1 .6.9.6.7.6.9.7.7.7.8.7.7.8.6.8.6.8.7.9.5.9.5.9.5 1 .4.9.4 1 .4 1 .3 1 .1 1 .2 1.1.1 1.1.1 1.1.1v-.7h-1.1l-1-.1-1.1-.1-.9-.2-1.1-.2-.9-.3-1-.4-.8-.3-1-.4-.9-.4-.8-.6-.9-.5-.7-.6-.9-.6-.7-.6-.7-.8-.7-.6-.7-.8-.6-.8-.5-.7-.6-.9-.5-.9-.5-.8-.3-1-.4-.9-.3-1-.3-.9-.2-1-.2-1-.2-1-.1-1.1v-1zm21.2-21.2h-1.1l-1.1.1-1.1.1-1 .1-1 .3-1 .3-1 .3-.9.4-1 .5-.9.4-.9.5-.9.6-.8.6-.8.5-.8.7-.7.8-.7.7-.7.8-.6.8-.6.8-.6.9-.5.9-.4.9-.4.9-.4.9-.4 1.1-.3.9-.2 1.1-.2 1-.1 1.1-.1 1v1.2h.6V64l.1-1 .2-1.1.2-1 .2-1 .3-.9.3-1 .4-.9.3-.9.5-1 .5-.8.6-.8.5-.8.6-.8.7-.8.7-.6.7-.7.7-.7.9-.6.7-.5.9-.6.8-.5.9-.5 1-.3.8-.4 1-.3.9-.3 1.1-.3.9-.2 1.1-.1 1-.1h1.1zm14.6-18.8l1.9.8 1.9.8 1.8 1 1.8 1 1.7 1.1 1.7 1.2 1.6 1.3 1.5 1.3 1.5 1.5 1.5 1.4 1.3 1.5 1.2 1.7 1.2 1.7 1.1 1.7 1.1 1.7.9 1.8.8 1.9.8 2 .6 2 .6 2 .5 2 .4 2.1.3 2.1.2 2.2v2.2h.6v-2.2l-.2-2.2-.2-2.2-.4-2.1-.5-2.1-.6-2-.7-2-.7-2-.9-2-.9-1.8-1.1-1.8-1.1-1.7-1.2-1.7-1.3-1.7-1.4-1.6-1.4-1.4-1.5-1.5-1.5-1.3-1.7-1.3-1.7-1.3-1.7-1-1.8-1.1-1.9-.9-2-.9-1.9-.8-.4-.1zm-5.9-2.4l-2.1-.4-2.2-.2-2.2-.1-2.2-.1v.6l2.2.1 2.1.2 2.2.3 2 .3z"/><path class="st2" d="M151.9 108.2h2.2l2.2-.2 2.2-.2 2.1-.4 2.1-.5 2-.6 2-.7 1.9-.7 2-1 1.9-.9 1.8-1 1.7-1.1 1.7-1.3 1.7-1.2 1.5-1.4 1.5-1.4 1.4-1.5 1.4-1.6 1.3-1.7 1.2-1.6 1.1-1.8 1.1-1.7.9-2 .9-1.9.7-1.9.7-2 .6-2.1.5-2.1.4-2.1.2-2.1.2-2.2v-2.2h-.6v2.1l-.2 2.2-.3 2.1-.4 2.1-.5 2-.6 2.1-.6 1.9-.8 1.9-.8 2-.9 1.8-1.1 1.8-1.1 1.7-1.2 1.6-1.2 1.7-1.3 1.5-1.5 1.5-1.5 1.4-1.5 1.3-1.6 1.3-1.7 1.2-1.7 1-1.8 1.1-1.8.9-1.9.9-2 .8-1.9.6-2 .6-2.1.5-2 .4-2.2.3-2.1.1-2.2.1z"/><path class="st2" d="M108.8 65.1v2.2l.2 2.2.2 2.1.4 2.1.5 2.1.6 2.1.6 2 .8 1.9.9 1.9.9 2 1.1 1.7 1.1 1.8 1.2 1.6 1.3 1.7 1.3 1.6 1.5 1.5 1.5 1.4 1.5 1.4 1.7 1.2 1.7 1.3 1.7 1.1 1.8 1 1.9.9 2 1 1.9.7 2 .7 2 .6 2.1.5 2.1.4 2.2.2 2.2.2h2.2v-.6l-2.2-.1-2.1-.1-2.2-.3-2-.4-2.1-.5-2-.6-1.9-.6-2-.8-1.9-.9-1.8-.9-1.8-1.1-1.7-1-1.7-1.2-1.6-1.3-1.5-1.3-1.5-1.4-1.5-1.5-1.3-1.5-1.3-1.7-1.1-1.6-1.1-1.7-1.1-1.8-.9-1.8-.8-2-.8-1.9-.7-1.9-.5-2.1-.5-2-.4-2.1-.3-2.1-.2-2.2v-2.1z"/><path class="st2" d="M151.9 21.9l-2.2.1-2.2.1-2.2.2-2.1.4-2.1.5-2 .7-2 .6-1.9.8-2 .9-1.9.9-1.8 1.1-1.7 1-1.7 1.3-1.7 1.3-1.5 1.3-1.5 1.5-1.5 1.4-1.3 1.6-1.3 1.7-1.2 1.7-1.1 1.7-1.1 1.8-.9 1.8-.9 2-.8 2-.6 2-.6 2-.5 2.1-.4 2.1-.2 2.2-.2 2.2v2.2h.6v-2.2l.2-2.2.3-2.1.4-2.1.5-2 .5-2 .7-2 .8-2 .8-1.9.9-1.8 1.1-1.7 1.1-1.7 1.1-1.7 1.3-1.7 1.3-1.5 1.5-1.4 1.5-1.5 1.5-1.3 1.6-1.3 1.7-1.2 1.7-1.1 1.8-1 1.8-1 1.9-.8 2-.8 1.9-.7 2-.5 2.1-.5 2-.3 2.2-.3 2.1-.2 2.2-.1zm31.8 43.2v-1.6l-.1-1.7-.2-1.6-.3-1.5-.4-1.5-.4-1.6-.5-1.5-.5-1.4-.7-1.4-.7-1.4-.8-1.4-.8-1.2-.9-1.2-.9-1.3-1.1-1.1-1-1.1-1.1-1.1-1.2-1-1.2-.9-1.2-.9-1.4-.9-1.3-.7-1.3-.7-1.5-.7-1.4-.5-1.4-.5-1.6-.5-1.5-.3-1.5-.3-1.6-.2-1.7-.2h-1.6v.7h1.6l1.6.2 1.5.2 1.5.3 1.5.3 1.6.4 1.4.5 1.4.6 1.4.6 1.3.6 1.4.8 1.2.9 1.3.8 1.1 1 1.1.9 1.1 1.1 1 1 1 1.2 1 1.1.8 1.3.8 1.2.8 1.4.6 1.3.7 1.3.6 1.5.4 1.4.4 1.5.4 1.5.3 1.5.2 1.5.1 1.7.1 1.6zm-31.8 31.7h3.3l1.6-.2 1.5-.3 1.5-.4 1.6-.5 1.4-.5 1.4-.5 1.5-.6 1.3-.8 1.3-.7 1.4-.9 1.2-.9 1.2-.9 1.2-1 1.1-1 1-1.2 1.1-1.1.9-1.2.9-1.2.8-1.4.8-1.3.7-1.3.7-1.5.5-1.4.5-1.5.4-1.5.4-1.5.3-1.6.2-1.6.1-1.6v-1.6h-.6l-.1 1.5-.1 1.6-.2 1.6-.3 1.5-.4 1.5-.4 1.5-.4 1.4-.6 1.4-.7 1.5-.6 1.3-.8 1.3-.8 1.3-.8 1.2-1 1.2-1 1-1 1.2-1.1 1-1.1 1-1.1.9-1.3.9-1.2.8-1.4.7-1.3.7-1.4.7-1.4.5-1.4.5-1.6.4-1.5.4-1.5.3-1.5.2-1.6.1h-1.6z"/><path class="st2" d="M120 65.1l.1 1.6.1 1.6.2 1.6.3 1.6.4 1.5.4 1.5.5 1.5.5 1.4.7 1.5.7 1.3.8 1.3.8 1.4.9 1.2.9 1.2 1.1 1.1 1 1.2 1.1 1 1.2 1 1.2.9 1.2.9 1.3.9 1.4.7 1.3.8 1.5.6 1.4.5 1.4.5 1.6.5 1.5.4 1.5.3 1.6.2h3.3v-.6h-1.6l-1.6-.1-1.5-.2-1.5-.3-1.6-.4-1.5-.4-1.4-.5-1.5-.5-1.3-.7-1.3-.7-1.4-.7-1.2-.8-1.3-.9-1.1-.9-1.2-1-1-1-1.1-1.2-.9-1-1-1.2-.8-1.2-.8-1.3-.8-1.3-.6-1.3-.7-1.5-.6-1.4-.4-1.4-.4-1.5-.4-1.5-.3-1.5-.2-1.6-.1-1.6-.1-1.5z"/><path class="st2" d="M151.9 33.2h-1.6l-1.7.2-1.6.2-1.5.3-1.5.3-1.6.5-1.4.5-1.4.5-1.5.7-1.3.7-1.4.7-1.3.9-1.2.9-1.2.9-1.2 1-1.1 1.1-1 1.1-1.1 1.1-.9 1.3-.9 1.2-.8 1.2-.8 1.4-.7 1.4-.7 1.4-.5 1.4-.5 1.5-.4 1.6-.4 1.5-.3 1.5-.2 1.6-.1 1.7-.1 1.6h.7l.1-1.6.1-1.7.2-1.5.3-1.5.4-1.5.4-1.5.4-1.4.6-1.5.7-1.3.6-1.3.8-1.4.8-1.2.8-1.3 1-1.1.9-1.2 1.1-1 1-1.1 1.2-.9 1.1-1 1.3-.8 1.2-.9 1.4-.8 1.3-.6 1.3-.6 1.5-.6 1.4-.5 1.5-.4 1.6-.3 1.5-.3 1.5-.2 1.6-.2h1.6z"/><path class="st2" d="M151.5 11.6h.7v106.5h-.7z"/><path class="st2" d="M98.6 64.5h106.5v.7H98.6z"/><path transform="rotate(-45.025 151.9 64.904)" class="st2" d="M98.7 64.6h106.5v.7H98.7z"/><path transform="rotate(-45.388 151.911 64.899)" class="st2" d="M151.6 11.7h.7v106.5h-.7z"/><path class="st2" d="M162 18.4h-.7l-1.1-.1-.6 1.1-2.4.1 1 .9 3.4.2.6-.3zM152.6 37l-36 66.4 12.8 18.5s23.5-51.6 29.4-66.6c.4-1.1.8-2.1 1.2-3.1L152.6 37zm38.1 12.2v-2l1.9-1.3-1.2-1.5-1.9-1.5-1.6-3-1.8-.7-1.5-2.9-1.5-.5-.8-2-1.9-.9.7-.7-2-3.3.9-.5-2.2-1.8-2.2-.2 1.2 1.2 1 1.2-2.5-1.6-1.6 1.1-1.8 2.1 3.1 2.8-.3 3.1-1 1.3-2-1-1.1-2-1.2.4.6 1.3-1.6-.2 1.7 1.7.7 1.9 2.6 2.9 1 1.1 1.1 1.8 1.4.3v1.7l1 1.9 1.2-.3-.6 1.6 1 1.9 1.8 1.1 1.1 3.9-.2 1.2c-.1.8-.6 3-.6 3l1.3.2.7-4.1-1-1.9-.1-1.9.8-1.2-1.5-2.6.6-1.8-2.3-1.1-1.2.7-1.7-2.7-1.9-2.3.8-1.1-1.1-1.7-1.1-1.4s.3-1 .8-.8c.5.2.9.8.9.8l1.1-.5.8.9-.5.8.5 1.1 2.3 1 .8 1.4 1.8.6 1.3.2.2.6 1.4.3.5-.9 2.1 2.5.4 1.4 1 1.2 1.1-.6.3.3zm-77-31c-3.5 4.4-4.8 6.6-8.1 9.9-2.9 2.9-8.6 5.8-10.6 9.2 1.7-7.4 4.9-11 8.4-13.7 3.8-2.9 8.1-4.2 10.3-5.4z"/><path class="st2" d="M88.8 52.6c.3-4.1-1.9-9.3-.3-14.4 2.4-7.5 6-11 7.5-11.9-1.8 3-2.3 7.3-3.1 12.5-.4 2.7-1.6 5.5-2 6.7 1.7-3.7 3.3-6.2 7.6-9.2 4.2-2.9 6.5-4.5 8.4-6-3.8 11.9-12.3 10.6-18.1 22.3z"/><path class="st2" d="M86.9 70.7c-.4-4.6-4-8.8-4.8-15.4-1.2-11.2 2.3-14.3 3.7-16.5-1.5 5.8.5 8.6.9 14.5.2 2 .3 6.5.1 9.8.8-3.6.5-7.4 5-11.2 4.4-3.9 5.9-6.3 6.7-8.2 0 12.4-10.4 12.2-11.6 27z"/><path class="st2" d="M90.5 87.9c-2.2-5.5-7.9-9.7-10.2-14.2-5.5-10.8-2.2-17.5-1.1-19.7-.2 6.9 2.8 12.3 5.3 16.6 1.6 2.9 3.5 9 4.1 10.6-.4-3.7-1.6-7.7.8-13.4 2.3-5.7 4.4-7.2 5-9.6 2.8 13.7-6.4 17.9-3.9 29.7z"/><path class="st2" d="M98.1 103.2c-3.5-3.8-10-6.5-13.6-11.4-5.5-7.7-6.8-13.5-6.8-16.5 1.2 3.4 7.4 8.6 9.8 11.5 1.7 2 4.2 6.3 6.1 10-1.3-3.5-2.1-7.6-1.6-11.2.4-3.5 2-7.5 1.9-10.5 2.4 5.3 3.2 8.1 2.8 12.1-.6 5.7-1.8 9.7 1.4 16z"/><path class="st2" d="M111.2 116.5c-7.1-3.6-14.3-3.9-18.4-7.1-9-6.8-9.7-11.7-10.6-15.1 3.2 5.6 10 8.3 13.4 10.1 2.8 1.6 6.7 4.1 9.4 7-2.3-3-4.7-4.6-5.6-11.2-.9-6.7.5-7.7-.8-11.4 3.8 4.2 5.5 7.7 6 11.6.7 6 1.2 11.6 6.6 16.1z"/><path class="st2" d="M121.9 124.1c-6.8-1.6-13.9-.2-19.2-2.3-7.2-2.8-11.5-9-13-11.5 6.1 5.5 11.9 5.9 16.4 7 4.6 1 9.4 2.5 12.2 4.4-2.3-2.6-5.9-5.6-7.7-10.4-1.6-4.9-.7-6.3-2.8-9.2 4.5 3.5 6.7 6.3 8.5 9.8 2.7 5 3 8.1 5.6 12.2zm67.6-105.9c3.5 4.4 4.8 6.6 8.2 9.9 2.8 2.9 8.6 5.7 10.6 9.1-1.8-7.4-4.9-11-8.5-13.7-3.8-2.8-8-4.1-10.3-5.3z"/><path class="st2" d="M214.5 52.6c-.3-4.1 1.8-9.3.2-14.4-2.4-7.5-6-11-7.4-11.9 1.8 3 2.3 7.3 3 12.5.4 2.7 1.7 5.5 2 6.7-1.6-3.7-3.3-6.2-7.5-9.2-4.2-2.9-6.6-4.5-8.4-6 3.8 11.9 12.3 10.6 18.1 22.3z"/><path class="st2" d="M216.5 70.7c.3-4.6 4-8.8 4.7-15.4 1.3-11.2-2.3-14.3-3.7-16.5 1.5 5.8-.4 8.6-.9 14.5-.1 2-.3 6.5-.1 9.8-.8-3.6-.5-7.4-4.9-11.2-4.5-3.9-6-6.3-6.7-8.2-.2 12.4 10.3 12.2 11.6 27z"/><path class="st2" d="M212.7 87.9c2.2-5.5 8-9.7 10.3-14.2 5.4-10.8 2.1-17.5 1.1-19.7.3 6.9-2.7 12.3-5.2 16.6-1.7 2.9-3.5 9-4.1 10.6.4-3.7 1.5-7.7-.8-13.4-2.4-5.7-4.4-7.2-5.1-9.6-2.8 13.7 6.4 17.9 3.8 29.7z"/><path class="st2" d="M205.2 103.2c3.5-3.8 9.9-6.5 13.6-11.4 5.4-7.7 6.8-13.5 6.8-16.5-1.2 3.3-7 8.3-9.4 11.2-1.8 2-4.8 6.6-6.6 10.3 1.3-3.5 2-7.6 1.6-11.2-.4-3.5-2-7.5-2-10.5-2.3 5.3-3.1 8.1-2.7 12.1.6 5.7 1.9 9.7-1.3 16z"/><path class="st2" d="M192.1 116.5c7.1-3.6 14.2-3.9 18.4-7.1 9.1-6.8 9.8-11.7 10.7-15.1-3.2 5.6-10 8.3-13.4 10.1-2.8 1.6-6.8 4.1-9.5 7 2.3-3 4.7-4.6 5.6-11.2 1-6.7-.4-7.7.8-11.4-3.8 4.2-5.5 7.7-5.9 11.6-.8 6-1.3 11.6-6.7 16.1z"/><path class="st2" d="M181.4 124.1c6.9-1.6 13.9-.2 19.2-2.3 7.3-2.8 11.5-9 13.1-11.5-6.2 5.5-12 5.9-16.4 7-4.6 1-9.4 2.5-12.2 4.4 2.3-2.6 5.9-5.6 7.6-10.4 1.7-4.9.7-6.3 2.9-9.2-4.5 3.5-6.7 6.3-8.6 9.8-2.8 5-3 8.1-5.6 12.2zm-44.9 13.3c-.5.7 2.7 1.6 3.1 1.2 12.2-16.6 30.5-8.4 37-6.6 9.2 2.7 17.2 1.9 23.9-6.8-7.8 4.5-14.9 2.5-18.8 1.4-3-.8-7.3-2.8-14.4-3.3-5.5-.2-19 0-30.8 14.1z"/><path class="st2" d="M166.8 137.4c0 .1 0 .1 0 0v.3c-.3.6-2.8 1.3-3.1.9-3.5-4.8-7.1-7.3-11.2-8.7-.1-.3 4.9-1.2 5.1-.7 3.3 2.1 6 4.4 9.2 8.2zm-21.1-9.2c-8.1-.6-15.2 2.7-18.9 3.7-9.3 2.7-17.2 1.9-23.9-6.8 7.7 4.5 14.9 2.5 18.7 1.4 3.1-.8 7.3-2.8 14.5-3.3 3-.2 8.4-.3 14.8 2.3-1 .2-5.3 2.6-5.2 2.7zm25.4-44.4l.6-1.1.7-.6.8 1.8.1 2.6 1 1-1.3 1.1-1 1.4.7 1.9 1.2.4.3 2.4-1.9 1 .2 1.2.5.4-1.2 1.4.3 1.5.7.9-2.1 1.3-1.5.5-.5 1.3-1-.1-.9 1.2-2.7.8-.5-.9-1.2.1-.3-.7-.9-.2-.7-1.1-3-1.9v-1.7l.8-.3.1-1.5-1.8-1.4-.9-1.2-1.9-1.8-3.6 1.3-2-.3-2 .2-1.5-1.7-1-3.4.4-2.9 2.3-1.3 2.1-.3 2.3.7h1.6l.7-.5 2.1.5 1-.6 1.7-.5 1.7-.8 2-.7 1-1 .4.4-.1 1.1h2.3l.9.4 1.8.7 2.2-.3z"/><path class="st2" d="M144.7 69.5l-1.2.8-1.4.5-.2.9.1.9-.1.8.2 1-1 .5-2.7-1.5-1-1.5-2-1.3-.1.4-2.8-.6h-1.9l.1-1.5-.4-1.4 1.7-.9-1.1-.9-.8-1.2-1.3-.5-.3.4.3.8-.8 1.4h-1.1l.1.9-.9.8-.2 1.7-1.1.4-.3 1.5 1.6 1.3-.2 2.2.8.4.2 2-.8.9 1.7 1.6.4 2 .8 2-1.2 1.1 2.3.1 1 3.2 2 1.5-.4 2.2-3.1.4-2.5 1-1.9.1-1.4-.6h-1.2l-1.8-.9-1.1.5-1.1-1-3.3-.3-.5-3.4-1.4-1-1.3.2-2.5-1.6.4-1.6-2.2-2.2-1.8-.5-1-1.2-.7.7.6 1.9-1.6-.7.2-1.4-.1-1.6 1.3-1.6 2.1.4 2-1.2 1.8.3 1.8-.2 2 .5-.4-1.2.6-1.4.2-1.7 2.5-2.2.5-.8 1.3-.7 1 1 1-.2 1.1.8 1.2-.8.9-1.8.1-2.2.9-1 .8-1.3 1.3-1.1 1.4-1.2.9-.8.6-1 1.2-.5 3.4-2.3 2.2-1.5 4.1-2.1 3.6 1.9 2.6.8 2.8-1.4.8 1.6 3.6-1.1 2.7-2.2.9.6-.9 1.6 1.7 1.3 1.3-2.9 1.1-.4.6-.5.8-.1.5.6-1.2.8-.1.6 3.7-.2.5.4.5-.6h.9l.7-.9-.4-.4-3.8.1-.3-.7 2.4-1.3.4-.5 1.7 1.5 1.6 1.7 2.5-.1 1 1-.1 1.5 1.1.3v.9l-.7 1 1 .2.7-1.2 1.8-.5.4 1.8-.6.9.6.5 1.9-.9 1-2 1.1.2-1.6 2.9-1.2 1.6-1.5-.1-.6 1.3.4.5-.7.7-1-.1-1.1 1.1.3 2.3.6.4-.1 1.5.4.7.6-1.2 1.1.1.4.8 1.8.4v.7l-2.5 1.4-1.2.1.1.6-1.4.7h-1.1l-1.2 2.4-1.8.3.2 1.5 1.6-.6-.3 1.7-.5 1.3-.3 1.7-1.4 1.6-1.9.5-1.2-.6-1.4-.3-1.1-.2-1.3-1.4v-1.5l-2.1-2-1.3.7-.7 1.7 1.5.1 1.1.1.1.9-.7.5-.6-.8h-3l-.3.4h-2.2l-1.2 1.1-.6 1.2-1.4.6-1.5.3-1.1-.3-.1-1.5.4-2.2 3.7-.6-.3-1.5 2.1-1.3.6-1.3.6-1.5-.6-.9-1.3-1.5 2.6-1.7-1.2-3.6.7-3.4-.2-1.9-.4-1.5-1.7-2.9-1.1.2-.1 1-1.6.4-1.5 1.4-1.1-.2-1.5 1.6-1.6 2 1.2 2.4-1.1.4-.4 1.5zM176 48.1l-.9-1-.9.9.6.5zm-3.4 3.2l1.7-2h.6l1.2 1.6-1.5.3.9 1-1.4.4z"/><path class="st2" d="M174.4 54.1l-1-1.3-.6.6zm9.2-.2l.2-1.7 1 1.5-.8 1.2.7 1.3-1.7-.2-.3-1.3zm-55.1 15.6l-1.2-.8V70l-.6.7v1l1.1.1.7-1.2zm-1.6 4.5l.4-1.7.7.6.1 1.5zm20.5 2.7l.8.4.6 1.6.5 1.6-1.5.8-.6-2.1-.3.9-1.3-.1-.1-1.3 1.1.1.8.1zm-1.9-6.4l-1.6 1 1.2 2 .7-1.4 1.5-.8 2.8 1 2.1-2.4-1.7-1.1.1-1.1-.6-1.5-2.2 1.3-.5 1.7-1 .2z"/><path class="st2" d="M149 28.9c-2.5-4.9-3.9-10-3.6-13.4-4.1 1.8-7.5 5.5-8.7 8.5 0 0-.4.8-1 2.9-1.5 7.4.3 14.9 5.4 25.5 6.3 13 30.8 69.2 30.9 68.9L182.2 97 149 28.9z"/><path class="st2" d="M145.3 14.7c2.4-1 4.7-1.4 7-1.4 4 0 7.1 1.1 9.6 3.5 1.6 1.5 3 3.7 4.3 6.8-.4-3.6-3.2-13.2-7-16.7-2.1-2-4.5-2.7-7.3-2.7-3.2 0-6.2 1.2-8.2 3.4-3.2 3.5-5.9 10.7-6.8 14.4 1.8-2.9 4.8-5.8 8.4-7.3z"/><path class="st2" d="M165.9 24.6c-1.3-3.3-2.7-5.5-4.2-7.1-.4 2.9-2.4 7.2-5.9 13.8l-2.4 4.5 7.3 14.9c3.4-9 5.6-16 6-21.5 0-2-.2-3.2-.6-4.4-.2-.1-.2-.2-.2-.2z"/></g></svg>