<svg id="Layer_1" xmlns="http://www.w3.org/2000/svg" viewBox="0 0 192.1 61.5"><style>.st0{fill:#fff}</style><path class="st0" d="M0 15.1h6.1v24.6H0zm34.7 0v24.6h-5.1L16 23.9v15.8H9.9V15.1h5.6l13.1 15v-15zM68.2 0L50.5 40h-2.6L36 15.1h6.6l6.5 14L61.6 0zm12.5 35.2v4.5H62.6V15.1h17.9v4.5H68.7v5.2h11.2v4.5H68.7v5.9zm19.5-18.5v4.8c-3.3-1.5-5.9-2.2-7.8-2.2-1.1 0-2 .2-2.6.6-.7.4-1 .9-1 1.5 0 .5.2.9.7 1.3.5.4 1.6 1 3.4 1.6 1.8.7 3.3 1.3 4.4 1.9 1.1.6 2 1.4 2.8 2.4.8 1 1.2 2.4 1.2 4 0 2.3-.9 4.1-2.6 5.4-1.7 1.3-4 2-6.8 2-3 0-6-.8-8.9-2.4v-5.3c1.6 1.1 3.1 1.9 4.4 2.4 1.3.5 2.6.8 4 .8 2.4 0 3.6-.8 3.6-2.3 0-.5-.2-1-.7-1.5-.5-.5-1.6-1-3.5-1.7-1.8-.7-3.3-1.3-4.4-1.8-1.1-.6-2-1.4-2.8-2.4-.8-1-1.2-2.4-1.2-4 0-2.1.9-3.8 2.6-5.1 1.7-1.3 4-1.9 6.8-1.9 2.7 0 5.5.6 8.4 1.9m25.7-1.6v4.5H117v20.1h-6.1V19.6H102v-4.5zm1.9 0h6.1v24.6h-6.1zm35.1 0v24.6h-5.2l-13.6-15.8v15.8H138V15.1h5.6l13.1 15v-15zm27.1 1.7v5.4c-3.1-1.5-6.2-2.3-9.2-2.3-2.9 0-5.1.7-6.7 2.2-1.6 1.5-2.3 3.3-2.3 5.6 0 2.2.8 3.9 2.3 5.2 1.6 1.3 3.6 2 6.2 2 1.3 0 2.7-.3 4.1-.9v-2.9h-3.6v-4.5h9.7v10c-1 1-2.5 1.8-4.4 2.4-2 .6-4 .9-5.9.9-4.3 0-7.8-1.2-10.5-3.5-2.8-2.4-4.1-5.4-4.1-9 0-3.7 1.4-6.8 4.1-9.1 2.8-2.4 6.3-3.5 10.7-3.5 3.5 0 6.8.7 9.6 2M95.1 50.4c-.7 0-1.2-.6-1.2-1.2 0-.7.5-1.2 1.2-1.2s1.2.6 1.2 1.2c.1.7-.5 1.2-1.2 1.2m-2.4 10.8v-.6h1.5v-7.9h-1.5v-.6h2.2l1.3-.3v8.7h1.6v.6h-5.1zm12.2 0v-.6h1.5v-5.4c0-1.2-.1-2.6-1.7-2.6-2 0-2.2 2-2.2 3.4v4.6h1.5v.6h-5v-.6h1.5v-6.8l-.1-1H99v-.6h2.1l1.3-.2.1 1.5c.5-1 1.2-1.6 2.8-1.6 2.2 0 3.2 1 3.2 2.9v5.8h1.5v.6h-5.1zm15 .3c-2.8 0-4.1-2.2-4.1-4.8 0-2.6 1.4-4.8 4.3-4.8 1.4 0 3 .7 3 2.2 0 .6-.4 1.3-1.2 1.3-.4 0-.8-.3-.8-.7 0-.7.2-.5.2-1.2 0-.8-.5-1.1-1.3-1.1-2 0-2.1 2.7-2.1 4.2 0 1.7 0 4.3 2.2 4.3 1.7 0 2.6-1.3 2.6-2.8h.6c.1 2-1.2 3.4-3.4 3.4m10.9-.3v-.6h1.5v-5.8c0-1.4-.4-2.3-1.7-2.3-1.9 0-2.3 2.1-2.3 3.7v4.4h1.5v.6h-5v-.6h1.4V47.1H125v-.6h2.1l1.3-.2v7.3c.5-1.2 1.6-1.7 3-1.7 2.1 0 3.1 1 3.1 3.1v5.6h1.5v.6h-5.2zm8.9-10.8c-.7 0-1.2-.6-1.2-1.2 0-.7.5-1.2 1.2-1.2s1.2.6 1.2 1.2c0 .7-.5 1.2-1.2 1.2m-2.5 10.8v-.6h1.5v-7.9h-1.5v-.6h2.2l1.3-.3v8.7h1.6v.6h-5.1zm6.3 0v-.6h1.6V47.1h-1.4v-.5h1.9l1.5-.2v14.2h1.5v.6zm13.3-5.4c0-1.3-.4-2.3-.8-2.7-.3-.3-.8-.6-1.4-.6-1.5 0-2.1 1.4-2.1 4.1 0 2.7.5 4.2 2.1 4.2.5 0 1-.2 1.3-.6.7-.7.9-1.8.9-2.8v-1.6zm.1 5.4l-.1-1.1c-.5.9-1.4 1.4-2.6 1.4-2.9 0-3.9-2.3-3.9-4.8 0-2.3 1.2-4.7 3.9-4.7 1.8 0 2.4.8 2.5 1.3v-6.1h-1.5v-.6h1.8l1.7-.2v13.3l.1 1h1.4v.6h-3.3zm11.4-5.9c-.5 0-.9-.3-.9-.9 0-.4.3-.7.3-1.1 0-.6-.2-.8-.8-.8-1.4 0-1.9 2.1-1.9 3.2v4.8h1.7v.6h-5.3v-.6h1.6v-6.8l-.1-1.1h-1.4V52h1.9l1.3-.2.1 1.8c.4-1.1 1.1-1.9 2.5-1.9 1.2 0 2.1.7 2.1 1.9.1.9-.3 1.7-1.1 1.7m6.9-2.9c-1.7 0-1.8 2.1-1.9 3.7h3.8c0-1.4-.2-3.7-1.9-3.7m.3 9.1c-3 0-4.4-2-4.4-4.7 0-2.5 1.1-4.9 4.2-4.9 3 0 4 2.3 4 4.8h-6c0 1.8.1 4.2 2.4 4.2 1.8 0 2.8-1.4 3-2.9l.6.1c-.2 1.9-1.6 3.4-3.8 3.4m11.5-.3v-.6h1.5v-5.4c0-1.2-.1-2.6-1.7-2.6-2 0-2.2 2-2.2 3.4v4.6h1.5v.6H181v-.6h1.5v-6.8l-.1-1H181v-.6h2.1l1.3-.2.1 1.5c.5-1 1.2-1.6 2.8-1.6 2.2 0 3.2 1 3.2 2.9v5.8h1.5v.6h-5z" id="investing_in_children"/></svg>