<svg xmlns="http://www.w3.org/2000/svg" viewBox="0 0 566.9 283.5"><path fill-rule="evenodd" clip-rule="evenodd" fill="#FFF" d="M498.7 133.5c-55.9-40.9-131.4-66-214.5-66s-158.5 25.1-214.5 66h429z"/><path d="M253 145.2c-4 0-6.1 3.3-6.6 7.2-.6 4.4-2.9 19.6-3.4 23.5-.3 2.3-.5 4.7-2.7 5.7s-5-.5-7.3-2.5-36.8-31.4-36.8-31.4c-2-1.7-4.5-2.5-6.8-2.5-5.2 0-10.2 3.2-10.2 11.2v49.1c0 3.8 2.7 6.3 5.9 6.3 3.6 0 5.8-2.4 6.4-5.8 0 0 3.8-23.4 4.3-26 .5-3 1-5.4 3.9-6.3 2.6-.8 5.1.7 8.9 4 3.7 3.2 34.7 31.3 34.7 31.3 2.4 2 4.1 2.8 7.5 2.8 3.1 0 8.6-1.2 8.6-10.6v-48.9c-.2-4.6-3-7.1-6.4-7.1zm222.2 52.3c-27.1 5.8-58-.4-58-19.6 0-14.5 13.4-20.4 24-21.3 11.1-.9 19.8 1.4 24.2 6.1 2.8 2.9 2 6.9-3.5 7.2-5 .3-14.5.6-22.4.9-4.5.2-6.9 2.6-6.9 5.8 0 2.6 1.9 5.5 7.1 5.5 7.4 0 26.1.2 35.4.2 6.1 0 9.2-3.4 9.2-10.5 0-11.2-10.1-28.2-39.8-28.2-26.8 0-46.3 13.4-46.3 35.3 0 31.1 45.6 40.6 79.1 29 3.2-1.1 6-3.4 5.1-6.9-.8-3.2-3.4-4.4-7.2-3.5zm-314 0c-27.1 5.8-58-.4-58-19.6 0-14.5 13.4-20.4 24-21.3 11.1-.9 19.8 1.4 24.2 6.1 2.8 2.9 2 6.9-3.5 7.2-5 .3-14.5.6-22.4.9-4.5.2-6.9 2.6-6.9 5.8 0 2.6 1.9 5.5 7.1 5.5 7.4 0 26.1.2 35.4.2 6.1 0 9.2-3.4 9.2-10.5 0-11.2-10.1-28.2-39.8-28.2-26.8 0-46.3 13.4-46.3 35.3 0 31.1 45.6 40.6 79.1 29 3.2-1.1 6-3.4 5.1-6.9-.8-3.2-3.3-4.4-7.2-3.5zm209.6-29.9c.6 16.9 2.2 31 2.6 35.9.6 6.4 3.9 8.2 7.1 8.2 3.2 0 6.5-1.7 7.1-8.1.5-5.4 2.1-22.2 2.9-38.8 0-.9-.6-1.2-1.2-1.1l-17.6 2.9c-.5.1-.9.5-.9 1zm9.9-24c-8.1 0-10.4 6.4-10.3 10.2 0 .7.1 2.7.2 5.2 0 .6.5 1.1 1.2 1l18.4-3c.6-.1.9-.5.9-1 0-.9.1-1.8.1-2.2 0-3.7-2.4-10.2-10.5-10.2zm-27.1 27c-6.1 0-25 .1-37.2.2-5.9 0-7.3 3.2-7.3 5.8 0 2.3 1.6 5.2 7 5.5 8.4.4 19 .9 23.9 1.2 6.6.3 6.7 3.7 4.5 6.7-4.5 5.8-15.4 9.7-26.7 9.7-14.8 0-31-8.4-31-21.8 0-12.5 13.9-26.3 55.3-20.5 3.6.5 7.2-.1 8.1-3.5 1-3.6-1.4-5.9-6.1-7.1-9.4-2.5-17.9-3.1-26.1-3.1-27.8 0-50.2 13.3-50.2 34.8 0 23 22.2 34.2 50 34.2 31 0 46-16.9 46-31.7.1-7.5-3.7-10.4-10.2-10.4z" fill="#FFF"/></svg>