<svg xmlns="http://www.w3.org/2000/svg" viewBox="0 0 141.7 141.7"><path fill="none" stroke="#FFF" stroke-width="1.75" stroke-miterlimit="40" d="M62 128.3H28.1L25 103.2l-20.6-15c-.9-4.4-1.3-8.9-1.3-13.4C3.1 38 33 8.1 69.9 8.1s66.8 29.9 66.8 66.8c0 4.5-.5 9-1.3 13.4l-20.6 15-3.1 25.1h-34l-2 1.4c-1.7 1.2-3.8 1.9-5.9 1.9-2.1 0-4.2-.7-5.9-1.9l-1.9-1.5z"/><path fill="none" d="M62 128.3H28.1L25 103.2l-20.6-15c-.9-4.4-1.3-8.9-1.3-13.4C3.1 38 33 8.1 69.9 8.1s66.8 29.9 66.8 66.8c0 4.5-.5 9-1.3 13.4l-20.6 15-3.1 25.1h-34l-2 1.4c-1.7 1.2-3.8 1.9-5.9 1.9-2.1 0-4.2-.7-5.9-1.9l-1.9-1.5z"/><path fill-rule="evenodd" clip-rule="evenodd" fill="#FFF" d="M62 128.3H28.1L25 103.2l-20.6-15c-.9-4.4-1.3-8.9-1.3-13.4C3.1 38 33 8.1 69.9 8.1s66.8 29.9 66.8 66.8c0 4.5-.5 9-1.3 13.4l-20.6 15-3.1 25.1h-34l-2 1.4c-1.7 1.2-3.8 1.9-5.9 1.9s-4.2-.7-5.9-1.9l-1.9-1.5zm1.1-11.7H38.4L36 96.7 15.7 82c-.6-2.3-.9-4.7-.9-7.1 0-4 .8-7.9 2.5-11.6l35.9 36.3-35-43.1c1.4-5.6 4.4-10.6 8.7-14.5l31.3 54-27.7-59.1c3.6-4.8 8.6-8.3 14.3-10.1L64 93.9 50 24.1c4.3-2.4 9.1-3.7 13.9-3.7 1 0 2.1.1 3.1.2l2.9 72.6 2.9-72.6c1-.1 2.1-.2 3.1-.2 4.9 0 9.7 1.3 13.9 3.7l-14 69.8 19.1-67.1c5.7 1.8 10.7 5.3 14.3 10.1L81.5 96.1l31.3-54c4.3 3.8 7.4 8.9 8.7 14.5l-34.9 43 35.9-36.3c1.6 3.6 2.5 7.6 2.5 11.6 0 2.4-.3 4.8-.9 7.1l-20.3 14.8-2.5 19.9H76.7l-3.6 2.7c-.9.7-2 1-3.1 1s-2.2-.4-3.1-1l-3.8-2.8z"/></svg>