<svg id="Layer_1" xmlns="http://www.w3.org/2000/svg" xmlns:xlink="http://www.w3.org/1999/xlink" viewBox="0 0 528 364.5"><style>.st0{fill:#fff}.st1,.st2{clip-path:url(#SVGID_2_);fill:#fff}.st2{clip-path:url(#SVGID_4_)}.st3,.st4{clip-path:url(#SVGID_6_);fill:#fff}.st4{clip-path:url(#SVGID_8_)}</style><path class="st0" d="M298 140.4s5.1-6.2 6.9-11.3c1.8-5.1 3-8.8 3-8.8h48.4s-5.1 12.3-7.4 18.5c-2.3 6.3-3 7.7-6 16.4s-6.5 20.8-7.7 25.5c-1.2 4.8-3.1 12.4-4.4 18.6-1.3 6.3-2.4 11.3-2.4 11.3h-22.9s10.3-17.4 13.6-24.4c3.4-7 9.1-19.3 11.1-24.3 2-5.1 4.8-11.4 7.6-18.7 2.7-7.3 4.7-13 4.7-13h-29.2s-2.6 5.2-5.9 7c-3.5 1.9-9.4 3.2-9.4 3.2"/><path class="st0" d="M237.4 114.2H300s-4.7 11.9-11.3 22c-6.6 10.2-12.8 14.3-12.8 14.3l-6.9 7.8s-6 5.9-9 11.1c-3 5.2-4.9 9-5 13.9-.1 4.9.5 7.3 1.2 9.7.7 2.4 1.7 4 2.9 5.4 1.3 1.4 4.3 4.3 10.2 4.3 5.9 0 8.5-2.8 9.6-3.6 1.1-.8 3.1-3.4 4.1-6.2 1-2.8 1.5-6 .9-10.3-.7-4.3-3.1-9-4.6-11.5-1.5-2.5-4-6-5.8-8-1.9-2.2-2.1-2.3-4.5-4.7l6.9-7.8s5.1 5.1 6.6 6.9c1.5 1.8 4.9 5.7 7.3 9.3 2.4 3.6 3.7 7.3 4.6 10.2 1 2.9 1.6 7.4 1.7 11.2.1 3.7-.6 9.9-1.7 13.2 0 0-5.6 17.6-24.6 17.6s-24.8-14.7-25.4-16.1c-.6-1.4-2.9-7.1-2.4-17.5s2.1-14 3.5-17.3c1.4-3.2 14.7-18.9 14.7-18.9s-8.4-10.5-10.4-13.3c-2-2.8-6.3-9.4-7.9-12.7-2.7-5.9-3.1-6.4-4.5-9l13.4 8.6s3.7 7 7.3 11.6c3.7 4.7 10.6 10.7 10.6 10.7s7.9-7.9 10.4-10.8c2.5-2.9 4.4-6 5.5-8.1 1.2-2.1 1.6-3.5 1.6-3.5l-35.4.1-13.4-8.6m-49.9 19.6s6.8-3.7 11.4-7.2c4.5-3.6 7.6-7.1 7.6-7.1h14.8s-1.7 1.6-2.3 4.6c-.6 3-.8 9.7-.8 12.5 0 2.7-.1 14.2 0 18.4.1 4.2.6 22.3.8 27.5.3 5.2 1.4 13.3 1.9 17.3s2.3 11.9 2.3 11.9h-28.9s4.2-7.4 5.9-13.1c1.7-5.8 3-12.2 3.5-17.2s1.8-20.7 2-26.7c.2-6 .3-14.6.2-18.1 0-3.4-.2-5.9-.2-5.9s-3.8 1.8-9.3 2.9c-5.5 1.1-9 1.3-9 1.3l.1-1.1"/><defs><path id="SVGID_1_" d="M264.7 37.6l10.4-23h-20.7s-2 10.6-10.5 18.4c-8.5 7.8-10.5 6.6-20.2 14.5 0 0-7.7 6.8-12.3 16.1-4.5 9.3-4.8 17.7-5 20-.3 2.4-.1 3.3-.1 5 0 1.8.2 2.9.2 2.9h-56.9v145.8h56.8s-1.1 10.3 1.6 16.7c2.7 6.5 5.2 11.2 12.2 17 7 5.8 11.3 6.6 20.7 14.6 9.4 8.1 5.6 4.8 8.5 8.1 2.9 3.3 4.8 5.9 4.8 5.9h21s4.8-6.3 11.4-12.3c6.6-6 11.9-9.3 16.5-12.2 4.5-2.9 7.7-5 11.4-9.3 3.6-4.2 5.4-8.1 6.6-11.3 1.3-3.2 1.9-6.4 2.1-9.9.2-3.5-.3-7.2-.3-7.2h56.9V91.3h-56.9s1.2-11.6-3-23-10.1-17.8-17.3-23.1c-7.2-5.3-13.2-7.5-18.7-14-7.5-8.8-8.8-16.6-8.8-16.6l-10.4 23s3.5 7.1 7.5 10.9c4.4 4.2 7.4 6.5 11.9 9.1 4.5 2.6 7.7 3.8 10.8 7.3 3 3.5 4.4 6.5 5.9 11.6s1.7 12.5 1.6 20.7c-.1 8.2-.1 12.3-.1 12.3h61.1V219h-61.1v19.7s.2 6.9-5.2 12.6c-5.4 5.7-9.3 8.2-15.6 11.5-6.4 3.3-9.2 6.3-11.4 8.3-2.2 2-5.3 8.8-5.3 8.8s-1.6-4.7-4.5-8.1c-2.9-3.4-8.1-6.9-11.4-8.8-3.3-1.9-9.3-4.8-14.1-9.5-4.8-4.7-6.8-9.7-7.2-11.9-.3-2.2-.3-22.5-.3-22.5l-61.2-.3V109.7l61.1-.2V85.9c0-3.9 2.1-17.2 8.8-22.3 6.7-5.1 13.4-7.9 18.4-12.5 5-4.6 7.5-8.1 8.5-10 1-1.9 1.8-3.5 1.8-3.5"/></defs><use xlink:href="#SVGID_1_" overflow="visible" fill="#fff"/><clipPath id="SVGID_2_"><use xlink:href="#SVGID_1_" overflow="visible"/></clipPath><path class="st1" d="M149.5 14.6h230.3v285H149.5z"/><path class="st0" d="M240.7 69.2s.5.9 1.2 8.4.7 9.7.8 11.5c0 0-.1 5.2-.4 8.1-.3 3-1.2 8.6-1.2 8.6h8.5s-1.7-7.4-1.9-12.1c-.3-4.7-.1-7 0-8.3.1-1.3.3-2.4.3-2.4s3.4 2.8 6.4 7.4c3 4.6 3.6 7.2 4.3 9.1.7 1.9 1.7 6.2 1.7 6.2h6.3s-.9-4.5-1.1-8.4c-.3-3.9-.7-9.8-.3-13.6.3-3.8 1.1-9 3.4-11.9 2.2-2.9 4.7-4.8 7-5 2.2-.2 5.2.6 5.2.6s-3.9-3.2-8.3-2.2c-4.3 1-6 2.1-8.4 4.9-2.3 2.8-3.3 5.3-3.7 7-.4 1.7-.6 2.8-1 5.4-.3 2.6-.3 5-.3 5s-4.5-5.7-6.7-8.4c-2.1-2.6-3.6-4.2-5.2-5.9-1.5-1.7-1.9-2.1-3.6-3.2"/><path class="st0" d="M280.1 72.9s-2.5.2-4.2 1.3c-1.7 1.2-2.2 2.2-2.5 3-.3.8-.7 1.9-.8 3.1 0 1.2 0 3.8.3 5 .3 1.2.8 2.3 1.4 3.1.5.8 1.5 1.6 2.6 2.1 1.1.6 2.7.7 3.6.7.9 0 2-.1 3.1-.6 1-.4 2.3-1.4 3-2.5.7-1.1 1.2-2.4 1.4-4 .2-1.6.1-1.7.1-2.6 0-.9-.2-2.4-.6-3.6-.4-1.2-.9-2.2-2.3-3.2-1.4-1.1-2.6-1.4-3.3-1.6-.7-.1-1.8-.2-1.8-.2v3.4s1.1 0 1.9.4c.8.4 1.6 1.3 2 2 .5.7.6 1.8.6 3s-.1 2.6-.7 3.8c-.6 1.2-1.4 1.7-2 2-.6.3-1.2.3-1.6.3-.5 0-1.6-.1-2.2-.4-.6-.3-1.5-1.2-1.9-1.9-.4-.8-.7-1.8-.7-3.3 0-1.5.3-3 .7-3.6.4-.6 1.1-1.3 1.7-1.7.7-.3 2.1-.5 2.1-.5l.1-3.5m-7.7 21.6h15.7v4.3h-15.6l-.1-4.3m.1 7.3h15.6v4h-15.6z"/><defs><path id="SVGID_3_" d="M183.8 133.6s6.8-3.7 11.4-7.2c4.5-3.6 7.6-7.1 7.6-7.1h14.8s-1.7 1.6-2.3 4.6c-.6 3-.8 9.7-.8 12.5 0 2.7-.1 14.2 0 18.4.1 4.2.6 22.3.8 27.5.3 5.2 1.4 13.3 1.9 17.3s2.3 11.9 2.3 11.9h-28.9s4.2-7.4 5.9-13.1c1.7-5.8 3-12.2 3.5-17.2s1.8-20.7 2-26.7c.2-6 .3-14.6.2-18.1 0-3.4-.2-5.9-.2-5.9s-3.8 1.8-9.3 2.9c-5.5 1.1-9 1.3-9 1.3l.1-1.1"/></defs><use xlink:href="#SVGID_3_" overflow="visible" fill="#fff"/><clipPath id="SVGID_4_"><use xlink:href="#SVGID_3_" overflow="visible"/></clipPath><path class="st2" d="M183.8 119.3h35.7v92.2h-35.7z"/><defs><path id="SVGID_5_" d="M233.1 114.2h62.6s-4.7 11.9-11.3 22c-6.6 10.2-12.8 14.3-12.8 14.3l-6.9 7.8s-6 5.9-9 11.1c-3 5.2-4.9 9-5 13.9-.1 4.9.5 7.3 1.2 9.7.7 2.4 1.7 4 2.9 5.4 1.3 1.4 4.3 4.3 10.2 4.3 5.9 0 8.5-2.8 9.6-3.6 1.1-.8 3.1-3.4 4.1-6.2 1-2.8 1.5-6 .9-10.3-.7-4.3-3.1-9-4.6-11.5-1.5-2.5-4-6-5.8-8-1.9-2.2-2.1-2.3-4.5-4.7l6.9-7.8s5.1 5.1 6.6 6.9c1.5 1.8 4.9 5.7 7.3 9.3 2.4 3.6 3.7 7.3 4.6 10.2 1 2.9 1.6 7.4 1.7 11.2.1 3.7-.6 9.9-1.7 13.2 0 0-5.6 17.6-24.6 17.6s-24.8-14.7-25.4-16.1c-.6-1.4-2.9-7.1-2.4-17.5s2.1-14 3.5-17.3c1.4-3.2 14.7-18.9 14.7-18.9s-8.4-10.5-10.4-13.3c-2.1-2.8-6.3-9.4-7.9-12.7-2.8-5.9-3.1-6.4-4.5-9l13.4 8.6s3.7 7 7.3 11.6c3.7 4.7 10.6 10.7 10.6 10.7s7.9-7.9 10.4-10.8c2.5-2.9 4.4-6 5.5-8.1 1.2-2.1 1.6-3.5 1.6-3.5l-35.4.1-13.4-8.6"/></defs><use xlink:href="#SVGID_5_" overflow="visible" fill="#fff"/><clipPath id="SVGID_6_"><use xlink:href="#SVGID_5_" overflow="visible"/></clipPath><path class="st3" d="M233.1 114.2h62.6v104.7h-62.6z"/><defs><path id="SVGID_7_" d="M294.3 140.2s5.1-6.2 6.9-11.3c1.8-5.1 3-8.8 3-8.8h48.4s-5.1 12.2-7.4 18.5c-2.3 6.3-3 7.7-6 16.4s-6.5 20.8-7.7 25.5c-1.2 4.8-3.1 12.4-4.4 18.6-1.3 6.3-2.4 11.3-2.4 11.3h-22.9s10.3-17.4 13.6-24.4c3.3-7 9.1-19.3 11.1-24.3 2-5.1 4.8-11.4 7.6-18.7 2.7-7.3 4.7-13 4.7-13h-29.2s-2.6 5.2-5.9 7c-3.4 1.9-9.4 3.2-9.4 3.2"/></defs><use xlink:href="#SVGID_7_" overflow="visible" fill="#fff"/><clipPath id="SVGID_8_"><use xlink:href="#SVGID_7_" overflow="visible"/></clipPath><path class="st4" d="M294.3 120.1h58.2v90.4h-58.2z"/><path class="st0" d="M260.6 235.4s-2.1-2.7-1.7-4.2c.4-1.4 1.9-2.9 5.4-2.9 3.5 0 5 1.1 5.5 1.3.5.3 1.7 1.5 1.4 2.4-.3 1-1.9 3.5-1.9 3.5l1.1.8s.9-1.8 1.7-2.6c.8-.8 1.5-1 2.7-.3 1.2.7 3.5 2.9 3.9 5.5.4 2.6.2 4 0 4.7-.1.6-.6 1.3-1 1.4-.4.1-2.1-.4-2.8-.6-.6-.2-1.3-.5-1.3-.5l-.4 1.4s1.1.1 2.3.7c1.2.6 2 1.1 1.8 2.4-.1 1.2-.8 3.2-2.5 4.9-1.7 1.7-3 2.7-5 2.9-2 .2-3.4.5-3.7-.6-.3-1.1-.3-1.6-.3-2.5 0-.9.1-1.3.1-1.3h-1.5s.3 3.1-.2 4c-.5.9-1 1-2.5 1.1-1.6.1-3.9.1-5.7-1.5-1.8-1.6-2.8-2.9-3.4-4.2-.6-1.3-.9-2.1-.6-2.8.3-.7.8-1.1 1.7-1.5 1-.5 2.1-.8 2.1-.8l-.4-.9s-2.5 1-3.5.9c-1-.2-1.6-.5-1.8-1.8-.2-1.3-.3-3.9.2-6 .4-2 2.9-4.9 4.4-5.6 1.5-.7 2.6-.2 2.9.2.3.4 1.7 3 1.7 3l1.5 3.5s-2 2-1.6 4.3c.4 2.3 2.1 4.2 4.7 4.1 2.6-.1 4.7-2 4.7-4.3.1-2.2-1.2-4.7-3.4-5.1-2.2-.4-2.7 0-3.1.2-.4.1-1.4.8-1.4.8l-1.5-3.5 1.4-.5M29.8 342.2c-.2.9-.9 3.2-.9 4.1 0 2.3 2.9 1.9 4.9 1.9l-.3 1.2c-2.8-.1-5.4-.2-8.2-.2-2.5.1-5.1.2-7.6.2l.3-1.2c4.8.2 5.2-1.5 6.4-5.6l6.3-22.2c.3-.9 1-3.3 1-4.2 0-2.3-3.5-1.9-4.8-1.9l.3-1.2c2.4.1 4.8.2 7.3.2 6-.1 12-.2 18-.2l.8 8.8h-1.1c-1.4-6.4-4.2-7.6-10.3-7.6-1.4.1-2.9.2-4.3.3l-4.1 14.6H38c3-.1 4.5-1.4 6.3-5.8h1.1l-2.8 14h-1.1c0-3.5.5-7-4.1-7H33l-3.2 11.8m51.8-8.6c-.9 3.1-3.3 10.3-3.3 13.3 0 .7.2 1.6 1 1.6 1.8 0 4.9-5.3 5.6-6.9l1.3.6c-1.6 3-4 8-8 8-2.6 0-3.8-1.9-3.8-4.3 0-2 1.4-6.7 2.1-8.8l5.6-18.4c.2-.5.6-1.7.6-2.3 0-2-2.7-1.7-4-1.8l.3-1.2 9.2-.5-6.6 20.7m46.2 9.4c-2.3 3.4-5.4 7.1-9.8 7.1-3.8 0-6.2-2.5-6.2-6.3 0-6.9 6.6-18.2 14.3-18.2 2.3 0 4 1.5 4 3.8 0 5.8-8.1 9-12.5 10.8l-.9.4c-.5 1.6-.9 3.3-.9 5.1 0 1.7.8 3.1 2.7 3.1 3.7 0 6.3-4 8.3-6.6l1 .8m-.7-14.3c0-1.1-.6-1.8-1.7-1.8-4 0-7.3 9-8.2 12.3 3.9-1.7 9.9-5.6 9.9-10.5zm44 14.3c-2.3 3.4-5.4 7.1-9.8 7.1-3.9 0-6.2-2.5-6.2-6.3 0-6.9 6.6-18.2 14.3-18.2 2.3 0 4 1.5 4 3.8 0 5.8-8.1 9-12.5 10.8l-.9.4c-.5 1.6-.9 3.3-.9 5.1 0 1.7.8 3.1 2.7 3.1 3.7 0 6.3-4 8.3-6.6l1 .8m-.7-14.3c0-1.1-.6-1.8-1.7-1.8-4 0-7.3 9-8.2 12.3 3.9-1.7 9.9-5.6 9.9-10.5zm41.2-10l-2.4 7.6h4.3l-.4 1.2h-4.3l-.4 1.4c-.8 2.7-4.6 16-4.6 17.9 0 .8.1 1.5.9 1.5 2.3 0 4.7-5.4 5.6-7.2l1.1.6c-1.6 3.1-3.6 8.3-7.9 8.3-2.1 0-3.7-1.5-3.7-3.7 0-2.3 1.1-5.7 1.8-8l3.1-10.8h-4.3l.4-1.2h4.3l2.6-7.6h3.9m91.4-4.9h.7l-2 9.4h-.9c-.2-5.3-2.2-9.4-7.4-9.4-3.2 0-5.9 2.3-5.9 5.6 0 7.5 12.9 10.4 12.9 20.5 0 6.2-5 10.2-10.9 10.2-3.6 0-7.6-1.5-10.2-4.1l-1.8 2.3h-.7l1.8-10.2h1.1c.4 5.8 2.4 10.8 9 10.8 3.9 0 6.7-3.1 6.7-6.9 0-8.4-12.6-11.1-12.6-20.5 0-5.6 4.7-8.9 9.9-8.9 3.3 0 6 1.1 8.6 3.2l1.7-2m38.5 4.9l-2.4 7.6h4.3l-.4 1.2h-4.3l-.4 1.4c-.8 2.7-4.6 16-4.6 17.9 0 .8.1 1.5.9 1.5 2.3 0 4.7-5.4 5.6-7.2l1.1.6c-1.6 3.1-3.6 8.3-7.9 8.3-2.1 0-3.7-1.5-3.7-3.7 0-2.3 1.1-5.7 1.8-8l3.1-10.8h-4.3l.4-1.2h4.3l2.6-7.6h3.9m26.2 15c1-2.5 4.1-8.1 7-8.1 2.8 0 3.7 2.9 3.6 5.1-.1 1.2-.3 2.4-.4 3.6l.1.1c1.2-3.1 3.8-8.9 7.7-8.9 1.5 0 3.1.9 3.1 2.5 0 1.1-1 2-2.1 2-1 0-1.8-.7-1.8-1.8 0-.3.1-1.2-.4-1.2-1.2 0-3 3-3.5 3.8-2 3.9-3.6 8.8-5 13l-1.8 5.2h-4.1l2.8-9.1c.7-2.7 1.6-7.2 1.6-10 0-.5.1-3-.9-3-1.3 0-4.3 5.6-4.8 6.9l-1.1-.1m58.9 9.3c-2.3 3.4-5.4 7.1-9.8 7.1-3.9 0-6.2-2.5-6.2-6.3 0-6.9 6.6-18.2 14.3-18.2 2.3 0 4 1.5 4 3.8 0 5.8-8.1 9-12.5 10.8l-.9.4c-.5 1.6-.9 3.3-.9 5.1 0 1.7.8 3.1 2.7 3.1 3.7 0 6.3-4 8.3-6.6l1 .8m-.8-14.3c0-1.1-.6-1.8-1.7-1.8-4 0-7.3 9-8.2 12.3 3.9-1.7 9.9-5.6 9.9-10.5zm44 14.3c-2.3 3.4-5.4 7.1-9.8 7.1-3.9 0-6.2-2.5-6.2-6.3 0-6.9 6.6-18.2 14.3-18.2 2.3 0 4 1.5 4 3.8 0 5.8-8.1 9-12.5 10.8l-.9.4c-.5 1.6-.9 3.3-.9 5.1 0 1.7.8 3.1 2.7 3.1 3.7 0 6.3-4 8.3-6.6l1 .8m-.7-14.3c0-1.1-.6-1.8-1.7-1.8-4 0-7.3 9-8.2 12.3 3.9-1.7 9.9-5.6 9.9-10.5zm41.2-10l-2.4 7.6h4.3l-.4 1.2h-4.3l-.4 1.4c-.8 2.7-4.6 16-4.6 17.9 0 .8.1 1.5.9 1.5 2.3 0 4.7-5.4 5.6-7.2l1.1.6c-1.6 3.1-3.6 8.3-7.9 8.3-2.1 0-3.7-1.5-3.7-3.7 0-2.3 1.1-5.7 1.8-8l3.1-10.8h-4.3l.4-1.2h4.3l2.6-7.6h3.9"/></svg>