<svg xmlns="http://www.w3.org/2000/svg" viewBox="0 0 383.9 223.2"><path fill="#282828" d="M335.7 90.8c-.1 40.7-55.8 83.8-128.6 99-17.4 3.7-34.5 5.4-50.6 5.4-8.4 0-16.5-.4-24.2-1.3l24-92.1h15l-10.5 39.1H176c1.9-7 8.6-32.4 12.5-46.8h-30.3l4.6-17.8c.9-3.4 1.6-5.4 2.2-6.9 2.5-6.4 6.4-10 10.9-10.8 3.7-.6 5.1 1.7 5.1 3.2 0 2.9-2.3 3.5-2.2 7.5 0 2.9 1.9 7.3 7.9 7.3 5.8 0 9.5-4 9.8-10 .1-2.9-.4-6.1-4.7-9.1-4.6-3.2-12.7-3.9-18.3-3.4-10.1.9-17.3 7.2-21.8 14.8-3.4 5.8-5.4 11.1-8.9 24.6 0 0-17.7 68.3-25.5 98.1-36.5-7.3-62.9-25.2-68.1-50.4-.7-3-1-6.1-1-9.2 0-40.6 53.6-83.3 126.3-98.4 17.7-3.7 35.2-5.5 51.7-5.5 56.3 0 101.6 20.4 108.6 53.8.6 2.9.9 5.9.9 8.9m-67.2 35.5c-.8.8-7.6 7.3-14.8 7.3-5.3 0-9.2-3.8-9.2-8.4 0-1-.1-1.6.1-3.4 8.5 0 13.5-1 18.5-2.6 8-2.6 13.3-9.4 13.3-16.1 0-6.4-7-10.2-15.1-10.2-16.3 0-31.5 14.5-31.5 31.4 0 10.8 7.9 18 19.5 18 5.4 0 10.3-1.2 14.5-3.4 2.7-1.4 5.1-3.4 7.3-5.5l-2.6-7.1zm-8.2-14.8c-3.6 2.8-7.6 3.9-14.5 4.1 1.1-5.2 4.1-9.8 7.9-12.7 2.2-1.7 5-2.6 6.7-2.6 3.7 0 4.6 2.1 4.6 3.4 0 2.4-1.4 5.3-4.7 7.8M233.8 94h-38.3l-2.1 7.6h21.3c-4.7 7.3-29.4 24.3-29.4 39.1h39.2l2.5-9.4h-24.1c5.7-10.9 26.5-22.7 30.9-37.3m81.4-.8c-6.1 0-12.6 5.9-16.1 10.2l2.7-9.4h-14.9l-12.7 46.8h15.4l5.9-21.9c.4-1.6 1.2-3.7 2.3-6.1 1.6-3.4 3.7-6.8 6.1-9 1.9-1.6 3.6-2.5 5.8-2.2 1.5.2 1.9 1.5 2.1 2.8.1 1.1.4 2.5 1.6 3.7.5.5 1.7 1.6 4.6 1.6 3.7 0 7-3.1 7-7.8-.1-3.6-1.4-8.7-9.8-8.7m-194.7 1c-3.7 12.1-11.5 14.2-23.7 14.2 3-11.1 6.1-22.6 8.3-30.7h2.7c14.6 0 15.8 6.6 12.7 16.5m-10.9-23.6H91.7s-16.2 59.8-18.9 70.2h15.4c1-3.6 3.7-13.5 6.7-24.9 31.5-.1 38.9-8.8 41.8-21.2 2.3-10.1.4-24.1-27.1-24.1"/></svg>