<svg xmlns="http://www.w3.org/2000/svg" viewBox="0 0 226.6 135.9"><path fill="#282828" d="M27.5 32.8c-1.4-1.3-3.3-2.3-5.4-2.3-2.3 0-3.6 1.3-3.6 3.6 0 6.1 11.1 6.4 11.1 16.3C29.6 56.9 25.8 62 19 62c-2 0-4.6-.6-6.2-1.9v-6.9c1.7 1.2 3.3 2 5.5 2 2.3 0 4.2-1.6 4.2-4.1 0-2.9-2.3-3.9-4.3-5.4-4.2-2.9-6.8-5.6-6.8-11 0-5.8 3.3-10.9 9.7-10.9 2.3 0 4.5.6 6.5 1.9v6.9h-.1zm14.6 7.3c3.5.1 5.5-1.2 5.5-4.9 0-2.6-1-4.8-4.2-4.8h-1.3v9.7zm-7.2 21.2V24.4h7.5c1.6 0 12.6-1 12.6 10.9 0 6.9-4.5 10.9-11.1 10.9h-1.7v15.2h-7.3zM67 39.4l-.9-5.6H66l-.7 5.6-1.6 9.8h5.2L67 39.4zm3.3-15l8.8 36.9h-7.8L70.1 55h-7.4l-1.3 6.2h-7.2l8.5-36.9h7.6zm29.4 6.9c-.9-.3-1.9-.4-2.7-.4-6.4 0-9.3 5.8-9.3 11.6 0 5.5 2.7 12.3 9.1 12.3.9 0 1.9-.3 2.7-.6v6.9c-1 .4-2.2.6-3.3.6-10.4 0-16.2-9.5-16.2-19.2C80 33.4 86.1 24 96.1 24c1.3 0 2.5.3 3.8.7v6.7h-.2zm18.5-6.9v6.8h-7.5v8.1h6.5v6.8h-6.5v8.4h7.5v6.8h-14.7V24.4zm-97.3 57c0-1-.7-2-1.7-2-1.2 0-2.2.9-2.2 2.2 0 1.4.9 2.5 1.4 3.6 1.4-.8 2.5-2.2 2.5-3.8m-4.1 13.4c-1 .7-1.7 2.3-1.7 3.6 0 2.6 1.6 4.8 3.9 4.8 1 0 1.6-.3 2.5-1l-4.7-7.4zm7.7 12.2c-1.7 1.6-4.2 2.6-6.5 2.6-5.8 0-9-5.1-9-10.7 0-4.2 1.2-7.1 4.2-9.5-1.3-2.3-2.5-4.9-2.5-7.5 0-4.9 3.6-8 8.2-8 4.2 0 8.1 2.6 8.1 7.2 0 4.2-2.7 7.4-5.6 9.8l4.6 7.5c1.2-1.3 2.5-2.5 3.5-3.9l3.8 5.2c-1 1.3-2.3 2.5-3.6 3.6l-.3.3 3.8 5.8h-7.4l-1.3-2.4zm31.4-33.3v6.5h-5.5v29h-7v-29h-5.6v-6.5zm3.4 0h7.1v35.4h-7.1zm22.6 0l3.5 20.8 2.9-20.8h9.4l3.7 35.5h-7.2l-1.7-25.7h-.2l-1 8.9-3 16.8h-5.5l-3.3-17.1-1.2-7.8v-.8h-.1l-1.1 25.7h-7.5l3.1-35.5zm36.3 0v6.5h-7.1V88h6.3v6.5h-6.3v8h7.3v6.7h-14.3V73.7zm75.4 3.3l-60.8 35.2 8.4 4.8 72.4-41.7-54.9-31.7v13.3z"/><path fill="#282828" d="M154.5 76.7V36.4l61.1 35.3V62l-64.2-37.2L143 20v63.4z"/><path fill="#282828" d="M173.8 70.4l-35 20.2V20l-8.4 4.8v83.9l55-31.7z"/></svg>