<svg xmlns="http://www.w3.org/2000/svg" viewBox="0 0 544.2 269.3"><style>.st0{fill:#fff}.st1{fill:#3c3c3c}</style><path class="st0" d="M248 2c.1 1.4-.3 2.7-1.2 3.7-3.6 3.2-7.8 5-11.5 7.8 13.1 11.5 19.5 28 15 45.1-1.8 5.6-4.2 10.9-7.6 15.7 5.5-.4 12.4-1.7 17.2 1.4l4.2 3.1c10.6-9 22.8-16.3 37.5-13.3 5.6 1.4 10.9 6.7 13.1 11.9 15-9 32-15.2 50.9-12.8 3.3.8 6.4 1.9 9.6 3.1 17.8-11 45.1-16.4 64.8-5.8l11-22.8h-2.2l-189 18c3.5-18-2.2-34.4-16.5-45.8l218.9 3.5c2.2-3.8 4-8.1 6-12.2h20.6c-1.5 4.2-3.5 8.7-5.2 13.1 20.1.4 40.3.5 60.5.8L536.5 31l-1 .3-61.4 5.7L429 139.8c-.3 1.2-.6 2.7-.1 4 .5.9 1.5 1.9 2.6 2.2 4.6.5 7.9-2.6 11.4-5.4l18.6-16.5c-3.7-11.4-2.7-25.6 7-33.8 7.3-6.8 17.4-10.2 27.4-7.3l26.5-30.6c1.2-5 2.4-10.6 7.8-13.2 2.8-1.2 6.5-.8 9 1 1.9 1.7 2.8 4.1 2.6 6.7-.4 5.6-6.7 7.8-10 11.5-1.7 3.3-.1 7 .9 10.2 5.9 14.1 15.1 28.2 10.4 45.2-2.7 13.3-14.1 27-27.4 31.1-4.9 13.8-12.3 27.4-25.2 37.1-6.9 5.2-14.5 8.7-22.5 11.1l-232.4 65.2c-6.5 2.2-12.7 5.4-17.8 11-6.4-6.7-7.2-17.4-4.6-26.1 3.8-14.3 18.6-26.9 32.8-29.7l224.5-48.9c9.3-2.4 18.9-6.8 24.7-16-11 .3-19.7-5.6-27.8-12.7-12.5 14.6-26.8 27.8-45.4 28.7-7.9.8-15-2.9-18.6-9.9-4.7-10.4.8-20.9 5.4-29.6l26.4-52.9c-14.7-8.7-36.2-5.4-49.5 4.2 15 19.6 8.4 50.3-2.7 69.5-11.4 19.1-30.5 39.4-53.8 39.7-7.6 0-14.6-5.9-17.4-12.7-6.7-14.5-1.7-31.9 4.1-45.2 8.1-19.6 23.6-38.3 41.9-51.7-16-3.7-28.8 5.9-40.2 15.7-6.8 37.6-22.8 72.1-54 98.6-10.4 7.8-22.3 14-36.1 11.4-11.3-3.6-14.7-15.6-15.7-26-.9-26.4 10.4-47.9 24.2-68.2 5.4-7.2 11.3-14.3 18-20.9-4.7-1.4-10.8-1.9-15.2.5-18.3 9.2-34 24.4-53.9 29.8 17.7 25.6 19.8 66.8 4.7 94.3-15.4 30.1-46.3 47.7-80.1 45.6-13.6-.9-25.9-5.2-37-12h-.4c-16.4 10.8-38 17.4-58.2 10.8-5.1-1.8-11-6.4-12.7-11.9-2.2-7.7-.3-16 6.1-20.9 5.1-4.4 13.4-5.5 19.8-2.9 5 1.9 8.8 7.2 9 12.5.4 5.5-2.8 10-7.3 12.8-.8.3-1.3.9-2 1.2 12.9 2.4 22.7-5.1 31.5-13.6-8.8-11.6-12.5-30.1-5.4-43.6 6.5-13.2 20.1-21.1 34.8-19.5 3.2.4 6.1 1.3 9.1 2.3l27.4-57.2v-.1c-5.9-3.6-12.9-9.6-11.4-17.4 2-7.3 9.9-11.3 16.8-12.3 3.8-.4 7.3.4 10.9.6 16.4-26.4 39.9-55.2 67.8-70.5-14.2-4.1-32-6-46.6-1.5-24.2 6.3-49 22.5-60.9 46.5-2.4 5.9-4.9 13.7-1.5 19.8 2.6 4.2 7 6.5 11.4 7.6-1.8 6-6.7 12.4-13.1 14-10.4 2.8-20-1.8-26.4-10.2-7.6-9.2-4.2-23.7.8-33C86.1 33.7 111.5 17.4 136.2 9c26-8.4 61.3-13.8 86.9-.8 6.9-3 13.5-6.2 20.7-8.2 1.7 0 3.5.5 4.2 2z"/><path class="st1" d="M211.9 75.1c-8.7 13.1-22 23.2-35.2 29.2-3.2-3.1-6.5-5.9-10.1-8.3 14.3-24.2 28.2-49.3 51.8-68.7 8.1 15.5 2.2 34.7-6.5 47.8zm315.2 26.5c-1 4.1-2.2 7.9-3.6 11.8-1.4-10.5-6.3-20.1-15.6-26.8 4.9-6.9 10.5-14 15.9-20.9-.7 12.6 6.6 23.1 3.3 35.9zM297.1 82c3.6 4.7 1.2 11.6.3 16.8-6.9 21.6-18.8 41-31.9 59.9-6.9 9.1-14.6 19.6-24.7 25-2 .8-4.9 1.8-6.9.4-4.5-4-1.8-11-1-16 6.3-21.4 18.6-40.3 31.6-58.9 7.6-9.2 15.7-19.2 25.5-26.5 1.9-1.3 5-2.7 7.1-.7zm70.1 47.8c-6.7 14.2-13.3 29.2-27.1 39.6-2.8 1.5-6 3.2-9.5 1.9-4.7-4.2-2.7-11.9-2.2-17.5 5.4-27.1 22.7-50.3 45.2-69.5 7.7 15.4-1.5 31.4-6.4 45.5zm120.4-36.7c-5.4 6.7-10.9 13.2-16.3 19.7-.6-6 1-11.5 5.8-15.5 3.1-2.5 6.6-3.9 10.5-4.2zm-357.3 11.2c-1.9-.8-4.1-2.3-4.5-4.5-.3-1.2.1-2 .8-2.9 2.4-2 5.8-2.3 9-1.9l-5.3 9.3zm382.3 17.8c-.6 3.6-1.5 7-2.8 10.2-8.7 5.2-22.4 5.9-30.7-.8-1.4-1.3-3.2-2.3-4-4l25.7-32.3c9.4 6 12.7 16.2 11.8 26.9zm-353.4-11.9l3.5-7.3 4.7 5.4zm12.7 10.1c12.7 30 .8 62.7-16.6 86.8-13.6 17.9-32 30.2-54.7 28-5-.5-9.6-1.7-14.3-2.6 22.3-20.6 34.7-45.8 47.4-70.7l20.9-41.7c5.5 1 11.6 1.4 17.3.2zm-92.4 84.5c-2.6 5.5-6.1 10.5-10 15.5-4.9-6.3-7.3-15.7-3.7-23.6 1.5-3.7 4-7.2 7.2-10.4-1.9 7 .8 14 6.5 18.5z"/></svg>