<svg id="Layer_1" xmlns="http://www.w3.org/2000/svg" viewBox="0 0 383.9 223.2"><style>.st0{fill:#fff}</style><path class="st0" d="M383.9 83.8c-.1 54.3-74.5 111.9-171.7 132.2-23.3 4.9-46.1 7.2-67.6 7.2-11.2 0-22-.6-32.3-1.7l32-123h20l-14 52.2h20.4c2.5-9.3 11.5-43.3 16.7-62.5H147l6.1-23.8c1.2-4.5 2.2-7.2 3-9.2 3.3-8.5 8.5-13.4 14.6-14.4 5-.8 6.8 2.3 6.8 4.3 0 3.9-3.1 4.7-3 10 0 3.9 2.5 9.7 10.5 9.7 7.8 0 12.7-5.3 13.1-13.3.2-3.9-.5-8.1-6.3-12.1-6.1-4.3-17-5.2-24.4-4.6-13.5 1.2-23.1 9.6-29.1 19.7-4.6 7.8-7.2 14.8-11.9 32.8 0 0-23.7 91.2-34.1 131-48.8-9.7-84-33.6-91-67.3-.9-4-1.3-8.1-1.3-12.3C0 84.5 71.6 27.5 168.6 7.3c23.7-4.9 47-7.3 69.1-7.3 75.2 0 135.7 27.2 145 71.8.8 4 1.2 8 1.2 12m-89.7 47.4c-1.1 1.1-10.1 9.8-19.7 9.8-7.1 0-12.3-5.1-12.3-11.2 0-1.3-.1-2.2.2-4.6 11.3 0 18-1.3 24.7-3.5 10.7-3.5 17.8-12.6 17.8-21.5 0-8.6-9.4-13.6-20.2-13.6-21.8 0-42.1 19.3-42.1 41.9 0 14.4 10.5 24.1 26.1 24.1 7.2 0 13.7-1.6 19.4-4.6 3.6-1.9 6.8-4.5 9.7-7.4l-3.6-9.4zm-11-19.7c-4.8 3.8-10.1 5.2-19.4 5.5 1.5-6.9 5.5-13.1 10.6-17 3-2.3 6.7-3.5 9-3.5 5 0 6.1 2.8 6.1 4.6 0 3.1-1.9 7-6.3 10.4m-35.4-23.4h-51.1l-2.8 10.2h28.5c-6.3 9.7-39.3 32.5-39.3 52.2h52.3l3.4-12.6h-32.2c7.6-14.6 35.3-30.3 41.2-49.8M356.5 87c-8.1 0-16.8 7.9-21.5 13.6l3.6-12.5h-19.9l-16.9 62.5h20.6l7.9-29.2c.6-2.1 1.6-5 3.1-8.1 2.1-4.5 4.9-9.1 8.2-12 2.5-2.2 4.8-3.3 7.7-2.9 2 .3 2.6 2 2.8 3.7.2 1.5.5 3.3 2.2 5 .7.7 2.3 2.2 6.1 2.2 5 0 9.3-4.2 9.3-10.4-.2-5.1-1.9-11.9-13.2-11.9M96.6 88.3c-5 16.1-15.3 19-31.6 19 4-14.8 8.2-30.2 11.1-41h3.6c19.4 0 21 8.8 16.9 22M82 56.9H58.1s-21.6 79.8-25.3 93.7h20.6c1.3-4.8 4.9-18 9-33.3 42.1-.1 51.9-11.8 55.8-28.3 3.1-13.4.5-32.1-36.2-32.1"/></svg>