<svg id="Layer_1" xmlns="http://www.w3.org/2000/svg" viewBox="0 0 344.1 48.6"><style>.st0{fill:#fff}</style><path class="st0" d="M16.6 27.1v12.4l3.7 1.5v3.4H3.5V41l3.7-1.5V11.6L3.5 10V6.7h16.9c2.8 0 4.9.2 6.3.5 1.4.3 3 1 4.7 2.2s2.5 3.4 2.5 6.5c0 4.8-2.5 7.8-7.6 9l9.2 14.6 3.1 1.5v3.4H27.2l-9.9-17.3h-.7zm0-3.7h1.2c4.1 0 6.2-2.2 6.2-6.6 0-4.2-1.9-6.3-5.8-6.3h-1.6v12.9zM47 29.6c.3 3.3 1.3 5.8 3.1 7.6 1.7 1.8 4.1 2.6 7.1 2.6 1.2 0 2.2-.1 3-.2.8-.1 1.5-.3 2.2-.4l.6 3.6-1.1.3-3.4.8c-3.1.8-5.7 1.1-7.6 1.1-3.8 0-6.9-1.3-9.2-4-2.3-2.6-3.5-6.2-3.5-10.6 0-5.1 1.3-9.2 3.8-12.2s5.9-4.5 10.2-4.5c3.5 0 6 .9 7.6 2.6s2.6 3.4 3.1 5 .7 4 .7 7v1.2H47v.1zm0-3.2l7.8-1v-1.7c0-2.4-.3-4.1-.8-5.1s-1.5-1.5-2.8-1.5c-1.4 0-2.5.6-3.2 1.9s-1 3.3-1 6.1v1.3zm30.4-6.7v19.8l3.1 1.5v3.4H64.7V41l3.7-1.5V19.8l-3.7-1.1v-3.4l12.7-1.8v3.3l3.2-1.5c1.2-.6 2.2-1 3-1.2s1.6-.3 2.4-.3c2.1 0 3.7.6 4.9 1.8 1.2 1.2 1.9 2.4 2.3 3.6.4 1.2.6 3 .6 5.2v15.2l3.7 1.5v3.4H81.7V41l3.1-1.5V26c0-2.4-.4-4.1-1.1-5.1s-1.9-1.5-3.7-1.5c-.6-.1-1.5.1-2.6.3zM117.2 42l-.9.5c-2.2 1.1-3.7 1.8-4.5 2.1s-1.8.5-2.8.5c-3 0-5.5-1.3-7.4-3.9-1.9-2.6-2.9-6-2.9-10.2 0-5.1 1.3-9.3 4-12.4 2.7-3.2 6.2-4.7 10.6-4.7 1.1 0 2.4.2 3.9.5V9l-3.7-1.1V4.5l12.7-1.9v36.1l3.7 1.1v3.4L117.2 45v-3zm0-24.3h-1.3c-2.4 0-4.3 1-5.7 2.9-1.4 1.9-2 4.7-2 8.2 0 7.3 2.3 11 6.9 11 .7 0 1.4-.1 2.1-.3V17.7zm22.7 11.9c.3 3.3 1.3 5.8 3.1 7.6 1.7 1.8 4.1 2.6 7.1 2.6 1.2 0 2.2-.1 3-.2.8-.1 1.5-.3 2.2-.4l.6 3.6-1.1.3-3.4.8c-3.1.8-5.7 1.1-7.6 1.1-3.8 0-6.9-1.3-9.2-4-2.3-2.6-3.5-6.2-3.5-10.6 0-5.1 1.3-9.2 3.8-12.2s5.9-4.5 10.2-4.5c3.5 0 6 .9 7.6 2.6s2.6 3.4 3.1 5 .7 4 .7 7v1.2h-16.6v.1zm0-3.2l7.8-1v-1.7c0-2.4-.3-4.1-.8-5.1s-1.5-1.5-2.8-1.5c-1.4 0-2.5.6-3.2 1.9s-1 3.3-1 6.1v1.3zm21.5 13.1V19.8l-3.7-1.1v-3.4l12.7-1.8v3.4c2.3-1.2 4.1-2 5.4-2.4 1.3-.5 2.5-.7 3.6-.7 1.2 0 2.2.2 3.1.7.9.5 1.8 1.3 2.8 2.4 4.2-2.1 7.5-3.1 10.1-3.1 2.3 0 4.1.6 5.4 1.7 1.2 1.2 2.1 2.3 2.4 3.5.4 1.2.6 2.9.6 5.2v15.2l3.4 1.5v3.4h-15.8V41l3.4-1.5V25.9c0-2.5-.4-4.2-1.2-5.1-.8-1-2.3-1.4-4.3-1.4h-1c-.2 0-.7.1-1.5.3.2.6.3 1.1.3 1.4s.1.8.1 1.5v16.9l3.1 1.5v3.4h-15.1V41l3.1-1.5V26c0-2.5-.4-4.3-1.2-5.2-.8-1-2.1-1.4-4.1-1.4-.9 0-1.7.1-2.4.3v19.9l3.1 1.5v3.4h-15.8V41l3.5-1.5zm56.1-9.9c.3 3.3 1.3 5.8 3.1 7.6 1.7 1.8 4.1 2.6 7.1 2.6 1.2 0 2.2-.1 3-.2.8-.1 1.5-.3 2.2-.4l.6 3.6-1.1.3-3.4.8c-3.1.8-5.7 1.1-7.6 1.1-3.9 0-6.9-1.3-9.2-4-2.3-2.6-3.5-6.2-3.5-10.6 0-5.1 1.3-9.2 3.8-12.2s5.9-4.5 10.2-4.5c3.5 0 6 .9 7.6 2.6s2.6 3.4 3.1 5 .7 4 .7 7v1.2h-16.6v.1zm0-3.2l7.8-1v-1.7c0-2.4-.3-4.1-.8-5.1s-1.5-1.5-2.8-1.5c-1.4 0-2.5.6-3.2 1.9s-1 3.3-1 6.1v1.3zm30.4-6.7v19.8L251 41v3.4h-15.8V41l3.7-1.5V19.8l-3.7-1.1v-3.4l12.7-1.8v3.3l3.2-1.5c1.2-.6 2.2-1 3-1.2s1.6-.3 2.4-.3c2.1 0 3.7.6 4.9 1.8 1.2 1.2 1.9 2.4 2.3 3.6s.6 3 .6 5.2v15.2L268 41v3.4h-15.8V41l3.1-1.5V26c0-2.4-.4-4.1-1.1-5.1-.7-1-1.9-1.5-3.7-1.5-.6-.1-1.5.1-2.6.3zm33-1v16.5c0 1.7.3 2.9 1 3.5s2 1 3.9 1h1.9v3.6l-1 .3-2.4.6c-1.4.4-2.5.6-3.2.7-.7.1-1.5.2-2.3.2-4.6 0-6.9-2.2-6.9-6.7V18.7h-3.1V15l3.1-1.1c.7-.2 1.2-.4 1.5-.6.3-.2.6-.5.9-1l.5-.7 2.8-4h3.3v6.5h6.8v4.6h-6.8zm9 22.8c0-1.3.3-2.2.9-2.7s1.7-.8 3.4-.8c1.4 0 2.4.3 3 .8s.9 1.3.9 2.5c0 1.3-.3 2.2-.9 2.7s-1.6.8-3.2.8c-1.5 0-2.6-.3-3.2-.8-.6-.3-.9-1.2-.9-2.5zm20.4-16.4v15.5l2.4 1.2v2.7h-12.4v-2.7l2.9-1.2V25.2l-2.9-.9v-2.7l10-1.4v2.6l2.5-1.1c.9-.4 1.7-.7 2.3-.9.6-.2 1.2-.3 1.9-.3 1.6 0 2.9.5 3.8 1.4s1.5 1.9 1.8 2.8c.3 1 .4 2.3.4 4v11.9l2.9 1.2v2.7h-12.4v-2.7l2.4-1.2V30c0-1.9-.3-3.2-.8-4-.6-.8-1.5-1.2-2.9-1.2-.4 0-1.1.1-1.9.3zm19.2 15.5V16.7l-2.9-.8v-2.7l10-1.5v28.9l2.9 1.2v2.7h-12.8v-2.7l2.8-1.2z"/></svg>