<svg xmlns="http://www.w3.org/2000/svg" viewBox="0 0 68 68"><g fill="#FFF"><path d="M33.6 49.4c-1 0-1.7-.2-2.4-.9l.9-.9c.4.4.8.6 1.5.6 1.2 0 1.6-.8 1.6-1.7v-.9c-.5.6-1.1.8-1.8.8s-1.2-.2-1.6-.6c-.7-.7-.8-1.6-.8-2.8 0-1.2.1-2.1.8-2.8.4-.4 1-.6 1.6-.6.7 0 1.3.2 1.8.8v-.7h1.3v6.7c0 1.8-1.1 3-2.9 3zm.2-8.4c-1.2 0-1.4 1.1-1.4 2.1s.2 2.1 1.4 2.1 1.4-1.1 1.4-2.1S35 41 33.8 41zm8.6.4c-.3-.3-.5-.5-1-.5-.7 0-1.4.6-1.4 1.5v4.1h-1.4v-6.8H40v.7c.3-.5 1-.8 1.8-.8.7 0 1.2.2 1.6.6l-1 1.2zm6.3 4.5c-.4.5-1.1.8-2 .8-.9 0-1.6-.3-2-.8-.6-.7-.8-1.5-.8-2.7 0-1.1.2-2 .8-2.7.4-.5 1.1-.8 2-.8.9 0 1.6.3 2 .8.6.7.8 1.5.8 2.7 0 1.2-.2 2-.8 2.7zm-1-4.6c-.3-.3-.6-.4-1-.4s-.7.1-1 .4c-.4.4-.5 1.1-.5 1.9s.1 1.4.5 1.9c.3.3.6.4 1 .4s.7-.1 1-.4c.4-.4.5-1.1.5-1.9s-.1-1.4-.5-1.9zm4.6 2.3c0 1.2.6 1.9 1.7 1.9.8 0 1.2-.2 1.6-.7l.9.8c-.7.7-1.4 1.1-2.5 1.1-1.7 0-3.1-.9-3.1-3.5 0-2.2 1.1-3.5 2.9-3.5 1.8 0 2.9 1.3 2.9 3.3v.6h-4.4zm2.9-1.9c-.2-.5-.7-.9-1.3-.9-.6 0-1.1.3-1.4.9-.1.3-.2.5-.2.9h3.1c0-.4-.1-.6-.2-.9zm8.1 4.4c-.4.4-1 .6-1.6.6-.7 0-1.3-.2-1.8-.8v3.4h-1.4v-9.5h1.3v.7c.5-.6 1.1-.8 1.8-.8s1.3.2 1.7.6c.7.7.8 1.8.8 2.9 0 1-.1 2.2-.8 2.9zm-2-5.1c-1.2 0-1.4 1-1.4 2.2s.2 2.3 1.4 2.3 1.4-1.1 1.4-2.3-.1-2.2-1.4-2.2zm-25.9-6.4c-1.5 0-2.7-.5-3.7-1.5-1.4-1.4-1.3-3.1-1.3-5.5s0-4.1 1.3-5.5c1-1 2.2-1.5 3.7-1.5 2.6 0 4.6 1.5 5 4.3h-2.7c-.3-1.1-1-1.9-2.3-1.9-.7 0-1.3.3-1.7.7-.5.7-.7 1.3-.7 4 0 2.6.2 3.3.7 3.9.4.4 1 .7 1.7.7 1.3 0 2-.8 2.3-1.9h2.7c-.5 2.8-2.5 4.2-5 4.2zm7.2-.1V20.8h9v2.4h-6.4v3.2h5.4v2.4h-5.4v3.3h6.4v2.4h-9zm20.1-1.3c-.9.9-2.2 1.3-3.6 1.3h-5V20.8h5c1.4 0 2.7.4 3.6 1.3 1.5 1.5 1.4 3.4 1.4 5.5s.2 4.1-1.4 5.6zM60.8 24c-.5-.6-1.1-.8-2-.8h-2v8.9h2c.9 0 1.5-.3 2-.8.5-.6.6-1.6.6-3.7s-.1-2.9-.6-3.6zm-45.7-3.3C10.2 19.4 7 16.9 7 13.9s3.7-3.2 5.6-3c0 0 .2 1.8.7 3.9 4.4 1.7 4.9 1.8 8.7 3-.3-1.7-.6-3.6-.9-4.7-2.6-1.5-6.5-2.9-10.1-2.9-4.6 0-8.6 2.4-8.6 6.2 0 4.3 3.3 7.6 8.8 8.9 6.4 1.5 9.5 1.2 12.1 1L25 22c-2.5 0-6.4-.3-9.9-1.3z"/><path d="M23.7 18.3c3.2.7 6.6-.8 7-3.4.5-2.9-1.4-5.6-5-7.1C21.6 6.2 18 5.9 14.8 6l-1.4 2.4c3.6.3 6.7 1.1 9 2.1 3.2 1.4 5.1 3.5 4.8 5.6-.3 2-2.3 2-3.6 1.6l.1.6zM12 61.2c0 .6.3 1 .9 1 .3 0 .5-.1.8-.3l.3.3c-.3.3-.6.4-1.1.4-.8 0-1.3-.5-1.3-1.5 0-.9.5-1.5 1.2-1.5s1.2.5 1.2 1.4v.2h-2zm1.5-.8c-.1-.3-.4-.4-.7-.4-.3 0-.6.2-.7.4-.1.2-.1.2-.1.5h1.5c.1-.3 0-.4 0-.5zm3.1 2.1v-.3c-.2.3-.5.4-.8.4-.3 0-.6-.1-.7-.3-.3-.3-.4-.8-.4-1.2 0-.5.1-.9.4-1.2.2-.2.4-.3.7-.3.3 0 .6.1.8.4v-1.6h.4v4.2h-.4zm-.8-2.6c-.6 0-.7.5-.7 1.1 0 .6.1 1.1.7 1.1s.7-.5.7-1.1c.1-.5 0-1.1-.7-1.1zm4.1 2.6v-.3c-.2.2-.5.4-.8.4-.3 0-.6-.1-.7-.3-.2-.2-.3-.5-.3-.8v-1.8h.4v1.8c0 .5.3.8.7.8.4 0 .7-.3.7-.8v-1.8h.4v2.9h-.4zm2.6 0c-.7 0-1.3-.5-1.3-1.5s.6-1.5 1.3-1.5c.4 0 .7.1 1 .4l-.3.3c-.2-.2-.4-.3-.7-.3-.3 0-.5.1-.7.3-.1.2-.2.4-.2.8s.1.6.2.8c.2.2.4.3.7.3.3 0 .4-.1.7-.3l.3.3c-.4.3-.6.4-1 .4zm3.8 0v-.3c-.2.2-.4.3-.8.3s-.6-.1-.8-.3c-.1-.1-.2-.4-.2-.6 0-.5.4-.8 1-.8h.9v-.3c0-.4-.2-.6-.7-.6-.4 0-.6.1-.7.3l-.4-.2c.3-.3.6-.4 1-.4.8 0 1.2.3 1.2 1v2h-.5zm0-1.3h-.8c-.4 0-.6.2-.6.5s.2.5.7.5c.2 0 .5 0 .6-.2.1-.1.1-.3.1-.5v-.3zm2.4 1.3c-.5 0-.7-.3-.7-.8v-1.8h-.4v-.3h.4v-.9h.4v.9h.6v.3h-.6v1.8c0 .3.1.4.4.4h.2v.4h-.3zm1.2-3.7v-.5h.5v.5h-.5zm0 3.7v-2.9h.4v2.9h-.4zm1.9-1.3c0 .6.3 1 .9 1 .3 0 .5-.1.8-.3l.3.3c-.3.3-.6.4-1.1.4-.8 0-1.3-.5-1.3-1.5 0-.9.5-1.5 1.2-1.5s1.2.5 1.2 1.4v.2h-2zm1.4-.8c-.1-.3-.4-.4-.7-.4-.3 0-.6.2-.7.4-.1.2-.1.2-.1.5h1.5c.1-.3.1-.4 0-.5zm2.4 2.1h-.4l-1.1-2.9h.5l.8 2.3.8-2.3h.5l-1.1 2.9zm2-1.3c0 .6.3 1 .9 1 .3 0 .5-.1.8-.3l.3.3c-.3.3-.6.4-1.1.4-.8 0-1.3-.5-1.3-1.5 0-.9.5-1.5 1.2-1.5s1.2.5 1.2 1.4v.2h-2zm1.5-.8c-.1-.3-.4-.4-.7-.4-.3 0-.6.2-.7.4-.1.2-.1.2-.1.5h1.5v-.5zm4.8 2.1v-.3c-.2.3-.5.4-.8.4-.3 0-.6-.1-.7-.3-.4-.3-.4-.8-.4-1.3s.1-.9.4-1.2c.2-.2.4-.3.7-.3.3 0 .6.1.8.4v-1.6h.4v4.2h-.4zm-.8-2.6c-.6 0-.7.5-.7 1.1 0 .6.1 1.1.7 1.1s.7-.5.7-1.1c.1-.5 0-1.1-.7-1.1zm2.3-1.1v-.5h.5v.5h-.5zm0 3.7v-2.9h.4v2.9h-.4zm1.9-1.3c0 .6.3 1 .9 1 .3 0 .5-.1.8-.3l.3.3c-.3.3-.6.4-1.1.4-.8 0-1.3-.5-1.3-1.5 0-.9.5-1.5 1.2-1.5s1.2.5 1.2 1.4v.2h-2zm1.4-.8c-.1-.3-.4-.4-.7-.4-.3 0-.6.2-.7.4-.1.2-.1.2-.1.5h1.5c.1-.3.1-.4 0-.5zm3.4 2.1v-1.8c0-.5-.3-.8-.7-.8-.4 0-.7.3-.7.8v1.8h-.4v-2.9h.4v.3c.2-.2.5-.4.8-.4.3 0 .6.1.7.3.2.2.3.5.3.8v1.9h-.4zm2.5 0c-.5 0-.9-.1-1.2-.4l.3-.3c.2.2.5.3.9.3.5 0 .8-.2.8-.5s-.1-.4-.5-.4h-.5c-.6 0-.9-.3-.9-.8s.4-.8 1.1-.8c.4 0 .8.1 1 .3l-.3.3c-.2-.2-.5-.2-.8-.2-.4 0-.6.2-.6.5 0 .2.1.4.5.4h.5c.5 0 .9.2.9.8 0 .5-.5.8-1.2.8zm2.8 0c-.5 0-.7-.3-.7-.8v-1.8h-.4v-.3h.4v-.9h.4v.9h.6v.3h-.6v1.8c0 .3.1.4.4.4h.2v.4h-.3zm1.6-1.3c0 .6.3 1 .9 1 .3 0 .5-.1.8-.3l.3.3c-.3.3-.6.4-1.1.4-.8 0-1.3-.5-1.3-1.5 0-.9.5-1.5 1.2-1.5s1.2.5 1.2 1.4v.2h-2zm1.4-.8c-.1-.3-.4-.4-.7-.4-.3 0-.6.2-.7.4v.4h1.5c0-.2 0-.3-.1-.4zm3.2 2.1v-1.8c0-.5-.3-.8-.7-.8-.4 0-.7.3-.7.8v1.8h-.4v-2.9h.4v.3c.2-.2.5-.4.8-.4.3 0 .6.1.7.3.2.2.3.5.3.8v1.9h-.4z"/></g></svg>