<svg id="Layer_1" xmlns="http://www.w3.org/2000/svg" viewBox="0 0 443.6 90"><style>.st0{fill:#fff}</style><path class="st0" d="M398.3 39.6c-9 0-13.7 6.2-13.7 14.3 0 8.4 4.7 14 13 14 8.4 0 13.5-5.5 13.5-14.2.1-8.8-4.7-14.1-12.8-14.1m-90.4 0c-9 0-13.7 6.2-13.7 14.3 0 8.4 4.7 14 13 14 8.4 0 13.5-5.5 13.5-14.2.1-8.8-4.7-14.1-12.8-14.1m-182 11.6h9.6v9c-2.9 2.6-7.4 3.6-11 3.6-9 0-14.2-5.9-14.2-16.2 0-10.9 5.5-17 14.1-17 5.1 0 8.9 1.8 12.5 5.2l3.2-3.6c-3.2-3.6-8.8-6.2-15.2-6.2-12.8 0-20.3 8.9-20.3 21.4 0 12.2 6.3 20.7 20 20.7 7.5 0 13.4-3.3 16.3-6.4V47H126v4.2zm141.6 16.2h4.9V51.8c0-4.5 1.9-7.6 6.6-7.6 4.4 0 5.7 1.9 5.7 6.4v16.8h5.1V49.1c0-6.2-2.6-9.5-8.5-9.5-4.1 0-7.1 1.5-8.9 4.1V26.6h-4.9v40.8zM264.9 31v-4.4h-28.8V31h11.8v36.4h5.4V31h11.6zm150.9 36.4h4.9V51.8c0-4.5 1.9-7.6 6.6-7.6 4.4 0 5.7 1.9 5.7 6.4v16.8h5V49.1c0-6.2-2.6-9.5-8.5-9.5-4.1 0-7.1 1.5-8.9 4.1l-.6-3.4h-4.3v27.1zm-225.7 0h4.9V51.8c0-4.5 1.9-7.6 6.6-7.6 4.4 0 5.7 1.9 5.7 6.4v16.8h5.1V49.1c0-6.2-2.6-9.5-8.5-9.5-4.1 0-7 1.5-8.9 4.1l-.6-3.4h-4.3v27.1zm152.6 0h4.9V51.8c0-4.5 1.9-7.6 6.6-7.6 4.4 0 5.7 1.9 5.7 6.4v16.8h5.1V49.1c0-6.2-2.6-9.5-8.5-9.5-4.1 0-7 1.5-8.9 4.1l-.6-3.4h-4.3v27.1zm55.2-3.5c-4.9 0-8-3.4-8-10.1 0-6.4 3.2-10 8-10 4.9 0 7.7 3.6 7.7 10.4.1 6.4-2.9 9.7-7.7 9.7m-90.4 0c-4.9 0-8-3.4-8-10.1 0-6.4 3.2-10 8-10 4.9 0 7.7 3.6 7.7 10.4.1 6.4-2.9 9.7-7.7 9.7m75.3-19.2v-4.4h-5.6v-7.7l-5.2.8v6.9h-3.9v4.4h3.9v17.2c0 3.9 1.4 6.2 7.1 6.2 1.3 0 3.1-.2 4.2-.6v-3.9c-1.2.3-2.3.4-3.1.4-2.4 0-3.1-1.1-3.1-3.6V44.7h5.7zm-152.4 0v-4.4h-5.5v-7.7l-5.2.8v6.9h-3.9v4.4h3.9v17.2c0 3.9 1.4 6.2 7.1 6.2 1.3 0 3.1-.2 4.2-.6v-3.9c-1.2.3-2.3.4-3.1.4-2.4 0-3.1-1.1-3.1-3.6V44.7h5.6zm95 22.7h5.1v-17c0-3.9 2.4-5.7 5.5-5.7 1.1 0 2.1.1 3.2.3v-5c-.9-.3-1.8-.4-2.7-.4-2.8 0-5 1.7-6.1 4l-.6-3.3h-4.4v27.1zm-179.2 0h5.1v-17c0-3.9 2.4-5.7 5.6-5.7 1.1 0 2.1.1 3.2.3v-5c-.9-.3-1.8-.4-2.7-.4-2.8 0-5 1.7-6.1 4l-.6-3.3h-4.4v27.1zm14.3-7.4c0 3.9 2.2 8 9.2 8 4.1 0 6.9-1.6 8.8-4.1l.7 3.4h4.4V48.9c0-7.9-4.7-9.3-10.4-9.3-4.2 0-9.8 1.2-11.2 7.6h5.4c.7-2.4 2.3-3.7 5.7-3.7 2.8 0 5.5 1 5.5 5.5v1.9h-5.9c-7.1 0-12.2 2.4-12.2 9.1m10.8 4.1c-4 0-5.5-1.7-5.5-4.6 0-3.2 1.8-4.9 6.6-4.9h6.2v1.9c0 4.9-3.1 7.6-7.3 7.6M43.8 31.4c5.9 2.2 10.8 6.8 14.2 13.5.1.2.2.4.3.7.1-.2.1-.4.2-.7 0-.1.1-.3.1-.4l.1-.3.3-1.5c0-.3.1-.5.1-.8.1-.4.1-.9.1-1.3 0-.3 0-.5.1-.8v-2.1c0-.6 0-1.2-.1-1.7v-.1c-.1-.7-.2-1.3-.3-2 0-.1-.1-.3-.1-.4v-.2l-.3-1.2c-.1-.2-.1-.5-.2-.7-.1-.4-.2-.7-.3-1.1-.1-.2-.2-.5-.2-.7-.1-.4-.3-.7-.4-1.1l-.1-.2c-.1-.1-.1-.3-.2-.4-.2-.4-.4-.9-.6-1.3l-.2-.4-.9-1.5c-.1-.1-.1-.2-.2-.3l-.2-.2c-.2-.3-.4-.7-.7-1-.1-.2-.3-.3-.4-.5-.3-.4-.5-.6-.7-.9-.2-.2-.3-.4-.5-.6-.2-.3-.5-.5-.7-.8l-.1-.1-.4-.4-.9-.9-.4-.4c-.4-.4-.9-.8-1.3-1.1l-.3-.3-.2-.1c-.3-.2-.6-.5-.9-.7-.2-.1-.3-.2-.5-.4h-.1c-.3-.2-.5-.4-.8-.6-.2-.1-.4-.3-.7-.4-.3-.2-.6-.3-.8-.5l-.1-.1-.6-.3c-.3-.2-.6-.3-1-.5l-.2-.1c-.1-.1-.2-.1-.4-.2-.5-.2-1-.5-1.5-.7-.1-.1-.3-.1-.4-.2l-.2-.1c-.3-.1-.6-.2-1-.4-.2-.1-.4-.1-.6-.2h-.1l-.9-.3c-.2-.1-.5-.1-.7-.2-.3-.1-.6-.1-.9-.2-.3-.1-.5-.1-.7-.2-.3-.1-.6-.1-.9-.2h-.2c-.1 0-.3 0-.4-.1-.5-.1-1-.1-1.5-.1h-2c-.4 0-.7 0-1.1.1h-.3c-.4 0-.9.1-1.3.2-.1 0-.3 0-.4.1-.4.1-.8.2-1.1.3H26c-.5.1-.9.3-1.3.4-.1 0-.2.1-.4.1-.4.2-.8.3-1.1.5l-.3.2-.6.3C5.5 22.8-1.4 43.4 5.2 61.1v-3.7c0-.3.1-.7.1-1v-.7c.1-.5.2-1.1.3-1.6 0-.1.1-.3.1-.4l.1-.2c.1-.4.2-.7.3-1.1-.1 0-.1-.2 0-.4l.1-.2c.1-.3.2-.7.3-1 .1-.2.2-.5.2-.7.1-.4.2-.7.4-1 .1-.2.2-.5.3-.7.1-.3.3-.6.4-1l.3-.6c.2-.3.3-.7.5-1l.1-.2c.1-.1.2-.3.2-.4.2-.4.4-.7.7-1.1l.1-.2c.1-.1.1-.2.2-.3.3-.5.7-1 1-1.5l.2-.3.9-1.2.3-.3.1-.2c.3-.3.5-.6.8-.9.1-.2.3-.3.4-.4l.1-.1c.3-.3.5-.6.8-.8.2-.2.4-.3.5-.5.3-.3.6-.5.9-.8.2-.2.4-.3.6-.5.3-.2.6-.5.9-.7l.1-.1c.1-.1.3-.2.4-.3.3-.3.7-.5 1.1-.7l.2-.1c.1-.1.2-.1.3-.2.5-.3 1.1-.7 1.7-1 .5-.3 1.1-.6 1.7-.8.1-.1.3-.1.4-.2l.2-.1c.4-.2.8-.3 1.2-.5.2-.1.3-.1.5-.2l.2-.1c.4-.1.8-.2 1.1-.4.3-.1.5-.1.8-.2l1.2-.3c.3-.1.6-.1.8-.2.4-.1.8-.1 1.2-.2h.1c.2 0 .5-.1.7-.1.4 0 .9-.1 1.3-.1h3.1c.3 0 .7.1 1 .1l.6.1c.2 0 .4 0 .7.1.4.1.8.2 1.3.2l.5.1c.2 0 .3.1.5.1.8.2 1.6.4 2.4.7.5.2.8.3 1.1.4z"/><path class="st0" d="M26.9 46.1c2.2-5.9 6.8-10.8 13.4-14.2.2-.1.4-.2.7-.3-.3-.1-.5-.2-.8-.2-.2 0-.3-.1-.5-.1l-.6-.1c-.3-.1-.7-.2-1.1-.2-.2 0-.4-.1-.6-.1l-.6-.1c-.3 0-.7-.1-1-.1h-2.9c-.4 0-.8 0-1.2.1-.2 0-.5 0-.7.1h-.1c-.4 0-.8.1-1.2.2-.3 0-.5.1-.8.1-.4.1-.7.2-1.1.2-.3.1-.5.1-.8.2-.4.1-.7.2-1.1.3l-.2.1c-.2.1-.3.1-.5.2-.4.1-.8.3-1.2.5l-.2.1c-.1 0-.2.1-.3.1-.6.3-1.1.5-1.7.8-.5.3-1.1.6-1.6.9-.1.1-.2.1-.3.2l-.2.1c-.3.2-.7.5-1 .7-.1.1-.3.2-.4.3l-.1.1c-.3.2-.6.5-.9.7-.2.1-.3.3-.5.4-.3.3-.6.5-.9.8-.2.2-.4.3-.5.5l-.8.8-.1.1-.4.4c-.3.3-.5.6-.8.9l-.3.3-.3.3-.9 1.2-.2.3c-.4.5-.7 1-1 1.5l-.3.5c-.2.4-.4.7-.6 1.1l-.3.6c-.2.3-.3.6-.5 1l-.3.6c-.2.4-.3.7-.4 1-.1 0-.2.3-.2.5l-.3.9c-.1.3-.2.5-.2.7l-.3.9-.2.3c0 .2-.1.3-.1.5-.1.3-.2.7-.2 1l-.1.2c0 .1-.1.2-.1.4-.1.5-.2 1-.3 1.6v.5c0 .4-.1.7-.1 1v3.1c0 .2 0 .5.1.7 0 .3.1.5.1.8 0 .2.1.5.1.7.1.3.1.5.2.8v.1c0 .2.1.4.1.5.1.2.1.4.2.7l.1.3c0 .1.1.3.1.4.1.3.3.6.4.9l.1.2c0 .1.1.1.1.2l.3.2.3.6c7.2 12 20.4 19.5 34.4 19.5 4.7 0 9.4-.8 13.8-2.5h-.2c-.6.1-1.3.1-1.9.1h-.2c-8.6 0-18.2-5.1-23.8-12.8-5.3-7.2-6.7-16.1-3.8-25l.3-.9z"/><path class="st0" d="M41.6 63c-5.9-2.2-10.8-6.8-14.2-13.4-.1-.2-.2-.4-.3-.7 0 .1 0 .2-.1.2-.1.3-.2.6-.2.9-.1.3-.1.7-.2 1-.1.3-.1.6-.2.9 0 .3-.1.6-.1.9 0 .3-.1.6-.1.9 0 .3-.1.6-.1.9V58c0 .3 0 .5.1.8 0 .3.1.5.1.8 0 .3.1.5.1.8 0 .3.1.5.1.8.1.2.1.5.2.7.1.2.1.5.2.7.1.2.1.5.2.7.1.2.1.5.2.7.1.2.2.5.2.7.1.2.2.4.2.6.1.2.2.4.3.7l.3.6.3.6c.1.2.2.4.3.5l.3.6c.1.2.2.3.3.5.1.2.2.4.4.6.1.1.2.2.2.4.3.6.7 1.1 1.1 1.6 5.4 7.4 14.7 12.4 23.1 12.4h.2c.7 0 1.5 0 2.2-.1 2.1-.2 4-.8 5.7-1.7l.3-.2c.2-.1.4-.2.5-.3 16.7-9.9 23.5-30.6 17-48.3 0 .3 0 .6.1.8v3c0 .4-.1.8-.1 1.2 0 .2 0 .4-.1.6-.1.4-.1.8-.2 1.1l-.1.5c-.1.5-.2 1.1-.4 1.6-.2.6-.3 1.1-.5 1.6l-.2.5c-.1.4-.3.7-.4 1.1-.1.2-.2.4-.2.6-.1.3-.3.7-.5 1l-.3.6c-.2.4-.4.8-.6 1.1l-.2.5-.9 1.5-.3.4c-.2.4-.5.8-.8 1.1l-.4.5c-.2.3-.5.6-.7.9-.1.2-.3.4-.4.5-.3.3-.5.6-.8.9l-.1.1-.3.3c-.3.4-.7.7-1 1.1l-.2.7c-.4.4-.9.8-1.4 1.2l-.3.3-.2.1c-.3.3-.7.5-1 .8-.2.1-.4.3-.6.4-.3.2-.7.5-1 .7-.2.2-.4.3-.6.4-.4.2-.7.4-1.1.6l-.2.1c-.1.1-.2.1-.3.2-.5.3-1.1.6-1.7.8l-.2.1-1.5.6c-.2.1-.3.1-.5.2l-.2.1c-.4.1-.8.3-1.2.4-.2.1-.5.1-.7.2l-1.2.3h-.1c-.2 0-.4.1-.6.1-.5.1-1 .2-1.5.2H54c-.7.1-1.3.1-2 .1h-2.8c-.5 0-.9-.1-1.4-.2-.3 0-.5-.1-.8-.1l-1.5-.3h-.2c-.2 0-.3-.1-.5-.1-.8-.2-1.6-.4-2.2-.6-.4-.4-.7-.5-1-.6z"/><path class="st0" d="M58.5 48.3c-2.2 5.9-6.8 10.8-13.4 14.2-.2.1-.4.2-.7.3.2.1.4.1.7.2.2 0 .3.1.4.1h.2l1.5.3c.3 0 .5.1.8.1.5.1.9.1 1.4.2h2.8c.6 0 1.3 0 1.9-.1l.4-.1c.5-.1 1-.1 1.5-.2.2 0 .4-.1.5-.1h.1l1.2-.3c.2-.1.5-.1.7-.2.4-.1.8-.2 1.2-.4l.2-.1c.1 0 .3-.1.4-.1.5-.2.9-.4 1.4-.6l.3-.1c.6-.2 1.1-.5 1.6-.8.1-.1.2-.1.3-.2l.2-.1c.4-.2.7-.4 1.1-.6.2-.1.3-.2.5-.3.4-.3.7-.5 1-.7.2-.1.4-.3.6-.4.3-.2.6-.5 1-.8l.2-.1c.1-.1.2-.2.3-.2.4-.4.9-.8 1.3-1.2l.2-.2 1-1 .3-.3.1-.1c.3-.3.5-.6.8-.9.1-.2.3-.4.4-.5.2-.3.5-.6.7-.9l.4-.5c.3-.4.5-.7.7-1.1l.2-.4.9-1.5.2-.4c.2-.4.4-.7.6-1.1.1-.2.2-.3.2-.5.2-.4.3-.7.5-1.1.1-.2.2-.4.2-.6.1-.4.3-.7.4-1.1l.2-.5c.2-.5.3-1 .5-1.5.2-.6.3-1.1.4-1.6l.1-.5c.1-.4.1-.7.2-1.1 0-.2 0-.4.1-.6 0-.4.1-.7.1-1v-2.7c0-.4-.1-.8-.1-1.2 0-.2-.1-.4-.1-.7-.3-.4-.3-.7-.4-1.1 0-.2-.1-.4-.1-.6-.1-.4-.2-.8-.3-1.1l-.1-.2c0-.1-.1-.2-.1-.3-.2-.6-.4-1.1-.7-1.5l-.1-.2-.3-.6C70 14.8 56.8 7.3 42.8 7.3c-4.7 0-9.4.8-13.8 2.5h.3c.4 0 .8-.1 1.2-.1h2.1c.5 0 1 .1 1.6.1.2 0 .3 0 .4.1h.2c.3 0 .7.1 1 .2.2 0 .4.1.7.1.4.1.7.2 1 .2.3.1.5.1.8.2l.9.3h.1c.2.1.4.1.6.2.3.1.7.2 1 .4l.2.1c.1.1.3.1.4.2.5.2 1 .4 1.5.7.1.1.3.1.4.2l.2.1c.3.2.7.3 1 .5l.6.3.1.1c.3.2.6.3.9.5.2.1.5.3.7.4l.9.6.1.1c.2.1.4.2.5.4.3.2.6.5.9.7l.2.1c.1.1.2.2.4.3.5.4.9.8 1.3 1.2.1.1.2.2.3.2l.2.2.9.9c.1.1.3.3.4.5l.1.1c.3.3.5.5.7.8.2.2.3.4.5.6.2.3.5.6.7.9.2.3.3.4.5.6.2.3.5.7.7 1l.1.2c.1.1.2.2.2.4.3.5.6 1.1.9 1.6 0 .1.1.1.1.2l.1.2c.2.4.4.9.6 1.3.1.2.1.3.2.5l.1.2c.2.4.3.7.4 1.1.1.2.2.5.3.7.1.4.2.8.4 1.2.1.2.1.5.2.7.1.4.2.9.3 1.3v.2c0 .1.1.3.1.4.1.7.2 1.3.3 2v.1c.1.7.1 1.3.1 1.9v2.1c0 .3 0 .5-.1.8 0 .5-.1.9-.2 1.4 0 .3-.1.5-.1.8l-.3 1.5-.1.2c0 .2-.1.3-.1.5-.2.8-.4 1.5-.6 2.3-.4.1-.5.4-.6.7z"/></svg>