<svg xmlns="http://www.w3.org/2000/svg" viewBox="0 0 226.6 135.9"><path fill="#FFF" d="M31 34.2C29.6 33 27.8 32 25.9 32c-2.2 0-3.5 1.2-3.5 3.5 0 5.8 10.7 6.1 10.7 15.7 0 6.2-3.6 11.1-10.1 11.1-1.9 0-4.4-.6-6-1.8v-6.7c1.7 1.1 3.2 1.9 5.3 1.9 2.2 0 4-1.5 4-3.9 0-2.8-2.2-3.7-4.2-5.1-4-2.8-6.5-5.4-6.5-10.5 0-5.5 3.2-10.4 9.3-10.4 2.2 0 4.3.6 6.2 1.8v6.7H31zm14 7.1c3.3.1 5.3-1.1 5.3-4.7 0-2.5-1-4.6-4-4.6H45v9.3zm-6.9 20.3V26.2h7.2c1.5 0 12.1-1 12.1 10.4 0 6.7-4.3 10.4-10.7 10.4H45v14.6h-6.9zm30.8-21l-.9-5.4h-.1l-.7 5.4-1.5 9.4h5l-1.8-9.4zm3.2-14.4l8.5 35.4H73l-1.2-6h-7.1l-1.2 6h-6.9l8.2-35.4h7.3zm28.1 6.6c-.8-.3-1.8-.4-2.6-.4-6.1 0-8.9 5.5-8.9 11.1 0 5.3 2.6 11.8 8.7 11.8.8 0 1.8-.3 2.6-.6v6.7c-1 .4-2.1.6-3.2.6-10 0-15.5-9.2-15.5-18.4 0-8.7 5.8-17.8 15.4-17.8 1.2 0 2.4.3 3.6.7v6.4h-.1zm17.8-6.6v6.5h-7.2v7.8h6.2V47h-6.2v8h7.2v6.6h-14.2V26.2zM24.6 80.8c0-1-.7-1.9-1.7-1.9-1.1 0-2.1.8-2.1 2.1 0 1.4.8 2.4 1.4 3.5 1.5-.7 2.4-2.1 2.4-3.7m-3.9 12.9c-1 .7-1.7 2.2-1.7 3.5 0 2.5 1.5 4.6 3.7 4.6 1 0 1.5-.3 2.4-1l-4.4-7.1zm7.4 11.7c-1.7 1.5-4 2.5-6.2 2.5-5.5 0-8.6-4.9-8.6-10.3 0-4 1.1-6.8 4-9.2-1.2-2.2-2.4-4.7-2.4-7.2 0-4.7 3.5-7.6 7.9-7.6 4 0 7.8 2.5 7.8 6.9 0 4-2.6 7.1-5.4 9.4l4.4 7.2c1.1-1.2 2.4-2.4 3.3-3.7l3.6 5c-1 1.2-2.2 2.4-3.5 3.5l-.3.3 3.6 5.5h-7.1l-1.1-2.3zm30.1-31.9v6.2h-5.3v27.8h-6.6V79.7h-5.4v-6.2zm3.3 0h6.8v34h-6.8zm21.7 0l3.3 20 2.8-20h9l3.6 34H95l-1.7-24.6h-.1l-1 8.5-2.9 16.1H84l-3.2-16.4-1.1-7.5v-.7h-.1l-1 24.6h-7.2l2.9-34zm34.8 0v6.2h-6.8v7.5h6v6.3h-6v7.6h6.9v6.4h-13.7v-34zm72.3 3.2L132 110.4l8 4.6 69.4-40-52.6-30.4v12.8z"/><path fill="#FFF" d="M152.8 76.4V37.7l58.5 33.9v-9.3l-61.5-35.7-8.1-4.6v60.8z"/><path fill="#FFF" d="M171.3 70.3l-33.6 19.4V22l-8.1 4.6v80.5l52.8-30.4z"/></svg>