<svg xmlns="http://www.w3.org/2000/svg" viewBox="0 0 20.7 37.5"><style>.st0{fill:#fff}.st1{fill:#3c3c3c}</style><g id="Layer_1"><path class="st0" d="M19.3 37.5c.8 0 1.5-.6 1.5-1.4V1.4c0-.8-.6-1.4-1.4-1.4H1.5C.7 0 0 .6 0 1.4v34.7c0 .8.6 1.4 1.4 1.4h17.9"/><path class="st1" d="M19.3 37.1H1.4c-.6 0-1-.5-1-1.1V1.4c0-.6.5-1 1.1-1h17.9c.6 0 1 .5 1 1v34.7c0 .6-.5 1-1.1 1"/><path class="st0" d="M18.7 29.7c.4 0 .7-.3.7-.6V8.5c0-.3-.3-.6-.6-.6H2.1c-.3 0-.7.3-.7.6v20.6c0 .3.3.6.6.6h16.7"/><path class="st1" d="M3.7 9.2v-.1H9c2 0 3.3.7 4.1 1.8.3.4.5.9.6 1.4.1.3.1.7.2 1 .3 2.6-2.6 5-2.6 5s.3.5.6 1.2c.2.4.4.8.6 1.3 1 2.1 1 4.6 1 4.6l.7.9h-2.9l.7-.9s.2-2.6-1.5-5.6c-.4-.7-.6-1-.6-1s-1.1.3-2.2.5-2.2.3-2.2.3v6.1l.5.6H3.6l.4-.5V9.6c-.1-.2-.3-.4-.3-.4"/><path class="st0" d="M11.1 10.8c-.6-.6-1.7-.6-1.7-.6H5.7v8.2s1.5 0 3-.5c1.8-.7 3.4-2 3.3-4.4 0-1.3-.5-2.3-.9-2.7"/><path class="st1" d="M7 18v-6.7c-.1-.1-.2-.3-.3-.3v-.2h3.9c.3.2.7.5.9 1.1H8.7v5.6c-.6.3-1 .4-1.7.5m4 3.3c-.3-.8-.5-.9-.6-1.2-1.1.1-1.6.1-1.6.1v-.6c-.8.1-1 .2-1.7.3v7.8l-.4.6h2.5l-.4-.6v-6.1c-.1-.1 1.3-.2 2.2-.3"/><path class="st0" d="M18.6 36.1c.4 0 .6-.3.6-.6V31c0-.3-.3-.6-.6-.6H2c-.4 0-.6.3-.6.6v4.5c0 .3.3.6.6.6h16.6"/><path class="st1" d="M9.2 33.5c0 1.2-.9 2.1-2.1 2.1-1.1 0-2-.9-2-2.2 0-1.2.9-2.2 2.1-2.2 1.1.1 2 1.1 2 2.3"/><path class="st0" d="M5.5 33.5c0 .9.7 1.7 1.6 1.7.9 0 1.6-.8 1.6-1.7 0-.9-.7-1.7-1.6-1.7-.9 0-1.6.7-1.6 1.7"/><path class="st1" d="M16 32.3c-.3-.3-.7-.5-1.2-.5-.9 0-1.6.8-1.6 1.7 0 .9.7 1.7 1.6 1.7.4 0 .9-.2 1.2-.5v.6c-.3.3-.8.4-1.2.4-1.1 0-2-.9-2-2.1 0-1.2.9-2.2 2.1-2.2.4 0 .8.1 1.2.4v.5m-6.6-.9h.5l1 1.9 1-1.9h.5l-1.3 2.4v1.8h-.4v-1.8l-1.3-2.4m-6.7 4.2h-.4v-4.2H3c.8 0 1.4.2 1.4 1.2 0 .7-.4 1.1-1 1.2l1.2 1.9h-.5l-1.2-1.8h-.1v1.7"/><path class="st0" d="M2.8 33.3H3c.5 0 1-.1 1-.7 0-.7-.5-.8-1-.8h-.2v1.5"/><path class="st1" d="M16.8 31.4h2.1v.5h-1.6v1.2h1.5v.4h-1.5v1.7h1.6v.4h-2.1v-4.2"/><path class="st0" d="M18.8 7.1c.4 0 .6-.3.6-.6V2c0-.3-.3-.6-.6-.6H2.2c-.4 0-.7.3-.7.6v4.5c0 .3.3.6.6.6h16.7"/><path class="st1" d="M10.3 4.4c0 1.2-1 2.1-2.1 2.1s-2-.9-2-2.2c0-1.2.9-2.1 2-2.1s2.1 1.1 2.1 2.2"/><path class="st0" d="M6.7 4.4c0 .9.7 1.7 1.6 1.7.9 0 1.6-.8 1.6-1.7 0-.9-.7-1.7-1.6-1.7-.9 0-1.6.8-1.6 1.7"/><path class="st1" d="M17.4 3.2c-.2-.3-.3-.5-.7-.5-.4 0-.7.3-.7.7 0 .4.4.5.6.7h.4c.5.3 1 .5.9 1.2 0 .7-.5 1.3-1.2 1.3-.6 0-1.1-.4-1.2-1.1l.4-.1c.1.4.4.8.8.8s.8-.3.8-.8-.4-.7-.7-.8l-.2-.1c-.5-.2-.9-.5-.9-1 0-.7.5-1.1 1.1-1.1.4 0 .8.2 1 .7l-.4.1M3.8 6.5h-.5V2.3h.6c.7 0 1.4.2 1.4 1.2 0 .6-.4 1.1-1 1.1l1.2 1.9h-.4L3.9 4.7h-.1v1.8"/><path class="st0" d="M3.8 4.3h.1c.5 0 1-.1 1-.8s-.5-.8-1-.8h-.1v1.6"/><path class="st1" d="M11.6 6.1h1.1v.4h-1.5V2.4h.4v3.7m2.3 0H15v.4h-1.5V2.4h.4v3.7m.5 22h2.9l-.7-.9s-.2-2.2-.4-3c-.4-1.4-1.9-4.1-1.9-4.1s2.9-2.1 2.6-5c-.2-2.2-1.2-3.7-3.4-4.1 0 0 .4.4.6 1.6.5.4.8 1.2.9 2.6.1 2.2-1.2 3.5-2.8 4.3.4.7.4.9.6 1.3.1 0 .2-.1.2-.1s.5.6 1.4 2.4c1.1 2.2.7 4.2.7 4.2l-.7.8z"/></g></svg>