<svg id="Layer_1" xmlns="http://www.w3.org/2000/svg" viewBox="0 0 553.8 219"><style>.st0{fill:#fff}</style><path class="st0" d="M4.1 28.7h101.8v14.4H4.1zM4.1 0h101.8v14.4H4.1zm28 57.4h45.8v14.4H32.1zm0 28.8h45.7v14.4H32.1zm0 28.7h45.8v14.4H32.1zm0 28.7h45.7V158H32.1zm-28 28.7H106v14.4H4.1zM4 201h101.9v14.4H4zm144.4-57.4h45.8V158h-45.8zm184.2 0h45.7V158h-45.7zm0-28.7h45.8v14.4h-45.8zm144.3 28.7h45.8V158h-45.8zm0-28.7h45.7v14.4h-45.7zm0 57.4h73.8v14.4h-73.8zm0 28.7h73.8v14.4h-73.8zm-172.4-28.7h73.8v14.4h-73.8zm0 28.7h73.8v14.4h-73.8zm-156-143.6h45.7v14.4h-45.7zM382.9 0h-78.4v14.4h84.3zm11.5 28.7h-89.9v14.4h95.6zm11.4 28.7h-73.3v14.4h78.8zm11.4 28.7h-84.7v14.4h90.4zm53 28.7h-83.1l5.7 14.5h71.6zm-71.6 28.8h59.9l-5.6 14.4h-48.6zm11.5 28.7h37.1l-5.7 14.4h-25.9zm11.4 28.7h14.4l-5.9 14.4h-2.9zm51-201h78.3v14.4h-84.2zM461 28.7h89.8v14.4h-95.5zm-11.3 28.7h73.1v14.4h-78.6zm-11.6 28.7H523v14.5h-90.6zM227.2 215.4H120.3V201H271c-6.8 6.1-24.7 14.6-43.8 14.4zm62.8-43.1H120.3v14.4h164.1c2.6-3.2 5.2-9.4 5.6-14.4zm-2.1-28.7h-48.2V158h50.8c.7-3.8-.6-10.2-2.6-14.4zm-23.4-28.7h-116v14.4h132.4c-1.3-3.4-11.6-12.9-16.4-14.4zm15.2-28.8H148.4v14.4h115.3c5.3-2.2 14-9 16-14.4zm9.9-28.7h-49.9v14.4h47.5c1.3-2.6 2.8-8.9 2.4-14.4zM283 28.7H120.3v14.4H289c-.1-4.1-3.9-12.2-6-14.4zM120.3 0v14.4h149.6C265.3 10.9 248.5 0 225.7 0H120.3z"/></svg>