<svg xmlns="http://www.w3.org/2000/svg" viewBox="0 0 253.5 61.6"><path fill="#282828" d="M85 32h13.6s1.1 0 .7-.8c0 0-1.3-4.8-7.3-4.8 0 0-5-.3-7 5.4v.2zm23.4 3.2s.5 3.3-3.3 3.3H84.9s.7 6.7 6.9 6.7c0 0 4.4.4 7.2-3.1 0 0 .6-1.1 3.7-1.1h1.6s4.2.1 2.5 2.9c-1.6 3.3-4.4 5.2-4.4 5.2l-.2.2c-2.6 1.9-5.9 3-9.6 3-9.1 0-16.4-7.3-16.4-16.4 0-9.1 7.3-16.5 16.4-16.5 3.7 0 7.2 1.3 9.9 3.3 5.7 4.7 5.9 12.2 5.9 12.2v.3zm20.6-7.8s.7 2 4.6 2h.8s3.5 0 2.7-2.4c0 0-1.5-7.7-14.1-7.7 0 0-12.9.5-12.9 9.6 0 0-.1 7.8 7.7 9.2l10.5 1.9s1.8.3 1.8 2.4c0 0 .2 2.1-3.1 2.7 0 0-7.1 1.3-9.3-1.7 0 0-.6-2.3-2.7-2.3h-2.2s-4.2-.2-3.1 3.3c0 0 .9 7.8 13.7 7.8 0 0 14.8.5 14.8-9.9 0 0 .9-7.9-9.4-10l-8.7-1.7s-2.7-.8-1.8-3c0 0 .6-1.1 2.3-1.5 0 0 2.3-.6 5.1-.2 0 0 2.1 0 3 1.3l.3.2zm49.4 4.6H192s1.1 0 .7-.8c0 0-1.5-4.8-7.3-4.8 0 0-5-.3-7 5.4v.2zm23.4 3.2s.6 3.3-3.3 3.3h-20.1s.7 6.7 6.9 6.7c0 0 4.4.4 7.2-3.1 0 0 .6-1.1 3.7-1.1h1.5s4.3.1 2.6 2.9c-1.7 3.3-4.4 5.2-4.4 5.2l-.2.2c-2.7 1.9-6.1 3-9.6 3-9.1 0-16.4-7.3-16.4-16.4 0-9.1 7.3-16.5 16.4-16.5 3.7 0 7.1 1.3 9.8 3.3 5.7 4.7 5.9 12.2 5.9 12.2v.3zm-43.6-24.1s-.2-2 3.2-2h2.3c3.5 0 3.2 2 3.2 2v39.1s.2 2-3.2 2h-2.3c-3.5 0-3.2-2-3.2-2V11.1zm15.6-.7s-2.2-.1-2.2 2v1.1s-.3 2 2.3 2h24.9s2 .2 2-3.1v-1.1s.2-3.3-2.1-3.1l-24.9 2.2zm-33.2 1.2s-.3-2.4 3.7-2.4h1.3s3.7-.3 3.7 2.2v9.4h5.5s1.8-.1 1.8 2.4v1.1s.2 2.9-1.8 2.9c-1.9 0 0 0 0 0h-5.5V41s-.2 4.3 5 4.5c0 0 2.4-.1 2.2 3v.9s.3 3-3.1 2.7c0 0-12.9 1.1-12.9-13.1V27.2s-2.4.3-2.4-2.6v-.8s-.3-2.9 2.4-2.9v-9.3h.1z"/><path fill="#282828" d="M132 9.5H69c-5.9 0-5.3 2.7-5.3 2.7v23.5L48 10.8l-.1-.1c-1.6-2.2-5.4-1.8-5.4-1.8-6 0-5.6 3-5.6 3V50s-.6 2.4 4.2 2.4h1.3c4.8 0 4.2-2.4 4.2-2.4V25.4l15.3 24.2c1.8 2.8 5.4 2.5 5.4 2.5h.3c5.9 0 5.5-2.1 5.5-2.1V16.8c0-1.1.9-.8.9-.8h60c2.1 0 1.9-3.1 1.9-3.1V12c0-2.4-1.8-2.4-1.8-2.4H132v-.1zm80.7 33.6c.9.9 1.3 2 1.3 3.2 0 1.1-.4 2.3-1.3 3.1-.8.8-1.9 1.3-3.1 1.3-1.3 0-2.3-.5-3.1-1.3-.8-.8-1.3-2-1.3-3.1 0-1.3.4-2.3 1.3-3.2.8-.8 1.9-1.3 3.1-1.3 1.2 0 2.3.4 3.1 1.3zm.5-.5c-.9-.9-2.2-1.5-3.7-1.5s-2.6.5-3.7 1.5c-1.1 1.1-1.5 2.3-1.5 3.7 0 1.3.4 2.6 1.5 3.7s2.2 1.5 3.7 1.5 2.7-.4 3.7-1.5c1.1-1.1 1.6-2.3 1.6-3.7 0-1.5-.5-2.7-1.6-3.7zm-2.8 3.4c-.2.1-.6.1-1.1.1h-.8v-2h.8c.5 0 .9 0 1.3.2.2.1.3.4.3.8 0 .5-.2.8-.5.9zm-2.9 3.1h1.1v-2.3h.7c.5 0 .9.1 1.1.2.3.2.5.6.5 1.3v.7c.1 0 .1 0 .1.1h.9l-.1-.1v-1.1c0-.3-.1-.5-.3-.8-.2-.3-.5-.5-1.1-.6.4 0 .6-.1.8-.2.4-.3.6-.6.6-1.1 0-.7-.3-1.3-.9-1.5-.3-.1-.8-.2-1.6-.2h-2v5.6h.2z"/></svg>