<svg xmlns="http://www.w3.org/2000/svg" viewBox="0 0 383.9 223.2"><path fill="#282828" d="M96.1 153.8l.2-.2c7.6-7.9 11.8-18.2 11.8-29 0-23.3-19.2-42.3-42.8-42.3s-42.8 19-42.8 42.3c0 23.3 19.2 42.3 42.8 42.3 9.2 0 17.9-2.9 25.1-8.3l.2-.1s15 13.8 15.3 14.1c.3-.3 5.3-4.5 5.7-4.8-.5-.3-15.5-14-15.5-14zm-5.4-5s-11.1-10.2-11.4-10.5c-.3.2-5.3 4.3-5.7 4.7.4.4 11.5 10.6 11.5 10.6l-.2.2c-5.7 4.1-12.5 6.3-19.6 6.3-19.1 0-35.2-16.2-35.2-35.5 0-19.2 16.1-35.5 35.2-35.5s35.2 16.2 35.2 35.5c0 8.9-3.4 17.4-9.7 24l-.1.2zm33.6-41.4v37.8c0 10.2 4.1 16 13.8 16 10.7 0 17.5-3.9 17.5-26.8v-25.6l6.6-1.4v58.3l-6.6.9v-9.4h-.2c-2.3 5.1-9.1 9.9-17.8 9.9-14.4 0-19.8-8.2-19.8-21.1v-37.2l6.5-1.4zM174.4 85l6.6-1.4v35.9c6.8-7.6 14.6-12.1 24.6-12.1 15.6 0 28.6 11.2 28.6 29.1 0 16.6-12.8 30.5-29.6 30.5-19 0-30.2-12.4-30.2-31.1V85zm30.3 75.5c13.4 0 22.4-9.9 22.9-23 0-13.6-9.6-23.5-23.2-23.5-13 0-23.4 9.9-23.4 23.8 0 13.4 10.9 22.7 23.7 22.7zm44.4-13.3c2.3 5.2 9.6 13.3 20.2 13.3 8.3 0 15.4-4.3 21.5-9.4v7.9c-5 5-14.1 8-21.1 8-17.6 0-29.5-13.3-29.5-30.5s12.7-29.1 29.7-29.1c10.4 0 19 6.7 22.4 13.3l-43.2 26.5zm33-28.2c-2.6-2.8-6.9-5-12.1-5-13.4 0-23.1 9.9-23.1 22.7 0 1.5.1 3.2.5 4.7l34.7-22.4zm-159 69.6v-1.4h5.4v9h-1.3l-.1-1.9c-.9 1.5-2.1 2.3-3.9 2.3-5.1 0-5.2-6.2-5.2-9.8 0-3.9.3-9.1 5.4-9.1 3 0 4.9 2.5 4.9 5.4h-1.5c-.3-1.9-1-4-3.3-4-4 0-3.9 5.6-3.9 8.1s0 8.1 3.7 8.1c3.4 0 3.6-4 3.7-6.6h-3.9zm12.1 7.5V178h1.4v18.1h-1.4zm7.5-6.9c0-3 .6-6.7 4.2-6.7 3.7 0 4.1 4 4.1 6.9 0 3-.4 7-4.2 7-4 .1-4.1-4.2-4.1-7.2zm7 .2c0-2.1 0-5.7-2.9-5.7-2.5 0-2.6 3.6-2.6 5.5 0 2-.1 6 2.7 6 2.8 0 2.8-3.8 2.8-5.8zm8.5 6.7h-1.4V178h1.4v5.9c.8-.9 1.8-1.4 3-1.4 3.4 0 3.7 4.4 3.7 6.9 0 2.7-.3 7-3.8 7-1.3 0-2.2-.5-2.9-1.6v1.3zm5.3-6.6c0-1.8 0-5.8-2.7-5.8s-2.7 3.7-2.7 5.5c0 1.7-.1 6 2.6 6 2.8 0 2.8-3.8 2.8-5.7zm6.4-3.3c-.1-2.3 1.2-3.7 3.5-3.7 1.1 0 2.1.2 2.7 1 .6.8.6 1.7.6 2.6v8.2c0 .8.1.9 1 .9v1c-.5.2-1 .2-1.5.1-.6-.2-.6-.6-.7-1.2-.7 1-1.8 1.4-2.9 1.4-2.4 0-3-1.7-3-3.8 0-1.5.4-2.7 1.8-3.4 1.2-.6 2.5-.9 3.6-1.5.2-.1.3-.4.4-.5.1-.6 0-1.7 0-2.2-.2-.8-.7-1.3-1.9-1.3-2 0-1.9 1.3-2.2 2.5h-1.4zm5.5 2.7c-.9.5-1.9.8-2.8 1.2-1.4.6-1.7 1.2-1.7 2.7 0 1.3.4 2.3 1.9 2.3.9 0 1.6-.4 2-1 .6-.8.7-2 .7-3v-2.2zm7.8 7.2V178h1.4v18.1h-1.4zm21.2-9.8c2.6 1.1 4.6 1.9 4.6 5.2 0 3.1-2 5.1-5.2 5.1-3.3 0-5-2.3-5-5.5h1.5c0 2.3.9 4.1 3.4 4.1 2.2 0 3.6-1.4 3.6-3.6 0-2.7-2-3.2-4-4-2.4-1-4.2-2-4.2-4.9 0-2.9 1.8-5 4.7-5 2.8 0 4.7 2 4.6 4.8H207c.1-2-1.1-3.4-3.1-3.4s-3.1 1.5-3.1 3.5c0 1.8.6 2.5 2.2 3.2l1.4.5zm9.7 2.9c0-3 .6-6.7 4.2-6.7 3.7 0 4.1 4 4.1 6.9 0 3-.4 7-4.2 7-4 .1-4.1-4.2-4.1-7.2zm7 .2c0-2.1 0-5.7-2.9-5.7-2.5 0-2.6 3.6-2.6 5.5 0 2-.1 6 2.7 6 2.7 0 2.8-3.8 2.8-5.8zm7.4-5.3H227v-1.2h1.4v-1.4c0-2.5.4-3.5 3.1-3.3v1.2c-1.9-.1-1.7.5-1.7 2v1.5h1.7v1.2h-1.7v12.1h-1.4v-12.1zm11.3 12.1c-.5.1-1.3.2-1.8.1-1.2-.4-1.4-1-1.4-2.3v-9.9h-1.2v-1.2h1.2V179h1.4v3.9h1.9v1.2H238v9.8c0 .5 0 1.1.7 1.3.4.1.8.1 1.2 0v1zm13-2.8l2.2-10.6h1.4l-2.9 13.3H252l-2-10.4-2 10.4h-1.5l-2.8-13.3h1.4l2.2 10.6 2-10.6h1.5l2 10.6zm7.8-7.2c-.1-2.3 1.2-3.7 3.5-3.7 1.1 0 2.1.2 2.7 1 .6.8.6 1.7.6 2.6v8.2c0 .8.1.9 1 .9v1c-.5.2-1 .2-1.5.1-.6-.2-.6-.6-.7-1.2-.7 1-1.8 1.4-2.9 1.4-2.4 0-3-1.7-3-3.8 0-1.5.4-2.7 1.8-3.4 1.2-.6 2.5-.9 3.6-1.5.2-.1.3-.4.4-.5.1-.6 0-1.7 0-2.2-.2-.8-.7-1.3-1.9-1.3-2 0-2 1.3-2.2 2.5h-1.4zm5.6 2.7c-.9.5-1.9.8-2.8 1.2-1.4.6-1.7 1.2-1.7 2.7 0 1.3.4 2.3 1.9 2.3.9 0 1.6-.4 2-1 .6-.8.7-2 .7-3v-2.2zm8.8-4.5c.7-1.4 1.7-1.9 3.2-1.9v1.5c-2.2 0-3.1 1.3-3.1 3.4v8.7h-1.4v-13.3h1.3v1.6zm15.1 5h-6.2c0 1.7-.2 5.8 2.5 5.8 2 0 2.2-1.9 2.3-3.4h1.3c0 2.4-1 4.7-3.7 4.7-3.7 0-3.9-4.2-3.9-6.9s.2-7 3.8-7c3.1 0 3.8 3 3.8 5.6v1.2zm-1.4-1.2c0-1.7-.2-4.5-2.4-4.5-2.2 0-2.4 2.9-2.4 4.5h4.8zM278.5 57.8c0-2.7.4-5.5 1.4-8.7l1.1-2.5c2.3-4.2 6.3-7.5 11-9.1l.5-.1 1.6-.4 38.5-5.5v-.2l-11.5-6.2-40 5.7c-.7.1-1.3.3-2 .5-4.4 1.4-8.1 4.4-10.3 8.4-.4.8-.8 1.6-1.1 2.4-.8 2.7-1.3 5.4-1.3 8.2v35.8l11.5 6.2.4-.1.2-34.4z"/><path fill="#282828" d="M351.9 42.5l-40 5.7c-.7.1-1.3.3-2 .5-4.4 1.4-8.1 4.4-10.3 8.4-.4.8-.8 1.6-1.1 2.4-.8 2.7-1.3 5.4-1.3 8.2v35.8l11.5 6.2 36.3-5.2c17.8-2.6 18.3-15.5 18.3-15.7V48.6l-11.4-6.1z"/><path fill="#282828" d="M361.6 50.9v38.3c0 .5-.5 11.2-16.5 13.5l-34.5 4.9V73.7c0-15.3 12.3-17.3 12.8-17.4l38.2-5.4z"/><path fill="#282828" d="M293.8 66.5c0-2.7.4-5.5 1.4-8.7l1.1-2.5c2.3-4.2 6.3-7.5 11-9.1l.5-.1 1.6-.4 38.5-5.5V40l-11.5-6.2-40 5.7c-.7.1-1.3.3-2 .5-4.4 1.4-8.1 4.4-10.3 8.4-.4.8-.8 1.6-1.1 2.4-.8 2.7-1.3 5.4-1.3 8.2v35.8l11.5 6.2.4-.1.2-34.4z"/></svg>