<svg id="Layer_1" xmlns="http://www.w3.org/2000/svg" viewBox="0 0 157.3 37.8"><style>.st0{fill:#fff}</style><path class="st0" d="M7.5 4.9c-.1-.3-.3-1.3-1.5-1.3-1.3 0-1.7 1.3-1.7 2.5S4.7 8.6 6 8.6c.9 0 1.3-.7 1.5-1.5h2.7c0 1.8-1.5 3.8-4.1 3.8-2.9 0-4.6-2.1-4.6-4.7 0-2.9 1.8-4.7 4.6-4.7 2.5 0 3.9 1.3 4.1 3.6H7.5zm16.1-3.3h2.8v6.7h4v2.3h-6.8v-9zm22 0h2.8v9.1h-2.8V1.6zm19.4 0h7v2.3h-4.2V5h3.6v2.2h-3.6v3.4H65v-9zm21.1 0h7v2.3h-4.2V5h3.6v2.2h-3.6v3.4h-2.8v-9zm22.6 4.5c0-2 1.1-2.5 1.8-2.5s1.8.5 1.8 2.5-1.1 2.5-1.8 2.5-1.8-.5-1.8-2.5zm-2.8 0c0 2.8 1.8 4.7 4.6 4.7s4.6-2 4.6-4.7c0-2.8-1.8-4.7-4.6-4.7-2.7-.1-4.6 1.9-4.6 4.7zm24.5-2.4h1.3c1.1 0 1.4.3 1.4.9 0 .8-.7.9-1.2.9h-1.5V3.7zm-2.8 6.9h2.8V7.5h1.5c1.1 0 1.2.9 1.3 1.8 0 .5.1.9.2 1.4h2.8c-.3-.4-.3-1.5-.3-1.9-.1-1.1-.6-2-1.3-2.3.9-.3 1.4-1.3 1.4-2.3 0-1.7-1.4-2.6-3-2.6h-5.3v9zm23.8-6.7h.9c2 0 2.2 1.6 2.2 2.2 0 .8-.3 2.3-2 2.3h-1.1V3.9zm-2.8 6.7h4c3.2 0 4.6-1.8 4.6-4.5 0-2.3-1.1-4.5-4.1-4.5h-4.6v9zM7.5 30.3C7.4 30 7.2 29 6 29c-1.3 0-1.7 1.3-1.7 2.5S4.7 34 6 34c.9 0 1.3-.7 1.5-1.5h2.7c0 1.8-1.5 3.8-4.1 3.8-2.9 0-4.6-2.1-4.6-4.7 0-2.9 1.8-4.7 4.6-4.7 2.5 0 3.9 1.3 4.1 3.6H7.5zm15.2-3.4h2.8V30h2.6v-3.1h2.8V36h-2.8v-3.6h-2.6V36h-2.8v-9.1zm24 5.8l.9-2.8.8 2.8h-1.7zM42.9 36h2.8l.4-1.3H49l.4 1.3h2.9L49 26.9h-2.7L42.9 36zm21.8-9.1h2.9l2.6 4.8v-4.8h2.6V36h-2.7l-2.8-5v5h-2.6v-9.1zm26.6 3.4c0-.3-.3-1.3-1.4-1.3-1.3 0-1.7 1.3-1.7 2.5s.4 2.5 1.7 2.5c.9 0 1.3-.7 1.5-1.5h2.7c0 1.8-1.5 3.8-4.1 3.8-2.9 0-4.6-2.1-4.6-4.7 0-2.9 1.8-4.7 4.6-4.7 2.5 0 3.9 1.3 4.1 3.6h-2.8zm15.3-3.4h7.5v2.3h-4.7v1.1h4.3v2.2h-4.3v1.1h4.8V36h-7.6v-9.1z"/></svg>