<svg xmlns="http://www.w3.org/2000/svg" viewBox="0 0 400 75"><path fill="#FFF" d="M88.3 5.2H85c-16.1 0-20.2 4.3-20.2 20.7v4c0 15.8 3.7 20.5 20.2 20.5h3.1c15.9 0 19.8-4.5 19.8-20.6v-3.9c0-16.2-3.9-20.7-19.6-20.7zm7.9 23.2c0 9.9-1.1 12.6-9.2 12.6h-1.4c-8.7 0-9.2-3.4-9.2-12.6v-1.3c0-9.8 1.1-12.6 9.2-12.6H87c8.4 0 9.2 3 9.2 12.6v1.3zm82.2-20.1c0 1.5-.3 2.5-.6 3.5l-10.5 31.4c-2.2 6.5-6.3 6.6-6.8 6.6h-2.7c-4.2 0-5.8-2.7-6.7-6l-3.1-12c-1.1-4.2-2.3-10-2.3-10s-1.4 5.7-3.2 11.3L139 44.4c-1.7 5.3-6.6 5.4-6.6 5.4h-2.8c-4.1 0-5.8-2.6-6.8-6l-8.4-30.4c-.8-3-1.5-6.8-4.2-6.9-.2 0-.4-.2-.4-.4s.2-.4.4-.4h9.6c4 0 4.7 2.5 5.6 5.7l3.9 14.1c1.7 6.2 2.3 10 2.3 10s1.3-4.2 3.1-10l4-13.4.4-1.4s1.3-5.1 4.8-5.1h3.4c4.1 0 5 2.6 5.8 5.7l3.6 14.4c1.5 5.7 2.3 9.5 2.3 9.5s.8-3.8 2.7-9.5l5.5-16.9c.7-2.3-1.4-2.3-1.4-2.3-.2 0-.4-.2-.4-.4s.2-.4.4-.4h8.6c2.1 0 4 .4 4 2.6zM258 5.7c-2.3 6.9-4.5 10.1-10.9 10.1-7 0-8 3.9-8 10.1v16.7c0 4.4-1 7.2-5.9 7.2h-4.9s-.8 0-.8-.8V14.3c0-5.9.4-7.7-2.3-7.7-.2 0-.4-.2-.4-.4s.2-.4.4-.4h8c4 0 5.4 2.1 5.8 5.1 2.9-3 6.2-5.1 10.9-5.1h8.1zM40.3 5.2C35 5.2 31 6.4 27.8 8.1c-.8-1.5-2.3-2.4-5.1-2.4h-7.9c-.2 0-.4.2-.4.4s.2.4.4.4c2.6 0 2.2 1.8 2.2 7.7V70c0 .5.1.8.8.8h6.4s4.5.3 4.5-5.2V48.1c2.4 1.5 5.9 2.2 9.3 2.2 15.5 0 20.2-4.1 20.2-20.1v-4.9c.1-14.7-3.5-20.1-17.9-20.1zM38.1 41c-8.2 0-9.3-2.4-9.3-9.1v-12c0-2.6 2.7-5.4 9.4-5.4 7.2 0 8.5 2.8 8.5 13.4 0 10.8-1 13.1-8.6 13.1zM201.8 5.2c-15.1 0-20 4.9-20 20.2v5.7c0 14.5 4 18.7 18.9 18.7h5.1c7.1 0 9.6-4.1 11-9.7l.1-.2c0-.3-.2-.5-.5-.5h-.2c-.1 0-.3.1-.5.1-2.9.7-8.9.9-10.6.9h-.3c-8.7 0-11-.6-11.3-8 1.9.2 10.8.2 13.4.2 9.1 0 13.2-2.3 13.2-12.4 0-9.6-4.2-15-18.3-15zm-.8 19.4c-1.9 0-6 0-7.5-.1.1-8.7 1.4-10 8.1-10 5.8 0 7.6 2 7.6 5.1 0 4.3-1.7 5-8.2 5zM323.2 5.2h-3.3c-16.1 0-20.2 4.3-20.2 20.7v4c0 15.8 3.7 20.5 20.2 20.5h3.1c15.9 0 19.8-4.5 19.8-20.6v-3.9c0-16.2-3.9-20.7-19.6-20.7zm7.9 23.2c0 9.9-1.1 12.6-9.2 12.6h-1.4c-8.7 0-9.2-3.4-9.2-12.6v-1.3c0-9.8 1.1-12.6 9.2-12.6h1.4c8.4 0 9.2 3 9.2 12.6v1.3zm50.5-22.7c-2.3 6.9-4.5 10.1-10.9 10.1-7 0-8 3.9-8 10.1v16.7c0 4.4-1 7.2-5.9 7.2h-4.9s-.8 0-.8-.8V14.3c0-5.9.5-7.7-2.3-7.7-.2 0-.4-.2-.4-.4s.2-.4.4-.4h7.9c4 0 5.4 2.1 5.8 5.1 2.9-3 6.2-5.1 10.9-5.1h8.2zM270.7 27.2v1.4c0 9.3 1.1 12 10.8 12 1.7 0 7.8-.3 10.6-.9.2 0 .3-.1.5-.1h.2c.3 0 .5.2.5.5l-.1.2c-1.5 5.6-4.1 9.7-11 9.7H278c-15.5 0-19-4.2-19-18.9v-6.2c0-15.2 4.6-19 19.8-19h15.6c-1.9 5.8-4.2 9.3-11.1 9.3h-2.1c-9.1-.2-10.5 1.9-10.5 12z"/></svg>