<svg xmlns="http://www.w3.org/2000/svg" viewBox="0 0 1000 1000"><path d="M235.64 12.5c-25.05 4.4-53.92 19.5-69.41 36.52-11.66 12.81-21.8 30.02-27.34 46.47l-5.16 15.49-.57 378.04-.38 378.23H10l1.34 11.86c3.25 28.3 18.55 60.04 37.48 77.06 12.81 11.66 30.02 21.8 46.47 27.34l15.49 5.16h533.5l15.49-5.16c16.45-5.54 33.66-15.68 46.47-27.34 11.85-10.71 26.2-33.46 32.12-51.25l5.35-15.68.57-152.02.57-152.02-9.56 9.56-9.56 9.56-.76 139.59c-.77 115.69-1.34 141.31-3.63 149.15-10.52 35.57-38.63 63.68-73.24 72.85-12.62 3.44-39.39 3.25-52.39-.19-39.2-10.33-69.99-45.32-74.38-84.71l-1.34-12.81-183-.57-183-.38-.96-10.13c-.57-5.35-.76-174.39-.38-375.17.57-402.13-.38-371.16 12.62-396.78 8.03-16.06 26.01-34.04 42.07-42.07 25.43-12.81 4.21-12.05 304.61-12.43 150.11-.38 272.87 0 272.87.76 0 .57-3.06 3.25-6.88 5.74-12.81 8.8-30.59 30.21-38.82 46.66-13.58 27.54-13.58 27.15-13.58 150.49v109.76l9.56-9.37 9.56-9.37V154.39l7.27-1.15c3.82-.57 56.22-.96 116.07-.96h115.5l6.5-.19-1.15-15.3c-4.59-59.28-40.92-104.6-97.91-121.62-10.9-3.25-28.87-3.63-328.9-3.82-174.57-.18-321.43.39-326.4 1.15zm659.13 24.86c15.68 5.93 35.38 19.31 45.89 31.17 10.52 12.05 20.84 31.36 24.86 46.47 5.16 20.08 18.36 17.97-109.19 17.97H744.28l1.15-7.27c7.46-41.5 38.43-77.44 78.21-90.26 19.31-6.11 51.63-5.15 71.13 1.92zM506.6 904.93c7.27 21.8 20.46 41.69 35.57 53.92 6.12 4.78 11.09 9.37 11.09 9.94.19.58-98.09.96-218.18.77-238.64-.38-224.68.19-249.16-11.66-22.56-10.9-48.38-43.02-52.01-64.63l-.96-6.31 233.86.19 233.86.19 5.93 17.59z"/><path d="M214.99 102.38v9.56h447.46V92.82H214.99v9.56zm0 101.34c0 8.22.57 9.56 3.82 9.75h438.85c4.4-.19 4.78-.96 4.78-9.75v-9.56H214.99v9.56zm575 104.79L689.21 409.29l7.08 7.27 7.27 7.08 72.09-72.09 72.28-72.28 7.08 7.27 7.27 7.08L790 365.9l-72.09 72.09 7.08 7.08 7.08 7.27-108.06 108.39c-61.2 61.38-113.59 115.69-120.66 124.87-21.99 28.88-34.04 52.59-34.04 67.31 0 5.55-2.49 8.8-16.25 22.56l-16.26 16.06 7.08 7.27 7.07 7.27L467.4 790c14.91-14.72 17.02-16.06 25.24-17.02 11.28-1.15 33.27-11.47 52.78-24.67 10.71-7.27 45.7-40.73 129.46-124.29l114.91-114.35 7.08 7.08 7.08 7.27 89.1-88.92c48.95-48.95 90.45-91.59 92.17-94.65 4.59-8.41 4.02-26.77-.96-36.33-5.93-11.09-38.05-42.07-48.38-46.66-16.83-7.65-32.51-3.82-49.72 12.43l-9.75 9.18-7.08-7.07-7.08-7.08 21.61-21.61 21.42-21.61-7.27-7.07-7.08-7.08-100.94 100.96zm136.91-33.27c8.41 3.63 39.39 35.38 41.3 42.45.76 3.06.76 8.03-.19 11.28-.96 4.02-26.77 30.98-82.22 86.43l-80.89 80.89-7.08-7.08-7.27-7.07-117.21 116.64c-71.9 71.71-123.15 121.23-132.71 128.31-15.11 11.28-44.17 27.34-49.53 27.34-1.53 0-2.68-1.15-2.68-2.68 0-4.97 17.02-36.52 27.15-49.91 5.35-7.46 62.72-66.54 127.54-131.37l117.6-118.17-7.08-7.27-7.08-7.08 80.88-80.69c70.94-70.94 85.09-84.14 91.79-84.52.79-.18 4.24.97 7.68 2.5zm-711.91 31.17v10.13h447.46v-9.56c0-9.56 0-9.56-6.12-9.75-3.44 0-104.21-.38-223.92-.38l-217.42-.38v9.94zm0 101.92v9.56h447.46v-19.12H214.99v9.56zm0 101.34c0 8.61.38 9.56 4.4 9.75 2.29 0 84.14.19 181.85.19 187.77.2 180.89.39 180.89-8.02 0-1.53-.57-4.78-1.15-7.27l-1.15-4.21H214.99v9.56zm0 102.69v10.13h242.84v-20.07H214.99v9.94zm0 101.92v9.56h242.27l1.34-7.27c.57-3.82 1.15-8.22 1.15-9.56 0-1.72-25.81-2.29-122.38-2.29H214.99v9.56z"/></svg>