<svg width="11" height="14" viewBox="0 0 11 14" version="1.1" xmlns="http://www.w3.org/2000/svg" xmlns:xlink="http://www.w3.org/1999/xlink">
<g id="Canvas" fill="none">
<g id="Group 16">
<g id="Combined Shape">
<path fill-rule="evenodd" clip-rule="evenodd" d="M 0.988281 0C 0.441406 0 0 0.443359 0 0.990234L 0 12.8701C 0 13.417 0.441406 13.8599 0.988281 13.8599L 9.89844 13.8599C 10.4453 13.8599 10.8906 13.417 10.8906 12.8701L 10.8906 0.990234C 10.8906 0.443359 10.4453 0 9.89844 0L 0.988281 0ZM 1.78516 3.33594C 1.78516 3.74561 2.11719 4.07812 2.52734 4.07812L 3.41406 4.07812C 3.59766 4.07812 3.76562 4.0127 3.89453 3.9043C 4.05469 3.76807 4.15625 3.56396 4.15625 3.33594C 4.15625 2.92578 3.82422 2.59326 3.41406 2.59326L 2.52734 2.59326C 2.11719 2.59326 1.78516 2.92578 1.78516 3.33594ZM 2.52734 7.67236C 2.33594 7.67236 2.16016 7.59961 2.02734 7.47998C 1.87891 7.34375 1.78516 7.14795 1.78516 6.93018C 1.78516 6.52002 2.11719 6.1875 2.52734 6.1875L 5.39453 6.1875C 5.80469 6.1875 6.13672 6.52002 6.13672 6.93018C 6.13672 7.16797 6.02734 7.37939 5.85156 7.51514C 5.72656 7.61377 5.56641 7.67236 5.39453 7.67236L 2.52734 7.67236ZM 2.01562 11.0615C 2.14844 11.1885 2.32812 11.2666 2.52734 11.2666L 8.36328 11.2666C 8.77344 11.2666 9.10547 10.9341 9.10547 10.5244C 9.10547 10.1143 8.77344 9.78174 8.36328 9.78174L 2.52734 9.78174C 2.11719 9.78174 1.78516 10.1143 1.78516 10.5244C 1.78516 10.7354 1.875 10.9263 2.01562 11.0615Z" transform="translate(0.0546875 0.0698242)" fill="#67BE6A"/>
</g>
</g>
</g>
</svg>

