<svg id="Layer_1" xmlns="http://www.w3.org/2000/svg" viewBox="0 0 200 200"><style>.st0,.st1{fill:none;stroke:#000;stroke-width:5;stroke-miterlimit:10}.st1{stroke-linecap:round;stroke-linejoin:round}</style><path class="st0" d="M143.7 135.2H91.3m-56.5-54V38.1c0-6 4.9-10.9 10.9-10.9h118c6 0 10.9 4.9 10.9 10.9v60.1m2.6 73.8H152c-4.6 0-8.3-3.8-8.3-8.3v-57.1c0-4.6 3.8-8.3 8.3-8.3h25.2c4.6 0 8.3 3.8 8.3 8.3v57.1c0 4.6-3.7 8.3-8.3 8.3z"/><path class="st0" d="M83 173.5H25.3c-4.6 0-8.3-3.8-8.3-8.3V89.6c0-4.6 3.8-8.3 8.3-8.3H83c4.6 0 8.3 3.8 8.3 8.3v75.6c0 4.5-3.7 8.3-8.3 8.3zm8.3-54.7h52.4M17 96.7h74.3M17 158.1h74.3m52.4-49h41.8m-41.8 52h41.8M45.1 37.5h5.3m5 0h5.4m4.9 0h5.4m46 97.6v17.4H97.8"/><path class="st1" d="M91.3 152.5h43v10h-43"/></svg>