<svg width="16" height="16" viewBox="0 0 16 16" version="1.1" xmlns="http://www.w3.org/2000/svg" xmlns:xlink="http://www.w3.org/1999/xlink">
<g id="Canvas" fill="none">
<g id="Combined Shape">
<path fill-rule="evenodd" clip-rule="evenodd" d="M 14.3008 7.1499C 14.3008 11.0986 11.0977 14.2998 7.14844 14.2998C 3.19922 14.2998 0 11.0986 0 7.1499C 0 3.20117 3.19922 0 7.14844 0C 11.0977 0 14.3008 3.20117 14.3008 7.1499ZM 7.69922 9.74951C 8.16016 9.66162 8.52734 9.47803 8.79688 9.19971C 9.06641 8.9209 9.20312 8.5835 9.20312 8.1875C 9.20312 7.84082 9.12109 7.56445 8.95312 7.35938C 8.85156 7.23291 8.73828 7.12793 8.60938 7.04443C 8.53125 6.99219 8.44531 6.94775 8.35156 6.91162C 8.19141 6.84863 8.00391 6.78809 7.79297 6.72998L 7.47266 6.64795L 6.92969 6.49756C 6.80469 6.45605 6.69922 6.39746 6.61328 6.32178C 6.52734 6.24561 6.48438 6.15186 6.48438 6.03906C 6.48438 5.90771 6.52734 5.80078 6.61719 5.71826L 6.68359 5.66553C 6.82031 5.57715 7 5.5332 7.22266 5.5332C 7.44531 5.5332 7.67578 5.57373 7.92188 5.6543C 8.16406 5.73486 8.40625 5.85107 8.64062 6.00244L 9.05859 5.04932C 8.98047 4.9834 8.89062 4.92285 8.78906 4.8667C 8.69141 4.81445 8.58203 4.7666 8.46484 4.72314C 8.21875 4.63281 7.95312 4.56787 7.67188 4.52881L 7.67188 3.72217L 6.64453 3.72217L 6.64453 4.55811C 6.19531 4.65088 5.83203 4.83936 5.55859 5.12256C 5.28516 5.40625 5.14844 5.74121 5.14844 6.12744C 5.14844 6.47412 5.23438 6.75049 5.41016 6.95605C 5.58203 7.16113 5.78516 7.3125 6.02344 7.41064L 6.34375 7.52979L 6.91797 7.69629C 7.25391 7.7793 7.49609 7.85645 7.64062 7.92725C 7.70703 7.95947 7.75781 7.99902 7.79297 8.0459C 7.83984 8.10352 7.86328 8.17285 7.86328 8.25391C 7.86328 8.5957 7.59375 8.76709 7.05469 8.76709C 6.50391 8.76709 5.98828 8.61279 5.51562 8.30518L 5.09766 9.2583C 5.29297 9.3999 5.52734 9.51611 5.79688 9.60645C 5.99219 9.67041 6.19141 9.71777 6.40234 9.74902L 6.67578 9.77881L 6.67578 10.5781L 7.69922 10.5781L 7.69922 9.74951Z" transform="translate(0.851562 0.825684)" fill="#67BE6A"/>
</g>
</g>
</svg>



