<svg id="Layer_1" xmlns="http://www.w3.org/2000/svg" viewBox="0 0 200 200"><style>.st0,.st1{fill:none;stroke:#fff;stroke-width:6;stroke-miterlimit:10}.st1{stroke-linecap:round;stroke-linejoin:round}</style><path class="st0" d="M170.3 172.2H29.8c-6.6 0-12-5.4-12-12V39.8c0-6.6 5.4-12 12-12h140.5c6.6 0 12 5.4 12 12v120.4c0 6.6-5.4 12-12 12zM17.8 54.7h164.5"/><path class="st1" d="M79.2 122.6l-12.6-6.3-12.7-6.2 12.7-6.3 12.6-6.3m43.1 0l12.7 6.3 12.7 6.3-12.7 6.2-12.7 6.3m-31.6 11.5l18-47.1"/><circle class="st1" cx="31.6" cy="41" r="1.8"/><circle class="st1" cx="46.3" cy="41" r="1.8"/><circle class="st1" cx="61.1" cy="41" r="1.8"/><path class="st1" d="M76.1 41h93"/></svg>