<svg xmlns="http://www.w3.org/2000/svg" viewBox="0 0 200 200"><style>.st0{stroke-linecap:round}.st0,.st1{fill:none;stroke:#00afd7;stroke-width:5;stroke-miterlimit:10}</style><g id="IDEA_5"><path class="st0" d="M126 101.8c.8-.5 1.9-.8 3-.8 1.4 0 2.6.4 3.5 1.2.9.7 1.5 1.7 1.5 2.8v16.7s.8 10.2-3.6 12.8c-1.4.9-2.4 2.4-2.4 4.1v6.4m-2-33v-10.2c-.1-1-.6-1.9-1.4-2.6-.9-.7-2.2-1.2-3.5-1.2-1.1 0-2.2.3-3 .8"/><path class="st0" d="M134 125h41c2.8 0 5-2.2 5-5V20c0-2.8-2.2-5-5-5H25c-2.8 0-5 2.2-5 5v100c0 2.8 2.2 5 5 5h68.2"/><path class="st1" d="M90 185v-36.2c0-2.1 1.6-3.8 3.6-3.8h42.7c2 0 3.6 1.7 3.6 3.8V175s-25 10-49.9 10zm48.9-29.4H91"/><path class="st0" d="M110 112V79c0-2.2-2.2-4-5-4s-5 1.8-5 4v33s-.1 2.1-1.9 3.5M110 95.8c.8-.5 1.9-.8 3-.8 1.4 0 2.6.4 3.5 1.2.9.7 1.5 1.7 1.5 2.8v13"/><path class="st0" d="M100 145v-6.6c0-1.5-.6-3.1-1.8-4-2.4-2-6.3-7.6-7-24-.1-2.5-.3-4.8 1.2-6.7 1.3-1.5 3.3-2.1 5.1-1.5l2.5.8m5.1-37.9v-15m-14 29.1h-15m58.4 0h-15m-4.3-10l10.6-10.6M95.3 69.2L84.7 58.6"/></g></svg>