<svg xmlns="http://www.w3.org/2000/svg" viewBox="0 0 1000 1000"><style>.st0{fill:#e0457b}</style><path d="M100.12 128.04c-9.4 3.45-21.86 12.85-26.66 20.33-10.55 16.3-45.84 141.16-59.84 212.31-4.79 23.98-4.79 80.17-.19 109.32 9.21 56.58 27.81 104.53 54.47 140.4 4.03 5.37 16.69 20.91 28.19 34.52 26.66 31.65 65.4 82.66 63.87 84.39-.77.58-11.89 5.18-24.74 9.97-13.04 4.99-23.4 9.78-23.4 10.74 1.15 7.29 24.36 122.94 24.93 123.51.57.58 24.74-2.11 109.13-12.28 29.54-3.64 67.89-7.86 85.35-9.59 41.23-3.83 52.17-5.75 78.44-12.66 25.51-6.71 32.22-9.78 35.1-15.92 2.3-5.37-2.3-50.63-8.25-80.74-4.79-23.21-17.45-54.66-25.7-63.48-7.48-7.86-13.04-8.25-37.4-2.69-9.01 2.11-17.26 3.84-18.22 3.84-1.34 0-.77-7.48 1.73-20.52 2.69-15.34 3.64-30.11 3.84-57.15.19-41.04-.96-46.41-15.92-69.62-11.12-17.07-44.5-50.63-65.59-65.98-26.85-19.37-29.34-23.78-42.19-74.22-8.82-35.48-15.54-50.44-28.77-64.44-12.85-13.62-22.06-17.26-40.47-15.73-7.67.58-16.11 1.73-18.6 2.5-4.6 1.34-4.6 1.15-3.26-8.06 16.11-116.99 17.26-140.77 7.48-156.12-12.67-19.94-34.54-29.34-53.33-22.63zm23.21 21.87c10.93 5.18 14.19 12.85 14.19 33.56 0 19.56-4.99 64.25-12.66 115.84-3.84 26.08-6.14 34.91-10.74 44.5-5.75 11.7-5.75 12.08-4.41 32.6 2.49 39.7 9.59 82.28 23.21 139.05 5.18 21.48 7.48 28.38 9.78 28.38 4.79 0 17.84-4.22 17.84-5.75 0-.77-3.07-13.81-6.71-28.96-14-58.5-22.06-109.13-22.06-138.86 0-13.23.58-16.69 4.22-21.1 5.94-7.67 25.32-16.3 36.63-16.3 8.06 0 10.17.96 17.45 7.67 10.55 9.78 14.77 19.56 24.55 57.15 8.05 31.45 16.11 51.59 26.08 65.02 3.26 4.41 14.38 14 24.74 21.29 19.18 13.62 49.1 42.77 60.22 59.07 13.62 19.95 17.64 44.88 13.43 83.24-2.11 18.99-6.9 48.91-9.01 55.81-.58 2.11-6.9 4.22-21.48 7.29-32.03 6.71-96.28 22.82-111.24 27.81l-13.43 4.6L159 689.03c-13.62-18.22-34.33-44.11-45.65-57.73-30.3-35.86-36.06-43.73-46.8-64.83-16.49-32.02-25.12-59.45-31.83-102.22-4.41-28.19-4.41-74.6 0-97.62 12.47-64.83 50.06-199.46 58.5-209.05 4.79-5.56 14-10.74 18.99-10.74 2.48 0 7.47 1.34 11.12 3.07zm281.35 562.71c8.25 19.95 11.89 36.63 16.3 73.26 3.26 27.43 3.26 28.38 0 28.38-1.92 0-9.78 1.73-17.45 3.84-17.26 4.79-41.62 8.82-71.35 11.51-12.66 1.15-51.4 5.56-86.31 9.59-93.98 11.32-91.29 11.12-92.06 8.82-1.53-4.41-16.3-80.93-16.3-83.81 0-1.73 1.53-3.64 3.45-4.22 1.73-.58 19.18-6.52 38.74-13.42 19.56-6.9 51.4-16.3 70.96-21.29 44.88-11.13 144.42-31.65 146.14-30.11.59.57 4.24 8.43 7.88 17.45zm466.24-584.19c-14.96 6.71-28.19 23.97-30.5 39.7-2.11 13.81 1.73 51.59 13.62 138.66 1.34 9.21 1.34 9.4-3.26 8.06-2.5-.77-11.51-1.92-20.14-2.5-13.23-.96-16.49-.38-23.59 3.07-20.71 10.74-32.6 31.45-44.11 76.91-12.85 50.63-15.15 54.85-42.19 74.41-21.1 15.34-54.47 48.91-65.59 65.98-14.96 23.21-16.11 28.58-15.92 69.62.19 27.04 1.15 41.81 3.84 56.96 2.5 13.23 3.07 20.71 1.73 20.71-.96 0-9.59-1.72-18.99-3.84-21.86-4.79-28.19-4.79-34.33.19-6.71 5.18-19.56 32.79-25.32 54.08-6.52 23.97-13.81 86.11-10.93 92.44 3.07 6.52 10.36 9.78 39.32 17.07 24.74 6.33 35.1 7.86 91.48 13.62 15.34 1.53 56.39 6.14 91.1 10.36 34.91 4.22 68.47 8.25 74.8 9.01l11.51 1.15 12.08-60.99c6.71-33.76 12.08-62.14 11.89-63.29 0-1.34-10.16-5.95-22.44-10.55-12.47-4.41-23.4-8.82-24.36-9.59-2.11-1.92 33.56-49.48 63.29-84.96 27.62-32.6 41.04-51.59 51.4-72.88 15.92-32.6 24.36-60.22 31.07-101.84 4.79-28.96 4.79-85.35.19-108.94-9.59-48.33-32.41-134.64-48.72-184.31-7.48-23.21-9.59-27.62-16.49-34.52-4.41-4.41-11.51-9.59-15.73-11.7-9.77-4.58-26.84-5.74-34.71-2.09zm25.7 21.09c2.88 1.53 7.1 4.79 9.21 7.29 8.44 9.21 41.23 122.94 57.35 199.46 8.25 38.36 7.48 82.85-1.92 129.65-6.14 29.73-11.89 47.37-23.78 72.5-11.12 23.21-20.9 37.97-38.36 57.92-17.45 19.95-39.7 47.76-63.29 79.21l-19.56 26.27-17.65-5.75c-19.37-5.94-74.99-19.94-107.21-26.66-11.31-2.3-20.9-5.37-21.48-6.52-.38-1.34-2.88-13.62-5.18-27.04-3.26-18.22-4.41-32.6-4.41-54.47-.19-32.99 1.73-40.28 14-58.3 11.12-16.11 40.85-45.45 59.84-58.88 10.17-7.29 21.29-16.49 24.55-20.71 9.78-12.27 18.41-33.56 25.89-63.48 9.21-36.82 14.77-49.67 25.31-59.46 7.29-6.71 9.4-7.67 17.45-7.67 11.31 0 30.69 8.63 36.63 16.3 3.64 4.41 4.22 7.86 4.22 21.29 0 28.58-8.44 80.93-22.25 138.66-3.64 15.15-6.52 28.19-6.52 28.96 0 1.53 13.04 5.75 17.64 5.75 2.11 0 4.79-7.48 9.78-28.38 13.23-54.28 20.71-99.73 23.59-140.97 1.15-18.41 1.15-19.18-4.6-30.69-5.18-10.16-6.91-18.03-11.89-52.17-12.66-87.84-14.58-121.02-7.67-132.33 6.72-10.93 19.96-15.15 30.31-9.78zM648.64 703.03c92.25 18.79 130.8 28.77 182.78 47.18 22.25 7.86 31.07 11.89 31.07 14 0 2.88-14.77 79.59-16.3 83.81-.77 2.3 1.92 2.5-92.06-8.82-34.71-4.03-73.65-8.44-86.31-9.59-29.73-2.69-54.08-6.71-71.35-11.51-7.67-2.11-15.53-3.84-17.45-3.84-3.45 0-3.45-.96 0-28.38 4.99-42 8.25-54.85 20.52-83.43 3.07-7.1 4.79-9.01 7.29-8.25 1.92.58 20.71 4.61 41.81 8.83zm-89.18-551.2c-18.99 4.99-30.88 12.27-47.18 28.38-8.63 8.63-16.88 17.45-18.41 19.94l-3.07 4.41-15.92-15.92c-26.08-26.27-48.71-35.1-88.99-34.9-19.75.19-25.12.96-38.17 5.37-31.26 10.74-55.81 35.29-66.17 65.97-10.55 31.07.19 71.54 30.3 116.99 14.96 22.06 50.63 56.77 86.88 84.01 30.11 22.63 81.32 57.15 87.84 59.26 5.37 1.73 8.63-.77 54.08-39.51 42.96-36.44 117.76-110.09 130.61-128.5 17.07-24.17 24.17-46.6 24.36-75.57 0-27.04-8.44-49.87-24.16-64.25-24.74-22.81-77.29-34.89-112-25.68zm52.55 20.9c16.3 3.45 34.52 11.7 43.92 19.95 3.83 3.45 9.4 11.12 12.28 17.07 4.99 9.97 5.37 12.66 5.18 32.03-.19 37.78-9.01 54.08-54.28 101.07-30.3 31.26-60.22 59.07-104.33 96.47l-26.48 22.44-19.56-12.85c-97.62-64.83-144.04-111.82-163.02-165.13-6.9-19.37-8.25-33.76-4.41-48.91 5.56-22.06 21.67-40.47 45.07-51.98 10.93-5.56 14.19-6.14 34.14-6.9 25.51-.96 38.36 1.15 54.85 9.4 14.19 7.29 23.97 16.11 38.17 34.9 10.36 13.62 12.08 14.96 17.45 14.38 4.79-.38 7.29-2.68 14.39-13.04 29.33-43.34 61.94-58.3 106.63-48.9z" class="st0"/></svg>