<svg id="Layer_1" xmlns="http://www.w3.org/2000/svg" viewBox="0 0 200 200"><style>.st0{fill:#cbdc57}</style><path class="st0" d="M83.7 22l-11 49.6L91 58.9l-15.7 49.8L91 98.8l-28.6 54.3 5.7-34-12.1 7.7 9.3-45.9-17.5 11.9 9.1-53.1L83.7 22m6-8.8l-8.3 5.5-26.7 17.7-1.4 1-.3 1.7-9.1 53.1-1.6 9.3 7.8-5.3 9.3-6.4L52 126l-1.9 9.2 7.9-5 4.6-2.9-4.2 25.2-4.1 24.5 11.6-22 28.6-54.3 6.9-13.1-12.6 7.9-6.5 4.1 12.4-39.4L98.2 49l-9.6 6.7-9.9 6.9L87.5 23l2.2-9.8zm82.6 20.5l-21.4 29.9 15.8-3.3-24.6 28.6 13.2-2.1-34.4 28 13.4-21-10.2 1.6 19.2-27.9-15 3 21.1-32.7 22.9-4.1m9.1-5.7l-9.7 1.8-22.9 4.2-1.7.3-.9 1.5L125 68.4l-5.1 7.9 9.3-1.8 5.3-1.1-13.6 19.8-5.3 7.7 9.2-1.5 1.4-.2-8.6 13.5-13.4 20.9 19.3-15.6 34.4-28 11.5-9.4-14.6 2.3-2.5.4 17.5-20.4 7.6-8.9-11.5 2.4-5.8 1.2L175.6 36l5.8-8z"/></svg>