<svg xmlns="http://www.w3.org/2000/svg" width="512" height="512" viewBox="0 0 512 512"><style>#light-bulb-17-icon{fill:#cbdc57}</style><path id="light-bulb-17-icon" d="M292.2 381.263h-72.511a9.202 9.202 0 0 0-9.202 9.202 9.202 9.202 0 0 0 9.202 9.203H292.2a9.203 9.203 0 1 0 0-18.405zm-1.655 30.638h-69.199a9.202 9.202 0 0 0 0 18.403h69.2a9.202 9.202 0 0 0-.001-18.403zm-68.726 30.21C239.735 458.673 241.579 462 248.731 462h13.775c6.989 0 8.713-3.083 27.564-19.889h-68.251zm138.88-220.482c0 62.305-53.581 97.22-53.581 146.388H204.772c0-49.168-53.582-84.083-53.582-146.388 0-133.904 209.509-134.04 209.509 0zM269.202 95.112H244.14V50h25.062v45.112zm86.062-21.142L333.18 62.12l-22.055 41.103 22.084 11.85 22.055-41.103zm64.092 62.072l-14.599-20.371-40.101 28.738 14.6 20.371 40.1-28.738zm4.426 158.099l-45.116-18.277-9.41 23.228 45.116 18.278 9.41-23.229zm15.007-88.586h-51.126v25.062h51.126v-25.062zM200.875 103.223L178.82 62.12l-22.084 11.85 22.055 41.103 22.084-11.85zm-53.532 41.186l-40.101-28.738-14.599 20.371 40.1 28.738 14.6-20.371zM143.177 296.9L132.9 274.043l-45.116 20.283 10.277 22.857 45.116-20.283zm-18.84-91.345H73.211v25.062h51.126v-25.062z"/></svg>