<svg id="Layer_1" xmlns="http://www.w3.org/2000/svg" viewBox="0 0 200 200"><style>.st0{fill:none;stroke:#000;stroke-width:5;stroke-linecap:round;stroke-linejoin:round;stroke-miterlimit:10}</style><path class="st0" d="M96.6 138.8L50 163.3l8.9-51.8-37.6-36.7 52-7.6L96.6 20l23.3 47.2 52 7.6-37.7 36.7 8.9 51.8z"/><path class="st0" d="M71.3 64.8h4.6v4.6h-4.6zM19 72.5h4.6v4.6H19zM141 161h4.6v4.6H141zm-93.5 0h4.6v4.6h-4.6zm122.1-88.5h4.6v4.6h-4.6zM56.9 109.2h4.6v4.6h-4.6zm75.2 0h4.6v4.6h-4.6zM94.3 137h4.6v4.6h-4.6zm0-117.8h4.6v4.6h-4.6zM118 64.8h4.6v4.6H118z"/><path transform="rotate(125.928 70.355 178.191)" class="st0" d="M68.1 175.9h4.6v4.6h-4.6z"/><path transform="rotate(125.928 29.222 148.385)" class="st0" d="M26.9 146.1h4.6v4.6h-4.6z"/><path class="st0" d="M69.2 177.3l-40-28.9"/><path transform="rotate(-18.071 164.041 50.624)" class="st0" d="M161.7 48.3h4.6v4.6h-4.6z"/><path transform="rotate(-18.071 179.802 98.922)" class="st0" d="M177.5 96.6h4.6v4.6h-4.6z"/><path class="st0" d="M164.5 52l15.3 46.9"/></svg>