<svg width="14" height="17" viewBox="0 0 14 17" version="1.1" xmlns="http://www.w3.org/2000/svg" xmlns:xlink="http://www.w3.org/1999/xlink">
<g id="Canvas" fill="none">
<g id="Group 52">
<g id="Rectangle 30">
<path d="M 0.999999 9.76729L 9.67447 9.76729C 10.2267 9.76729 10.6745 9.31957 10.6745 8.76729L 10.6745 1C 10.6745 0.447715 10.2268 0 9.67447 0L 1 0C 0.447715 0 0 0.447717 0 1L 0 8.76729C 0 9.31957 0.447715 9.76729 0.999999 9.76729Z" stroke-width="1.5" transform="translate(1.66406 5.88574)" stroke="#8896B3"/>
</g>
<g id="Rectangle 31">
<path d="M 5.44307 4.53589L 5.44307 2.72154C 5.44307 1.21847 4.2246 0 2.72154 0L 2.72154 0C 1.21847 0 0 1.21847 0 2.72154L 0 4.53589L 5.44307 4.53589Z" stroke-width="1.5" transform="translate(4.27344 1.24414)" stroke="#8896B3"/>
</g>
<g id="Oval 18">
<path d="M 1.33601 2.67202C 2.07387 2.67202 2.67202 2.07387 2.67202 1.33601C 2.67202 0.598153 2.07387 0 1.33601 0C 0.598153 0 0 0.598153 0 1.33601C 0 2.07387 0.598153 2.67202 1.33601 2.67202Z" stroke-width="1.5" transform="translate(5.66406 9.21973)" stroke="#8896B3"/>
</g>
</g>
</g>
</svg>

