<svg xmlns="http://www.w3.org/2000/svg" viewBox="0 0 512 512"><path d="M392.533 119.467c-65.877 0-119.467 53.589-119.467 119.467S326.656 358.4 392.533 358.4 512 304.811 512 238.933s-53.589-119.466-119.467-119.466zm0 221.866c-56.465 0-102.4-45.935-102.4-102.4s45.935-102.4 102.4-102.4 102.4 45.935 102.4 102.4-45.935 102.4-102.4 102.4z"/><path d="M392.533 196.267c9.412 0 17.067 7.654 17.067 17.067 0 4.71 3.823 8.533 8.533 8.533s8.533-3.823 8.533-8.533c0-15.855-10.923-29.107-25.6-32.922V179.2a8.536 8.536 0 0 0-8.533-8.533A8.536 8.536 0 0 0 384 179.2v1.212c-14.677 3.814-25.6 17.067-25.6 32.922 0 18.825 15.309 34.133 34.133 34.133 9.412 0 17.067 7.654 17.067 17.067 0 9.412-7.654 17.067-17.067 17.067-9.412 0-17.067-7.654-17.067-17.067 0-4.71-3.823-8.533-8.533-8.533s-8.533 3.823-8.533 8.533c0 15.855 10.923 29.107 25.6 32.922v1.212a8.536 8.536 0 0 0 8.533 8.533 8.536 8.536 0 0 0 8.533-8.533v-1.212c14.677-3.814 25.6-17.067 25.6-32.922 0-18.825-15.309-34.133-34.133-34.133-9.412 0-17.067-7.654-17.067-17.067.001-9.413 7.655-17.067 17.067-17.067zM119.467 102.4A8.536 8.536 0 0 0 128 93.867V59.733c0-23.526 19.14-42.667 42.667-42.667h170.667c23.526 0 42.667 19.14 42.667 42.667v34.133a8.536 8.536 0 0 0 8.533 8.533 8.536 8.536 0 0 0 8.533-8.533V59.733C401.067 26.795 374.272 0 341.333 0H170.667c-32.939 0-59.733 26.795-59.733 59.733v34.133c-.001 4.711 3.822 8.534 8.533 8.534zm0 17.067C53.589 119.467 0 173.056 0 238.933v153.6C0 458.411 53.589 512 119.467 512s119.467-53.589 119.467-119.467v-76.8c0-4.71-3.823-8.533-8.533-8.533s-8.533 3.823-8.533 8.533v76.8c0 56.465-45.935 102.4-102.4 102.4s-102.4-45.935-102.4-102.4v-153.6c0-53.581 41.395-97.604 93.867-101.965v136.098H42.667c-4.71 0-8.533 3.823-8.533 8.533s3.823 8.533 8.533 8.533H230.4a8.536 8.536 0 0 0 8.533-8.533v-42.667c0-65.876-53.589-119.465-119.466-119.465zm102.4 153.6H128V136.969c52.471 4.361 93.867 48.384 93.867 101.965v34.133z"/></svg>