<svg width="12" height="17" viewBox="0 0 12 17" version="1.1" xmlns="http://www.w3.org/2000/svg" xmlns:xlink="http://www.w3.org/1999/xlink">
<g id="Canvas" fill="none">
<g id="Group 54">
<g id="Rectangle 33">
<path d="M 1 14.436L 7.99415 14.436C 8.54644 14.436 8.99415 13.9883 8.99415 13.436L 8.99415 1C 8.99415 0.447715 8.54643 0 7.99415 0L 1 0C 0.447715 0 0 0.447715 0 1L 0 13.436C 0 13.9883 0.447717 14.436 1 14.436Z" stroke-width="1.5" stroke-linecap="round" stroke-linejoin="round" transform="translate(1.5 1.28223)" stroke="#8896B3"/>
</g>
<g id="Path 19">
<path d="M 0 1L 8.59603 1" stroke-width="1.5" stroke-linecap="round" stroke-linejoin="round" transform="translate(1.66406 2.93506)" stroke="#8896B3"/>
</g>
<g id="Path 19 Copy">
<path d="M 0 1L 8.59603 1" stroke-width="1.5" stroke-linecap="round" stroke-linejoin="round" transform="translate(1.66406 10.1123)" stroke="#8896B3"/>
</g>
<g id="Oval 19">
<path fill-rule="evenodd" clip-rule="evenodd" d="M 1.06939 2.13879C 1.66 2.13879 2.13879 1.66 2.13879 1.06939C 2.13879 0.478784 1.66 0 1.06939 0C 0.478784 0 0 0.478784 0 1.06939C 0 1.66 0.478784 2.13879 1.06939 2.13879Z" transform="translate(4.92969 12.4683)" fill="#8896B3"/>
</g>
</g>
</g>
</svg>


