<?xml version="1.0" encoding="UTF-8" standalone="no"?>
<svg width="14px" height="17px" viewBox="0 0 14 17" version="1.1" xmlns="http://www.w3.org/2000/svg" xmlns:xlink="http://www.w3.org/1999/xlink">
    <!-- Generator: Sketch 49.3 (51167) - http://www.bohemiancoding.com/sketch -->
    <title>Group 2</title>
    <desc>Created with Sketch.</desc>
    <defs></defs>
    <g id="Desktop-and-Mobile-Version" stroke="none" stroke-width="1" fill="none" fill-rule="evenodd">
        <g id="Homepage-" transform="translate(-764.000000, -707.000000)">
            <g id="Group-4" transform="translate(319.000000, 604.000000)">
                <g id="Group-5" transform="translate(60.000000, 47.000000)">
                    <g id="Group-3-Copy" transform="translate(364.000000, 37.000000)">
                        <g id="Group-2" transform="translate(20.000000, 19.500000)">
                            <rect id="Rectangle-6" x="0" y="0" width="16" height="16"></rect>
                            <path d="M8,15.1364715 C4.19388186,11.5293553 2.29082279,8.6747667 2.29082279,6.5727057 C2.29082279,3.41961419 4.84690849,0.863528491 8,0.863528491 C11.1530915,0.863528491 13.7091772,3.41961419 13.7091772,6.5727057 C13.7091772,8.6747667 11.8061181,11.5293553 8,15.1364715 Z M8,8.71364715 C9.18240931,8.71364715 10.1409415,7.75511501 10.1409415,6.5727057 C10.1409415,5.39029638 9.18240931,4.43176425 8,4.43176425 C6.81759069,4.43176425 5.85905855,5.39029638 5.85905855,6.5727057 C5.85905855,7.75511501 6.81759069,8.71364715 8,8.71364715 Z" id="Combined-Shape" stroke="#8896B3" stroke-width="1.5"></path>
                        </g>
                    </g>
                </g>
            </g>
        </g>
    </g>
</svg>