<?xml version="1.0" encoding="UTF-8" standalone="no"?>
<svg width="16px" height="20px" viewBox="0 0 16 20" version="1.1" xmlns="http://www.w3.org/2000/svg" xmlns:xlink="http://www.w3.org/1999/xlink">
    <!-- Generator: Sketch 49.3 (51167) - http://www.bohemiancoding.com/sketch -->
    <title>Group 15</title>
    <desc>Created with Sketch.</desc>
    <defs></defs>
    <g id="Desktop-and-Mobile-Version" stroke="none" stroke-width="1" fill="none" fill-rule="evenodd">
        <g id="Homepage-" transform="translate(-825.000000, -2068.000000)" fill="#67BE6A">
            <g id="Group-47" transform="translate(-150.000000, 1099.000000)">
                <g id="Group-16-Copy" transform="translate(440.000000, 921.000000)">
                    <g id="Group-13" transform="translate(469.000000, 33.000000)">
                        <g id="Group-3" transform="translate(49.000000, 0.000000)">
                            <g id="Group-15" transform="translate(17.000000, 15.000000)">
                                <path d="M5.45454545,3.28987561 L10.5454545,3.28987561 L10.5454545,1.13932666 C10.5454545,0.510093922 11.0338712,0 11.6363636,0 C12.2388561,0 12.7272727,0.510093922 12.7272727,1.13932666 L12.7272727,3.28987561 L15,3.28987561 C15.5522847,3.28987561 16,3.73759086 16,4.28987561 L16,19 C16,19.5522847 15.5522847,20 15,20 L1,20 C0.44771525,20 1.04869017e-15,19.5522847 0,19 L0,4.28987561 C-6.76353751e-17,3.73759086 0.44771525,3.28987561 1,3.28987561 L3.27272727,3.28987561 L3.27272727,1.13932666 C3.27272727,0.510093922 3.76114391,0 4.36363636,0 C4.96612882,0 5.45454545,0.510093922 5.45454545,1.13932666 L5.45454545,3.28987561 Z M4.01692939,10.5056111 L9.0739797,10.5056111 C9.67647215,10.5056111 10.1648888,9.99551722 10.1648888,9.36628448 C10.1648888,8.73705174 9.67647215,8.22695781 9.0739797,8.22695781 L4.01692939,8.22695781 C3.41443694,8.22695781 2.9260203,8.73705174 2.9260203,9.36628448 C2.9260203,9.99551722 3.41443694,10.5056111 4.01692939,10.5056111 Z M4.01692939,15.0629178 L11.9830706,15.0629178 C12.5855631,15.0629178 13.0739797,14.5528239 13.0739797,13.9235911 C13.0739797,13.2943584 12.5855631,12.7842645 11.9830706,12.7842645 L4.01692939,12.7842645 C3.41443694,12.7842645 2.9260203,13.2943584 2.9260203,13.9235911 C2.9260203,14.5528239 3.41443694,15.0629178 4.01692939,15.0629178 Z" id="Combined-Shape"></path>
                            </g>
                        </g>
                    </g>
                </g>
            </g>
        </g>
    </g>
</svg>