<svg width="20px" height="18px" viewBox="944 251 20 18" version="1.1" xmlns="http://www.w3.org/2000/svg" xmlns:xlink="http://www.w3.org/1999/xlink">
<defs></defs>
<path d="M945.010818,265.693276 C945.261025,265.032208 945.603745,264.86197 946.018723,264.863314 C951.327446,264.87984 956.636169,264.87984 961.944892,264.863314 C962.35987,264.86197 962.70259,265.032208 962.952797,265.693276 C962.952797,266.319141 963.080002,267.185113 962.916772,267.503016 C962.756066,267.815949 962.300928,267.574229 961.975029,267.574229 C956.413016,267.574363 950.851002,267.570467 945.288919,267.587665 C945.045861,267.588471 944.97907,267.490521 945.005352,267.033416 C945.030653,266.59163 945.010818,266.140303 945.010818,265.693276 Z M962.952797,255.763705 C962.602648,255.766869 962.252429,255.771778 961.90228,255.772487 C961.740101,255.772815 961.611213,255.793051 961.544632,255.934654 C961.39633,256.249987 961.06952,256.318879 960.672904,256.318225 C957.776956,256.313425 954.880939,256.315716 951.984991,256.315716 C950.420185,256.315716 948.855448,256.311243 947.290711,256.318552 C946.876574,256.320516 946.552497,256.237714 946.403915,255.90989 C946.343641,255.776851 946.204871,255.774397 946.061335,255.773197 C945.711186,255.770196 945.360967,255.766869 945.010818,255.763705 L945.010818,255.218241 C947.124327,254.45339 949.239939,253.692086 951.350224,252.921944 C952.182774,252.618066 953.040765,252.355643 953.841636,252 L954.121979,252 C954.211058,252.042274 954.295792,252.091802 954.389847,252.12573 C955.733043,252.609829 957.078551,253.089947 958.421256,253.574756 C959.932937,254.120603 961.442376,254.670267 962.952797,255.218241 L962.952797,255.763705 Z M953.968568,264.383153 C951.644241,264.383153 949.319914,264.386698 946.995657,264.377589 C946.765004,264.376716 946.4185,264.504191 946.351918,264.170913 C946.267395,263.74785 946.466439,263.399953 946.855976,263.30046 C946.99804,263.264187 947.156504,263.236695 947.302843,263.246623 C947.677031,263.272041 947.751463,263.130712 947.745085,262.872489 C947.727844,262.172767 947.739198,261.472663 947.739198,260.772723 C947.739268,259.563701 947.746487,258.354624 947.733591,257.145711 C947.730787,256.88847 947.831501,256.782213 948.172538,256.796777 C948.568523,256.813687 948.966541,256.799777 949.363647,256.800868 C949.848081,256.802177 949.857683,256.808723 949.857823,257.178439 C949.858524,259.060128 949.857963,260.941871 949.858313,262.823561 C949.858383,263.240023 949.859225,263.241823 950.404002,263.240405 C951.261572,263.238168 951.177469,263.301878 951.17824,262.642903 C951.180413,260.833924 951.178591,259.024945 951.179362,257.215967 C951.179572,256.812923 951.19457,256.802068 951.70865,256.800814 C952.094052,256.799832 952.480365,256.81325 952.864716,256.796995 C953.204002,256.78265 953.305416,256.887379 953.303944,257.145765 C953.293151,259.0274 953.298127,260.909144 953.298267,262.790833 C953.298337,263.24035 953.298758,263.24275 953.872411,263.240241 C954.766496,263.236368 954.662909,263.31366 954.66417,262.633848 C954.667675,260.81576 954.665011,258.997727 954.665782,257.179639 C954.665923,256.810632 954.677907,256.802395 955.160238,256.800868 C955.510597,256.799723 955.861026,256.800214 956.211386,256.800705 C956.779151,256.801468 956.784197,256.804523 956.784337,257.236585 C956.784898,259.091001 956.784478,260.945417 956.784758,262.799833 C956.784828,263.239968 956.785529,263.241986 957.340819,263.24035 C958.209603,263.237677 958.102793,263.302151 958.104194,262.639303 C958.107909,260.821269 958.105105,259.003181 958.105806,257.185148 C958.105946,256.807468 958.113095,256.802395 958.591431,256.800868 C958.976833,256.799668 959.362305,256.799614 959.747707,256.800923 C960.208662,256.80245 960.223661,256.812759 960.223871,257.166275 C960.224922,258.929816 960.224361,260.693303 960.224361,262.456845 C960.224431,262.538664 960.224361,262.620484 960.224431,262.702304 C960.224431,263.191204 960.224431,263.191204 960.826329,263.251696 C961.441192,263.313497 961.808021,263.788869 961.597764,264.245314 C961.52137,264.411081 961.342511,264.380916 961.18678,264.381353 C960.077181,264.384298 958.967582,264.383098 957.857983,264.383153 C956.561535,264.383207 955.265016,264.383153 953.968568,264.383153 Z" id="Combined-Shape" stroke="#DFDFDF" stroke-width="1" fill="#00A4F1" fill-rule="evenodd"></path>
</svg>