<?xml version="1.0" encoding="UTF-8" standalone="no"?>
<svg width="12px" height="17px" viewBox="0 0 12 17" version="1.1" xmlns="http://www.w3.org/2000/svg" xmlns:xlink="http://www.w3.org/1999/xlink">
    <!-- Generator: Sketch 49.3 (51167) - http://www.bohemiancoding.com/sketch -->
    <title>Group 2</title>
    <desc>Created with Sketch.</desc>
    <defs></defs>
    <g id="Desktop-and-Mobile-Version" stroke="none" stroke-width="1" fill="none" fill-rule="evenodd">
        <g id="Homepage-" transform="translate(-401.000000, -707.000000)">
            <g id="Group-4" transform="translate(319.000000, 604.000000)">
                <g id="Group-5" transform="translate(60.000000, 47.000000)">
                    <g id="Group-3" transform="translate(0.000000, 37.000000)">
                        <g id="Group-2" transform="translate(20.000000, 19.500000)">
                            <rect id="Rectangle-6" x="0" y="0" width="16" height="16"></rect>
                            <g id="Group" transform="translate(2.972883, 0.800044)" stroke="#8896B3" stroke-width="1.5">
                                <path d="M0,12.6515516 L0,1.10013492 C0,0.492547182 0.492547182,0 1.10013492,0 L8.80107939,0 C9.40866713,0 9.90121431,0.492547182 9.90121431,1.10013492 L9.90121431,10.6731662" id="Rectangle-4"></path>
                                <path d="M1.65020239,11.0013492 L9.90121431,11.0013492 L9.90121431,14.301754 L1.65020239,14.301754 C0.738820774,14.301754 1.11612057e-16,13.5629332 0,12.6515516 L0,12.6515516 C-1.11612057e-16,11.74017 0.738820774,11.0013492 1.65020239,11.0013492 Z" id="Rectangle-5"></path>
                                <path d="M2.69953217,4.30813929 L7.20168214,4.30813929" id="Path-2-Copy" stroke-linecap="round" stroke-linejoin="round"></path>
                                <path d="M2.69953217,7.33244967 L7.20168214,7.33244967" id="Path-2-Copy-2" stroke-linecap="round" stroke-linejoin="round"></path>
                            </g>
                        </g>
                    </g>
                </g>
            </g>
        </g>
    </g>
</svg>