<?xml version="1.0" encoding="UTF-8" standalone="no"?>
<svg width="17px" height="19px" viewBox="0 0 17 19" version="1.1" xmlns="http://www.w3.org/2000/svg" xmlns:xlink="http://www.w3.org/1999/xlink">
    <!-- Generator: Sketch 49.3 (51167) - http://www.bohemiancoding.com/sketch -->
    <title>Group 11</title>
    <desc>Created with Sketch.</desc>
    <defs></defs>
    <g id="Desktop-and-Mobile-Version" stroke="none" stroke-width="1" fill="none" fill-rule="evenodd">
        <g id="Homepage-" transform="translate(-355.000000, -1672.000000)" fill="#67BE6A">
            <g id="Group-47" transform="translate(-150.000000, 1099.000000)">
                <g id="Group-15" transform="translate(440.000000, 520.000000)">
                    <g id="Group-13-Copy" transform="translate(0.000000, 38.000000)">
                        <g id="Group-3" transform="translate(49.000000, 0.000000)">
                            <g id="Group-11" transform="translate(16.000000, 15.000000)">
                                <path d="M8.5,8.67528515 C6.10438615,8.67528515 4.16235742,6.73325642 4.16235742,4.33764258 C4.16235742,1.94202873 6.10438615,0 8.5,0 C10.8956138,0 12.8376426,1.94202873 12.8376426,4.33764258 C12.8376426,6.73325642 10.8956138,8.67528515 8.5,8.67528515 Z M3.825,11.1376426 L13.175,11.1376426 C15.2874892,11.1376426 17,12.8501534 17,14.9626426 L17,16.9876426 C17,17.9817551 16.1941126,18.7876426 15.2,18.7876426 L1.79999995,18.7876426 C0.805887429,18.7876426 1.21743672e-16,17.9817551 0,16.9876426 L0,14.9626426 C-2.5870531e-16,12.8501534 1.71251083,11.1376426 3.825,11.1376426 Z" id="Combined-Shape"></path>
                            </g>
                        </g>
                    </g>
                </g>
            </g>
        </g>
    </g>
</svg>