<svg width="34" height="34" viewBox="0 0 34 34" xmlns="http://www.w3.org/2000/svg"><title>ABC logo</title><path d="M17.186 33.999c-2.356.001-4.447-.397-6.46-1.196a16.87 16.87 0 0 1-4.776-2.887 16.956 16.956 0 0 1-3.504-4.131 16.83 16.83 0 0 1-2.394-7.482 16.906 16.906 0 0 1 1.385-8.144 16.919 16.919 0 0 1 2.886-4.478A16.97 16.97 0 0 1 17.45.006a16.936 16.936 0 0 1 11.117 4.54 16.945 16.945 0 0 1 2.962 3.624 16.823 16.823 0 0 1 2.079 5.18c.14.64.243 1.285.309 1.935.04.4.068.803.077 1.205a17.154 17.154 0 0 1-.313 3.804 16.942 16.942 0 0 1-4.003 8.031 16.972 16.972 0 0 1-11.186 5.612c-.496.044-.994.07-1.305.062zm15.602-18.26c.115 0 .23-.002.344 0 .057.001.08-.013.062-.076-.036-.126-.062-.256-.102-.38-.427-1.33-1.245-2.35-2.468-3.035a4.904 4.904 0 0 0-3.34-.555c-1.224.218-2.245.806-3.035 1.762-1.028 1.244-1.39 2.675-1.102 4.256a4.9 4.9 0 0 0 1.77 2.985c1.216.994 2.615 1.356 4.163 1.098 1.161-.194 2.14-.74 2.934-1.608.6-.656.99-1.42 1.192-2.282.015-.065.004-.09-.069-.087-.202.008-.404.01-.607.012-.592.003-1.184.005-1.777.004-.066 0-.104.018-.134.081a2.626 2.626 0 0 1-2.792 1.449 2.62 2.62 0 0 1-2.183-3.008c.226-1.354 1.471-2.352 2.898-2.175.94.116 1.628.602 2.054 1.447.037.074.08.1.16.1.678-.001 1.355-.006 2.032.011zm-20.955-2.965h.001v4.03c0 .302.014.601.067.898a4.943 4.943 0 0 0 1.686 2.948c1.254 1.08 2.712 1.524 4.357 1.275a4.89 4.89 0 0 0 3.053-1.696c1.038-1.206 1.453-2.614 1.19-4.18-.313-1.862-1.382-3.164-3.111-3.925a4.809 4.809 0 0 0-1.61-.376c-.521-.037-1.03.002-1.522.188-.567.216-1.025.582-1.431 1.021-.032.035-.06.104-.107.087-.042-.015-.02-.085-.02-.13l-.003-4.547c0-.121 0-.122-.122-.122h-2.288c-.14 0-.14 0-.14.14v4.39zm-.603 6.41h-.001c0-.841.002-1.682-.001-2.523a4.944 4.944 0 0 0-1.747-3.717c-1.306-1.127-2.824-1.577-4.527-1.254-1.641.311-2.843 1.251-3.608 2.726-.5.962-.647 1.992-.49 3.062a4.912 4.912 0 0 0 1.388 2.804c1.074 1.088 2.384 1.612 3.92 1.559a2.98 2.98 0 0 0 1.5-.468 4.3 4.3 0 0 0 .9-.767c.025-.028.046-.085.089-.068.035.013.015.068.015.104.002.383.001.766.001 1.148 0 .12 0 .121.122.12l2.322-.016c.116-.001.117-.001.117-.117v-2.593zm3.218-2.461c-.015-1.41 1.156-2.62 2.621-2.615a2.626 2.626 0 0 1 2.615 2.627 2.623 2.623 0 0 1-2.631 2.609c-1.458 0-2.624-1.212-2.605-2.621zm-8.49 2.62c-1.464.007-2.619-1.211-2.617-2.62.002-1.402 1.151-2.62 2.625-2.614a2.626 2.626 0 0 1 2.615 2.617 2.621 2.621 0 0 1-2.623 2.617z" fill="#999" fill-rule="evenodd"/></svg>