<svg width="46" height="35" viewBox="0 0 46 35" xmlns="http://www.w3.org/2000/svg"><title>CNBC Logo</title><path d="M44.266 16.924c-1.788-1.596-4.148-1.656-6.284-.207-3.922 2.66-7.864 5.296-11.794 7.945-.15.1-.432.155-.376.372.057.216.325.142.506.142 4.862.003 9.725.024 14.587-.009 1.825-.012 3.303-.797 4.25-2.403.228-.386.376-.816.585-1.225v-2.19c-.313-.912-.736-1.767-1.474-2.425zm-24.55 2.565c.302.693.617 1.381.926 2.072l.151-.021c.045-.2.104-.398.133-.6.741-5.154 1.48-10.31 2.217-15.465.487-3.413-2.519-6.15-5.863-5.328-2.678.66-4.458 3.703-3.106 6.697 1.895 4.193 3.697 8.428 5.541 12.645zm4.743-14.11c.406-.002.821-.055 1.375.108-.302.18-.478.305-.671.397-.734.347-.954.968-.914 1.717.02.363.075.725.127 1.086.505 3.538 1.01 7.077 1.523 10.615.109.748.157 1.508.385 2.287.241-.128.28-.309.347-.462 2.1-4.785 4.2-9.57 6.29-14.36.358-.819.569-1.67.447-2.583-.336-2.515-2.552-4.276-4.918-4.175-2.564.11-4.637 2.211-4.574 4.778.01.426.165.593.583.592zm2.114 17.684c-.064.146-.25.324-.074.463.14.11.278-.084.4-.166 4.315-2.916 8.627-5.837 12.942-8.753 1.772-1.198 2.512-3.325 1.868-5.402-.588-1.898-2.45-3.23-5.03-3.231-1.57.086-3.07 1.06-3.916 2.978-2.071 4.7-4.13 9.406-6.19 14.111zm-19.43-8.517c3.803 2.62 7.642 5.185 11.468 7.772.64.433 1.283.862 1.979 1.328.065-.329-.049-.475-.116-.629-.831-1.91-1.665-3.818-2.503-5.724-1.259-2.86-2.483-5.736-3.794-8.57-1.102-2.381-3.653-3.372-6.08-2.396-1.77.711-2.758 2.106-2.925 3.981-.155 1.749.518 3.236 1.971 4.238zm6.25 10.633c2.43 0 4.861 0 7.293-.002.185 0 .447.06.523-.13.096-.238-.197-.288-.338-.383a8626.478 8626.478 0 0 0-12.18-8.203 4.406 4.406 0 0 0-2.033-.747c-1.802-.184-3.291.422-4.386 1.863-1.061 1.397-1.245 2.982-.597 4.583.837 2.065 2.51 2.985 4.684 3.012 2.344.03 4.689.007 7.033.007zm26.08 3.63c.463-.035.927-.03 1.382.096.456.124.792.378.93.849.028.098.08.145.186.144l3.21-.009v-.6c-.256-.63-.742-1.029-1.338-1.314-.974-.466-2.018-.614-3.08-.664-.71-.033-1.422-.02-2.13.066-.897.108-1.773.299-2.588.705-.876.436-1.567 1.054-1.928 1.99-.216.56-.254 1.144-.197 1.735.087.897.454 1.647 1.2 2.184.63.453 1.351.676 2.104.811 1.181.213 2.373.228 3.565.142.913-.066 1.803-.256 2.648-.62.801-.346 1.486-.818 1.744-1.719v-.317l-3.227-.006c-.08 0-.154.003-.171.109-.05.303-.257.493-.49.661-.532.386-1.133.455-1.765.378a4.333 4.333 0 0 1-.674-.128c-.735-.211-1.194-.672-1.326-1.44-.093-.534-.094-1.062.079-1.583.277-.84.981-1.403 1.865-1.47zm-16.74-1.363c-.787.007-1.575.003-2.363.003-.252 0-.253.001-.253.255l-.001 4.762c0 .065.02.136-.024.2-.069-.04-.095-.101-.132-.153-1.16-1.628-2.32-3.256-3.474-4.887a.379.379 0 0 0-.35-.18 525.1 525.1 0 0 1-3.969 0c-.172 0-.235.046-.235.228.006 2.305.005 4.61 0 6.914 0 .172.058.22.224.219.788-.007 1.576-.003 2.364-.003.28 0 .28 0 .28-.282l.001-4.692c0-.067-.02-.139.036-.224.055.07.103.133.15.197 1.207 1.615 2.415 3.23 3.618 4.848.082.11.17.156.309.156 1.27-.005 2.54-.003 3.81-.003.238 0 .24-.001.24-.232 0-2.299-.002-4.597.003-6.896 0-.18-.058-.232-.233-.23zm-12.188.894c-.589-.447-1.274-.674-1.987-.822-1.218-.253-2.447-.267-3.682-.15-.866.081-1.708.26-2.506.61-.82.36-1.511.877-1.96 1.677-.38.68-.458 1.414-.386 2.17.074.767.359 1.445.949 1.968.463.41 1.008.672 1.598.83 1.666.444 3.356.463 5.052.229.86-.12 1.692-.353 2.45-.795.615-.36 1.09-.832 1.222-1.574.026-.15-.01-.203-.163-.203-1.023.003-2.046.003-3.069 0-.11 0-.17.03-.19.152-.031.193-.147.343-.289.473a2.012 2.012 0 0 1-.644.392c-.751.288-1.495.171-2.222-.081-.568-.197-.919-.618-1.056-1.206a3.629 3.629 0 0 1-.07-1.259c.113-.95.763-1.694 1.693-1.894.494-.107.994-.086 1.489.004.545.1.97.357 1.127.93.032.118.124.106.212.106h1.534c.505 0 1.011-.006 1.516.004.17.004.212-.055.196-.214-.06-.578-.367-1.009-.814-1.347zm22.338 3.217c-.425-.373-.944-.535-1.505-.627.096-.026.192-.05.287-.08.428-.127.825-.315 1.143-.635.63-.635.565-1.441-.15-1.973a2.988 2.988 0 0 0-.798-.407c-.803-.284-1.64-.37-2.48-.378-1.788-.016-3.575-.005-5.363-.011-.18-.001-.229.06-.229.235.005 2.298.005 4.597 0 6.895 0 .178.053.232.231.231 1.823-.006 3.646-.003 5.468-.005.554 0 1.104-.048 1.649-.142.588-.102 1.161-.253 1.664-.593.326-.22.579-.504.673-.896.159-.665-.102-1.187-.59-1.614zm-5.968-2.56c0-.112.038-.156.154-.155.628.004 1.256-.016 1.881.069.206.027.403.082.585.182.23.128.331.333.317.586-.014.24-.176.371-.39.452a2.226 2.226 0 0 1-.67.13c-.382.021-.762.062-1.077.04-.256 0-.444-.005-.632.001-.117.004-.17-.032-.168-.159a39.73 39.73 0 0 0 0-1.145zm3.088 3.576c-.018.272-.2.397-.424.482-.357.135-.735.153-1.109.169-.457.019-.915.003-1.373.01-.137.002-.185-.043-.183-.182.008-.381.008-.763 0-1.144-.003-.142.051-.184.186-.18.246.007.493.002.74.002.48-.003.962-.006 1.434.108.126.03.248.07.364.13.248.125.385.316.365.605z" fill="#999" fill-rule="evenodd"/></svg>