<svg width="34" height="34" viewBox="0 0 34 34" xmlns="http://www.w3.org/2000/svg"><title>Fox News Logo</title><path d="M12.51 23.4c-.007 1.166.004 2.427.017 3.689 0 .062.01.124.013.187.001.051.027.067.075.069.102.002.204.013.307.013h4.501c.24 0 .241 0 .242-.242v-1.372c0-.06-.01-.119-.013-.178-.002-.05-.028-.071-.075-.073-.1-.005-.199-.016-.298-.016-.852-.002-1.705-.002-2.558-.003-.06 0-.119-.002-.179 0-.052.001-.078-.02-.078-.075v-1.372c0-.059.025-.08.082-.08.12 0 .238-.008.358-.008.682-.003 1.364-.006 2.046-.005.082 0 .106-.025.106-.106-.003-.492-.002-.984-.002-1.475 0-.117 0-.116-.118-.117-.79-.005-1.58-.012-2.37-.014-.077 0-.104-.024-.104-.102.003-.373.003-.745 0-1.117 0-.083.029-.106.11-.107.599-.003 1.198.008 1.798-.008.377-.01.756-.005 1.134-.005.056 0 .098-.004.098-.08 0-.548.033-1.096 0-1.644-.007-.125-.006-.125-.128-.14a51.743 51.743 0 0 0-1.1-.017c-.866-.004-1.732-.014-2.599.005-.38.009-.761.007-1.142.006-.08 0-.108.024-.109.107-.003.582-.004 1.164-.01 1.747-.01.812-.003 1.625-.003 2.533zm17.717-4.68a3.066 3.066 0 0 0-.628.056c-.563.106-1.071.324-1.481.734-.65.65-.869 1.448-.766 2.342.086.753.49 1.295 1.15 1.66.462.253.954.424 1.455.574.245.074.495.132.728.24a.543.543 0 0 1 .3.302c.118.35.034.78-.467.882a1.854 1.854 0 0 1-.678.006c-.505-.083-.794-.406-.944-.873-.027-.083-.062-.11-.146-.095-.551.097-1.092.242-1.636.372-.06.015-.082.044-.067.11.058.254.154.493.263.728.227.49.549.9 1.02 1.18.833.493 1.724.634 2.658.396.839-.213 1.47-.714 1.85-1.5a2.786 2.786 0 0 0 .247-1.536c-.05-.47-.194-.905-.492-1.279-.286-.36-.672-.58-1.092-.746-.426-.167-.871-.276-1.308-.411-.187-.058-.376-.109-.555-.192a.451.451 0 0 1-.236-.234c-.114-.265-.006-.603.224-.775.3-.227 1-.148 1.245.107.147.152.267.317.345.512.024.061.054.073.115.05.293-.108.588-.21.882-.317.198-.071.395-.142.588-.228.05-.022.092-.045.063-.114-.17-.41-.355-.814-.67-1.138-.538-.554-1.205-.803-1.967-.813zM11.64 12.712v3.947c0 .193.012.386.015.579.002.072.032.097.103.102.114.008.227.012.341.011.63-.003 1.261.009 1.892-.008.096-.002.11-.039.11-.122 0-.906.003-1.812.004-2.719 0-.133 0-.133.131-.133.756-.005 1.511-.012 2.267-.014.086 0 .11-.027.112-.112.009-.338.012-.676.01-1.014-.003-.395.013-.79-.012-1.184-.005-.077-.034-.106-.108-.107-.122-.003-.244-.014-.366-.015-.63-.002-1.261-.003-1.892 0-.086 0-.113-.026-.112-.112.004-.352.001-.705.002-1.057 0-.131 0-.131.132-.132l2.753-.006c.137 0 .137 0 .135-.133-.007-.44-.045-.879-.075-1.317-.02-.29-.054-.577-.08-.865-.005-.065-.031-.098-.1-.099-.085-.001-.17-.013-.255-.013-1.185-.002-2.37-.004-3.555-.004-.44 0-.88.002-1.32.005-.109 0-.117.01-.12.116-.004.15-.011.301-.012.451v3.955zM26.355 8.19H25.16c-.162.001-.168.01-.093.15.485.9.991 1.79 1.49 2.683.276.496.558.989.815 1.496a.187.187 0 0 1 0 .191c-.136.247-.265.497-.399.744l-1.346 2.478c-.229.423-.47.838-.685 1.267-.056.11-.049.12.07.12h2.422c.058 0 .093-.017.121-.07.179-.33.36-.657.542-.986.207-.375.413-.752.637-1.118.049-.08.065-.08.118-.005.024.035.047.07.07.107.396.654.762 1.325 1.136 1.99.04.072.085.098.167.099.79.002 1.58-.007 2.37-.017.183-.003.184-.003.096-.16-.83-1.483-1.66-2.965-2.492-4.446a.198.198 0 0 1-.003-.212c.342-.665.704-1.318 1.063-1.973.404-.74.814-1.478 1.203-2.227.046-.089.044-.09-.051-.102a1.182 1.182 0 0 0-.136-.009c-.761-.002-1.523-.003-2.285-.009-.097 0-.153.029-.2.116-.205.387-.416.77-.627 1.153-.103.186-.203.375-.323.551-.064.093-.086.092-.152-.002a2.353 2.353 0 0 1-.116-.178c-.298-.517-.597-1.034-.892-1.552-.034-.061-.074-.08-.141-.08-.395.003-.79.001-1.185.001zM11.936 22.813c-.008-.854.02-2.252-.013-3.65-.004-.146-.004-.15-.149-.15-.548 0-1.096.002-1.645 0-.076 0-.096.026-.096.099-.002.525-.01 1.05-.012 1.576-.003.708-.002 1.415-.005 2.123 0 .102-.01.204-.016.306-.001.028 0 .062-.032.073-.034.011-.051-.02-.067-.043a2.43 2.43 0 0 1-.093-.142c-.365-.613-.709-1.238-1.062-1.857-.386-.676-.773-1.35-1.158-2.028-.042-.075-.09-.11-.181-.108a8.117 8.117 0 0 1-.562-.007c-.486-.021-.972.01-1.457.01-.05 0-.073.025-.073.073l-.001.094c-.002 1.607-.006 3.215-.006 4.823 0 1.071.004 2.142.006 3.213 0 .122.003.123.125.125.557.008 1.113-.012 1.67-.017.139-.001.139-.001.139-.139.003-1.471-.003-2.943.02-4.415 0-.07.01-.141.016-.212.002-.02.006-.041.03-.045.02-.003.031.013.04.026.03.042.06.084.087.128.418.696.801 1.413 1.203 2.12.454.8.91 1.6 1.356 2.404.072.13.162.17.3.168.5-.005 1-.002 1.5-.003.136 0 .136 0 .136-.132v-4.413zm12.62 4.551v-.006h.766c.076 0 .128-.02.145-.108.031-.167.075-.332.112-.498l1.21-5.446c.156-.707.312-1.414.466-2.121.032-.148.013-.165-.14-.173-.4-.021-.801-.014-1.201-.013-.19 0-.174-.043-.219.174-.254 1.23-.503 2.46-.756 3.688-.06.292-.11.586-.194.873-.01.033-.017.08-.066.076-.048-.003-.049-.047-.056-.083-.08-.402-.157-.803-.238-1.204-.226-1.118-.437-2.24-.681-3.355-.033-.15-.036-.154-.192-.155-.454 0-.91.004-1.364-.001-.096-.002-.125.033-.14.12-.086.479-.177.956-.266 1.433-.14.748-.279 1.495-.421 2.243-.062.326-.118.654-.207.974-.009.033-.013.086-.06.081-.038-.004-.03-.054-.043-.085l-.001-.008-.6-3.033c-.106-.532-.204-1.065-.323-1.594-.02-.09-.06-.13-.155-.13-.17 0-.34-.01-.51-.014-.381-.009-.762.008-1.142.015-.132.003-.142.016-.116.146.16.823.351 1.638.53 2.456.251 1.151.505 2.302.759 3.453.16.723.314 1.448.487 2.169.02.08.06.116.137.118l.069.003c.505 0 1.011 0 1.517.003.07 0 .1-.024.113-.093.273-1.448.548-2.895.823-4.343a6.62 6.62 0 0 1 .052-.25c.006-.027.022-.055.056-.056.034 0 .047.028.056.055a.89.89 0 0 1 .024.1l.586 2.966c.1.5.201 1.002.304 1.502.024.12.03.12.153.12l.725.001zM21.57 8.198a3.61 3.61 0 0 0-.52.028 4.263 4.263 0 0 0-2.488 1.22c-.93.926-1.416 2.046-1.406 3.372.004.464.055.916.197 1.359.406 1.264 1.166 2.225 2.373 2.817.815.4 1.671.532 2.56.384a4.247 4.247 0 0 0 2.213-1.102c.913-.843 1.411-1.897 1.501-3.134a4.395 4.395 0 0 0-.35-2.106c-.304-.694-.697-1.32-1.294-1.802-.814-.657-1.732-1.03-2.786-1.036zM3.298 28.832c-.451 0-.904.006-1.355-.006-.5-.012-1-.002-1.5-.012a.874.874 0 0 1-.102-.007c-.132-.015-.137-.022-.067-.14a11669.315 11669.315 0 0 1 4.587-7.684.298.298 0 0 0 .038-.163v-2.08c0-.138 0-.138.136-.139.386-.002.773-.005 1.16-.004.063 0 .102-.018.136-.075l3.08-5.16c.584-.978 1.168-1.956 1.754-2.933a.487.487 0 0 0 .074-.264c-.004-.764-.002-1.529-.002-2.293 0-.118 0-.118.118-.118.435 0 .87-.002 1.304 0 .075.002.117-.023.155-.088.851-1.421 1.686-2.852 2.56-4.26.08-.13.088-.135.241-.095.597.156 1.185.34 1.766.545 1.168.41 2.299.907 3.396 1.48a26.158 26.158 0 0 1 3.55 2.223c.092.068.184.135.284.19.092.038.119.042.13.017a3.599 3.599 0 0 0-.346-.29c-1.132-.855-2.34-1.588-3.595-2.247a26.23 26.23 0 0 0-3.916-1.67c-.39-.13-.786-.244-1.18-.365-.142-.05-.154-.075-.101-.169.164-.286.328-.572.496-.855.409-.689.822-1.376 1.23-2.065.044-.076.094-.106.182-.105.432.004.864.002 1.296.002h14.988c.177 0 .177 0 .177.174 0 4.823.004 9.644-.004 14.466-.003 1.45 0 2.898-.011 4.348-.002.204-.01.408-.015.613-.223-.258-.334-.545-.466-.822-.143-.303-.282-.608-.445-.901-.038-.062-.049-.093-.074-.084.038.225.111.373.181.522.282.602.548 1.211.802 1.826a.422.422 0 0 1 .033.165v8.405c0 .12-.002.12-.135.12h-15.96c-4.86-.002-9.72-.002-14.58-.002zM.05 28.28c-.038-.07-.028-.128-.029-.184-.03-1.934-.017-3.869-.018-5.804 0-6.048.003-12.097.005-18.146 0-.023.002-.046 0-.068-.009-.075.026-.112.095-.137A25.897 25.897 0 0 1 4.26 2.82c.24-.045.481-.085.722-.126a.402.402 0 0 1 .06-.005c.093-.002.107.013.09.103-.06.318-.118.637-.18.954l-1.1 5.538-1.123 5.672-1.247 6.281-.833 4.202a745.16 745.16 0 0 1-.52 2.597c-.015.079-.027.16-.079.244zM9.22 2.418c.594.005 1.186.033 1.778.081.283.023.566.042.847.089.123.02.127.027.078.137-.49 1.092-.977 2.183-1.468 3.274L8.82 9.617c-.468 1.036-.937 2.07-1.404 3.106L5.936 16c-.49 1.084-.981 2.168-1.47 3.253-.545 1.203-1.088 2.407-1.631 3.61L1.36 26.126l-1.084 2.4a3.755 3.755 0 0 1-.122.243c-.016.028-.036.07-.076.054-.037-.015-.03-.06-.02-.091.033-.124.065-.247.105-.369l.852-2.599a43779.502 43779.502 0 0 0 3.273-9.99L6.206 9.92l1.302-3.975c.373-1.14.746-2.278 1.116-3.418.027-.082.066-.113.151-.11.148.006.296.002.443.002zM2.833.002h2.684c.155 0 .161.005.132.16-.113.602-.228 1.204-.344 1.806-.028.15-.063.3-.09.451-.013.067-.053.096-.116.105a26.742 26.742 0 0 0-3.181.667c-.553.154-1.097.336-1.642.514-.054.018-.109.033-.163.049-.06.017-.093 0-.095-.067-.004-.082-.015-.164-.015-.246L.001.117C0 .003 0 .002.122.002h2.71zm9.092 2.43c-.302-.03-.564-.058-.827-.08-.266-.024-.532-.049-.798-.061-.468-.022-.936-.035-1.404-.053-.14-.005-.156-.026-.113-.16.209-.648.419-1.296.626-1.945.022-.068.053-.102.13-.108.101-.008.203-.01.306-.01.974-.002 1.949-.001 2.923-.001.088 0 .176.003.263.013.072.009.089.035.06.1-.11.253-.216.507-.33.758-.192.427-.39.852-.585 1.278-.022.046-.049.09-.07.136-.044.096-.106.154-.181.133zm5.056 27.058h16.83c.157 0 .161-.03.161.161v4.194l-.001.094c-.002.041-.023.062-.065.06l-.077.001H.143l-.085-.001c-.039 0-.056-.021-.056-.059L0 33.863v-4.236c0-.137 0-.137.141-.137H16.98zm-7.84 3.145c.008-.23-.008-.516-.017-.803-.006-.193-.062-.364-.227-.482-.394-.28-1.097-.28-1.495-.001-.053.037-.105.118-.174.08-.066-.038-.046-.128-.047-.197-.004-.233.003-.466-.016-.698-.004-.057-.014-.105-.08-.11a5.29 5.29 0 0 0-.749-.016c-.061.004-.088.03-.088.097 0 .168-.008.335-.01.503-.005.724-.014 1.448.013 2.172.004.103.025.127.128.128.23.002.46 0 .69 0 .067 0 .096-.025.097-.096.002-.267.008-.534.016-.8.003-.131.008-.262.019-.392.022-.273.165-.405.441-.413.094-.003.188.004.28.014a.293.293 0 0 1 .256.28c.003.423-.008.847.016 1.27.006.113.024.136.136.137.239.002.478 0 .716 0 .067 0 .097-.025.095-.096-.003-.173 0-.347 0-.577zm10.405-.154c0-.23.01-.46-.003-.69a.572.572 0 0 0-.264-.47 1.19 1.19 0 0 0-.481-.162c-.394-.06-.758-.001-1.073.262-.027.023-.057.056-.097.04-.04-.017-.032-.063-.04-.097-.002-.011-.002-.023-.003-.034-.01-.11-.024-.119-.136-.13-.235-.025-.47.008-.706.002-.054-.001-.077.02-.077.075-.008.633-.031 1.267 0 1.9.006.117.019.131.137.132.222.001.443 0 .665-.001.107-.001.113-.009.113-.12.003-.392.017-.783.037-1.175.01-.198.103-.319.289-.374a.928.928 0 0 1 .464-.011.33.33 0 0 1 .24.3l.02 1.16c0 .03.004.061.009.092.016.116.026.127.145.128.219.002.437-.002.656.001.083.001.108-.033.106-.112-.003-.239 0-.477 0-.716zm2.342-.072c.008.215-.014.507.013.8.006.068.037.098.1.099.247 0 .494 0 .741-.002.053 0 .077-.027.074-.08-.002-.035 0-.069 0-.103.002-.386.004-.772.034-1.157.014-.188.117-.29.303-.327a1.61 1.61 0 0 1 .433-.013c.125.008.227.13.228.252l.016.971c.002.114.004.227.013.34.006.091.051.12.13.12.232 0 .465-.002.698-.001.064 0 .09-.027.09-.093-.002-.455.002-.91-.003-1.364-.003-.33-.19-.56-.511-.647-.169-.046-.341-.05-.515-.057-.293-.01-.544.093-.777.258-.025.018-.05.038-.078.051-.04.02-.067.004-.074-.04-.004-.024-.003-.05-.005-.076-.01-.115-.03-.128-.146-.141-.22-.024-.438.01-.656.002-.076-.003-.095.027-.098.1a34.8 34.8 0 0 0-.01 1.108zm-8.06.901v-.002h.375c.027-.001.08-.003.04-.05-.067-.08-.066-.172-.071-.266-.022-.371 0-.744-.034-1.115-.022-.246-.124-.446-.364-.552-.073-.032-.144-.07-.221-.09a2.73 2.73 0 0 0-1.69.079.699.699 0 0 0-.385.38c-.036.078-.026.09.057.1.215.027.431.009.647.016a.141.141 0 0 0 .135-.068.397.397 0 0 1 .321-.184 3.56 3.56 0 0 1 .358.002c.05.002.101.012.149.033.1.044.104.134.106.223.002.083-.04.141-.123.161a2.707 2.707 0 0 1-.216.045c-.337.051-.677.082-1.007.17a.964.964 0 0 0-.377.19c-.258.216-.252.566.014.769a.852.852 0 0 0 .153.093c.274.128.56.155.856.107.226-.036.427-.133.629-.232.092-.046.104-.038.133.062.025.082.073.131.166.13.116-.003.232 0 .35 0zm14.756.038c.148 0 .295.001.442-.02.372-.056.686-.213.926-.508.018-.021.044-.044.032-.074-.013-.032-.048-.023-.075-.027-.204-.026-.409-.012-.613-.017a.264.264 0 0 0-.2.077.498.498 0 0 1-.28.133 1.696 1.696 0 0 1-.356.01c-.267-.016-.42-.163-.455-.43-.011-.09-.001-.103.093-.103.392-.002.784 0 1.176-.011.244-.008.49-.006.733-.004.072 0 .094-.025.092-.094a1.186 1.186 0 0 0-.213-.638c-.129-.192-.335-.275-.533-.367-.32-.15-.661-.149-1.003-.137a1.601 1.601 0 0 0-.74.203c-.327.183-.537.455-.556.834-.022.442.171.775.572.983.303.157.624.202.958.19zM3.46 31.895c.11-.006.247.004.383-.01.083-.01.082-.039.055-.103a.894.894 0 0 0-.497-.49c-.432-.182-.88-.208-1.338-.127-.302.053-.575.16-.797.388-.283.29-.336.636-.235 1.002.08.288.29.49.56.622.373.182.77.21 1.174.176.268-.023.525-.095.756-.24a.918.918 0 0 0 .362-.408c.039-.087.03-.1-.065-.115a.28.28 0 0 0-.043-.004l-.682-.004c-.05 0-.079.02-.099.064a.377.377 0 0 1-.193.184.693.693 0 0 1-.515.034.442.442 0 0 1-.313-.332 1.145 1.145 0 0 1 .026-.622.443.443 0 0 1 .2-.256c.152-.087.318-.075.483-.063.117.009.182.096.253.172a.83.83 0 0 1 .067.078.13.13 0 0 0 .117.054c.105-.002.21 0 .34 0zm29.605.02v-1.202c0-.065-.011-.13-.011-.195 0-.073-.035-.097-.104-.102a5.012 5.012 0 0 0-.698-.003c-.076.005-.102.028-.105.105-.024.585-.01 1.17-.01 1.756-.002.298-.013.596.013.894.01.124.022.14.149.14.219.002.437-.002.656.001.085.001.112-.031.111-.116-.003-.426-.001-.852-.001-1.278zm-4.44.14h-.45c-.04 0-.08-.008-.119-.014-.07-.011-.09-.054-.065-.117.115-.296.286-.398.586-.397.096 0 .193.013.287.031a.416.416 0 0 1 .339.394c.002.075-.02.116-.1.104h-.478zm-15.366.425c-.007.064-.01.13-.02.194-.025.146-.136.213-.26.256a1.068 1.068 0 0 1-.52.043.28.28 0 0 1-.223-.379c.028-.081.097-.115.172-.14.175-.059.36-.077.54-.116.064-.014.129-.025.19-.046.07-.024.103-.005.108.068.003.04.008.079.013.12zm9.137-19.674v1.96c0 .345-.297.735-.713.774-.302.029-.546-.048-.75-.271a.56.56 0 0 1-.143-.32 4.6 4.6 0 0 1-.031-.57c-.003-1.13-.002-2.262 0-3.392 0-.128.006-.256.015-.383.024-.35.392-.687.743-.704.352-.017.597.15.783.425.099.147.095.326.097.495.005.662.002 1.324.002 1.986h-.003z" fill="#999" fill-rule="evenodd"/></svg>