<svg width="35" height="34" viewBox="0 0 35 34" xmlns="http://www.w3.org/2000/svg"><title>NBC logo</title><path d="M27.49 24.517c1.385-1.096 2.915-1.201 4.49-.405.326.165.401.083.395-.244-.01-.514-.003-1.029-.003-1.543 0-.61-.032-.643-.613-.81-1.804-.52-3.51-.235-5.145.62-4.133 2.164-4.514 7.905-.716 10.606.902.641 1.907 1.015 2.961 1.259h2.114c.35-.081.697-.2 1.05-.296.246-.067.356-.197.351-.457-.01-.582.002-1.16-.004-1.743-.004-.408-.044-.43-.42-.243-.825.409-1.685.577-2.599.404-1.716-.324-2.842-1.35-3.263-3.012-.413-1.63.064-3.078 1.402-4.136zm-14.954-2.445c0-.298-.117-.414-.41-.408-.514.01-1.029.001-1.543.002-.662 0-.664 0-.664.646-.001 1.748.001 3.495-.004 5.243 0 .168.09.422-.07.487-.175.072-.314-.162-.448-.283-2.223-2.023-4.442-4.052-6.663-6.077-.086-.078-.163-.22-.298-.168-.142.054-.095.21-.095.325-.002 3.793.003 7.585-.006 11.378-.001.381.154.5.51.49.528-.017 1.056-.002 1.585-.006.485-.004.526-.045.527-.541.002-1.83 0-3.658.003-5.486 0-.143-.045-.296.048-.426.107-.023.154.055.211.107.563.508 1.123 1.019 1.684 1.53l5.229 4.756c.087.08.168.215.3.171.146-.048.099-.207.099-.32.002-3.807 0-7.613.005-11.42zm20.972-8.874c-1.394-1.244-3.235-1.29-4.9-.161-3.059 2.074-6.133 4.13-9.198 6.196-.116.079-.337.12-.293.29.044.168.254.11.394.11 3.792.003 7.584.02 11.376-.006 1.423-.01 2.576-.622 3.315-1.874.177-.301.293-.636.456-.956V15.09c-.244-.712-.574-1.378-1.15-1.892zm-19.146 2c.237.541.482 1.078.723 1.617l.118-.017c.035-.156.08-.31.104-.467.577-4.02 1.154-8.04 1.728-12.061.38-2.662-1.964-4.797-4.572-4.155-2.088.514-3.477 2.888-2.422 5.222 1.478 3.27 2.883 6.573 4.321 9.861zm3.7-11.003c.316-.001.64-.043 1.072.084-.235.14-.373.238-.524.31-.572.27-.743.754-.712 1.338.015.284.059.566.099.847.394 2.76.788 5.52 1.188 8.279.084.583.122 1.176.3 1.784.188-.1.218-.241.27-.361 1.638-3.732 3.276-7.463 4.906-11.198.279-.64.443-1.303.348-2.015-.261-1.961-1.99-3.335-3.835-3.256-2 .085-3.616 1.724-3.567 3.727.008.331.129.462.455.46zm1.648 13.791c-.05.114-.195.253-.057.361.11.086.216-.065.312-.13 3.365-2.274 6.727-4.551 10.092-6.826 1.383-.934 1.96-2.592 1.457-4.213-.458-1.48-1.91-2.519-3.923-2.52-1.224.068-2.394.827-3.054 2.324-1.615 3.665-3.22 7.335-4.827 11.004zM4.558 11.343c2.965 2.044 5.96 4.044 8.943 6.062.5.337 1.001.672 1.543 1.036.051-.257-.038-.37-.09-.491-.648-1.49-1.298-2.978-1.952-4.464-.982-2.23-1.936-4.473-2.96-6.684-.858-1.856-2.847-2.63-4.74-1.868C3.921 5.49 3.15 6.576 3.02 8.04c-.121 1.363.403 2.524 1.537 3.304zm4.873 8.293c1.896 0 3.792 0 5.688-.002.145 0 .349.047.408-.101.075-.186-.153-.224-.263-.298a6732.127 6732.127 0 0 0-9.5-6.398 3.436 3.436 0 0 0-1.584-.582c-1.406-.144-2.567.329-3.42 1.452-.829 1.09-.972 2.326-.467 3.574.653 1.611 1.958 2.329 3.653 2.35 1.828.022 3.657.005 5.485.005zm11.83 7.827c-.217-.131-.404-.211-.084-.475 1.123-.925 1.358-2.542.587-3.78-.694-1.116-1.763-1.52-3.003-1.543-1.475-.028-2.952-.008-4.428-.006-.498 0-.524.025-.524.532-.002 1.828 0 3.656 0 5.484 0 1.827-.002 3.655 0 5.483 0 .496.044.542.527.543 1.652.003 3.304.013 4.956-.004 1.045-.01 1.966-.354 2.682-1.147 1.283-1.42 1.283-3.884-.713-5.087zm-2.752 4.284c-.529.004-1.058-.021-1.585.008-.405.022-.524-.141-.498-.52.025-.378.005-.758.005-1.138 0-.42.01-.84-.002-1.26-.008-.266.075-.4.369-.393.595.014 1.193-.014 1.788.011 1.018.043 1.677.75 1.647 1.731-.029.925-.72 1.553-1.724 1.561zm-2.076-6.67c0-.392.003-.785 0-1.178-.003-.222.088-.308.321-.298.5.022 1.003.009 1.503.023.78.022 1.367.593 1.403 1.35.038.805-.507 1.485-1.295 1.55-.538.044-1.082.013-1.624.02-.227.002-.312-.113-.31-.329.006-.379.002-.758.002-1.137z" fill="#999" fill-rule="evenodd"/></svg>