<svg id="Layer_1" xmlns="http://www.w3.org/2000/svg" viewBox="0 0 200 200"><style>.st0{stroke-linecap:round;stroke-linejoin:round}.st0,.st1{fill:none;stroke:#00afd7;stroke-width:6;stroke-miterlimit:10}</style><path class="st0" d="M75.7 87.6v72.5s-1 10.4 13.6 10.4h62.1s37.9-3 14.4-22.8c0 0 27.8-8.8 1.5-21.7 0 0 30.7-9.2 5.9-22.6 0 0 13.5-1.2 13.6-11.3.1-10.2-6.9-12.3-10.7-12.3h-54.3s12.1-28.4 6.1-41.6C121.8 25 111 22.1 108.3 22.1c-2.7 0-11.1 1.3-11.7 9.8-.6 8.6 3.1 19.6-4.8 32.4S75.7 84.5 75.7 87.6z"/><path class="st1" d="M28.4 86.6h30.3s5.6-1.9 5.6 16.5v61.4s.6 7.9-7.1 7.9H42.8s-10.6 2.1-10.6-10.6-9.5-68-9.5-68 .1-7.2 5.7-7.2z"/><circle class="st0" cx="50.1" cy="100.1" r="2.6"/></svg>