<?xml version="1.0" encoding="utf-8"?>
<!-- Generator: Adobe Illustrator 21.0.0, SVG Export Plug-In . SVG Version: 6.00 Build 0)  -->
<svg version="1.1" id="Layer_1" xmlns="http://www.w3.org/2000/svg" xmlns:xlink="http://www.w3.org/1999/xlink" x="0px" y="0px"
	 viewBox="0 0 200 200" style="enable-background:new 0 0 200 200;" xml:space="preserve">
<style type="text/css">
	.st0{fill:none;stroke:#00AFD7;stroke-width:6;stroke-linejoin:round;stroke-miterlimit:10;}
	.st1{fill:none;stroke:#00AFD7;stroke-width:6;stroke-miterlimit:10;}
</style>
<g>
	
		<rect x="92.7" y="20.7" transform="matrix(0.9395 0.3425 -0.3425 0.9395 17.8508 -41.6774)" class="st0" width="68.3" height="18"/>
	<path class="st0" d="M144.7,45.7c0,0-18,60.1-9.1,71.6c0,0-57.7,43.5-63,57.9c5.3-14.4-10.9-84.9-10.9-84.9
		c14.2-3,39.1-60.6,39.1-60.6"/>
	
		<ellipse transform="matrix(0.3425 -0.9395 0.9395 0.3425 -46.2241 164.3556)" class="st1" cx="94.3" cy="115.2" rx="5.2" ry="5.2"/>
	
		<ellipse transform="matrix(0.3425 -0.9395 0.9395 0.3425 -116.9433 183.2413)" class="st1" cx="72.5" cy="175.2" rx="5.2" ry="5.2"/>
	<line class="st1" x1="96.1" y1="110.4" x2="74.2" y2="170.3"/>
</g>
</svg>
