<?xml version="1.0" encoding="utf-8"?>
<!-- Generator: Adobe Illustrator 21.0.0, SVG Export Plug-In . SVG Version: 6.00 Build 0)  -->
<svg version="1.1" id="Layer_1" xmlns="http://www.w3.org/2000/svg" xmlns:xlink="http://www.w3.org/1999/xlink" x="0px" y="0px"
	 viewBox="0 0 200 200" style="enable-background:new 0 0 200 200;" xml:space="preserve">
<style type="text/css">
	.st0{fill:none;stroke:#00AFD7;stroke-width:6;stroke-miterlimit:10;}
</style>
<g>
	<path class="st0" d="M89,183.7c13.5,0,32.4,0,32.4,0s33.3,0,43.3,0s11.6-10.6,11.6-10.6s0-136.4,0-150.7S162.2,9.7,162.2,9.7h-40.8
		H80.8c0,0-14.1-1.5-14.1,12.8c0,5.6,0,29.7,0,57"/>
	<polyline class="st0" points="66.7,79.5 66.7,36.1 176.3,36.1 176.3,153.5 87.7,153.5 	"/>
	<ellipse class="st0" cx="121.5" cy="168" rx="1.5" ry="1.3"/>
	<line class="st0" x1="119.5" y1="22.3" x2="126.6" y2="22.3"/>
</g>
<g>
	<path class="st0" d="M52,190.2c0,0,17.2,0,22.4,0c5.2,0,6-6.3,6-6.3s0-80.8,0-89.2s-7.3-7.6-7.3-7.6H52H31c0,0-7.3-0.9-7.3,7.6
		s0,89.2,0,89.2s0.8,6.3,6,6.3S52,190.2,52,190.2z"/>
	<rect x="23.7" y="102.8" class="st0" width="56.8" height="69.5"/>
	<circle class="st0" cx="52.1" cy="180.9" r="0.8"/>
	<line class="st0" x1="51.1" y1="94.6" x2="54.8" y2="94.6"/>
</g>
</svg>
