<svg id="Layer_1" xmlns="http://www.w3.org/2000/svg" viewBox="0 0 200 200"><style>.st0{display:none}.st1{display:inline;fill:none;stroke:#000;stroke-width:5;stroke-miterlimit:10}.st2{fill:#ffc107}.st3{fill:none}.st3,.st4{stroke:#ffc107;stroke-width:5;stroke-miterlimit:10}</style><g class="st0"><path class="st1" d="M20 0v200M40 0v200M60 0v200M80 0v200M100 0v200M120 0v200M140 0v200M160 0v200M180 0v200m20-180H0m200 20H0m200 20H0m200 20H0m200 20H0m200 20H0m200 20H0m200 20H0m200 20H0"/></g><path class="st2" d="M123.4 154.1l-5.5-16.4H85l-5.6 16.4H60.6l33.7-92.6h14.2l33.8 92.6h-18.9zm-21.6-65.3l-11.7 33.7h23l-11.3-33.7z"/><path class="st3" d="M171.8 47.8h-10.7V37.1m0 141.6V168h10.7m-141.6 0h10.7v10.7m0-141.6v10.7H30.2M115.7 168H86.4m0-120.3h29.3M101 35.9v17.3m0 109.3v17.3m72.1-72h-17.4m-109.3 0H29.1m132.1-14.4v28.8m-120.3 0V93.4"/><path class="st4" d="M79 22.5h5.6v5.6H79zm12.8 0h5.6v5.6h-5.6zm12.8 0h5.6v5.6h-5.6zm12.8 0h5.6v5.6h-5.6z"/></svg>