<svg id="Layer_1" xmlns="http://www.w3.org/2000/svg" viewBox="0 0 200 200"><style>.st0,.st1{fill:none;stroke:#ffc107;stroke-width:6;stroke-miterlimit:10}.st1{stroke-linecap:round}</style><path class="st0" d="M152.4 143.7l-41.1 23.7m52.7-92v49.3m-52.7-92.1l41.1 23.8m-104.8 0l41.1-23.8M36 123.5V75.4m52.7 92l-41.6-24"/><circle class="st0" cx="100" cy="26.1" r="13.1"/><circle class="st0" cx="164" cy="62.4" r="13.1"/><circle class="st0" cx="164" cy="137.8" r="13.1"/><circle class="st0" cx="36" cy="136.6" r="13.1"/><circle class="st0" cx="36" cy="62.4" r="13.1"/><circle class="st0" cx="100" cy="173.9" r="13.1"/><path class="st1" d="M58.7 124.3c0-6.1 2.5-11.6 6.2-14.9m71.7-.1c3.9 3.3 6.4 8.8 6.4 15"/><path class="st0" d="M84.9 105.4c-2.7 4.4-6.9 7.3-11.7 7.3-8 0-14.6-8.1-14.6-18.1s6.5-18.1 14.6-18.1c4.8 0 9 2.9 11.7 7.3m31.9-.1c2.7-4.4 6.9-7.3 11.7-7.3 8 0 14.6 8.1 14.6 18.1s-6.5 18.1-14.6 18.1c-4.8 0-9-2.9-11.7-7.3"/><path class="st0" d="M119 94.6c0 3.9-.8 7.6-2.2 10.8-3.1 7-9.1 11.7-15.9 11.7-6.9 0-12.8-4.7-15.9-11.7-1.4-3.2-2.2-6.9-2.2-10.8 0-3.9.8-7.6 2.2-10.8 3-7.1 9-11.8 15.8-11.8 6.9 0 12.8 4.7 15.9 11.7 1.5 3.3 2.3 6.9 2.3 10.9z"/><path class="st1" d="M107.3 99.5c0 3.6-3 6.6-6.6 6.6-3.6 0-6.6-3-6.6-6.6m20.4 9.9c2.8 4 4.5 9.2 4.5 14.9m-36.3 0c0-5.7 1.7-10.9 4.5-14.9"/></svg>