<svg id="Layer_1" xmlns="http://www.w3.org/2000/svg" viewBox="0 0 200 200"><style>.st0{fill:none;stroke:#ffc107;stroke-width:6;stroke-miterlimit:10}</style><path class="st0" d="M89 183.7h75.7c10 0 11.6-10.6 11.6-10.6V22.4c0-14.3-14.1-12.7-14.1-12.7H80.8S66.7 8.2 66.7 22.5v57"/><path class="st0" d="M66.7 79.5V36.1h109.6v117.4H87.7"/><ellipse class="st0" cx="121.5" cy="168" rx="1.5" ry="1.3"/><path class="st0" d="M119.5 22.3h7.1M52 190.2h22.4c5.2 0 6-6.3 6-6.3V94.7c0-8.4-7.3-7.6-7.3-7.6H31s-7.3-.9-7.3 7.6v89.2s.8 6.3 6 6.3H52z"/><path class="st0" d="M23.7 102.8h56.8v69.5H23.7z"/><circle class="st0" cx="52.1" cy="180.9" r=".8"/><path class="st0" d="M51.1 94.6h3.7"/></svg>