<svg viewBox="0 0 128 128" xmlns="http://www.w3.org/2000/svg"><g class="st2"><g fill="none" stroke="#ffc107" stroke-linecap="round" stroke-linejoin="round" stroke-miterlimit="10" stroke-width="2"><circle cx="24.553" cy="32.5" r=".5"/><circle cx="29.953" cy="32.5" r=".5"/><circle cx="35.353" cy="32.5" r=".5"/></g><g fill="#ffc107"><path d="M109.905 30.471a71.513 71.513 0 0 1-1.906 2.725v3.959h-3.063c-.536.659-1.095 1.327-1.667 2H108V96.5c0 2.206-1.794 4-4 4H24c-2.206 0-4-1.794-4-4V39.155h54.087c.594-.663 1.199-1.329 1.823-2H20V31.5c0-2.206 1.794-4 4-4h61.696c.718-.65 1.473-1.32 2.255-2H24c-3.309 0-6 2.691-6 6v65c0 3.309 2.691 6 6 6h80c3.309 0 6-2.691 6-6v-65c0-.351-.036-.694-.095-1.029z"/><path d="M66.083 56.881c-.224.479-.353.89-.437 1.267a8.305 8.305 0 0 0-5.477-.891c-4.168.772-6.344 4.666-5.414 9.687l.145.786c.034.183-.068.439-.274.687-.465.559-1.531 1.155-3.134 1.155a7.45 7.45 0 0 1-1.642-.192.994.994 0 0 0-1.064.439.998.998 0 0 0 .054 1.149C50.768 73.456 54.494 75 58.566 75c2.284 0 4.524-.502 6.48-1.453 4.361-2.12 6.358-5.472 5.479-9.196a9.566 9.566 0 0 0-.688-1.946 5.87 5.87 0 0 0 .922-.325c5.064-2.234 13.299-8.711 21.491-16.904 7.536-7.536 20.804-22.774 17.075-26.502-.447-.447-1.063-.674-1.831-.674-4.076 0-14.222 7.299-24.672 17.749-7.954 7.955-14.368 16.052-16.739 21.132zm-1.911 14.867C62.487 72.567 60.549 73 58.566 73c-2.246 0-4.398-.553-6.044-1.494 1.522-.201 2.841-.846 3.642-1.81.599-.72.849-1.548.703-2.331l-.146-.786c-.55-2.966.119-6.672 3.812-7.356a6.302 6.302 0 0 1 4.58.927l.205.126c2.306 1.545 2.953 3.235 3.26 4.534.656 2.774-.909 5.238-4.406 6.938zm5.78-11.498c-.492.218-.773.263-.922.263-.161 0-.216-.029-.538-.392-.096-.107-.192-.215-.295-.318l-.205-.199c-.49-.467-.674-.642-.097-1.878.658-1.409 1.657-3.074 2.919-4.909l4.364 4.364c-1.989 1.372-3.768 2.426-5.226 3.069zM107.495 20c.242 0 .376.048.417.088 1.12 1.12-3.893 10.491-17.075 23.674-4.846 4.846-9.797 9.147-14.008 12.241l-4.841-4.841c3.078-4.193 7.361-9.111 12.249-14C95.386 26.015 104.541 20 107.495 20z"/></g></g></svg>