<svg xmlns="http://www.w3.org/2000/svg" viewBox="0 0 512 512"><style>.st2{fill:#ffc107}</style><g class="st2"><path d="M345.72 0c-91.052 0-165.128 74.077-165.128 165.128 0 42.226 15.939 80.794 42.107 110.023L189.93 307.92l-15.067-15.067c-3.984-3.982-10.44-3.982-14.425 0L13.53 439.762c-16.503 16.504-16.503 43.357.001 59.86C21.782 507.874 32.621 512 43.461 512c10.839 0 21.678-4.126 29.931-12.377L220.3 352.714c3.983-3.983 3.983-10.441 0-14.425l-15.944-15.944 32.854-32.854c29.04 25.372 67.009 40.765 108.51 40.765 91.053 0 165.128-74.077 165.128-165.128S436.773 0 345.72 0zM58.966 485.198c-8.551 8.549-22.463 8.548-31.012.001-8.55-8.551-8.55-22.463 0-31.012L167.651 314.49l31.011 31.011L58.966 485.198zM345.72 309.857c-79.803 0-144.728-64.925-144.728-144.728s64.925-144.73 144.728-144.73c79.804 0 144.728 64.925 144.728 144.728s-64.924 144.73-144.728 144.73z"/><path d="M405.678 137.647c-5.097-2.402-11.173-.217-13.575 4.878l-1.526 3.238c-2.401 5.096-.217 11.173 4.878 13.575 1.406.662 2.884.975 4.341.975 3.826 0 7.495-2.163 9.234-5.854l1.526-3.238c2.403-5.095.218-11.172-4.878-13.574zm-14.415 30.599c-5.096-2.401-11.173-.216-13.574 4.881l-17.17 36.452a29.815 29.815 0 0 0-2.752-.132c-1.81 0-3.58.17-5.302.48l-31.548-54.304a29.76 29.76 0 0 0 6.642-18.765c0-16.494-13.418-29.911-29.911-29.911s-29.911 13.418-29.911 29.911a29.738 29.738 0 0 0 5.244 16.893L261.81 170a29.842 29.842 0 0 0-7.526-.96c-16.494 0-29.911 13.418-29.911 29.911 0 16.493 13.418 29.91 29.911 29.91 16.493 0 29.91-13.418 29.91-29.91a29.737 29.737 0 0 0-5.588-17.376l10.949-15.926a29.822 29.822 0 0 0 13.914.549l31.365 53.988c-4.351 5.196-6.977 11.883-6.977 19.173 0 16.494 13.418 29.911 29.91 29.911 16.494 0 29.911-13.418 29.911-29.911 0-8.215-3.33-15.665-8.709-21.075l17.175-36.463c2.402-5.098.216-11.174-4.881-13.575zm-136.98 40.216c-5.246 0-9.512-4.268-9.512-9.511 0-5.246 4.268-9.512 9.512-9.512 5.245 0 9.511 4.268 9.511 9.512 0 5.243-4.267 9.511-9.511 9.511zm43.365-62.091c-5.245 0-9.512-4.268-9.512-9.512 0-5.246 4.268-9.512 9.512-9.512s9.512 4.268 9.512 9.512-4.267 9.512-9.512 9.512zm60.121 102.499c-5.245 0-9.511-4.268-9.511-9.512 0-5.245 4.267-9.511 9.511-9.511 5.246 0 9.512 4.268 9.512 9.511 0 5.245-4.268 9.512-9.512 9.512zm65.162-177.117c-16.493 0-29.91 13.418-29.91 29.91 0 16.494 13.418 29.911 29.91 29.911 16.494 0 29.911-13.418 29.911-29.911 0-16.492-13.417-29.91-29.911-29.91zm0 39.423c-5.245 0-9.511-4.268-9.511-9.512 0-5.245 4.267-9.511 9.511-9.511 5.246 0 9.512 4.268 9.512 9.511 0 5.244-4.267 9.512-9.512 9.512z"/></g></svg>