<svg xmlns="http://www.w3.org/2000/svg" viewBox="0 0 73.71 85.05"><defs><style>#logo{fill:#fff}</style></defs><title>Asset 1</title><g id="logo" data-name="logo"><path d="M14.68 16.62a138.52 138.52 0 0 1 10.84 9.12l.35-.46a21.84 21.84 0 0 1 7.08-5.79 21.22 21.22 0 0 1 10-2.24 29.53 29.53 0 0 1 5.49.53 20.69 20.69 0 0 1 5.49 1.89 16.08 16.08 0 0 1 2.78 2.21L69.12 8.13l-.33-.32a41.64 41.64 0 0 0-4.2-2.73Q55.63 0 43.43 0a43.77 43.77 0 0 0-18.3 3.66 43.35 43.35 0 0 0-13.66 9.57c-.2.21-.38.43-.58.64 1.3.85 2.57 1.76 3.79 2.75zM59.29 61.3l-.24.3a14.11 14.11 0 0 1-4.82 3.54 22.84 22.84 0 0 1-5.49 2 25.06 25.06 0 0 1-5.55.65 21.16 21.16 0 0 1-9.46-2.07 22.05 22.05 0 0 1-5.5-3.82c-3.34 3.43-6.65 6.89-10 10.33-.89.92-1.73 1.88-2.56 2.84a44.42 44.42 0 0 0 9.73 6.23A39.86 39.86 0 0 0 42.7 85a49.89 49.89 0 0 0 21.59-5 30.78 30.78 0 0 0 8.84-6.14l.57-.61zM12.08 71.66c.85-1 1.72-2 2.64-2.95 3.43-3.55 6.83-7.11 10.28-10.64A25.72 25.72 0 0 1 22 52a29.16 29.16 0 0 1-1.59-9.57 31.57 31.57 0 0 1 1.34-9.1A24.84 24.84 0 0 1 23 30a2.53 2.53 0 0 1-.88-.59c-2.9-2.94-6.62-5.56-9.79-8.26a42.6 42.6 0 0 0-4.59-3.38 40.67 40.67 0 0 0-4.8 8.88A41.15 41.15 0 0 0 0 41.7a42.38 42.38 0 0 0 3.11 15.83 44.89 44.89 0 0 0 8.79 13.93z" id="Layer_1-2" data-name="Layer 1"/></g></svg>