<?xml version="1.0" encoding="UTF-8" standalone="no"?>
<svg width="135px" height="69px" viewBox="0 0 135 69" version="1.1" xmlns="http://www.w3.org/2000/svg" xmlns:xlink="http://www.w3.org/1999/xlink">
    <!-- Generator: Sketch 49.3 (51167) - http://www.bohemiancoding.com/sketch -->
    <title>Group 50</title>
    <desc>Created with Sketch.</desc>
    <defs></defs>
    <g id="Desktop-and-Mobile-Version" stroke="none" stroke-width="1" fill="none" fill-rule="evenodd" opacity="0.600000024">
        <g id="Homepage-" transform="translate(-1071.000000, -725.000000)" fill="#707070">
            <g id="Group-50" transform="translate(1071.000000, 725.000000)">
                <ellipse id="Oval-16" cx="1.00373544" cy="1.00013055" rx="1" ry="1"></ellipse>
                <ellipse id="Oval-16-Copy" cx="13.0485607" cy="1.00013055" rx="1" ry="1"></ellipse>
                <ellipse id="Oval-16-Copy-3" cx="25.093386" cy="1.00013055" rx="1" ry="1"></ellipse>
                <ellipse id="Oval-16-Copy-2" cx="37.1382113" cy="1.00013055" rx="1" ry="1"></ellipse>
                <ellipse id="Oval-16-Copy-7" cx="49.1830366" cy="1.00013055" rx="1" ry="1"></ellipse>
                <ellipse id="Oval-16-Copy-6" cx="61.2278619" cy="1.00013055" rx="1" ry="1"></ellipse>
                <ellipse id="Oval-16-Copy-5" cx="73.2726872" cy="1.00013055" rx="1" ry="1"></ellipse>
                <ellipse id="Oval-16-Copy-4" cx="85.3175125" cy="1.00013055" rx="1" ry="1"></ellipse>
                <ellipse id="Oval-16-Copy-11" cx="97.3623377" cy="1.00013055" rx="1" ry="1"></ellipse>
                <ellipse id="Oval-16-Copy-10" cx="109.407163" cy="1.00013055" rx="1" ry="1"></ellipse>
                <ellipse id="Oval-16-Copy-9" cx="121.451988" cy="1.00013055" rx="1" ry="1"></ellipse>
                <ellipse id="Oval-16-Copy-8" cx="133.496814" cy="1.00013055" rx="1" ry="1"></ellipse>
                <ellipse id="Oval-16" cx="1.00373544" cy="10.5013708" rx="1" ry="1"></ellipse>
                <ellipse id="Oval-16-Copy" cx="13.0485607" cy="10.5013708" rx="1" ry="1"></ellipse>
                <ellipse id="Oval-16-Copy-3" cx="25.093386" cy="10.5013708" rx="1" ry="1"></ellipse>
                <ellipse id="Oval-16-Copy-2" cx="37.1382113" cy="10.5013708" rx="1" ry="1"></ellipse>
                <ellipse id="Oval-16-Copy-7" cx="49.1830366" cy="10.5013708" rx="1" ry="1"></ellipse>
                <ellipse id="Oval-16-Copy-6" cx="61.2278619" cy="10.5013708" rx="1" ry="1"></ellipse>
                <ellipse id="Oval-16-Copy-5" cx="73.2726872" cy="10.5013708" rx="1" ry="1"></ellipse>
                <ellipse id="Oval-16-Copy-4" cx="85.3175125" cy="10.5013708" rx="1" ry="1"></ellipse>
                <ellipse id="Oval-16-Copy-11" cx="97.3623377" cy="10.5013708" rx="1" ry="1"></ellipse>
                <ellipse id="Oval-16-Copy-10" cx="109.407163" cy="10.5013708" rx="1" ry="1"></ellipse>
                <ellipse id="Oval-16-Copy-9" cx="121.451988" cy="10.5013708" rx="1" ry="1"></ellipse>
                <ellipse id="Oval-16-Copy-8" cx="133.496814" cy="10.5013708" rx="1" ry="1"></ellipse>
                <ellipse id="Oval-16" cx="1.00373544" cy="20.0026111" rx="1" ry="1"></ellipse>
                <ellipse id="Oval-16-Copy" cx="13.0485607" cy="20.0026111" rx="1" ry="1"></ellipse>
                <ellipse id="Oval-16-Copy-3" cx="25.093386" cy="20.0026111" rx="1" ry="1"></ellipse>
                <ellipse id="Oval-16-Copy-2" cx="37.1382113" cy="20.0026111" rx="1" ry="1"></ellipse>
                <ellipse id="Oval-16-Copy-7" cx="49.1830366" cy="20.0026111" rx="1" ry="1"></ellipse>
                <ellipse id="Oval-16-Copy-6" cx="61.2278619" cy="20.0026111" rx="1" ry="1"></ellipse>
                <ellipse id="Oval-16-Copy-5" cx="73.2726872" cy="20.0026111" rx="1" ry="1"></ellipse>
                <ellipse id="Oval-16-Copy-4" cx="85.3175125" cy="20.0026111" rx="1" ry="1"></ellipse>
                <ellipse id="Oval-16-Copy-11" cx="97.3623377" cy="20.0026111" rx="1" ry="1"></ellipse>
                <ellipse id="Oval-16-Copy-10" cx="109.407163" cy="20.0026111" rx="1" ry="1"></ellipse>
                <ellipse id="Oval-16-Copy-9" cx="121.451988" cy="20.0026111" rx="1" ry="1"></ellipse>
                <ellipse id="Oval-16-Copy-8" cx="133.496814" cy="20.0026111" rx="1" ry="1"></ellipse>
                <ellipse id="Oval-16" cx="1.00373544" cy="29.5038514" rx="1" ry="1"></ellipse>
                <ellipse id="Oval-16-Copy" cx="13.0485607" cy="29.5038514" rx="1" ry="1"></ellipse>
                <ellipse id="Oval-16-Copy-3" cx="25.093386" cy="29.5038514" rx="1" ry="1"></ellipse>
                <ellipse id="Oval-16-Copy-2" cx="37.1382113" cy="29.5038514" rx="1" ry="1"></ellipse>
                <ellipse id="Oval-16-Copy-7" cx="49.1830366" cy="29.5038514" rx="1" ry="1"></ellipse>
                <ellipse id="Oval-16-Copy-6" cx="61.2278619" cy="29.5038514" rx="1" ry="1"></ellipse>
                <ellipse id="Oval-16-Copy-5" cx="73.2726872" cy="29.5038514" rx="1" ry="1"></ellipse>
                <ellipse id="Oval-16-Copy-4" cx="85.3175125" cy="29.5038514" rx="1" ry="1"></ellipse>
                <ellipse id="Oval-16-Copy-11" cx="97.3623377" cy="29.5038514" rx="1" ry="1"></ellipse>
                <ellipse id="Oval-16-Copy-10" cx="109.407163" cy="29.5038514" rx="1" ry="1"></ellipse>
                <ellipse id="Oval-16-Copy-9" cx="121.451988" cy="29.5038514" rx="1" ry="1"></ellipse>
                <ellipse id="Oval-16-Copy-8" cx="133.496814" cy="29.5038514" rx="1" ry="1"></ellipse>
                <ellipse id="Oval-16" cx="1.00373544" cy="39.0050916" rx="1" ry="1"></ellipse>
                <ellipse id="Oval-16-Copy" cx="13.0485607" cy="39.0050916" rx="1" ry="1"></ellipse>
                <ellipse id="Oval-16-Copy-3" cx="25.093386" cy="39.0050916" rx="1" ry="1"></ellipse>
                <ellipse id="Oval-16-Copy-2" cx="37.1382113" cy="39.0050916" rx="1" ry="1"></ellipse>
                <ellipse id="Oval-16-Copy-7" cx="49.1830366" cy="39.0050916" rx="1" ry="1"></ellipse>
                <ellipse id="Oval-16-Copy-6" cx="61.2278619" cy="39.0050916" rx="1" ry="1"></ellipse>
                <ellipse id="Oval-16-Copy-5" cx="73.2726872" cy="39.0050916" rx="1" ry="1"></ellipse>
                <ellipse id="Oval-16-Copy-4" cx="85.3175125" cy="39.0050916" rx="1" ry="1"></ellipse>
                <ellipse id="Oval-16-Copy-11" cx="97.3623377" cy="39.0050916" rx="1" ry="1"></ellipse>
                <ellipse id="Oval-16-Copy-10" cx="109.407163" cy="39.0050916" rx="1" ry="1"></ellipse>
                <ellipse id="Oval-16-Copy-9" cx="121.451988" cy="39.0050916" rx="1" ry="1"></ellipse>
                <ellipse id="Oval-16-Copy-8" cx="133.496814" cy="39.0050916" rx="1" ry="1"></ellipse>
                <ellipse id="Oval-16" cx="1.00373544" cy="48.5063319" rx="1" ry="1"></ellipse>
                <ellipse id="Oval-16-Copy" cx="13.0485607" cy="48.5063319" rx="1" ry="1"></ellipse>
                <ellipse id="Oval-16-Copy-3" cx="25.093386" cy="48.5063319" rx="1" ry="1"></ellipse>
                <ellipse id="Oval-16-Copy-2" cx="37.1382113" cy="48.5063319" rx="1" ry="1"></ellipse>
                <ellipse id="Oval-16-Copy-7" cx="49.1830366" cy="48.5063319" rx="1" ry="1"></ellipse>
                <ellipse id="Oval-16-Copy-6" cx="61.2278619" cy="48.5063319" rx="1" ry="1"></ellipse>
                <ellipse id="Oval-16-Copy-5" cx="73.2726872" cy="48.5063319" rx="1" ry="1"></ellipse>
                <ellipse id="Oval-16-Copy-4" cx="85.3175125" cy="48.5063319" rx="1" ry="1"></ellipse>
                <ellipse id="Oval-16-Copy-11" cx="97.3623377" cy="48.5063319" rx="1" ry="1"></ellipse>
                <ellipse id="Oval-16-Copy-10" cx="109.407163" cy="48.5063319" rx="1" ry="1"></ellipse>
                <ellipse id="Oval-16-Copy-9" cx="121.451988" cy="48.5063319" rx="1" ry="1"></ellipse>
                <ellipse id="Oval-16-Copy-8" cx="133.496814" cy="48.5063319" rx="1" ry="1"></ellipse>
                <ellipse id="Oval-16" cx="1.00373544" cy="58.0075722" rx="1" ry="1"></ellipse>
                <ellipse id="Oval-16-Copy" cx="13.0485607" cy="58.0075722" rx="1" ry="1"></ellipse>
                <ellipse id="Oval-16-Copy-3" cx="25.093386" cy="58.0075722" rx="1" ry="1"></ellipse>
                <ellipse id="Oval-16-Copy-2" cx="37.1382113" cy="58.0075722" rx="1" ry="1"></ellipse>
                <ellipse id="Oval-16-Copy-7" cx="49.1830366" cy="58.0075722" rx="1" ry="1"></ellipse>
                <ellipse id="Oval-16-Copy-6" cx="61.2278619" cy="58.0075722" rx="1" ry="1"></ellipse>
                <ellipse id="Oval-16-Copy-5" cx="73.2726872" cy="58.0075722" rx="1" ry="1"></ellipse>
                <ellipse id="Oval-16-Copy-4" cx="85.3175125" cy="58.0075722" rx="1" ry="1"></ellipse>
                <ellipse id="Oval-16-Copy-11" cx="97.3623377" cy="58.0075722" rx="1" ry="1"></ellipse>
                <ellipse id="Oval-16-Copy-10" cx="109.407163" cy="58.0075722" rx="1" ry="1"></ellipse>
                <ellipse id="Oval-16-Copy-9" cx="121.451988" cy="58.0075722" rx="1" ry="1"></ellipse>
                <ellipse id="Oval-16-Copy-8" cx="133.496814" cy="58.0075722" rx="1" ry="1"></ellipse>
                <ellipse id="Oval-16" cx="1.00373544" cy="67.5088124" rx="1" ry="1"></ellipse>
                <ellipse id="Oval-16-Copy" cx="13.0485607" cy="67.5088124" rx="1" ry="1"></ellipse>
                <ellipse id="Oval-16-Copy-3" cx="25.093386" cy="67.5088124" rx="1" ry="1"></ellipse>
                <ellipse id="Oval-16-Copy-2" cx="37.1382113" cy="67.5088124" rx="1" ry="1"></ellipse>
                <ellipse id="Oval-16-Copy-7" cx="49.1830366" cy="67.5088124" rx="1" ry="1"></ellipse>
                <ellipse id="Oval-16-Copy-6" cx="61.2278619" cy="67.5088124" rx="1" ry="1"></ellipse>
                <ellipse id="Oval-16-Copy-5" cx="73.2726872" cy="67.5088124" rx="1" ry="1"></ellipse>
                <ellipse id="Oval-16-Copy-4" cx="85.3175125" cy="67.5088124" rx="1" ry="1"></ellipse>
                <ellipse id="Oval-16-Copy-11" cx="97.3623377" cy="67.5088124" rx="1" ry="1"></ellipse>
                <ellipse id="Oval-16-Copy-10" cx="109.407163" cy="67.5088124" rx="1" ry="1"></ellipse>
                <ellipse id="Oval-16-Copy-9" cx="121.451988" cy="67.5088124" rx="1" ry="1"></ellipse>
                <ellipse id="Oval-16-Copy-8" cx="133.496814" cy="67.5088124" rx="1" ry="1"></ellipse>
            </g>
        </g>
    </g>
</svg>