<svg id="Layer_1" xmlns="http://www.w3.org/2000/svg" viewBox="0 0 242.8 223.8"><style>.st0{fill:#fff}.st1{fill:none;stroke:#fff;stroke-width:4;stroke-miterlimit:10}</style><path class="st0" d="M33.2 11.6c0 2.2-.7 4.2-2 6-1.4 1.7-2.8 2.6-4.2 2.6-.8 0-1.4-.3-1.9-.9-.5-.6-.7-1.5-.7-2.7 0-.8.2-1.8.6-2.9.4-1.1.9-2 1.5-2.7.1-.2.3-.4.5-.6.5-.7 1.1-1.2 1.8-1.7.5-.5 1.3-.7 2-.7s1.2.3 1.7.8c.5.6.7 1.5.7 2.8zm-7.5 6.6c0 .4.1.8.3 1s.5.3 1 .3.9-.2 1.4-.7c.8-.8 1.7-2.2 2.5-4.2s1.2-3.5 1.2-4.7c0-.4-.1-.7-.3-1-.2-.2-.4-.4-.7-.4-.6 0-1.2.3-1.8 1-1 1.1-2 2.7-2.7 4.6-.6 1.8-.9 3.1-.9 4.1zm13.2-9c-.3.1-.8.5-1.3 1.1-.4.3-.7.7-1.1 1-.2.3-.4.4-.5.5l-.5-.1c.2-.3.6-.8 1.3-1.6s1.5-1.4 2.3-1.9c.4-.2.7-.3 1-.3.2 0 .3.1.5.2.1.1.2.3.2.4 0 .2-.1.5-.2.8 0 .1-.1.2-.2.5-.4 1-1.3 2.7-2.5 5.2-1.1 2.1-1.6 3.3-1.6 3.5v.1c.3 0 .6-.2 1-.6 1.3-1.1 2.2-2 2.9-2.7l.7-.7c1.1-1.1 2-2.2 2.7-3.3.4-.6 1-1.8 1.9-3.4h.7c.2 0 .4.1.5.2-.2.6-.6 1.6-1.1 3l-2.7 6.7c-.2.3-.3.7-.3 1h.1c.1 0 .2-.1.5-.3.6-.5 1-1 1.4-1.5.2-.2.3-.4.4-.6l.5.1c-.5.9-1.2 1.8-2.3 2.9-.6.6-1.1.8-1.4.8-.1 0-.3 0-.5-.1-.2-.2-.3-.4-.3-.5 0-.5.2-1.2.6-2.1l2-4.8c.1-.1.1-.2.1-.3-.2.2-.6.6-1.1 1.3-1.4 1.6-2.6 2.9-3.6 3.8-1 .9-2.1 1.7-3.2 2.4-.3.2-.6.2-.8.2-.1 0-.2 0-.3-.1s-.1-.2-.1-.4 0-.3.1-.6c.2-.5.4-1.1.8-1.9l2.5-4.9 1-2.2c-.1-.2 0-.4 0-.5 0-.1-.1-.2-.1-.3zm11.6 0c-.3.2-.6.5-.9.8-.1.1-.5.7-1.3 1.7h-.6c.2-.5.7-1.2 1.3-1.9.7-.8 1.2-1.3 1.7-1.6.3-.2.7-.3 1-.3.2.1.4.2.5.3.1.1.1.3.1.4 0 .2 0 .3-.1.5-.1.5-.3 1.3-.6 2.3-.3 1-.6 1.8-.8 2.3l-.8 1.8-.1.3c.1-.2.4-.7.8-1.5 1.6-3 2.7-4.8 3.4-5.5.7-.6 1.3-.8 2-.8.4 0 .7.2 1.1.5.3.2.4.6.4 1s-.1.8-.4 1.1c-.2.2-.5.3-.8.3-.3 0-.5-.1-.6-.2-.1-.1-.2-.5-.2-1-.1-.3-.3-.4-.4-.4s-.3.1-.5.2c-.5.4-1.3 1.7-2.6 4-1.3 2.2-2.1 3.8-2.4 4.7-.3.9-.6 1.5-.8 1.8-.1.2-.3.2-.6.2s-.4 0-.6-.1c-.1-.1-.2-.2-.2-.4s0-.4.1-.7c.4-1 1.1-2.9 2-5.6l1-3.1c.1-.3.1-.5.1-.5l.1-.2c0-.1-.1-.3-.3-.4zm6.6 16.2c.2-.1.3-.1.4-.1.3 0 .6.2.9.7.1.2.2.4.3.5.2.2.5.4.8.4.4 0 .9-.2 1.5-.7.5-.5 1-1.3 1.4-2.3.4-1 .8-2.1 1.2-3.2l1.4-4.9c.1-.3.2-.6.3-1l1-3.4.6-1.8h-2.6c0-.3.1-.5.1-.7h.7l2.1-.1c.4-1.4.9-2.7 1.4-4 .3-.7.8-1.5 1.4-2.2.5-.6 1.1-1 1.7-1.4.3-.2.7-.3 1.2-.3.6 0 1.1.2 1.5.5.4.2.6.6.6.9 0 .2-.1.4-.2.6-.2.2-.3.3-.5.3-.3 0-.5-.1-.7-.2s-.3-.4-.4-.8c-.1-.3-.2-.4-.3-.5-.1-.1-.3-.1-.5-.1s-.4 0-.5.1c-.3.2-.6.4-1 .9-.3.3-.5.8-.8 1.4-.3.6-.6 1.5-.9 2.6-.3 1.1-.5 1.8-.6 2.1h2.2v.2c0 .1 0 .3-.1.5l-2.4.1-.5 1.6-1.2 4.4c-.1.2-.1.4-.2.6-.2.5-.3.8-.3 1L65 20.5c-.5 1.3-.9 2.4-1.4 3.3-.5.9-1 1.6-1.7 2.3-.5.5-1.1.9-1.6 1.1-.4.2-.8.2-1.4.2-.8 0-1.4-.1-1.7-.4-.3-.3-.5-.6-.5-.9 0-.3.2-.6.4-.7zM74.3 9.2c-.3.1-.7.5-1.3 1.1-.4.3-.7.7-1.1 1-.2.3-.4.4-.5.5l-.4-.1c.2-.3.6-.8 1.3-1.6s1.5-1.4 2.3-1.9c.4-.2.7-.3 1-.3.2 0 .3.1.5.2.1.1.2.3.2.4 0 .2-.1.5-.2.8 0 .1-.1.2-.2.5-.4 1-1.3 2.7-2.5 5.2-1.1 2.1-1.6 3.3-1.6 3.5v.1c.3 0 .6-.2 1-.6 1.3-1.1 2.2-2 2.9-2.7l.7-.7c1.1-1.1 2-2.2 2.7-3.3.4-.6 1-1.8 1.9-3.4h.7c0 .1.2.1.3.3-.2.6-.6 1.6-1.1 3l-2.7 6.7c-.2.3-.3.7-.3 1h.1c.1 0 .2-.1.5-.3.6-.5 1-1 1.4-1.5.2-.2.3-.4.4-.6l.5.1c-.5.9-1.2 1.8-2.3 2.9-.6.6-1.1.8-1.4.8-.1 0-.3 0-.5-.1-.2-.2-.3-.4-.3-.5 0-.5.2-1.2.6-2.1l2-4.8c.1-.1.1-.2.1-.3-.2.2-.6.6-1.1 1.3-1.4 1.6-2.6 2.9-3.6 3.8-1 .9-2.1 1.7-3.2 2.4-.3.2-.6.2-.8.2-.1 0-.2 0-.3-.1s-.1-.2-.1-.4 0-.3.1-.6c.2-.5.4-1.1.8-1.9l2.5-4.9 1-2.2c.2-.3.3-.5.3-.6-.2-.1-.2-.2-.3-.3zm11.7 0c-.3.2-.6.5-.9.8-.1.1-.5.7-1.3 1.7h-.6c.2-.5.7-1.2 1.3-1.9.7-.8 1.2-1.3 1.7-1.6.3-.2.7-.3 1-.3.2.1.4.2.5.3.1.1.1.3.1.4 0 .2 0 .3-.1.5-.1.5-.3 1.3-.6 2.3-.3 1-.6 1.8-.8 2.3l-.8 1.8-.1.3c.1-.2.4-.7.8-1.5 1.6-3 2.7-4.8 3.4-5.5.7-.6 1.3-.8 2-.8.4 0 .7.2 1.1.5.3.2.4.6.4 1s-.1.8-.4 1.1c-.2.2-.5.3-.8.3-.3 0-.5-.1-.6-.2-.1-.1-.2-.5-.2-1-.1-.3-.3-.4-.4-.4s-.5 0-.7.2c-.5.4-1.3 1.7-2.6 4-1.3 2.2-2.1 3.8-2.4 4.7-.3.9-.6 1.5-.8 1.8-.1.2-.3.2-.6.2s-.4 0-.6-.1c-.1-.1-.2-.2-.2-.4s0-.4.1-.7c.4-1 1.1-2.9 2-5.6l1-3.1c.1-.3.1-.5.1-.5l.1-.2c.2-.1.1-.3-.1-.4zm10 .1h-2.4c0-.2.1-.5.2-.7 1.4 0 2.2-.1 2.5-.1.2-.5.3-.8.5-1.1.3-.6.6-1.4.9-2.2.1-.3.2-.5.3-.8h.7c.2 0 .5 0 .7.1v.2c0 .2-.4 1.2-1.3 3.2-.1.1-.2.3-.2.6.3 0 .4.1.5.1h2.2c0 .3-.1.6-.2.8-.4 0-.9.1-1.5.1h-.6c-.5 0-.8.1-.8.1l-2.4 5.6c-.3.5-.7 1.6-1.3 3.1 0 .1 0 .1.1.2h.2c.3 0 .6-.2 1-.5.8-.7 1.6-1.6 2.4-2.5.2.1.3.2.4.3-1 1.2-1.6 1.9-2 2.3s-.9.8-1.5 1.2c-.6.4-1 .6-1.1.7-.2.1-.4.1-.7.1-.2 0-.4 0-.5-.2-.1-.1-.2-.2-.2-.4 0-.3.2-.9.7-2l.6-1.3 2.1-5.1c.3-.7.5-1.3.7-1.8zm7.9-8.2l.1-.3c1.6-.2 2.6-.3 3-.3h.5l-.1.3-.4 1-.8 2.4c-.1.4-.3.9-.6 1.7-.4 1.4-.9 2.7-1.4 3.9-.5 1.1-.9 2.4-1.3 3.7.2-.2.3-.5.6-.8 1.4-1.9 2.5-3.3 3.5-4 .6-.5 1.2-.7 1.9-.7.5 0 .9.2 1.3.6.4.4.5 1.1.5 1.9 0 1.1-.3 2.4-.8 3.9s-1.2 2.7-1.9 3.6-1.4 1.5-1.9 1.8-1 .4-1.4.4c-.4 0-.7-.1-.9-.3-.3-.3-.4-.6-.4-.9 0-.1.1-.3.2-.4.2-.1.4-.2.6-.2.2 0 .3 0 .5.1.1.1.3.3.5.7.2.2.3.2.4.2.2 0 .4-.2.7-.6.6-.8 1.3-2.4 2.1-4.7.6-1.8.9-3.2.9-4.2 0-.5-.1-.9-.2-1.1-.1-.2-.3-.3-.6-.3-.1 0-.3 0-.5.1-.5.3-1.1.7-1.7 1.3s-1.6 1.9-2.9 3.7c-.3.4-.8 1.3-1.4 2.8-.7 1.4-1.1 2.5-1.3 3.1-.1.3-.2.5-.4.6-.1.1-.3.1-.4.1-.2 0-.4 0-.4-.1-.1-.1-.1-.2-.1-.3 0-.2.1-.4.2-.8l1-2.6c.1-.1.1-.3.2-.4l4-11.7.6-1.7c.2-.4.2-.7.2-.9 0-.1 0-.2-.1-.3-.1-.1-.2-.1-.3-.1-.6.1-1 0-1.3-.2zm9.9 13.5c-.3.9-.5 1.8-.5 2.7 0 .7.2 1.2.5 1.6.2.3.5.4.8.4.2 0 .4 0 .6-.1.4-.2.7-.4.9-.6.3-.2.5-.6.8-1 .3-.4.5-.9.7-1.4h.6c-.3 1.1-1 2.1-2.1 3.2-.7.6-1.5 1-2.2 1-.5 0-.9-.2-1.3-.7-.5-.6-.7-1.4-.7-2.5 0-.5.1-1 .2-1.7s.3-1.2.5-1.6c.3-.7.6-1.3 1-1.9l1.1-1.6c.7-.8 1.1-1.2 1.2-1.3.3-.3.7-.5 1-.7.3-.1.7-.2 1.1-.2.5 0 .9.2 1.2.6.4.4.5.9.5 1.5 0 .5-.1 1.1-.4 1.6s-.6.9-.9 1.1l-1.2.8c-.1.1-.5.2-1.1.4s-1.4.2-2.3.4zm.3-.7c.3 0 .8-.1 1.4-.4.4-.1.8-.4 1.4-.8.2-.2.5-.4.8-.8.3-.4.5-.8.7-1.2.2-.4.2-.8.2-1.2 0-.3-.1-.5-.2-.7-.2-.2-.3-.3-.5-.3-.3 0-.6.1-.9.4-.6.5-1.2 1.4-1.9 2.6-.6 1-.9 1.8-1 2.4zm6.5 3.4c.5 0 .9.4 1.2 1.1.2.4.3.6.4.7.1.1.3.2.5.2.4 0 .8-.2 1.2-.6.3-.3.4-.7.4-1.3 0-.5-.2-1.2-.5-2.1-.5-1.3-.7-2.4-.7-3.2 0-1.1.3-2.1.9-3 .6-.9 1.5-1.3 2.8-1.3.5 0 1 .1 1.3.4.3.3.5.7.5 1.1 0 .3-.1.5-.2.7-.2.2-.3.3-.5.3-.4 0-.8-.2-1.1-.6-.3-.4-.6-.6-.7-.7-.1.1-.3 0-.5 0-.3 0-.5.1-.7.3-.2.2-.3.5-.3.8 0 .8.2 1.9.7 3.3.5 1.4.7 2.5.7 3.2 0 .5-.2 1-.5 1.5s-.8.9-1.4 1.3c-.6.4-1.3.5-2 .5-.8 0-1.4-.2-1.8-.5-.4-.3-.6-.8-.6-1.2 0-.3.1-.5.2-.7s.4-.2.7-.2zm12.3-8h-2.4c0-.2.1-.5.2-.7 1.4 0 2.2-.1 2.5-.1.2-.5.3-.8.5-1.1.3-.6.6-1.4.9-2.2.1-.3.2-.5.3-.8h.7c.2 0 .5 0 .7.1v.2c0 .2-.4 1.2-1.3 3.2-.1.2-.2.4-.2.7.3 0 .4.1.5.1h2.2c0 .3-.1.6-.2.8-.4 0-.9.1-1.5.1h-.6c-.5 0-.8.1-.8.1l-2.4 5.6c-.3.5-.7 1.6-1.3 3.1 0 .1 0 .1.1.2h.2c.3 0 .6-.2 1-.5.8-.7 1.6-1.6 2.4-2.5.2.1.3.2.4.3-1 1.2-1.6 1.9-2 2.3s-.9.8-1.5 1.2c-.6.4-1 .6-1.1.7-.2.1-.4.1-.7.1-.2 0-.4 0-.5-.2-.1-.1-.2-.2-.2-.4 0-.3.2-.9.7-2l.6-1.3 2.1-5.1c.4-.8.6-1.4.7-1.9zm18.2 1.2c-.1-.1-.3-.2-.3-.3 0-.1-.1-.3-.3-.6-.1-.3-.2-.5-.3-.6h-.4c-.3 0-.7.2-1.1.6-.7.8-1.4 2-2.2 3.8-.7 1.8-1.1 3.2-1.1 4.4 0 .4.1.7.2.9.1.1.2.2.4.2.4 0 .8-.2 1.2-.6.6-.5 1.2-1.3 1.8-2.3.2 0 .3-.1.4-.1h.2c0 .2-.3.6-.8 1.4-.7 1.1-1.4 1.8-2 2.2-.6.4-1.2.6-1.7.6-.4 0-.8-.2-1-.5-.3-.4-.5-1.1-.5-2 0-.8.2-1.7.6-2.8.4-1.1.9-2.2 1.6-3.2.7-1 1.3-1.8 1.8-2.2.5-.4 1-.8 1.7-1.1.5-.2.9-.3 1.3-.3s.8.2 1.1.5c.3.4.5.8.5 1.2 0 .3-.1.5-.2.7s-.3.2-.5.2c-.1 0-.3 0-.4-.1zm6.1-9.4V.7c1.2-.1 2.1-.1 2.7-.1h.6v.2l-.4 1.4s-.4.9-1.1 2.7l-2 5.1c-.3 1-.9 2.4-1.7 4.4l-.5 1.3c-.3.9-.6 1.5-.8 1.8-.3.5-.5.9-.5 1.2l.1.2c.3 0 .7-.2 1.2-.7.7-.6 1.3-1.3 1.9-2.2.2 0 .3-.1.4-.1h.2c-.4.7-.7 1.3-1.2 1.7-.7.7-1.1 1.1-1.4 1.3-.6.4-1.1.7-1.6 1-.3.1-.6.2-1 .2-.2 0-.3 0-.4-.1-.1-.1-.1-.2-.1-.3 0-.5.8-2.4 2.3-6 .5-1.1 1-2.3 1.5-3.7.9-2.4 1.6-4.1 2.1-5.1s.8-1.9 1.1-2.8v-.2c0-.1-.1-.3-.2-.4-.2-.1-.6-.2-1.2-.4zm5 8.1h-.4c-.5.2-.8.4-1 .6-.4.3-.8.7-1.2 1.2l-.8.2c.7-1 1.6-1.8 2.5-2.4.9-.6 1.6-.9 2.1-.9.2 0 .4.1.5.2.1.1.2.3.2.4 0 .5-.3 1.3-.8 2.4-.1.1-.2.5-.5 1-.6 1.3-1.2 2.5-1.9 3.6-.2.4-.4.8-.7 1.3-.1.3-.3.5-.4.7-.3.5-.4.9-.4 1.1 0 .1 0 .1.1.2s.1.1.2.1.3-.1.5-.2c.4-.2.8-.5 1.3-1s.9-1 1.3-1.5h.6c-.3.5-.7 1.1-1.3 1.8-.6.7-1.2 1.2-1.9 1.6-.5.3-1 .5-1.5.5-.3 0-.6-.1-.7-.2-.2-.1-.2-.3-.2-.5 0-.7.5-2.1 1.6-4.2l2.3-4.4c.2-.5.4-.8.5-1.1.1-.2.1-.3.1-.3s-.1-.1-.1-.2zm.8-6.5c0-.3.1-.6.4-.9.3-.3.6-.4.9-.4.3 0 .6.1.8.3s.3.5.3.8c0 .4-.1.7-.4 1.1-.2.2-.5.3-1 .3-.3 0-.6-.1-.8-.3s-.2-.5-.2-.9zm4.1 11.9c-.3.9-.5 1.8-.5 2.7 0 .7.2 1.2.5 1.6.2.3.5.4.8.4.2 0 .4 0 .6-.1.4-.2.7-.4.9-.6.3-.2.5-.6.8-1 .3-.4.5-.9.7-1.4h.6c-.3 1.1-1 2.1-2.1 3.2-.7.6-1.5 1-2.2 1-.5 0-.9-.2-1.3-.7-.5-.6-.7-1.4-.7-2.5 0-.5.1-1 .2-1.7s.3-1.2.5-1.6c.3-.7.6-1.3 1-1.9l1.1-1.6c.7-.8 1.1-1.2 1.2-1.3.3-.3.7-.5 1-.7.3-.1.7-.2 1.1-.2.5 0 .9.2 1.2.6.4.4.5.9.5 1.5 0 .5-.1 1.1-.4 1.6s-.6.9-.9 1.1l-1.2.8c-.1.1-.5.2-1.1.4s-1.3.2-2.3.4zm.3-.7c.3 0 .8-.1 1.4-.4.4-.1.8-.4 1.4-.8.2-.2.5-.4.8-.8.3-.4.5-.8.7-1.2.2-.4.2-.8.2-1.2 0-.3-.1-.5-.2-.7-.2-.2-.3-.3-.5-.3-.3 0-.6.1-.9.4-.6.5-1.2 1.4-1.9 2.6-.5 1-.9 1.8-1 2.4zm10.1-4.1c0-.1 0-.1-.1-.2h-.1c-.5 0-1.3.8-2.3 2.4h-.5c.2-.4.5-.9 1-1.5s.9-1.1 1.5-1.5c.5-.4 1-.7 1.5-.9.2-.1.3-.1.4-.1h.2c.2.2.3.4.3.5v.3c0 .1-.1.3-.2.5-.3.8-.5 1.4-.6 1.7l-.8 2.1c-.2.5-.4 1-.6 1.6.1-.1.1-.2.2-.3.9-1.3 1.9-2.6 2.9-3.8 1-1.2 1.9-2 2.6-2.4.5-.3.9-.4 1.4-.4.3 0 .6.1.8.3.2.2.3.4.3.7 0 .2 0 .3-.1.5-.1.4-.2.9-.4 1.5s-.8 2.1-1.8 4.3l-1.4 3.3-.1.2c0 .1 0 .1.1.3.5-.1 1.3-1 2.4-2.6h.6c-.3.5-.8 1.2-1.5 2.1-.5.6-1.1 1.1-1.7 1.5-.3.2-.7.3-1.1.3-.2 0-.4 0-.5-.1-.1-.1-.2-.2-.2-.3 0-.5.2-1.3.7-2.4l2.1-4.6.8-1.9c.2-.4.3-.7.3-.9 0-.2.1-.3.1-.5 0-.1 0-.2-.1-.3s-.2-.1-.3-.1c-.2 0-.3.1-.5.2-.7.4-1.5 1.2-2.4 2.2-1.2 1.5-2.1 2.5-2.5 3.2-1 1.6-1.9 3.2-2.6 4.9-.1.3-.3.5-.4.6h-.5c-.1 0-.3 0-.6-.1 0-.1-.1-.1-.1-.2s0-.3.1-.5c.2-.6.7-1.9 1.6-4l.3-.8 1.8-4.8zm12.8-.5h-2.4c0-.2.1-.5.2-.7 1.4 0 2.2-.1 2.5-.1.2-.5.3-.8.5-1.1.3-.6.6-1.4.9-2.2.1-.3.2-.5.3-.8h.7c.2 0 .5 0 .7.1v.2c0 .2-.4 1.2-1.3 3.2-.1.2-.2.4-.2.7.3 0 .4.1.5.1h2.2c0 .3-.1.6-.2.8-.4 0-.9.1-1.5.1h-.6c-.5 0-.8.1-.8.1l-2.4 5.6c-.3.5-.7 1.6-1.3 3.1 0 .1 0 .1.1.2h.2c.3 0 .6-.2 1-.5.8-.7 1.6-1.6 2.4-2.5.2.1.3.2.4.3-1 1.2-1.6 1.9-2 2.3s-.9.8-1.5 1.2c-.6.4-1 .6-1.1.7-.2.1-.4.1-.7.1-.2 0-.4 0-.5-.2-.1-.1-.2-.2-.2-.4 0-.3.2-.9.7-2l.6-1.3 2.1-5.1c.3-.8.5-1.4.7-1.9zm14.7-.1h-.4c-.5.2-.8.4-1 .6-.4.3-.8.7-1.2 1.2l-.8.2c.7-1 1.6-1.8 2.5-2.4.9-.6 1.6-.9 2.1-.9.2 0 .4.1.5.2.1.1.2.3.2.4 0 .5-.3 1.3-.8 2.4-.1.1-.2.5-.5 1-.6 1.3-1.2 2.5-1.9 3.6-.2.4-.4.8-.7 1.3-.1.3-.3.5-.4.7-.3.5-.4.9-.4 1.1 0 .1 0 .1.1.2s.1.1.2.1.3-.1.5-.2c.4-.2.8-.5 1.3-1s.9-1 1.3-1.5h.6c-.3.5-.7 1.1-1.3 1.8-.6.7-1.2 1.2-1.9 1.6-.5.3-1 .5-1.5.5-.3 0-.6-.1-.7-.2-.2-.1-.2-.3-.2-.5 0-.7.5-2.1 1.6-4.2l2.3-4.4c.2-.5.4-.8.5-1.1.1-.2.1-.3.1-.3s0-.1-.1-.2zm.9-6.5c0-.3.1-.6.4-.9.3-.3.6-.4.9-.4.3 0 .6.1.8.3s.3.5.3.8c0 .4-.1.7-.4 1.1-.2.2-.5.3-1 .3-.3 0-.6-.1-.8-.3s-.2-.5-.2-.9zm2.3 14.6c.5 0 .9.4 1.2 1.1.2.4.3.6.4.7.1.1.3.2.5.2.4 0 .8-.2 1.2-.6.3-.3.4-.7.4-1.3 0-.5-.2-1.2-.5-2.1-.5-1.3-.7-2.4-.7-3.2 0-1.1.3-2.1.9-3 .6-.9 1.5-1.3 2.8-1.3.5 0 1 .1 1.3.4.3.3.5.7.5 1.1 0 .3-.1.5-.2.7-.2.2-.3.3-.5.3-.4 0-.8-.2-1.1-.6-.3-.4-.6-.6-.7-.7-.1-.1-.3-.1-.5-.1-.3 0-.5.1-.7.3-.2.2-.3.5-.3.8 0 .8.2 1.9.7 3.3.5 1.4.7 2.5.7 3.2 0 .5-.2 1-.5 1.5s-.8.9-1.4 1.3c-.6.4-1.3.5-2 .5-.8 0-1.4-.2-1.8-.5-.4-.3-.6-.8-.6-1.2 0-.3.1-.5.2-.7s.4-.1.7-.1zM93.8 75.9h-9.3l-.3 4.7c1.1-1.2 2.7-1.8 4.5-1.8 1.9 0 3.6.6 4.9 1.9s2 2.9 2 4.9c0 2.2-.7 4-2.2 5.4-1.5 1.4-3.5 2.1-6.1 2.1-4.5 0-7.3-2-8.4-6.1l4.7-.7c.5 1.9 1.7 2.8 3.6 2.8 1 0 1.9-.3 2.5-1 .6-.6.9-1.4.9-2.3 0-.9-.3-1.7-1-2.4-.6-.7-1.4-1-2.4-1-1.3 0-2.3.6-3.1 1.7l-4.1-.7.8-12.1h13.4l-.4 4.6zM103 88v4.4l-3.1 5.4h-1.7l2.4-5h-2.4V88h4.8zm19.1.6l-.4 4.2h-16v-4.1c.5-.4 1.4-1 2.6-1.9 2.9-2.1 5.1-3.8 6.4-5.1 1.3-1.3 2-2.6 2-3.7 0-.8-.3-1.5-.8-2s-1.2-.8-2.1-.8c-2.1 0-3.3 1.4-3.6 4.1l-4.4-1c1-4.7 3.7-7 8.2-7 2.5 0 4.5.7 5.8 2 1.3 1.3 2 2.9 2 4.7 0 1.9-.7 3.6-2.1 5.1-1.4 1.5-4 3.4-7.8 5.6h10.2zm18.7 0l-.4 4.2h-16v-4.1c.5-.4 1.4-1 2.6-1.9 2.9-2.1 5.1-3.8 6.4-5.1 1.3-1.3 2-2.6 2-3.7 0-.8-.3-1.5-.8-2s-1.2-.8-2.1-.8c-2.1 0-3.3 1.4-3.6 4.1l-4.4-1c1-4.7 3.7-7 8.2-7 2.5 0 4.5.7 5.8 2 1.3 1.3 2 2.9 2 4.7 0 1.9-.7 3.6-2.1 5.1-1.4 1.5-4 3.4-7.8 5.6h10.2zm17.5-12.7H149l-.3 4.7c1.1-1.2 2.7-1.8 4.5-1.8 1.9 0 3.6.6 4.9 1.9s2 2.9 2 4.9c0 2.2-.7 4-2.2 5.4-1.5 1.4-3.5 2.1-6.1 2.1-4.5 0-7.3-2-8.4-6.1l4.7-.7c.5 1.9 1.7 2.8 3.6 2.8 1 0 1.9-.3 2.5-1 .6-.6.9-1.4.9-2.3 0-.9-.3-1.7-1-2.4-.6-.7-1.4-1-2.4-1-1.3 0-2.3.6-3.1 1.7l-4.1-.7.8-12.1h13.4l-.4 4.6zm-64.2 67.2l-4.6-15.3v15.3h-3.7v-18.8h6.8l3.3 11.2 3.5-11.2h6.9v18.8h-4.4v-15.3l-4.7 15.3h-3.1zm20.3-18.7v18.8H110v-18.8h4.4zm8.2 15h7.5v3.7h-11.9v-18.8h4.5v15.1zm23.1-11.5h-8.9v3.9h7v3.5h-7v4.1h8.9v3.7h-13.4v-18.8h13.4v3.6zm15.6.6l-3.7 1.3c-.5-1.5-1.6-2.2-3.2-2.2-1.7 0-2.6.6-2.6 1.7 0 .4.2.8.5 1.1.3.3 1.1.6 2.2.8 1.9.4 3.3.8 4.2 1.2.9.4 1.6 1 2.2 1.9.6.9.9 1.9.9 2.9 0 1.7-.7 3.2-2 4.4-1.3 1.2-3.2 1.9-5.8 1.9-1.9 0-3.6-.4-4.9-1.3-1.4-.9-2.2-2.2-2.7-3.9l4.1-.9c.5 1.8 1.7 2.6 3.8 2.6 1 0 1.8-.2 2.3-.6s.7-.9.7-1.4c0-.5-.2-1-.7-1.3-.4-.3-1.3-.6-2.6-.9-2.4-.5-4.1-1.2-5.1-2-1-.9-1.5-2.1-1.5-3.8 0-1.7.6-3.1 1.8-4.2 1.2-1.1 2.9-1.7 4.9-1.7 3.8 0 6.2 1.4 7.2 4.4z"/><path class="st1" d="M119.4 173.7c-9.8-5-19.5-8.7-35.6-10.3-16.2-1.6-28.2-12.5-28.2-28.8S65.7 98 65.7 89.7c0-8.3-11.6-25.4-11.6-25.4l20.5-18.9c18.9 18.3 44.9.3 44.9.3h.1s26 18 44.9-.3L185 64.3s-11.6 17.1-11.6 25.4c0 8.3 10.1 28.7 10.1 45s-12 27.1-28.2 28.7c-16.2 1.6-25.8 5.3-35.6 10.3h-.3zM61 107h115"/><path class="st0" d="M45.8 220.1c.2-.1.3-.1.4-.1.3 0 .6.2.9.7.1.2.2.4.3.5.2.2.5.4.8.4.4 0 .9-.2 1.5-.7.5-.5 1-1.3 1.4-2.3.4-1 .8-2.1 1.2-3.2l1.4-4.9c.1-.3.2-.6.3-1l1-3.5c.3-.9.5-1.5.6-1.9H53c0-.3.1-.5.1-.7h.7l2.1-.1c.4-1.4.9-2.8 1.5-4 .3-.8.8-1.5 1.5-2.3.5-.6 1.1-1 1.7-1.4.3-.2.7-.3 1.2-.3.6 0 1.1.2 1.5.5s.6.7.6 1c0 .2-.1.4-.2.6s-.3.3-.5.3c-.3 0-.5-.1-.7-.2-.2-.2-.3-.4-.4-.8-.1-.3-.2-.4-.3-.5-.1-.1-.3-.1-.5-.1s-.4 0-.5.1c-.3.2-.6.5-1 .9-.3.3-.5.8-.8 1.4-.3.6-.6 1.5-.9 2.7s-.5 1.9-.6 2.1h2.3v.2c0 .1 0 .3-.1.5l-2.4.1-.5 1.6-1.2 4.4c-.1.2-.1.4-.2.6-.2.5-.3.8-.3 1l-1.1 3.5c-.5 1.3-1 2.4-1.4 3.3-.5.9-1.1 1.7-1.8 2.3-.5.5-1.1.9-1.6 1.1-.4.2-.9.2-1.5.2-.8 0-1.4-.1-1.7-.4-.3-.3-.5-.6-.5-.9-.1-.3 0-.5.3-.7zm16.5-16.4c-.3.2-.6.5-.9.8-.1.1-.5.7-1.3 1.8h-.6c.2-.5.7-1.2 1.4-1.9.7-.8 1.2-1.3 1.7-1.6.3-.2.7-.3 1.1-.3.2.1.4.2.5.3s.1.3.1.4 0 .3-.1.5c-.1.5-.3 1.3-.6 2.3-.3 1-.6 1.8-.9 2.4l-.8 1.8-.1.3.8-1.6c1.6-3 2.7-4.9 3.4-5.6.5-.5 1.1-.8 1.8-.8.4 0 .8.2 1.1.5.3.2.4.6.4 1s-.1.8-.4 1.2c-.2.2-.5.3-.8.3-.3 0-.5-.1-.6-.2s-.2-.5-.2-1.1c-.1-.3-.3-.4-.4-.4s-.3.1-.5.2c-.5.4-1.4 1.8-2.7 4-1.3 2.3-2.1 3.8-2.4 4.7-.3.9-.6 1.5-.8 1.8-.1.2-.3.3-.6.3s-.4 0-.6-.1-.2-.2-.2-.4 0-.4.1-.7c.4-1 1.1-2.9 2-5.7l1-3.1c.1-.3.1-.5.1-.5l.1-.2c.2-.1.1-.2-.1-.4zm15.6 2.5c0 2.3-.7 4.3-2.1 6-1.4 1.8-2.8 2.6-4.3 2.6-.8 0-1.4-.3-1.9-.9s-.7-1.5-.7-2.8c0-.8.2-1.8.6-2.9s.9-2 1.5-2.8c.1-.2.3-.4.5-.6.5-.7 1.1-1.2 1.8-1.7s1.4-.7 2.2-.7c.7 0 1.3.3 1.7.9s.7 1.6.7 2.9zm-7.6 6.6c0 .4.1.8.3 1 .2.2.5.3 1 .3s.9-.2 1.4-.7c.8-.8 1.7-2.2 2.5-4.2s1.3-3.6 1.3-4.7c0-.4-.1-.7-.3-1s-.4-.4-.7-.4c-.6 0-1.2.3-1.8 1-1.1 1.1-2 2.7-2.8 4.7-.6 1.7-.9 3-.9 4zm13.6-8.8l-.2-.1c-.2 0-.5.1-.8.4-.7.5-1.3 1.1-1.7 1.7-.1.1-.2.2-.3.4-.2 0-.4 0-.6-.1.3-.5.6-.9.9-1.2.7-.7 1.2-1.2 1.5-1.4.5-.4 1.1-.7 1.5-.9.2-.1.5-.2.7-.2.2 0 .4.1.5.2s.2.3.2.4c0 .3-.6 1.6-1.7 3.9-.3.6-.5 1.1-.6 1.3.5-.6 1.2-1.3 2.1-2.3.6-.7 1.4-1.5 2.4-2.4.4-.3.8-.6 1.3-.8s.9-.3 1.2-.3c.3 0 .5.1.7.3.1.1.2.3.2.5 0 .8-.6 2.3-1.7 4.4l-.7 1.3-.1.2 1.5-1.8c.5-.5.8-.8.9-1l.7-.7c.8-1 1.7-1.8 2.6-2.3.9-.5 1.6-.8 2.1-.8.2 0 .4.1.6.3s.2.4.2.7c0 .2 0 .4-.1.6-.1.3-.2.8-.5 1.3 0 0-.4.8-1.3 2.3-.5.9-.8 1.5-1.1 1.9l-.7 1.2c-.4.6-.6 1-.8 1.2-.6.6-.8 1-.8 1.4 0 0 0 .1.1.1 0 0 .2-.1.5-.3.6-.4 1.4-1 2.3-1.9l.5.1c-.5.8-1.2 1.5-2.3 2.2s-2 1-2.9 1c-.2 0-.4-.1-.5-.2 0-.1 0-.2.1-.3s.2-.3.5-.8l2.4-3.9c1.3-2.1 2.1-3.5 2.3-4 .4-.8.6-1.3.6-1.5 0-.1 0-.2-.1-.3s-.2-.1-.2-.1c-.1 0-.3.1-.5.2-.6.3-1.2.9-2 1.7-1.5 1.6-2.6 2.8-3.4 3.8-1.2 1.5-2.3 3-3.2 4.6-.2.4-.4.7-.7.9h-.6c-.3 0-.6 0-.8-.1 0-.2.2-.5.4-.9.5-.8 1.2-2.1 2.3-4 1-1.9 1.7-3.2 2-3.9.3-.7.5-1.2.6-1.5v-.3c0-.2 0-.3-.1-.4-.1-.1-.1-.1-.2-.1-.2 0-.4.1-.7.3-.4.2-1.1.8-1.9 1.7-1.4 1.5-2.2 2.4-2.4 2.6-1.2 1.5-2.1 2.8-2.7 3.7 0 .1-.2.4-.6 1-.3.6-.6 1-.7 1.2-.1.2-.3.4-.6.6h-.6c-.1 0-.3 0-.4-.1l-.1-.2c0-.1.1-.3.2-.6.1-.1.9-1.6 2.4-4.6l2.6-5.1c.3 0 .3-.1.3-.2zm30.9 2.2c0 2.3-.7 4.3-2.1 6-1.4 1.8-2.8 2.6-4.3 2.6-.8 0-1.4-.3-1.9-.9s-.7-1.5-.7-2.8c0-.8.2-1.8.6-2.9s.9-2 1.5-2.8c.1-.2.3-.4.5-.6.5-.7 1.1-1.2 1.8-1.7s1.4-.7 2.2-.7c.7 0 1.3.3 1.7.9s.7 1.6.7 2.9zm-7.6 6.6c0 .4.1.8.3 1 .2.2.5.3 1 .3s.9-.2 1.4-.7c.8-.8 1.7-2.2 2.5-4.2s1.3-3.6 1.3-4.7c0-.4-.1-.7-.3-1s-.4-.4-.7-.4c-.6 0-1.2.3-1.8 1-1.1 1.1-2 2.7-2.8 4.7-.6 1.7-.9 3-.9 4zm13.3-9c-.3.1-.8.5-1.4 1.1-.4.3-.7.7-1.1 1-.2.3-.4.4-.5.5l-.5-.1c.2-.3.6-.8 1.4-1.6.8-.8 1.5-1.4 2.3-1.9.4-.2.7-.3 1-.3.2 0 .3.1.5.2.1.1.2.3.2.4 0 .2-.1.5-.2.8 0 .1-.1.2-.2.5-.4 1-1.3 2.8-2.6 5.2-1.1 2.1-1.6 3.3-1.6 3.6v.1c.3 0 .6-.2 1-.6 1.3-1.1 2.2-2 2.9-2.7l.7-.7c1.1-1.2 2-2.3 2.8-3.3.4-.6 1.1-1.8 1.9-3.5h.7c.2 0 .4.1.5.2-.2.6-.6 1.6-1.2 3l-2.7 6.8c-.2.4-.3.7-.3 1h.1c.1 0 .2-.1.5-.3.6-.5 1-1 1.4-1.6.2-.2.3-.4.5-.6l.5.1c-.5.9-1.3 1.9-2.4 2.9-.6.6-1.1.8-1.5.8-.1 0-.3 0-.5-.1-.2-.2-.3-.4-.3-.5 0-.5.2-1.2.6-2.1l2.1-4.8c.1-.1.1-.2.1-.3-.2.2-.6.6-1.2 1.3-1.4 1.6-2.6 2.9-3.6 3.9-1 .9-2.1 1.7-3.3 2.4-.3.2-.6.2-.8.2-.1 0-.3 0-.3-.1s-.1-.2-.1-.4 0-.4.1-.6c.2-.5.4-1.1.8-1.9l2.5-4.9 1-2.2c.2-.3.3-.5.3-.6 0-.1 0-.2-.1-.3zm11.9-.1c-.3.2-.6.5-.9.8-.1.1-.5.7-1.3 1.8h-.6c.2-.5.7-1.2 1.4-1.9.7-.8 1.2-1.3 1.7-1.6.3-.2.7-.3 1.1-.3.2.1.4.2.5.3s.1.3.1.4 0 .3-.1.5c-.1.5-.3 1.3-.6 2.3-.3 1-.6 1.8-.9 2.4l-.8 1.8-.1.3.8-1.6c1.6-3 2.7-4.9 3.4-5.6.5-.5 1.1-.8 1.8-.8.4 0 .8.2 1.1.5.3.2.4.6.4 1s-.1.8-.4 1.2c-.2.2-.5.3-.8.3-.3 0-.5-.1-.6-.2s-.2-.5-.2-1.1c-.1-.3-.3-.4-.4-.4s-.3.1-.5.2c-.5.4-1.4 1.8-2.7 4-1.3 2.3-2.1 3.8-2.4 4.7-.3.9-.6 1.5-.8 1.8-.1.2-.3.3-.6.3s-.4 0-.6-.1-.2-.2-.2-.4 0-.4.1-.7c.4-1 1.1-2.9 2-5.7l1-3.1c.1-.3.1-.5.1-.5l.1-.2c.2-.1.1-.2-.1-.4zm22.4.4l1.6-5.1c.1-.2.2-.6.3-1.1 0-.1 0-.2.1-.2.2-.6.3-1 .3-1.2 0-.1-.1-.2-.2-.3-.3-.2-.7-.4-1.3-.5l-.3-.1.1-.4c1.7 0 2.8-.1 3.3-.3h.2c.1 0 .2 0 .4.1-.1.3-.1.5-.1.6v.1l-1.2 3.6-1.5 4.7c-.3.8-.4 1.4-.5 1.8-.1.6-.3 1.1-.4 1.6l-2.1 6.2v.1c.4-.1 1.2-.9 2.7-2.5.2.1.3.2.4.3-.8 1.2-1.7 2.2-2.7 3-.7.5-1.3.8-1.6.8-.1 0-.2 0-.3-.1-.1-.1-.1-.2-.1-.2 0-.3.2-1 .5-2s.6-1.8.7-2.3c-.3.2-.6.6-1.1 1.2-.9 1.1-1.9 2-3 2.7-.7.5-1.4.8-2 .8-.3 0-.6-.1-.8-.4-.3-.4-.5-1-.5-1.8 0-.9.2-1.9.6-2.9.2-.6.7-1.4 1.2-2.4.6-1 1.2-1.8 1.9-2.5s1.4-1.2 2-1.6c.6-.3 1.2-.5 1.7-.5.4 0 .8.1 1.1.3.1-.1.4.1.6.5zm-6.5 9.5c.4 0 .8-.2 1.3-.5.9-.7 1.8-1.5 2.6-2.6s1.4-2.2 1.7-3.3c.3-1.1.5-1.7.5-1.9 0-.3-.1-.6-.4-.9-.2-.3-.5-.4-.7-.4-.3 0-.8.1-1.3.4-.5.3-1 .7-1.6 1.3-.3.3-.8 1.1-1.4 2.1-.6 1.1-1.1 2-1.4 2.8s-.5 1.4-.5 1.8c0 .4.1.7.3 1 .3.1.6.2.9.2zm18.7-7.4c0 2.3-.7 4.3-2.1 6-1.4 1.8-2.8 2.6-4.3 2.6-.8 0-1.4-.3-1.9-.9s-.7-1.5-.7-2.8c0-.8.2-1.8.6-2.9s.9-2 1.5-2.8c.1-.2.3-.4.5-.6.5-.7 1.1-1.2 1.8-1.7s1.4-.7 2.2-.7c.7 0 1.3.3 1.7.9s.7 1.6.7 2.9zm-7.6 6.6c0 .4.1.8.3 1 .2.2.5.3 1 .3s.9-.2 1.4-.7c.8-.8 1.7-2.2 2.5-4.2s1.3-3.6 1.3-4.7c0-.4-.1-.7-.3-1s-.4-.4-.7-.4c-.6 0-1.2.3-1.8 1-1.1 1.1-2 2.7-2.8 4.7-.6 1.7-.9 3-.9 4zm18.2-6.6c0 2.3-.7 4.3-2.1 6-1.4 1.8-2.8 2.6-4.3 2.6-.8 0-1.4-.3-1.9-.9s-.7-1.5-.7-2.8c0-.8.2-1.8.6-2.9s.9-2 1.5-2.8c.1-.2.3-.4.5-.6.5-.7 1.1-1.2 1.8-1.7s1.4-.7 2.2-.7c.7 0 1.3.3 1.7.9s.7 1.6.7 2.9zm-7.6 6.6c0 .4.1.8.3 1 .2.2.5.3 1 .3s.9-.2 1.4-.7c.8-.8 1.7-2.2 2.5-4.2s1.3-3.6 1.3-4.7c0-.4-.1-.7-.3-1s-.4-.4-.7-.4c-.6 0-1.2.3-1.8 1-1.1 1.1-2 2.7-2.8 4.7-.6 1.7-.9 3-.9 4zm12.4-9.1c-.3.2-.6.5-.9.8-.1.1-.5.7-1.3 1.8h-.6c.2-.5.7-1.2 1.4-1.9.7-.8 1.2-1.3 1.7-1.6.3-.2.7-.3 1.1-.3.2.1.4.2.5.3s.1.3.1.4 0 .3-.1.5c-.1.5-.3 1.3-.6 2.3-.3 1-.6 1.8-.9 2.4l-.8 1.8-.1.3.8-1.6c1.6-3 2.7-4.9 3.4-5.6.5-.5 1.1-.8 1.8-.8.4 0 .8.2 1.1.5.3.2.4.6.4 1s-.1.8-.4 1.2c-.2.2-.5.3-.8.3-.3 0-.5-.1-.6-.2s-.2-.5-.2-1.1c-.1-.3-.3-.4-.4-.4s-.3.1-.5.2c-.5.4-1.4 1.8-2.7 4-1.3 2.3-2.1 3.8-2.4 4.7-.3.9-.6 1.5-.8 1.8-.1.2-.3.3-.6.3s-.4 0-.6-.1-.2-.2-.2-.4 0-.4.1-.7c.4-1 1.1-2.9 2-5.7l1-3.1c.1-.3.1-.5.1-.5l.1-.2c.2-.1.1-.2-.1-.4z"/></svg>