<svg width="340" height="252" viewBox="0 0 340 252" version="1.1" xmlns="http://www.w3.org/2000/svg" xmlns:xlink="http://www.w3.org/1999/xlink">
<g id="Canvas" fill="none">
<g id="Group 3">
<g id="Path 4" opacity="0.1">
<path d="M 0 100.9L 124.719 0L 93.1333 181L 234 76.2346" stroke-width="42" stroke-linecap="round" stroke-linejoin="round" transform="translate(68 50)" stroke="url(#paint0_linear)"/>
</g>
<g id="Group 10">
<g id="Group 8">
<g id="Group 41">
<g id="Rectangle 9">
<path fill-rule="evenodd" clip-rule="evenodd" d="M 0 2.88C 0 1.28942 1.28942 0 2.88 0L 78.0065 0C 79.5971 0 80.8865 1.28942 80.8865 2.88L 80.8865 108.229C 80.8865 109.82 79.5971 111.109 78.0065 111.109L 2.88 111.109C 1.28942 111.109 0 109.82 0 108.229L 0 2.88Z" transform="translate(0 103.454)" fill="url(#paint1_linear)"/>
</g>
<mask id="mask0" mask-type="alpha" maskUnits="userSpaceOnUse" x="0" y="103" width="81" height="112">
<g id="Rectangle 9_2">
<path fill-rule="evenodd" clip-rule="evenodd" d="M 0 2.88C 0 1.28942 1.28942 0 2.88 0L 78.0065 0C 79.5971 0 80.8865 1.28942 80.8865 2.88L 80.8865 108.229C 80.8865 109.82 79.5971 111.109 78.0065 111.109L 2.88 111.109C 1.28942 111.109 0 109.82 0 108.229L 0 2.88Z" transform="translate(0 103.454)" fill="white"/>
</g>
</mask>
<g mask="url(#mask0)">
<g id="Rectangle 26" opacity="0.05">
<path d="M 0 0L 47.0089 0L 47.0089 42.359L 0 42.359L 0 0Z" stroke-width="11.52" transform="translate(-15.9141 99.146)" stroke="#1F334B"/>
</g>
<g id="Oval 11" opacity="0.05">
<path d="M 23.5045 46.6667C 36.4856 46.6667 47.0089 36.22 47.0089 23.3333C 47.0089 10.4467 36.4856 0 23.5045 0C 10.5233 0 0 10.4467 0 23.3333C 0 36.22 10.5233 46.6667 23.5045 46.6667Z" stroke-width="11.52" transform="translate(52.7969 178.838)" stroke="#1F334B"/>
</g>
</g>
</g>
<g id="Path 2">
<path d="M 0 1.13423L 15.437 1.13423" stroke-width="4" stroke-linecap="round" stroke-linejoin="round" transform="translate(32.7266 177.777)" stroke="white"/>
</g>
<g id="Path 2 Copy 3" opacity="0.7">
<path d="M 0 1.13423L 35.9118 1.13423" stroke-width="4" stroke-linecap="round" stroke-linejoin="round" transform="translate(22.4844 190.412)" stroke="white"/>
</g>
<g id="Group 7">
<g id="Rectangle 11">
<path fill-rule="evenodd" clip-rule="evenodd" d="M 0 7.60149C 0 3.4033 3.40331 0 7.60149 0C 11.7997 0 15.203 3.4033 15.203 7.60149L 15.203 8.15703C 15.203 12.3552 11.7997 15.7585 7.60149 15.7585C 3.40331 15.7585 0 12.3552 0 8.15703L 0 7.60149Z" transform="translate(32.3047 124.009)" fill="white"/>
</g>
<g id="Rectangle 16">
<path fill-rule="evenodd" clip-rule="evenodd" d="M 0 5.96027C 0 2.66851 2.6685 0 5.96027 0L 26.1625 0C 29.4543 0 32.1228 2.66851 32.1228 5.96027C 32.1228 9.25204 29.4543 11.9205 26.1625 11.9205L 5.96027 11.9205C 2.66851 11.9205 0 9.25204 0 5.96027Z" transform="translate(23.8438 144.908)" fill="white"/>
</g>
</g>
</g>
</g>
<g id="Group 2">
<g id="Rectangle 4">
<path fill-rule="evenodd" clip-rule="evenodd" d="M 0 8.90375C 0 3.98635 3.98634 0 8.90373 0L 205.655 0C 210.573 0 214.559 3.98634 214.559 8.90373L 214.559 135.53C 214.559 140.447 210.573 144.434 205.655 144.434L 8.90373 144.434C 3.98633 144.434 0 140.447 0 135.53L 0 8.90375Z" transform="translate(82.8281 63)" fill="#D8E9FB"/>
</g>
<g id="Rectangle 4 Copy">
<path fill-rule="evenodd" clip-rule="evenodd" d="M 0 0L 192.706 0L 192.706 114.756L 0 114.756L 0 0Z" transform="translate(95 75)" fill="white"/>
</g>
<g id="Oval 14" opacity="0.1">
<path fill-rule="evenodd" clip-rule="evenodd" d="M 28.5 57C 44.2401 57 57 44.2401 57 28.5C 57 12.7599 44.2401 0 28.5 0C 12.7599 0 0 12.7599 0 28.5C 0 44.2401 12.7599 57 28.5 57Z" transform="translate(160 103)" fill="#99C4EE"/>
</g>
<g id="Group 6">
<g id="Combined Shape">
<path fill-rule="evenodd" clip-rule="evenodd" d="M 29.4922 3.67822L 14.5391 0.0146484L -0.0625 3.82373L 14.5078 7.48926L 29.4922 3.67822ZM 14.5234 9.36914L 4.96875 6.57617L 4.96875 14.4561C 4.96875 15.7373 11.6094 16.7759 14.5234 16.7759C 17.4453 16.7759 24.0859 15.7373 24.0859 14.4561L 24.0859 6.57617L 14.5234 9.36914Z" transform="translate(176.375 124.308)" fill="url(#paint2_linear)"/>
</g>
</g>
<g id="Rectangle 7">
<path fill-rule="evenodd" clip-rule="evenodd" d="M 0 0L 266.212 0C 266.212 9.83448 258.24 17.8069 248.405 17.8069L 17.8069 17.8069C 7.97242 17.8069 0 9.83448 0 0Z" transform="translate(57 201.498)" fill="#C2DAF5"/>
</g>
</g>
<g id="Group 7_2" opacity="0.9">
<g id="Group 8_2">
<g id="Rectangle 8">
<path fill-rule="evenodd" clip-rule="evenodd" d="M 0 7.13523C 0 3.19456 3.19455 0 7.13522 0C 11.0759 0 14.2704 3.19455 14.2704 7.13522L 14.2704 79.0691C 14.2704 79.2315 14.2409 79.3926 14.1833 79.5445L 6.99782 98.4742L 0.0812967 79.5374C 0.0275164 79.3901 0 79.2346 0 79.0778L 0 7.13523Z" transform="matrix(0 -1 -1 0 340 220)" fill="url(#paint3_linear)"/>
</g>
<mask id="mask1" mask-type="alpha" maskUnits="userSpaceOnUse" x="241" y="205" width="99" height="15">
<g id="Rectangle 8_2">
<path fill-rule="evenodd" clip-rule="evenodd" d="M 0 7.13523C 0 3.19456 3.19455 0 7.13522 0C 11.0759 0 14.2704 3.19455 14.2704 7.13522L 14.2704 79.0691C 14.2704 79.2315 14.2409 79.3926 14.1833 79.5445L 6.99782 98.4742L 0.0812967 79.5374C 0.0275164 79.3901 0 79.2346 0 79.0778L 0 7.13523Z" transform="matrix(0 -1 -1 0 340 220)" fill="white"/>
</g>
</mask>
<g mask="url(#mask1)">
<g id="Oval 11_2" opacity="0.05">
<path d="M 19.7368 39.9194C 30.6372 39.9194 39.4737 30.9831 39.4737 19.9597C 39.4737 8.93625 30.6372 0 19.7368 0C 8.83648 0 0 8.93625 0 19.9597C 0 30.9831 8.83648 39.9194 19.7368 39.9194Z" stroke-width="12.8" transform="matrix(0 -1 -1 0 310.461 231.842)" stroke="#1F334B"/>
</g>
<g id="Rectangle 10" filter="url(#filter0_d)">
<path fill-rule="evenodd" clip-rule="evenodd" d="M 0 0L 17.5636 0L 17.5636 21.0427L 0 21.0427L 0 0Z" transform="matrix(0 -1 -1 0 340 221.098)" fill="url(#paint4_linear)"/>
</g>
<g id="Rectangle 9_3">
<path fill-rule="evenodd" clip-rule="evenodd" d="M 0 0L 18.6614 0L 18.6614 19.424L 0 19.424L 0 0Z" transform="matrix(0 -1 -1 0 262.305 221.098)" fill="#FBF0E5"/>
</g>
<g id="Rectangle 9 Copy">
<path fill-rule="evenodd" clip-rule="evenodd" d="M 0 0L 18.6614 0L 18.6614 19.424L 0 19.424L 0 0Z" transform="matrix(0 -1 -1 0 254.211 221.098)" fill="#5479A5"/>
</g>
</g>
</g>
</g>
<g id="Group 14">
<g id="Group 12">
<g id="Oval 4" filter="url(#filter1_d)">
<path fill-rule="evenodd" clip-rule="evenodd" d="M 32.7715 65.5431C 50.8708 65.5431 65.5431 50.8708 65.5431 32.7715C 65.5431 14.6723 50.8708 0 32.7715 0C 14.6723 0 0 14.6723 0 32.7715C 0 50.8708 14.6723 65.5431 32.7715 65.5431Z" transform="translate(246.836 37.375)" fill="url(#paint5_linear)"/>
</g>
<g id="Path 8">
<path d="M 10.4099 0L 0 0L 0 16.9544" stroke-width="4.48" stroke-linecap="round" stroke-linejoin="round" transform="matrix(-0.731354 -0.681998 0.681998 -0.731354 277.711 77.6631)" stroke="white"/>
</g>
</g>
<g id="Path 5">
<path d="M 1.66667 0L 1.66667 27.9284" stroke-width="3" stroke-linecap="round" stroke-linejoin="round" transform="translate(277.547 2.08057)" stroke="#84D87D"/>
</g>
<g id="Path 5 Copy">
<path d="M 8.13609 0L 0 10.0472" stroke-width="3" stroke-linecap="round" stroke-linejoin="round" transform="translate(298.477 21.8545)" stroke="#84D87D"/>
</g>
<g id="Path 5 Copy 2">
<path d="M 0 0L 8.81713 9.45522" stroke-width="3" stroke-linecap="round" stroke-linejoin="round" transform="translate(249.805 22.1504)" stroke="#84D87D"/>
</g>
</g>
</g>
</g>
<defs>
<filter id="filter0_d" x="315.961" y="203.534" width="24.0427" height="20.5636" filterUnits="userSpaceOnUse" color-interpolation-filters="sRGB">
<feFlood flood-opacity="0" result="BackgroundImageFix"/>
<feColorMatrix in="SourceAlpha" type="matrix" values="0 0 0 0 0 0 0 0 0 0 0 0 0 0 0 0 0 0 255 0"/>
<feOffset dx="-3" dy="3"/>
<feColorMatrix type="matrix" values="0 0 0 0 0.533108 0 0 0 0 0.682307 0 0 0 0 0.818532 0 0 0 0.344967 0"/>
<feBlend mode="normal" in2="BackgroundImageFix" result="effect1_dropShadow"/>
<feBlend mode="normal" in="SourceGraphic" in2="effect1_dropShadow" result="shape"/>
</filter>
<filter id="filter1_d" x="238.836" y="37.375" width="73.5431" height="74.5431" filterUnits="userSpaceOnUse" color-interpolation-filters="sRGB">
<feFlood flood-opacity="0" result="BackgroundImageFix"/>
<feColorMatrix in="SourceAlpha" type="matrix" values="0 0 0 0 0 0 0 0 0 0 0 0 0 0 0 0 0 0 255 0"/>
<feOffset dx="-8" dy="9"/>
<feColorMatrix type="matrix" values="0 0 0 0 0.533108 0 0 0 0 0.682307 0 0 0 0 0.818532 0 0 0 0.188038 0"/>
<feBlend mode="normal" in2="BackgroundImageFix" result="effect1_dropShadow"/>
<feBlend mode="normal" in="SourceGraphic" in2="effect1_dropShadow" result="shape"/>
</filter>

<linearGradient id="paint0_linear" x2="1" gradientUnits="userSpaceOnUse" gradientTransform="matrix(-111.49 181 -234 -86.2382 201.73 2.86086e-06)">
<stop stop-color="#86CB7A"/>
<stop offset="1" stop-color="#93C4FF"/>
</linearGradient>
<linearGradient id="paint1_linear" x2="1" gradientUnits="userSpaceOnUse" gradientTransform="matrix(-23.0998 104.415 -76.0131 -31.7309 63.5431 -6.09781)">
<stop stop-color="#C4EDFF"/>
<stop offset="1" stop-color="#7FABE5"/>
</linearGradient>
<linearGradient id="paint2_linear" x2="1" gradientUnits="userSpaceOnUse" gradientTransform="matrix(-11.1018 16.6025 -33.8076 -5.45196 25.8202 -3.81073)">
<stop stop-color="#C4EDFF"/>
<stop offset="1" stop-color="#7FABE5"/>
</linearGradient>
<linearGradient id="paint3_linear" x2="1" gradientUnits="userSpaceOnUse" gradientTransform="matrix(0 75.8672 -10.9943 0 7.13522 19.3865)">
<stop stop-color="#63A1E6"/>
<stop offset="1" stop-color="#79C2F7"/>
</linearGradient>
<linearGradient id="paint4_linear" x2="1" gradientUnits="userSpaceOnUse" gradientTransform="matrix(0 -32.7108 27.3026 0 8.78181 28.7335)">
<stop stop-color="#99E789"/>
<stop offset="1" stop-color="#48B555"/>
</linearGradient>
<linearGradient id="paint5_linear" x2="1" gradientUnits="userSpaceOnUse" gradientTransform="matrix(27.3005 62.0445 -62.0445 27.3005 18.4905 3.49856)">
<stop stop-color="#99E789"/>
<stop offset="1" stop-color="#58B763"/>
</linearGradient>

</defs>
</svg>

