<?xml version="1.0" encoding="UTF-8" standalone="no"?>
<svg width="279px" height="242px" viewBox="0 0 279 242" version="1.1" xmlns="http://www.w3.org/2000/svg" xmlns:xlink="http://www.w3.org/1999/xlink">
    <!-- Generator: Sketch 49.3 (51167) - http://www.bohemiancoding.com/sketch -->
    <title>Group 21</title>
    <desc>Created with Sketch.</desc>
    <defs>
        <linearGradient x1="86.2094905%" y1="0%" x2="38.5640716%" y2="100%" id="linearGradient-1">
            <stop stop-color="#86CB7A" offset="0%"></stop>
            <stop stop-color="#93C4FF" offset="100%"></stop>
        </linearGradient>
        <linearGradient x1="55.7816633%" y1="-21.6334481%" x2="52.5921128%" y2="108.322783%" id="linearGradient-2">
            <stop stop-color="#CFF1FF" offset="0%"></stop>
            <stop stop-color="#68A5F4" offset="100%"></stop>
        </linearGradient>
        <linearGradient x1="4.89984552%" y1="-7.4865486%" x2="85.9847296%" y2="101.658979%" id="linearGradient-3">
            <stop stop-color="#F5FEFF" offset="0%"></stop>
            <stop stop-color="#DCEBFF" offset="100%"></stop>
        </linearGradient>
        <path d="M1.97904442,0.439751582 L83.2790305,17.798562 C87.4317524,18.6852327 90.3997502,22.3538441 90.3997502,26.6001699 L90.3997502,140.105071 C90.3997502,140.602128 89.9968065,141.005071 89.4997503,141.005071 C89.436585,141.005071 89.3735952,140.998422 89.3118222,140.985232 L1.60318841,122.258076 C1.18791623,122.169409 0.891116442,121.802548 0.891116442,121.377915 L0.891116442,1.31991237 C0.891116442,0.822856113 1.29406016,0.419912398 1.79111642,0.419912398 C1.85428171,0.419912398 1.91727152,0.426562105 1.97904442,0.439751582 Z" id="path-4"></path>
        <path d="M1.97904442,0.439751582 L83.2790305,17.798562 C87.4317524,18.6852327 90.3997502,22.3538441 90.3997502,26.6001699 L90.3997502,140.105071 C90.3997502,140.602128 89.9968065,141.005071 89.4997503,141.005071 C89.436585,141.005071 89.3735952,140.998422 89.3118222,140.985232 L1.60318841,122.258076 C1.18791623,122.169409 0.891116442,121.802548 0.891116442,121.377915 L0.891116442,1.31991237 C0.891116442,0.822856113 1.29406016,0.419912398 1.79111642,0.419912398 C1.85428171,0.419912398 1.91727152,0.426562105 1.97904442,0.439751582 Z" id="path-6"></path>
        <linearGradient x1="50%" y1="19.6869046%" x2="50%" y2="96.7295922%" id="linearGradient-8">
            <stop stop-color="#63A1E6" offset="0%"></stop>
            <stop stop-color="#79C2F7" offset="100%"></stop>
        </linearGradient>
        <path d="M9.03795126,0 L9.03795126,0 C14.0294739,-9.16927836e-16 18.0759025,4.04642861 18.0759025,9.03795126 L18.0759025,99.0334395 C18.0759025,99.2385806 18.038205,99.4419754 17.964688,99.6334907 L8.86390938,123.341453 L0.103718454,99.6245733 C0.0351166724,99.4388445 4.12082476e-14,99.2424203 4.28546088e-14,99.0444268 L1.77635684e-15,9.03795126 C1.16507162e-15,4.04642861 4.04642861,9.16927836e-16 9.03795126,0 Z" id="path-9"></path>
        <linearGradient x1="50%" y1="136.548506%" x2="50%" y2="-18.901322%" id="linearGradient-11">
            <stop stop-color="#99E789" offset="0%"></stop>
            <stop stop-color="#48B555" offset="100%"></stop>
        </linearGradient>
        <rect id="path-12" x="-1.39045404" y="0" width="22.2472646" height="26.3565108"></rect>
        <filter x="-27.0%" y="-7.6%" width="136.0%" height="130.4%" filterUnits="objectBoundingBox" id="filter-13">
            <feOffset dx="-4" dy="4" in="SourceAlpha" result="shadowOffsetOuter1"></feOffset>
            <feColorMatrix values="0 0 0 0 0.533108433   0 0 0 0 0.682307168   0 0 0 0 0.8185321  0 0 0 0.344967165 0" type="matrix" in="shadowOffsetOuter1"></feColorMatrix>
        </filter>
        <linearGradient x1="28.2112791%" y1="5.33780074%" x2="69.8640233%" y2="100%" id="linearGradient-14">
            <stop stop-color="#99E789" offset="0%"></stop>
            <stop stop-color="#58B763" offset="100%"></stop>
        </linearGradient>
        <circle id="path-15" cx="32.5841194" cy="32.5841194" r="32.5841194"></circle>
        <filter x="-9.2%" y="-3.1%" width="112.3%" height="112.3%" filterUnits="objectBoundingBox" id="filter-16">
            <feOffset dx="-4" dy="4" in="SourceAlpha" result="shadowOffsetOuter1"></feOffset>
            <feColorMatrix values="0 0 0 0 0.533108433   0 0 0 0 0.682307168   0 0 0 0 0.8185321  0 0 0 0.344967165 0" type="matrix" in="shadowOffsetOuter1"></feColorMatrix>
        </filter>
    </defs>
    <g id="Desktop-and-Mobile-Version" stroke="none" stroke-width="1" fill="none" fill-rule="evenodd">
        <g id="Homepage-" transform="translate(-865.000000, -2442.000000)">
            <g id="Group-47" transform="translate(-150.000000, 1099.000000)">
                <g id="Group-15-Copy" transform="translate(440.000000, 1314.000000)">
                    <g id="Group-21" transform="translate(566.000000, 0.000000)">
                        <rect id="Rectangle-19" opacity="0.100000001" x="0.259591921" y="0" width="299.049894" height="299.049894"></rect>
                        <g id="Group-11" transform="translate(10.026367, 30.502965)">
                            <polyline id="Path-4" stroke="url(#linearGradient-1)" stroke-width="40" opacity="0.100000001" stroke-linecap="round" stroke-linejoin="round" points="19.2692085 138.374835 146.410681 35.9185776 114.211598 219.710575 257.814479 113.329171"></polyline>
                            <g id="Group-20" transform="translate(0.201555, 0.372898)">
                                <g id="Group-19" transform="translate(31.515111, 55.852381)">
                                    <path d="M1.79999995,36.3118201 L202.692882,36.3118201 C203.686994,36.3118201 204.492882,37.1177076 204.492882,38.1118201 L204.492882,145.358429 C204.492882,146.352542 203.686994,147.158429 202.692882,147.158429 L1.79999995,147.158429 C0.805887429,147.158429 3.43788277e-16,146.352542 2.22044605e-16,145.358429 L0,38.1118201 C-1.21743672e-16,37.1177076 0.805887429,36.3118201 1.79999995,36.3118201 Z" id="Rectangle-15" fill="url(#linearGradient-2)"></path>
                                    <path d="M101.816966,34.932791 L101.816966,143.729867" id="Path-12" stroke="#B6D3F4" stroke-width="2.69999993" stroke-linecap="round" stroke-linejoin="round"></path>
                                    <g id="Group-18" transform="translate(5.733445, 1.911148)">
                                        <path d="M1.22078882,6.1368336 L86.1197789,21.7832129 C90.3893242,22.5700647 93.4886018,26.2927137 93.4886018,30.6341596 L93.4886018,145.869946 C93.4886018,146.367002 93.0856581,146.769946 92.5886018,146.769946 C92.5338892,146.769946 92.4792906,146.764957 92.4254841,146.755041 L0.894553447,129.886434 C0.467598916,129.807749 0.157671159,129.435484 0.157671159,129.001339 L0.157671159,7.02192827 C0.157671159,6.52487201 0.560614873,6.1219283 1.05767113,6.1219283 C1.11238373,6.1219283 1.16698235,6.12691739 1.22078882,6.1368336 Z" id="Rectangle-14-Copy-3" fill="#4580C7" opacity="0.300000012"></path>
                                        <g id="Group-45" transform="translate(5.000000, 0.000000)">
                                            <mask id="mask-5" fill="white">
                                                <use xlink:href="#path-4"></use>
                                            </mask>
                                            <use id="Rectangle-14" fill="url(#linearGradient-3)" xlink:href="#path-4"></use>
                                            <rect id="Rectangle-26" stroke="#1F334B" stroke-width="16" opacity="0.049999997" mask="url(#mask-5)" transform="translate(9.500000, 16.500000) rotate(1.000000) translate(-9.500000, -16.500000) " x="-23" y="-13" width="65" height="59"></rect>
                                        </g>
                                        <path d="M26.0612288,44.6731513 L51.0783662,49.4018898" id="Path-13" stroke="#FFFFFF" stroke-width="2.69999993" stroke-linecap="round" stroke-linejoin="round"></path>
                                        <path d="M26.0612288,86.7184167 L73.8922373,96.5120227" id="Path-13-Copy-2" stroke="#FFFFFF" stroke-width="2.69999993" stroke-linecap="round" stroke-linejoin="round"></path>
                                        <path d="M26.0612288,63.7846355 L61.54882,72.1137644" id="Path-13-Copy" stroke="#FFFFFF" stroke-width="2.69999993" stroke-linecap="round" stroke-linejoin="round"></path>
                                    </g>
                                    <g id="Group-18-Copy" transform="translate(150.759436, 73.500000) scale(-1, 1) translate(-150.759436, -73.500000) translate(102.759436, 0.000000)">
                                        <path d="M1.22078882,6.1368336 L86.1197789,21.7832129 C90.3893242,22.5700647 93.4886018,26.2927137 93.4886018,30.6341596 L93.4886018,145.869946 C93.4886018,146.367002 93.0856581,146.769946 92.5886018,146.769946 C92.5338892,146.769946 92.4792906,146.764957 92.4254841,146.755041 L0.894553447,129.886434 C0.467598916,129.807749 0.157671159,129.435484 0.157671159,129.001339 L0.157671159,7.02192827 C0.157671159,6.52487201 0.560614873,6.1219283 1.05767113,6.1219283 C1.11238373,6.1219283 1.16698235,6.12691739 1.22078882,6.1368336 Z" id="Rectangle-14-Copy-3" fill="#4580C7" opacity="0.300000012"></path>
                                        <g id="Group-44" transform="translate(5.000000, 0.000000)">
                                            <mask id="mask-7" fill="white">
                                                <use xlink:href="#path-6"></use>
                                            </mask>
                                            <use id="Rectangle-14" fill="url(#linearGradient-3)" xlink:href="#path-6"></use>
                                            <circle id="Oval-11" stroke="#1F334B" stroke-width="16" opacity="0.049999997" mask="url(#mask-7)" cx="13.5" cy="118.5" r="32.5"></circle>
                                        </g>
                                        <path d="M52.6973966,44.6731513 L77.7145341,49.4018898" id="Path-13" stroke="#FFFFFF" stroke-width="2.69999993" stroke-linecap="round" stroke-linejoin="round"></path>
                                        <path d="M39.4392678,88.6295651 L77.7145341,98.4231711" id="Path-13-Copy-2" stroke="#FFFFFF" stroke-width="2.69999993" stroke-linecap="round" stroke-linejoin="round"></path>
                                        <path d="M42.2269428,63.7846355 L77.7145341,72.1137644" id="Path-13-Copy" stroke="#FFFFFF" stroke-width="2.69999993" stroke-linecap="round" stroke-linejoin="round"></path>
                                    </g>
                                </g>
                                <g id="Group-7" transform="translate(9.872256, 144.655410) scale(1, -1) translate(-9.872256, -144.655410) translate(0.372256, 82.655410)">
                                    <g id="Group-8">
                                        <mask id="mask-10" fill="white">
                                            <use xlink:href="#path-9"></use>
                                        </mask>
                                        <use id="Rectangle-8" fill="url(#linearGradient-8)" xlink:href="#path-9"></use>
                                        <circle id="Oval-11" stroke="#1F334B" stroke-width="16" opacity="0.049999997" mask="url(#mask-10)" cx="10" cy="62" r="25"></circle>
                                        <g id="Rectangle-10" mask="url(#mask-10)">
                                            <use fill="black" fill-opacity="1" filter="url(#filter-13)" xlink:href="#path-12"></use>
                                            <use fill="url(#linearGradient-11)" fill-rule="evenodd" xlink:href="#path-12"></use>
                                        </g>
                                        <polygon id="Rectangle-9" fill="#FBF0E5" mask="url(#mask-10)" points="-1.39045404 97.3163475 22.2472646 97.3163475 22.2472646 121.645434 -1.39045404 121.645434"></polygon>
                                        <polygon id="Rectangle-9-Copy" fill="#5479A5" mask="url(#mask-10)" points="-1.39045404 107.453467 22.2472646 107.453467 22.2472646 131.782554 -1.39045404 131.782554"></polygon>
                                    </g>
                                </g>
                                <g id="Group-14" transform="translate(191.059654, -0.000000)">
                                    <g id="Group-12" transform="translate(0.830695, 36.410364)">
                                        <g id="Oval-4">
                                            <use fill="black" fill-opacity="1" filter="url(#filter-16)" xlink:href="#path-15"></use>
                                            <use fill="url(#linearGradient-14)" fill-rule="evenodd" xlink:href="#path-15"></use>
                                        </g>
                                        <polyline id="Path-8" stroke="#FFFFFF" stroke-width="4.47999966" stroke-linecap="round" stroke-linejoin="round" transform="translate(32.661326, 30.363841) rotate(-137.000000) translate(-32.661326, -30.363841) " points="37.8364974 21.9351007 27.4861553 21.9351007 27.4861553 38.792582"></polyline>
                                    </g>
                                    <path d="M29.6855428,0.0437913521 L29.6855428,27.8837226" id="Path-5" stroke="#84D87D" stroke-width="3" stroke-linecap="round" stroke-linejoin="round"></path>
                                    <path d="M57.0001423,19.7550713 L48.8898157,29.7704905" id="Path-5-Copy" stroke="#84D87D" stroke-width="3" stroke-linecap="round" stroke-linejoin="round"></path>
                                    <path d="M0.370113048,20.0501437 L9.15932364,29.4754181" id="Path-5-Copy-2" stroke="#84D87D" stroke-width="3" stroke-linecap="round" stroke-linejoin="round"></path>
                                </g>
                            </g>
                        </g>
                    </g>
                </g>
            </g>
        </g>
    </g>
</svg>