<?xml version="1.0" encoding="UTF-8" standalone="no"?>
<svg width="280px" height="278px" viewBox="0 0 280 278" version="1.1" xmlns="http://www.w3.org/2000/svg" xmlns:xlink="http://www.w3.org/1999/xlink">
    <!-- Generator: Sketch 49.3 (51167) - http://www.bohemiancoding.com/sketch -->
    <title>Group 21</title>
    <desc>Created with Sketch.</desc>
    <defs>
        <linearGradient x1="86.2094905%" y1="0%" x2="38.5640716%" y2="100%" id="linearGradient-1">
            <stop stop-color="#86CB7A" offset="0%"></stop>
            <stop stop-color="#93C4FF" offset="100%"></stop>
        </linearGradient>
        <linearGradient x1="78.5583262%" y1="-5.48813652%" x2="50%" y2="88.4869607%" id="linearGradient-2">
            <stop stop-color="#C4EDFF" offset="0%"></stop>
            <stop stop-color="#7FABE5" offset="100%"></stop>
        </linearGradient>
        <path d="M4,0 L107.843031,0 C110.05217,7.44262609e-15 111.843031,1.790861 111.843031,4 L111.843031,150.758962 C111.843031,152.968101 110.05217,154.758962 107.843031,154.758962 L4,154.758962 C1.790861,154.758962 2.705415e-16,152.968101 0,150.758962 L-8.8817842e-16,4 C-1.15871992e-15,1.790861 1.790861,4.05812251e-16 4,0 Z" id="path-3"></path>
        <linearGradient x1="28.2112791%" y1="5.33780074%" x2="69.8640233%" y2="100%" id="linearGradient-5">
            <stop stop-color="#99E789" offset="0%"></stop>
            <stop stop-color="#58B763" offset="100%"></stop>
        </linearGradient>
        <circle id="path-6" cx="32.7715347" cy="32.7715347" r="32.7715347"></circle>
        <filter x="-9.2%" y="-3.1%" width="112.2%" height="112.2%" filterUnits="objectBoundingBox" id="filter-7">
            <feOffset dx="-4" dy="4" in="SourceAlpha" result="shadowOffsetOuter1"></feOffset>
            <feColorMatrix values="0 0 0 0 0.533108433   0 0 0 0 0.682307168   0 0 0 0 0.8185321  0 0 0 0.344967165 0" type="matrix" in="shadowOffsetOuter1"></feColorMatrix>
        </filter>
    </defs>
    <g id="Desktop-and-Mobile-Version" stroke="none" stroke-width="1" fill="none" fill-rule="evenodd">
        <g id="Homepage-" transform="translate(-839.000000, -1619.000000)">
            <g id="Group-47" transform="translate(-150.000000, 1099.000000)">
                <g id="Group-15" transform="translate(440.000000, 520.000000)">
                    <g id="Group-21" transform="translate(540.000000, 0.000000)">
                        <rect id="Rectangle-19" opacity="0.100000001" x="0" y="6.5625" width="300" height="300"></rect>
                        <g id="Group-11" transform="translate(29.000930, 0.689150)">
                            <polyline id="Path-4" stroke="url(#linearGradient-1)" stroke-width="40" opacity="0.100000001" stroke-linecap="round" stroke-linejoin="round" points="0.127303419 175.287689 127.672715 72.5059198 95.3713331 256.88184 239.430452 150.162453"></polyline>
                            <g id="Group-22" transform="translate(47.374070, 0.769184)">
                                <path d="M4.87820242,72.4970803 L109.378202,72.4970803 C111.587341,72.4970803 113.378202,74.2879413 113.378202,76.4970803 L113.378202,227.584552 C113.378202,229.793691 111.587341,231.584552 109.378202,231.584552 L4.87820242,231.584552 C2.66906342,231.584552 0.878202421,229.793691 0.878202421,227.584552 L0.878202421,76.4970803 C0.878202421,74.2879413 2.66906342,72.4970803 4.87820242,72.4970803 Z" id="Rectangle-17" fill="url(#linearGradient-2)" opacity="0.300000012"></path>
                                <g id="Group-10" transform="translate(22.772839, 59.422658)">
                                    <g id="Group-8" transform="translate(0.000003, 0.631932)">
                                        <g id="Group-41">
                                            <mask id="mask-4" fill="white">
                                                <use xlink:href="#path-3"></use>
                                            </mask>
                                            <use id="Rectangle-9" fill="url(#linearGradient-2)" xlink:href="#path-3"></use>
                                            <rect id="Rectangle-26" stroke="#1F334B" stroke-width="16" opacity="0.049999997" mask="url(#mask-4)" x="-22" y="-6" width="65" height="59"></rect>
                                            <circle id="Oval-11" stroke="#1F334B" stroke-width="16" opacity="0.049999997" mask="url(#mask-4)" cx="105.5" cy="137.5" r="32.5"></circle>
                                        </g>
                                        <path d="M45.2489992,105.10183 L66.5940316,105.10183" id="Path-2" stroke="#FFFFFF" stroke-width="4" stroke-linecap="round" stroke-linejoin="round"></path>
                                        <path d="M31.0935898,122.700206 L80.749441,122.700206" id="Path-2-Copy-3" stroke="#FFFFFF" stroke-width="3" opacity="0.699999988" stroke-linecap="round" stroke-linejoin="round"></path>
                                        <g id="Group-7" transform="translate(32.560425, 28.177284)" fill="#FFFFFF">
                                            <path d="M22.6155379,0.453666409 L22.6155379,0.453666409 C28.4204398,0.453666409 33.1262427,5.15946926 33.1262427,10.9643713 L33.1262427,11.8923235 C33.1262427,17.6972255 28.4204398,22.4030283 22.6155379,22.4030283 L22.6155379,22.4030283 C16.8106359,22.4030283 12.104833,17.6972255 12.104833,11.8923235 L12.104833,10.9643713 C12.104833,5.15946926 16.8106359,0.453666409 22.6155379,0.453666409 Z" id="Rectangle-11"></path>
                                            <path d="M8.70901304,29.5630515 L36.5220627,29.5630515 C41.107025,29.5630515 44.8238714,33.2798978 44.8238714,37.8648602 L44.8238714,37.8648602 C44.8238714,42.4498225 41.107025,46.1666689 36.5220627,46.1666689 L8.70901304,46.1666689 C4.12405071,46.1666689 0.407204353,42.4498225 0.407204353,37.8648602 L0.407204353,37.8648602 C0.407204353,33.2798978 4.12405071,29.5630515 8.70901304,29.5630515 Z" id="Rectangle-16"></path>
                                        </g>
                                    </g>
                                </g>
                                <g id="Group-14" transform="translate(109.737074, 0.000000)">
                                    <g id="Group-12" transform="translate(0.833334, 39.375001)">
                                        <g id="Oval-4">
                                            <use fill="black" fill-opacity="1" filter="url(#filter-7)" xlink:href="#path-6"></use>
                                            <use fill="url(#linearGradient-5)" fill-rule="evenodd" xlink:href="#path-6"></use>
                                        </g>
                                        <polyline id="Path-8" stroke="#FFFFFF" stroke-width="4.47999966" stroke-linecap="round" stroke-linejoin="round" transform="translate(32.849186, 30.538486) rotate(-137.000000) translate(-32.849186, -30.538486) " points="38.054123 22.0612657 27.6442485 22.0612657 27.6442485 39.0157068"></polyline>
                                    </g>
                                    <path d="M33.2121479,0.0803888142 L33.2121479,28.0087698" id="Path-5" stroke="#84D87D" stroke-width="3" stroke-linecap="round" stroke-linejoin="round"></path>
                                    <path d="M60.6135281,19.8542931 L52.4774344,29.9015322" id="Path-5-Copy" stroke="#84D87D" stroke-width="3" stroke-linecap="round" stroke-linejoin="round"></path>
                                    <path d="M3.80358059,20.150303 L12.6207152,29.6055223" id="Path-5-Copy-2" stroke="#84D87D" stroke-width="3" stroke-linecap="round" stroke-linejoin="round"></path>
                                </g>
                            </g>
                        </g>
                    </g>
                </g>
            </g>
        </g>
    </g>
</svg>