<?xml version="1.0" encoding="UTF-8" standalone="no"?>
<svg width="129px" height="34px" viewBox="0 0 129 34" version="1.1" xmlns="http://www.w3.org/2000/svg" xmlns:xlink="http://www.w3.org/1999/xlink">
    <!-- Generator: Sketch 49.3 (51167) - http://www.bohemiancoding.com/sketch -->
    <title>logo-text</title>
    <desc>Created with Sketch.</desc>
    <defs></defs>
    <g id="Desktop-and-Mobile-Version" stroke="none" stroke-width="1" fill="none" fill-rule="evenodd">
        <g id="Homepage-" transform="translate(-140.000000, -44.000000)" fill="#FFFFFF" fill-rule="nonzero">
            <g id="Nav" transform="translate(140.000000, 44.000000)">
                <g id="logo-text">
                    <path d="M121.853361,25.3686897 L117.743154,25.3686897 L117.743154,7.35572414 L121.169874,7.35572414 L121.440252,9.95144828 C123.242384,7.14351724 125.589913,6.1797931 128.710282,7.46827586 L127.964132,10.9386207 C126.891904,10.9268966 125.866093,10.797931 124.875094,10.9315862 C123.363067,11.1344138 122.560057,12.3091724 121.898618,13.5648276 C121.812747,13.7277931 121.854522,13.9657931 121.854522,14.1686207 L121.854522,25.3686897 L121.853361,25.3686897 Z M116.018771,16.2731034 C115.974675,18.5264828 115.529073,20.6708276 114.198072,22.5267586 C112.442357,24.9771034 109.970663,25.9701379 107.042924,25.9408276 C104.638534,25.9162069 102.506843,25.1787586 100.817271,23.3814483 C99.505997,21.9862759 98.8097451,20.2862759 98.5103568,18.4104138 C98.1285787,16.0163448 98.2991604,13.6703448 99.3203298,11.4533103 C100.879934,8.06972414 104.163922,6.32517241 108.047847,6.67337931 C112.674441,7.08841379 115.406069,10.3231034 115.912012,14.7442759 C115.970033,15.2507586 115.985118,15.7642759 116.018771,16.2731034 Z M102.422132,16.15 C102.550939,17.5803448 102.715718,18.9508966 103.420093,20.1948276 C104.307814,21.7611724 105.701478,22.3977931 107.430504,22.3204138 C109.10499,22.2453793 110.383772,21.4668966 111.057976,19.8911724 C111.986312,17.7222069 111.993274,15.4770345 111.309787,13.2471034 C110.721454,11.322 109.262807,10.3008276 107.258762,10.282069 C105.145637,10.2633103 103.659139,11.2293793 103.034834,13.1755862 C102.727322,14.1334483 102.620564,15.1569655 102.422132,16.15 Z M79.968009,7.33462069 L84.0526867,7.33462069 L84.0526867,25.3686897 L80.5029625,25.3686897 L80.2592744,23.0262069 C79.3576282,23.7202759 78.5325697,24.4846897 77.5926297,25.0533103 C75.2949985,26.4426207 72.1781109,26.214 70.3051934,24.5984138 C69.0693463,23.5315172 68.5262699,22.0964828 68.2930255,20.5231034 C68.2021238,19.8965086 68.1559746,19.2641164 68.1549355,18.6308276 C68.1421709,15.0291724 68.147973,11.4286897 68.147973,7.8282069 C68.147973,7.68751724 68.1607376,7.54682759 68.170021,7.36158621 L72.3069175,7.36158621 L72.3069175,8.00875862 C72.3069175,11.098069 72.299955,14.1873793 72.3115592,17.2766897 C72.3150405,17.9297241 72.357976,18.5851034 72.4264408,19.2346207 C72.6817331,21.6322069 74.4409295,22.7671034 76.7153523,22.0155862 C78.0625997,21.570069 79.0535982,20.6602759 79.8345607,19.5031034 C79.9552444,19.3237241 79.9622069,19.0411724 79.9622069,18.8055172 C79.9691694,15.2249655 79.9668486,11.6444138 79.9668486,8.06503448 L79.9668486,7.33462069 L79.968009,7.33462069 Z M61.3792444,10.7803448 C61.3792444,11.5189655 61.3734423,12.1485517 61.3792444,12.7793103 C61.4024528,15.1710345 61.3792444,17.5651034 61.472078,19.9544828 C61.5498261,21.9194483 62.5976852,22.6803448 64.5170195,22.2782069 C65.1645337,22.1422069 65.7911604,21.9077241 66.5175832,21.692 C66.8111694,22.5513793 67.1291244,23.4646897 67.4203898,24.3873793 C67.4470795,24.4694483 67.3321979,24.6593793 67.2347226,24.7121379 C64.9904708,25.9349655 62.6429415,26.437931 60.1909745,25.4683448 C58.4665907,24.7871724 57.7448096,23.2829655 57.4813943,21.5407586 C57.3538194,20.6515664 57.2882875,19.7544114 57.2852834,18.855931 C57.2597541,16.4208276 57.276,13.9857241 57.276,11.5517931 L57.276,10.8213793 L54.9644438,10.8213793 L54.9644438,7.47062069 L57.3572294,7.47062069 L57.3572294,2.1162069 L61.3629985,2.1162069 L61.3629985,7.43310345 L66.2901409,7.43310345 L66.2901409,10.7803448 L61.3792444,10.7803448 Z M97.6284378,21.6884828 C97.9231844,22.5466897 98.2283748,23.3884828 98.4906297,24.2443448 C98.5324048,24.378 98.4302879,24.6605517 98.3142459,24.7250345 C96.1523838,25.9173793 93.8709985,26.3898621 91.4909775,25.5515862 C89.6702789,24.9114483 88.8753913,23.3861379 88.5945697,21.5688966 C88.4647007,20.6791424 88.3983855,19.7810982 88.3961379,18.8817241 C88.3694483,16.4477931 88.3868546,14.0138621 88.3868546,11.5787586 L88.3868546,10.8424828 L86.0822609,10.8424828 L86.0822609,7.49172414 L88.4634423,7.49172414 L88.4634423,2.0997931 L92.4541259,2.0997931 L92.4541259,7.43544828 L97.4102789,7.43544828 L97.4102789,10.8049655 L92.5898951,10.8049655 C92.539997,10.9034483 92.5086657,10.9374483 92.5086657,10.9726207 C92.526072,13.9575862 92.4924198,16.9448966 92.5852534,19.9275172 C92.647916,21.9335172 93.7131814,22.6897241 95.6615262,22.2688276 C96.3067196,22.1281379 96.9310255,21.8971724 97.6307586,21.6884828 L97.6284378,21.6884828 Z" id="Shape"></path>
                    <path d="M34.7801019,23.2677241 C32.5428126,25.2444138 29.975964,26.1155172 27.0505457,25.908 C24.2597361,25.7098621 22.012003,24.5186897 20.441955,22.1398621 C17.6917601,17.9731034 18.6235772,11.3325517 22.3636102,8.36048276 C25.6441169,5.7542069 30.8161079,6.13289655 33.4966777,9.22572414 C35.147955,11.132069 35.5343748,13.4393793 35.2964888,15.8826897 C35.2291844,16.5849655 35.0353943,17.2743448 34.8903418,18.0164828 L23.2803418,18.0164828 C23.264096,18.0164828 23.2478501,18.039931 23.2316042,18.0516552 C23.2014333,19.8888276 24.8248606,21.8971724 26.7105427,22.3145517 C28.9617571,22.8116552 30.9901709,22.2383448 32.8572864,20.9475172 C33.0046597,20.8455172 33.1508726,20.74 33.3377001,20.6075172 L34.7801019,23.2688966 L34.7801019,23.2677241 Z M31.4195262,14.8826207 C31.7096312,12.0664828 30.2196522,10.146069 27.7131454,10.064 C24.7668396,9.9702069 23.1828666,12.4627586 23.1492144,14.8826207 L31.4195262,14.8826207 Z M37.9132354,31.994 L38.9344048,28.8683448 C40.2978981,29.2611034 41.5743598,29.716 42.887955,29.9762759 C43.7257781,30.1415862 44.6355472,30.1333793 45.4838141,30.0044138 C47.6363928,29.6784828 48.869919,28.3583448 49.1925157,26.1483448 C49.3073973,25.364 49.3178411,24.5655862 49.3886267,23.6006897 C49.1170885,23.8234483 48.9708756,23.9395172 48.8316252,24.0602759 C46.8252594,25.8024828 44.4997781,26.330069 41.970063,25.7227586 C39.3974123,25.106069 38.1453193,23.2126207 37.6811514,20.7142069 C37.5365505,19.9099161 37.4631539,19.0942094 37.4618321,18.2767586 C37.4386237,14.7782759 37.4513883,11.2797931 37.4525487,7.78131034 C37.4525487,7.66172414 37.4641529,7.54096552 37.4734363,7.36744828 L41.5952474,7.36744828 L41.5952474,8.08965517 C41.6184558,11.5881379 41.6347016,15.0854483 41.6706747,18.5827586 C41.6753163,19.0071724 41.7565457,19.4386207 41.8563418,19.8536552 C42.4609205,22.3942759 44.5369115,22.5935862 46.5595232,21.8702069 C47.5342759,21.522 48.3233613,20.8713103 48.9604318,20.0564828 C49.1031634,19.8735862 49.160024,19.5769655 49.160024,19.3331034 C49.1716282,15.5884138 49.1693073,11.8448966 49.1693073,8.10137931 L49.1693073,7.34868966 L53.1890015,7.34868966 C53.2029265,7.52924138 53.2249745,7.68634483 53.2249745,7.84462069 C53.2238141,13.512069 53.2470225,19.1795172 53.204087,24.8457931 C53.1878411,26.9831034 52.7167106,29.0301379 51.3694633,30.7629655 C49.8690405,32.6915862 47.800012,33.5345517 45.4617661,33.7221379 C42.9053613,33.9261379 40.471961,33.4126207 38.2033403,32.1733793 C38.1174693,32.1264828 38.0362399,32.0702069 37.9132354,31.994 Z M0.842464768,0.845310345 L4.75307946,0.845310345 L4.75307946,9.25737931 C5.19403898,8.89744828 5.53172114,8.59965517 5.89261169,8.33351724 C8.02778411,6.7577931 10.3764738,6.19268966 12.9375202,6.9782069 C15.2548786,7.68868966 16.3224648,9.49889655 16.7494993,11.7663448 C16.8922309,12.5248966 16.9618561,13.3092414 16.9664978,14.0818621 C16.9885457,17.7022759 16.9769415,21.3226897 16.9757811,24.9431034 C16.9757811,25.0626897 16.9641769,25.1834483 16.9548936,25.3522759 L12.7773823,25.3522759 L12.7773823,24.6324138 C12.7715802,21.2171724 12.7982699,17.8007586 12.7344468,14.3855172 C12.7193613,13.5507586 12.4872774,12.6925517 12.2122579,11.8964828 C11.9082279,11.0206897 11.1690405,10.5505517 10.2662339,10.4344828 C8.10205097,10.1542759 6.48674663,11.1883448 5.11745127,12.7312414 C4.984003,12.8813103 4.98864468,13.1884828 4.98864468,13.4229655 C4.98052174,17.1653103 4.98284258,20.9076552 4.98284258,24.6511724 L4.98284258,25.4015172 L0.842464768,25.4015172 L0.842464768,0.844137931 L0.842464768,0.845310345 Z" id="Shape"></path>
                </g>
            </g>
        </g>
    </g>
</svg>