<svg id="Layer_1" xmlns="http://www.w3.org/2000/svg" viewBox="0 0 242.8 223.8"><style>.st0{fill:#fff}</style><path class="st0" d="M41.9 11.8c0 2.3-.7 4.3-2.1 6-1.4 1.8-2.8 2.6-4.3 2.6-.8 0-1.4-.3-1.9-.9s-.7-1.5-.7-2.8c0-.8.2-1.8.6-2.9s.9-2 1.5-2.8c.1-.2.3-.4.5-.6.5-.7 1.1-1.2 1.8-1.7s1.4-.7 2.2-.7c.7 0 1.3.3 1.7.9s.7 1.6.7 2.9zm-7.6 6.7c0 .4.1.8.3 1 .2.2.5.3 1 .3s.9-.2 1.4-.7c.8-.8 1.7-2.2 2.5-4.2s1.3-3.6 1.3-4.7c0-.4-.1-.7-.3-1s-.5-.4-.7-.4c-.6 0-1.2.3-1.8 1-1.1 1.1-2 2.7-2.8 4.7-.6 1.6-.9 2.9-.9 4zm13.3-9.1c-.3.1-.8.5-1.4 1.1-.4.3-.7.7-1.1 1-.2.3-.4.4-.5.5h-.4c.2-.3.6-.8 1.4-1.6.8-.8 1.5-1.4 2.3-1.9.4-.2.7-.3 1-.3.2 0 .3.1.5.2.1.1.2.3.2.4 0 .2-.1.5-.2.8 0 .1-.1.2-.2.5-.4 1-1.3 2.8-2.6 5.2-1.1 2.1-1.6 3.3-1.6 3.6v.1c.3 0 .6-.2 1-.6 1.3-1.1 2.2-2 2.9-2.7l.7-.7c1.1-1.2 2-2.3 2.8-3.3.4-.6 1.1-1.8 1.9-3.5h.7c.2 0 .4.1.5.2-.2.6-.6 1.6-1.2 3l-2.7 6.8c-.2.4-.3.7-.3 1h.1c.1 0 .2-.1.5-.3.6-.5 1-1 1.4-1.6.2-.2.3-.4.5-.6l.5.1c-.5.9-1.3 1.9-2.4 2.9-.6.6-1.1.8-1.5.8-.1 0-.3 0-.5-.1-.2-.2-.3-.4-.3-.5 0-.5.2-1.2.6-2.1l2.1-4.8c.1-.1.1-.2.1-.3-.2.2-.6.6-1.2 1.3-1.4 1.6-2.6 2.9-3.6 3.9-1 .9-2.1 1.7-3.3 2.4-.3.2-.6.2-.8.2-.1 0-.3 0-.3-.1s-.2-.3-.2-.5 0-.4.1-.6c.2-.5.4-1.1.8-1.9l2.5-4.9 1-2.2c.2-.3.3-.5.3-.6 0-.1 0-.2-.1-.3zm11.9 0c-.3.2-.6.5-.9.8-.1.1-.5.7-1.3 1.8h-.6c.2-.5.7-1.2 1.4-1.9.7-.8 1.2-1.3 1.7-1.6.3-.2.7-.3 1.1-.3.2.1.4.2.5.3s.1.3.1.4 0 .3-.1.5c-.1.5-.3 1.3-.6 2.3-.3 1-.6 1.8-.9 2.4l-.8 1.8-.1.1.8-1.6c1.6-3 2.7-4.9 3.4-5.6.5-.5 1.1-.8 1.8-.8.4 0 .8.2 1.1.5.3.2.4.6.4 1s-.1.8-.4 1.2c-.2.2-.5.3-.8.3-.3 0-.5-.1-.6-.2s-.2-.5-.2-1.1c-.1-.3-.3-.4-.4-.4s-.3.1-.5.2c-.5.4-1.4 1.8-2.7 4-1.3 2.3-2.1 3.8-2.4 4.7-.3.9-.6 1.5-.8 1.8-.1.2-.3.3-.6.3s-.4 0-.6-.1-.2-.2-.2-.4 0-.4.1-.7c.4-1 1.1-2.9 2-5.7l1-3.1c.1-.3.1-.5.1-.5l.1-.2c.2 0 .1-.1-.1-.2zM80 10.7c-.1-.1-.3-.2-.3-.3 0-.1-.1-.3-.3-.6s-.2-.5-.3-.6c-.1-.1-.2-.2-.4-.2-.3 0-.7.2-1.1.6-.7.8-1.5 2-2.2 3.8-.7 1.8-1.1 3.2-1.1 4.4 0 .4.1.7.2.9.1.1.2.2.4.2.4 0 .8-.2 1.3-.6.6-.5 1.2-1.3 1.9-2.3.2 0 .3-.1.4-.1h.2c0 .2-.3.6-.8 1.4-.7 1.1-1.4 1.8-2 2.2s-1.2.6-1.7.6c-.4 0-.8-.2-1-.5-.3-.4-.5-1.1-.5-2 0-.8.2-1.7.6-2.9s.9-2.2 1.7-3.2c.7-1 1.3-1.8 1.8-2.2s1-.8 1.7-1.2c.5-.2.9-.3 1.3-.3s.8.2 1.1.5c.3.4.5.8.5 1.3 0 .3-.1.5-.2.7s-.3.2-.5.2c-.3.3-.5.3-.7.2zm6.3-9.5V.8C87.5.7 88.4.7 89 .7h.6v.2l-.5 1.4s-.4.9-1.1 2.7l-2 5.2c-.4 1-.9 2.5-1.8 4.5l-.5 1.3c-.3.9-.6 1.6-.8 1.9-.3.5-.5.9-.5 1.2l.1.2c.3 0 .7-.2 1.2-.7.7-.6 1.3-1.3 1.9-2.2.2 0 .3-.1.4-.1h.2c-.2.7-.6 1.2-1 1.7-.7.7-1.1 1.1-1.4 1.3-.6.4-1.1.8-1.6 1-.3.1-.7.2-1 .2-.2 0-.3 0-.4-.1-.1-.1-.1-.2-.1-.3 0-.5.8-2.5 2.3-6 .5-1.1 1-2.3 1.5-3.7.9-2.4 1.6-4.2 2.1-5.2s.8-2 1.1-2.8v-.2c0-.1-.1-.3-.2-.4-.2-.3-.6-.4-1.2-.6zm10.3 10.6c0 2.3-.7 4.3-2.1 6-1.4 1.8-2.8 2.6-4.3 2.6-.8 0-1.4-.3-1.9-.9s-.7-1.5-.7-2.8c0-.8.2-1.8.6-2.9s.9-2 1.5-2.8c.1-.2.3-.4.5-.6.5-.7 1.1-1.2 1.8-1.7s1.4-.7 2.2-.7c.7 0 1.3.3 1.7.9s.7 1.6.7 2.9zM89 18.5c0 .4.1.8.3 1 .2.2.5.3 1 .3s.9-.2 1.4-.7c.8-.8 1.7-2.2 2.5-4.2s1.3-3.6 1.3-4.7c0-.4-.1-.7-.3-1s-.4-.4-.7-.4c-.6 0-1.2.3-1.8 1-1.1 1.1-2 2.7-2.8 4.7-.6 1.6-.9 2.9-.9 4zm9.2-.9c.5 0 .9.4 1.2 1.1.2.4.3.6.5.7.1.1.3.2.5.2.4 0 .8-.2 1.2-.6.3-.3.4-.7.4-1.3 0-.5-.2-1.2-.5-2.1-.5-1.4-.7-2.4-.7-3.2 0-1.1.3-2.1.9-3s1.6-1.3 2.9-1.3c.6 0 1 .2 1.3.5s.5.7.5 1.1c0 .3-.1.5-.2.7-.2.2-.3.3-.5.3-.4 0-.8-.2-1.2-.6s-.6-.7-.7-.7c-.1-.1-.3-.1-.5-.1-.3 0-.5.1-.7.4s-.3.5-.3.9c0 .8.2 1.9.7 3.3.5 1.4.7 2.5.7 3.3 0 .5-.2 1-.5 1.5s-.8.9-1.4 1.3c-.7.4-1.3.5-2 .5-.8 0-1.4-.2-1.8-.5-.4-.4-.6-.8-.6-1.3 0-.3.1-.5.2-.7s.4-.4.6-.4zm10.6-2.8c-.3.9-.5 1.8-.5 2.7 0 .7.2 1.2.5 1.6.2.3.5.4.8.4.2 0 .4 0 .6-.1.4-.2.7-.4.9-.7.3-.3.5-.6.8-1 .3-.4.5-.9.7-1.4h.6c-.3 1.1-1 2.2-2.2 3.2-.7.7-1.5 1-2.2 1-.5 0-1-.2-1.3-.7-.5-.6-.7-1.5-.7-2.5 0-.5.1-1 .2-1.7s.3-1.2.5-1.6c.3-.7.6-1.3 1-1.9l1.1-1.6c.7-.8 1.1-1.2 1.2-1.3.3-.3.7-.5 1-.7.3-.2.7-.2 1.1-.2.5 0 .9.2 1.3.6s.5.9.5 1.5c0 .5-.1 1.1-.4 1.6-.3.5-.6.9-.9 1.2l-1.2.8c-.1.1-.5.2-1.1.4-.5.1-1.3.3-2.3.4zm.3-.7c.3 0 .8-.1 1.5-.4.4-.1.8-.4 1.4-.8.2-.2.5-.4.8-.8s.5-.8.7-1.2.2-.8.2-1.3c0-.3-.1-.5-.2-.7s-.4-.3-.6-.3c-.3 0-.6.2-.9.5-.6.5-1.2 1.4-1.9 2.7-.5 1-.8 1.7-1 2.3zm6.6 3.5c.5 0 .9.4 1.2 1.1.2.4.3.6.5.7.1.1.3.2.5.2.4 0 .8-.2 1.2-.6.3-.3.4-.7.4-1.3 0-.5-.2-1.2-.5-2.1-.5-1.4-.7-2.4-.7-3.2 0-1.1.3-2.1.9-3s1.6-1.3 2.9-1.3c.6 0 1 .2 1.3.5s.5.7.5 1.1c0 .3-.1.5-.2.7-.2.2-.3.3-.5.3-.4 0-.8-.2-1.2-.6s-.6-.7-.7-.7c-.1-.1-.3-.1-.5-.1-.3 0-.5.1-.7.4s-.3.5-.3.9c0 .8.2 1.9.7 3.3.5 1.4.7 2.5.7 3.3 0 .5-.2 1-.5 1.5s-.8.9-1.4 1.3c-.7.4-1.3.5-2 .5-.8 0-1.4-.2-1.8-.5-.4-.4-.6-.8-.6-1.3 0-.3.1-.5.2-.7s.4-.4.6-.4zm12.5-8.1h-2.5c0-.2.1-.5.3-.7 1.4 0 2.3-.1 2.5-.1.2-.5.4-.8.5-1.1.3-.6.6-1.4.9-2.3.1-.3.2-.5.3-.8h.7c.2 0 .5 0 .7.1v.2c0 .2-.4 1.3-1.3 3.2-.1.2-.2.5-.2.7.3 0 .4.1.5.1h2.2c0 .3-.1.6-.2.8-.4 0-.9.1-1.5.1h-.6c-.5 0-.8.1-.9.1l-2.4 5.7c-.3.6-.7 1.6-1.4 3.1 0 .1 0 .1.1.2h.2c.3 0 .6-.2 1-.5.8-.7 1.6-1.6 2.4-2.6.2.1.3.2.4.3-1 1.2-1.6 2-2 2.3s-.9.8-1.5 1.2-1 .6-1.1.7c-.2.1-.4.1-.7.1-.2 0-.4-.1-.5-.2-.1-.1-.2-.3-.2-.4 0-.3.2-.9.7-2l.6-1.4 2.2-5.2c.4-.5.7-1.1.8-1.6zm18.4 1.2c-.1-.1-.3-.2-.3-.3 0-.1-.1-.3-.3-.6s-.2-.5-.3-.6c-.1-.1-.2-.2-.4-.2-.3 0-.7.2-1.1.6-.7.8-1.5 2-2.2 3.8-.7 1.8-1.1 3.2-1.1 4.4 0 .4.1.7.2.9.1.1.2.2.4.2.4 0 .8-.2 1.3-.6.6-.5 1.2-1.3 1.9-2.3.2 0 .3-.1.4-.1h.2c0 .2-.3.6-.8 1.4-.7 1.1-1.4 1.8-2 2.2s-1.2.6-1.7.6c-.4 0-.8-.2-1-.5-.3-.4-.5-1.1-.5-2 0-.8.2-1.7.6-2.9s.9-2.2 1.7-3.2c.7-1 1.3-1.8 1.8-2.2s1-.8 1.7-1.2c.5-.2.9-.3 1.3-.3s.8.2 1.1.5c.3.4.5.8.5 1.3 0 .3-.1.5-.2.7s-.3.2-.5.2c-.4.3-.5.3-.7.2zm6.2-9.5V.8c1.2-.1 2.1-.1 2.7-.1h.6v.2l-.5 1.4s-.4.9-1.1 2.7l-2 5.2c-.4 1-.9 2.5-1.8 4.5l-.5 1.3c-.3.9-.6 1.6-.8 1.9-.3.5-.5.9-.5 1.2l.1.2c.3 0 .7-.2 1.2-.7.7-.6 1.3-1.3 1.9-2.2.2 0 .3-.1.4-.1h.2c-.4.7-.8 1.3-1.2 1.7-.7.7-1.1 1.1-1.4 1.3-.6.4-1.1.8-1.6 1-.3.1-.7.2-1 .2-.2 0-.3 0-.4-.1-.1-.1-.1-.2-.1-.3 0-.5.8-2.5 2.3-6 .5-1.1 1-2.3 1.5-3.7.9-2.4 1.6-4.2 2.1-5.2s.8-2 1.1-2.8v-.2c0-.1-.1-.3-.2-.4.1-.3-.3-.4-1-.6zm5.1 8.2h-.5c-.5.2-.8.5-1 .6-.4.3-.9.7-1.2 1.2l-.8.2c.8-1 1.6-1.8 2.5-2.4.9-.6 1.6-.9 2.2-.9.2 0 .4.1.5.2.1.1.2.3.2.4 0 .5-.3 1.3-.8 2.4-.1.1-.2.5-.5 1.1-.6 1.3-1.2 2.5-1.9 3.6-.2.4-.5.8-.7 1.3-.1.3-.3.5-.4.7-.3.5-.5.9-.5 1.1 0 .1 0 .1.1.2s.1.1.2.1.3-.1.5-.2c.4-.2.8-.5 1.3-1s1-1 1.3-1.6h.6c-.3.5-.7 1.1-1.3 1.8s-1.2 1.2-2 1.6c-.6.3-1 .5-1.5.5-.3 0-.6-.1-.7-.2s-.2-.3-.2-.5c0-.8.6-2.2 1.7-4.2l2.4-4.5c.2-.5.4-.8.5-1.1.1-.2.1-.3.1-.3-.1.1-.1 0-.1-.1zm.8-6.6c0-.3.1-.6.4-.9s.6-.4.9-.4c.3 0 .6.1.8.4s.4.5.4.8c0 .4-.1.7-.4 1.1-.2.2-.5.3-1 .3-.3 0-.6-.1-.8-.3s-.3-.6-.3-1zm4.2 12c-.3.9-.5 1.8-.5 2.7 0 .7.2 1.2.5 1.6.2.3.5.4.8.4.2 0 .4 0 .6-.1.4-.2.7-.4.9-.7.3-.3.5-.6.8-1 .3-.4.5-.9.7-1.4h.6c-.3 1.1-1 2.2-2.2 3.2-.7.7-1.5 1-2.2 1-.5 0-1-.2-1.3-.7-.5-.6-.7-1.5-.7-2.5 0-.5.1-1 .2-1.7s.3-1.2.5-1.6c.3-.7.6-1.3 1-1.9l1.1-1.6c.7-.8 1.1-1.2 1.2-1.3.3-.3.7-.5 1-.7.3-.2.7-.2 1.1-.2.5 0 .9.2 1.3.6s.5.9.5 1.5c0 .5-.1 1.1-.4 1.6-.3.5-.6.9-.9 1.2l-1.2.8c-.1.1-.5.2-1.1.4-.6.1-1.4.3-2.3.4zm.2-.7c.3 0 .8-.1 1.5-.4.4-.1.8-.4 1.4-.8.2-.2.5-.4.8-.8s.5-.8.7-1.2.2-.8.2-1.3c0-.3-.1-.5-.2-.7s-.4-.3-.6-.3c-.3 0-.6.2-.9.5-.6.5-1.2 1.4-1.9 2.7-.5 1-.8 1.7-1 2.3zm10.3-4.1c0-.1 0-.1-.1-.2h-.1c-.5 0-1.3.8-2.4 2.4h-.5c.2-.4.5-.9 1-1.6.5-.6 1-1.1 1.5-1.6.5-.4 1-.7 1.5-.9.2-.1.3-.1.4-.1h.2c.2.2.3.4.3.5v.4c0 .2-.1.3-.2.5-.3.8-.5 1.4-.6 1.8l-.8 2.2c-.2.5-.4 1-.6 1.6.1-.1.1-.2.2-.3.9-1.3 1.9-2.6 2.9-3.8 1-1.2 1.9-2 2.6-2.4.5-.3 1-.5 1.4-.5.3 0 .6.1.8.3.2.2.3.4.3.7 0 .2 0 .3-.1.5-.1.4-.2.9-.5 1.6-.2.7-.9 2.1-1.8 4.3l-1.5 3.4-.1.2c0 .1 0 .1.1.3.5-.1 1.4-1 2.5-2.6h.6c-.3.5-.8 1.3-1.5 2.1-.5.7-1.1 1.2-1.7 1.5-.3.2-.7.3-1.1.3-.2 0-.4 0-.5-.1s-.2-.2-.2-.3c0-.5.2-1.3.7-2.4l2.1-4.6.8-1.9c.2-.4.3-.7.3-.9s.1-.3.1-.5c0-.1 0-.2-.1-.3s-.2-.1-.3-.1c-.2 0-.3.1-.5.2-.7.4-1.5 1.2-2.4 2.2-1.3 1.5-2.1 2.6-2.5 3.2-1 1.6-1.9 3.3-2.7 5-.1.3-.3.5-.4.6h-.5c-.1 0-.3 0-.6-.1 0-.1-.1-.1-.1-.2s0-.3.1-.5c.2-.6.7-2 1.6-4l.3-.8 2.1-5.1zm13-.5h-2.5c0-.2.1-.5.3-.7 1.4 0 2.3-.1 2.5-.1.2-.5.4-.8.5-1.1.3-.6.6-1.4.9-2.3.1-.3.2-.5.3-.8h.7c.2 0 .5 0 .7.1v.2c0 .2-.4 1.3-1.3 3.2-.1.2-.2.5-.2.7.3 0 .4.1.5.1h2.2c0 .3-.1.6-.2.8-.4 0-.9.1-1.5.1h-.6c-.5 0-.8.1-.9.1l-2.4 5.7c-.3.6-.7 1.6-1.4 3.1 0 .1 0 .1.1.2h.2c.3 0 .6-.2 1-.5.8-.7 1.6-1.6 2.4-2.6.2.1.3.2.4.3-1 1.2-1.6 2-2 2.3s-.9.8-1.5 1.2-1 .6-1.1.7c-.2.1-.4.1-.7.1-.2 0-.4-.1-.5-.2-.1-.1-.2-.3-.2-.4 0-.3.2-.9.7-2l.6-1.4 2.2-5.2c.4-.5.6-1.1.8-1.6zm14.9-.1h-.5c-.5.2-.8.5-1 .6-.4.3-.9.7-1.2 1.2l-.8.2c.8-1 1.6-1.8 2.5-2.4.9-.6 1.6-.9 2.2-.9.2 0 .4.1.5.2.1.1.2.3.2.4 0 .5-.3 1.3-.8 2.4-.1.1-.2.5-.5 1.1-.6 1.3-1.2 2.5-1.9 3.6-.2.4-.5.8-.7 1.3-.1.3-.3.5-.4.7-.3.5-.5.9-.5 1.1 0 .1 0 .1.1.2s.1.1.2.1.3-.1.5-.2c.4-.2.8-.5 1.3-1s1-1 1.3-1.6h.6c-.3.5-.7 1.1-1.3 1.8s-1.2 1.2-2 1.6c-.6.3-1 .5-1.5.5-.3 0-.6-.1-.7-.2s-.2-.3-.2-.5c0-.8.6-2.2 1.7-4.2l2.4-4.5c.2-.5.4-.8.5-1.1.1-.2.1-.3.1-.3 0 .1 0 0-.1-.1zm.8-6.6c0-.3.1-.6.4-.9s.6-.4.9-.4c.3 0 .6.1.8.4s.4.5.4.8c0 .4-.1.7-.4 1.1-.2.2-.5.3-1 .3-.3 0-.6-.1-.8-.3s-.3-.6-.3-1zm2.4 14.8c.5 0 .9.4 1.2 1.1.2.4.3.6.5.7.1.1.3.2.5.2.4 0 .8-.2 1.2-.6.3-.3.4-.7.4-1.3 0-.5-.2-1.2-.5-2.1-.5-1.4-.7-2.4-.7-3.2 0-1.1.3-2.1.9-3s1.6-1.3 2.9-1.3c.6 0 1 .2 1.3.5s.5.7.5 1.1c0 .3-.1.5-.2.7-.2.2-.3.3-.5.3-.4 0-.8-.2-1.2-.6s-.6-.7-.7-.7c-.1-.1-.3-.1-.5-.1-.3 0-.5.1-.7.4s-.3.5-.3.9c0 .8.2 1.9.7 3.3.5 1.4.7 2.5.7 3.3 0 .5-.2 1-.5 1.5s-.8.9-1.4 1.3c-.7.4-1.3.5-2 .5-.8 0-1.4-.2-1.8-.5-.4-.4-.6-.8-.6-1.3 0-.3.1-.5.2-.7s.3-.4.6-.4zM219 76v11.3c11 1 19 10 19 20.9 0 10.9-8 19.9-19 20.9V143H25v-13.8c-11-.5-20-9.7-20-20.9s9-20.4 20-20.9V76h194m4-4H21v11.7C10 86.1 1 96.2 1 108.2s9 22.2 20 24.5V147h202v-14.5c11-2.7 19-12.5 19-24.3s-8-21.6-19-24.3V72z"/><path class="st0" d="M214.8 80.7V91l.9.1 3.2.2c9 .8 15.5 7.9 15.5 16.9 0 9-6.5 16.1-15.5 16.9l-3.2.3-.9.1v14.2h-186v-14.4l-.9-.1-2.4-.1c-8.9-.4-15.9-7.9-15.9-17 0-9.2 6.8-16.5 15.8-17l2.5-.1.9-.1V80.5h186m1-.8h-188v10.5l-2.5.1c-9.6.5-16.8 8.3-16.8 18s7.3 17.5 16.9 18l2.4.1v14.5h188v-14.3l3.2-.3c9.4-.9 16.5-8.4 16.5-17.9s-7-17-16.4-17.9l-3.2-.2V79.7h-.1z"/><path class="st0" d="M60.3 96.2v14.2h3.3v4.1h-3.3v5.4h-5.5v-5.4H44.6v-4.1L54 96.2h6.3zm-11.5 14.2h6.3v-10l-6.3 10zm22.7 9.5h-5.3v-5.3h5.3v5.3zm20.9-17.5l-4.7 1.3c-.4-2.4-1.6-3.6-3.5-3.6-2.7 0-4.1 2.6-4.1 7.8 1.1-1.8 2.8-2.7 5.2-2.7 2.2 0 4 .7 5.3 2.1 1.4 1.4 2.1 3.1 2.1 5 0 2.1-.8 3.9-2.3 5.5-1.5 1.6-3.6 2.4-6.1 2.4-2.5 0-4.5-.6-5.9-1.9-1.5-1.3-2.4-2.8-3-4.6s-.8-3.5-.8-5.2c0-3.6.8-6.5 2.4-8.9s4-3.5 7.2-3.5c2.3 0 4.1.6 5.5 1.8 1.5 1.3 2.4 2.8 2.7 4.5zm-8.5 13.9c1 0 1.8-.3 2.5-1s1-1.6 1-2.8c0-1.1-.4-1.9-1.1-2.6-.7-.6-1.5-.9-2.4-.9-.9 0-1.7.3-2.5 1s-1.1 1.6-1.1 2.7c0 1 .3 1.9 1 2.6.8.7 1.6 1 2.6 1zm31.4 3.6l-5.8-19v19H105V96.5h8.5l4.1 14 4.3-14h8.5v23.3h-5.5v-19l-5.9 19h-3.7zm25.2-23.4v23.3H135V96.5h5.5zm10.3 18.8h9.3v4.6h-14.8V96.5h5.5v18.8zm28.7-14.3h-11.1v4.8h8.7v4.4h-8.7v5.1h11.1v4.6h-16.7V96.5h16.7v4.5zm19.4.7l-4.6 1.6c-.6-1.8-1.9-2.8-4-2.8-2.2 0-3.2.7-3.2 2.1 0 .6.2 1 .6 1.4.4.4 1.3.7 2.7 1 2.4.5 4.1 1 5.2 1.5 1.1.5 2 1.3 2.8 2.4s1.1 2.3 1.1 3.6c0 2.1-.8 3.9-2.4 5.5-1.6 1.5-4 2.3-7.2 2.3-2.4 0-4.4-.5-6.1-1.6-1.7-1.1-2.8-2.7-3.3-4.8l5.1-1.1c.6 2.2 2.1 3.3 4.7 3.3 1.3 0 2.2-.2 2.8-.7.6-.5.9-1.1.9-1.7 0-.7-.3-1.2-.8-1.6s-1.6-.7-3.2-1.1c-3-.6-5.1-1.5-6.3-2.5-1.3-1.1-1.9-2.6-1.9-4.7s.8-3.8 2.3-5.2c1.5-1.4 3.6-2.1 6.1-2.1 4.4-.3 7.4 1.5 8.7 5.2zM42.3 221.2c.2-.1.3-.1.4-.1.3 0 .6.2.9.7.1.2.2.4.3.5.2.2.5.4.8.4.4 0 .9-.2 1.5-.7.5-.5 1-1.3 1.4-2.3.4-1 .8-2.1 1.2-3.2l1.4-4.9c.1-.3.2-.6.3-1l1-3.5c.3-.9.5-1.5.6-1.9h-2.6c0-.3.1-.5.1-.7h.7l2.1-.1c.4-1.4.9-2.8 1.5-4 .3-.8.8-1.5 1.5-2.3.5-.6 1.1-1 1.7-1.4.3-.2.7-.3 1.2-.3.6 0 1.1.2 1.5.5s.6.7.6 1c0 .2-.1.4-.2.6s-.3.3-.5.3c-.3 0-.5-.1-.7-.2-.2-.2-.3-.4-.4-.8-.1-.3-.2-.4-.3-.5-.1-.1-.3-.1-.5-.1s-.4 0-.5.1c-.3.2-.6.5-1 .9-.3.3-.5.8-.8 1.4-.3.6-.6 1.5-.9 2.7s-.5 1.9-.6 2.1h2.3v.2c0 .1 0 .3-.1.5l-2.4.1-.5 1.6-1.2 4.4c-.1.2-.1.4-.2.6-.2.5-.3.8-.3 1l-1.1 3.5c-.5 1.3-1 2.4-1.4 3.3-.5.9-1.1 1.7-1.8 2.3-.5.5-1.1.9-1.6 1.1-.4.2-.9.2-1.5.2-.8 0-1.4-.1-1.7-.4-.3-.3-.5-.6-.5-.9-.1-.3 0-.6.3-.7zm16.5-16.4c-.3.2-.6.5-.9.8-.1.1-.5.7-1.3 1.8H56c.2-.5.7-1.2 1.4-1.9.7-.8 1.2-1.3 1.7-1.6.3-.2.7-.3 1.1-.3.2.1.4.2.5.3s.1.3.1.4 0 .3-.1.5c-.1.5-.3 1.3-.6 2.3-.3 1-.6 1.8-.9 2.4l-.8 1.8-.1.3.8-1.6c1.6-3 2.7-4.9 3.4-5.6.5-.5 1.1-.8 1.8-.8.4 0 .8.2 1.1.5.3.2.4.6.4 1s-.1.8-.4 1.2c-.2.2-.5.3-.8.3-.3 0-.5-.1-.6-.2s-.2-.5-.2-1.1c-.1-.3-.3-.4-.4-.4s-.3.1-.5.2c-.5.4-1.4 1.8-2.7 4-1.3 2.3-2.1 3.8-2.4 4.7-.3.9-.6 1.5-.8 1.8-.1.2-.3.3-.6.3s-.4 0-.6-.1-.2-.2-.2-.4 0-.4.1-.7c.4-1 1.1-2.9 2-5.7l1-3.1c.1-.3.1-.5.1-.5l.1-.2c.2-.1.1-.2-.1-.4zm15.6 2.4c0 2.3-.7 4.3-2.1 6-1.4 1.8-2.8 2.6-4.3 2.6-.8 0-1.4-.3-1.9-.9s-.7-1.5-.7-2.8c0-.8.2-1.8.6-2.9s.9-2 1.5-2.8c.1-.2.3-.4.5-.6.5-.7 1.1-1.2 1.8-1.7s1.4-.7 2.2-.7c.7 0 1.3.3 1.7.9s.7 1.6.7 2.9zm-7.6 6.7c0 .4.1.8.3 1 .2.2.5.3 1 .3s.9-.2 1.4-.7c.8-.8 1.7-2.2 2.5-4.2s1.3-3.6 1.3-4.7c0-.4-.1-.7-.3-1s-.4-.4-.7-.4c-.6 0-1.2.3-1.8 1-1.1 1.1-2 2.7-2.8 4.7-.6 1.7-.9 3-.9 4zm13.6-8.9l-.2-.1c-.2 0-.5.1-.8.4-.7.5-1.3 1.1-1.7 1.7-.1.1-.2.2-.3.4-.2 0-.4 0-.6-.1.3-.5.6-.9.9-1.2.7-.7 1.2-1.2 1.5-1.4.5-.4 1.1-.7 1.5-.9.2-.1.5-.2.7-.2.2 0 .4.1.5.2s.2.3.2.4c0 .3-.6 1.6-1.7 3.9-.3.6-.5 1.1-.6 1.3.5-.6 1.2-1.3 2.1-2.3.6-.7 1.4-1.5 2.4-2.4.4-.3.8-.6 1.3-.8s.9-.3 1.2-.3c.3 0 .5.1.7.3.1.1.2.3.2.5 0 .8-.6 2.3-1.7 4.4l-.7 1.3-.1.2 1.5-1.8c.5-.5.8-.8.9-1l.7-.7c.8-1 1.7-1.8 2.6-2.3.9-.5 1.6-.8 2.1-.8.2 0 .4.1.6.3s.2.4.2.7c0 .2 0 .4-.1.6-.1.3-.2.8-.5 1.3 0 0-.4.8-1.3 2.3-.5.9-.8 1.5-1.1 1.9l-.7 1.2c-.4.6-.6 1-.8 1.2-.6.6-.8 1-.8 1.4 0 0 0 .1.1.1 0 0 .2-.1.5-.3.6-.4 1.4-1 2.3-1.9l.5.1c-.5.8-1.2 1.5-2.3 2.2s-2 1-2.9 1c-.2 0-.4-.1-.5-.2 0-.1 0-.2.1-.3s.2-.3.5-.8l2.4-3.9c1.3-2.1 2.1-3.5 2.3-4 .4-.8.6-1.3.6-1.5 0-.1 0-.2-.1-.3s-.2-.1-.2-.1c-.1 0-.3.1-.5.2-.6.3-1.2.9-2 1.7-1.5 1.6-2.6 2.8-3.4 3.8-1.2 1.5-2.3 3-3.2 4.6-.2.4-.4.7-.7.9h-.6c-.3 0-.6 0-.8-.1 0-.2.2-.5.4-.9.5-.8 1.2-2.1 2.3-4 1-1.9 1.7-3.2 2-3.9.3-.7.5-1.2.6-1.5v-.3c0-.2 0-.3-.1-.4-.1-.1-.1-.1-.2-.1-.2 0-.4.1-.7.3-.4.2-1.1.8-1.9 1.7-1.4 1.5-2.2 2.4-2.4 2.6-1.2 1.5-2.1 2.8-2.7 3.7 0 .1-.2.4-.6 1-.3.6-.6 1-.7 1.2-.1.2-.3.4-.6.6h-.6c-.1 0-.3 0-.4-.1l-.1-.2c0-.1.1-.3.2-.6.1-.1.9-1.6 2.4-4.6l2.6-5.1c.3.1.3 0 .3-.2zm30.9 2.2c0 2.3-.7 4.3-2.1 6-1.4 1.8-2.8 2.6-4.3 2.6-.8 0-1.4-.3-1.9-.9s-.7-1.5-.7-2.8c0-.8.2-1.8.6-2.9s.9-2 1.5-2.8c.1-.2.3-.4.5-.6.5-.7 1.1-1.2 1.8-1.7s1.4-.7 2.2-.7c.7 0 1.3.3 1.7.9s.7 1.6.7 2.9zm-7.6 6.7c0 .4.1.8.3 1 .2.2.5.3 1 .3s.9-.2 1.4-.7c.8-.8 1.7-2.2 2.5-4.2s1.3-3.6 1.3-4.7c0-.4-.1-.7-.3-1s-.4-.4-.7-.4c-.6 0-1.2.3-1.8 1-1.1 1.1-2 2.7-2.8 4.7-.6 1.7-.9 3-.9 4zm13.3-9.1c-.3.1-.8.5-1.4 1.1-.4.3-.7.7-1.1 1-.2.3-.4.4-.5.5l-.5-.1c.2-.3.6-.8 1.4-1.6.8-.8 1.5-1.4 2.3-1.9.4-.2.7-.3 1-.3.2 0 .3.1.5.2.1.1.2.3.2.4 0 .2-.1.5-.2.8 0 .1-.1.2-.2.5-.4 1-1.3 2.8-2.6 5.2-1.1 2.1-1.6 3.3-1.6 3.6v.1c.3 0 .6-.2 1-.6 1.3-1.1 2.2-2 2.9-2.7l.7-.7c1.1-1.2 2-2.3 2.8-3.3.4-.6 1.1-1.8 1.9-3.5h.7c.2 0 .4.1.5.2-.2.6-.6 1.6-1.2 3l-2.7 6.8c-.2.4-.3.7-.3 1h.1c.1 0 .2-.1.5-.3.6-.5 1-1 1.4-1.6.2-.2.3-.4.5-.6l.5.1c-.5.9-1.3 1.9-2.4 2.9-.6.6-1.1.8-1.5.8-.1 0-.3 0-.5-.1-.2-.2-.3-.4-.3-.5 0-.5.2-1.2.6-2.1l2.1-4.8c.1-.1.1-.2.1-.3-.2.2-.6.6-1.2 1.3-1.4 1.6-2.6 2.9-3.6 3.9-1 .9-2.1 1.7-3.3 2.4-.3.2-.6.2-.8.2-.1 0-.3 0-.3-.1s-.1-.2-.1-.4 0-.4.1-.6c.2-.5.4-1.1.8-1.9l2.5-4.9 1-2.2c.2-.3.3-.5.3-.6 0-.1 0-.1-.1-.3zm11.9 0c-.3.2-.6.5-.9.8-.1.1-.5.7-1.3 1.8h-.6c.2-.5.7-1.2 1.4-1.9.7-.8 1.2-1.3 1.7-1.6.3-.2.7-.3 1.1-.3.2.1.4.2.5.3s.1.3.1.4 0 .3-.1.5c-.1.5-.3 1.3-.6 2.3-.3 1-.6 1.8-.9 2.4l-.8 1.8-.1.3.8-1.6c1.6-3 2.7-4.9 3.4-5.6.5-.5 1.1-.8 1.8-.8.4 0 .8.2 1.1.5.3.2.4.6.4 1s-.1.8-.4 1.2c-.2.2-.5.3-.8.3-.3 0-.5-.1-.6-.2s-.2-.5-.2-1.1c-.1-.3-.3-.4-.4-.4s-.3.1-.5.2c-.5.4-1.4 1.8-2.7 4-1.3 2.3-2.1 3.8-2.4 4.7-.3.9-.6 1.5-.8 1.8-.1.2-.3.3-.6.3s-.4 0-.6-.1-.2-.2-.2-.4 0-.4.1-.7c.4-1 1.1-2.9 2-5.7l1-3.1c.1-.3.1-.5.1-.5l.1-.2c.2-.1.1-.2-.1-.4zm22.4.3l1.6-5.1c.1-.2.2-.6.3-1.1 0-.1 0-.2.1-.2.2-.6.3-1 .3-1.2 0-.1-.1-.2-.2-.3-.3-.2-.7-.4-1.3-.5l-.3-.1.1-.4c1.7 0 2.8-.1 3.3-.3h.2c.1 0 .2 0 .4.1-.1.3-.1.5-.1.6v.1l-1.2 3.6-1.5 4.7c-.3.8-.4 1.4-.5 1.8-.1.6-.3 1.1-.4 1.6l-2.1 6.2v.1c.4-.1 1.2-.9 2.7-2.5.2.1.3.2.4.3-.8 1.2-1.7 2.2-2.7 3-.7.5-1.3.8-1.6.8-.1 0-.2 0-.3-.1-.1-.1-.1-.2-.1-.2 0-.3.2-1 .5-2s.6-1.8.7-2.3c-.3.2-.6.6-1.1 1.2-.9 1.1-1.9 2-3 2.7-.7.5-1.4.8-2 .8-.3 0-.6-.1-.8-.4-.3-.4-.5-1-.5-1.8 0-.9.2-1.9.6-2.9.2-.6.7-1.4 1.2-2.4.6-1 1.2-1.8 1.9-2.5s1.4-1.2 2-1.6c.6-.3 1.2-.5 1.7-.5.4 0 .8.1 1.1.3.1-.1.4.2.6.5zm-6.5 9.5c.4 0 .8-.2 1.3-.5.9-.7 1.8-1.5 2.6-2.6s1.4-2.2 1.7-3.3c.3-1.1.5-1.7.5-1.9 0-.3-.1-.6-.4-.9-.2-.3-.5-.4-.7-.4-.3 0-.8.1-1.3.4-.5.3-1 .7-1.6 1.3-.3.3-.8 1.1-1.4 2.1-.6 1.1-1.1 2-1.4 2.8s-.5 1.4-.5 1.8c0 .4.1.7.3 1 .3.1.6.2.9.2zm18.7-7.4c0 2.3-.7 4.3-2.1 6-1.4 1.8-2.8 2.6-4.3 2.6-.8 0-1.4-.3-1.9-.9s-.7-1.5-.7-2.8c0-.8.2-1.8.6-2.9s.9-2 1.5-2.8c.1-.2.3-.4.5-.6.5-.7 1.1-1.2 1.8-1.7s1.4-.7 2.2-.7c.7 0 1.3.3 1.7.9s.7 1.6.7 2.9zm-7.6 6.7c0 .4.1.8.3 1 .2.2.5.3 1 .3s.9-.2 1.4-.7c.8-.8 1.7-2.2 2.5-4.2s1.3-3.6 1.3-4.7c0-.4-.1-.7-.3-1s-.4-.4-.7-.4c-.6 0-1.2.3-1.8 1-1.1 1.1-2 2.7-2.8 4.7-.6 1.7-.9 3-.9 4zm18.2-6.7c0 2.3-.7 4.3-2.1 6-1.4 1.8-2.8 2.6-4.3 2.6-.8 0-1.4-.3-1.9-.9s-.7-1.5-.7-2.8c0-.8.2-1.8.6-2.9s.9-2 1.5-2.8c.1-.2.3-.4.5-.6.5-.7 1.1-1.2 1.8-1.7s1.4-.7 2.2-.7c.7 0 1.3.3 1.7.9s.7 1.6.7 2.9zm-7.6 6.7c0 .4.1.8.3 1 .2.2.5.3 1 .3s.9-.2 1.4-.7c.8-.8 1.7-2.2 2.5-4.2s1.3-3.6 1.3-4.7c0-.4-.1-.7-.3-1s-.4-.4-.7-.4c-.6 0-1.2.3-1.8 1-1.1 1.1-2 2.7-2.8 4.7-.6 1.7-.9 3-.9 4zm12.4-9.1c-.3.2-.6.5-.9.8-.1.1-.5.7-1.3 1.8h-.6c.2-.5.7-1.2 1.4-1.9.7-.8 1.2-1.3 1.7-1.6.3-.2.7-.3 1.1-.3.2.1.4.2.5.3s.1.3.1.4 0 .3-.1.5c-.1.5-.3 1.3-.6 2.3-.3 1-.6 1.8-.9 2.4l-.8 1.8-.1.3.8-1.6c1.6-3 2.7-4.9 3.4-5.6.5-.5 1.1-.8 1.8-.8.4 0 .8.2 1.1.5.3.2.4.6.4 1s-.1.8-.4 1.2c-.2.2-.5.3-.8.3-.3 0-.5-.1-.6-.2s-.2-.5-.2-1.1c-.1-.3-.3-.4-.4-.4s-.3.1-.5.2c-.5.4-1.4 1.8-2.7 4-1.3 2.3-2.1 3.8-2.4 4.7-.3.9-.6 1.5-.8 1.8-.1.2-.3.3-.6.3s-.4 0-.6-.1-.2-.2-.2-.4 0-.4.1-.7c.4-1 1.1-2.9 2-5.7l1-3.1c.1-.3.1-.5.1-.5l.1-.2c.2-.1.1-.2-.1-.4z"/></svg>