<svg id="Layer_1" xmlns="http://www.w3.org/2000/svg" viewBox="0 0 242.8 223.8"><style>.st0{fill:#fff}</style><path class="st0" d="M61.5 12.9c0 2.3-.7 4.3-2.1 6.1-1.4 1.8-2.8 2.7-4.3 2.7-.8 0-1.4-.3-1.9-.9-.5-.6-.7-1.5-.7-2.8 0-.9.2-1.8.6-3s.9-2 1.5-2.8c.1-.2.3-.4.5-.6.5-.7 1.1-1.3 1.9-1.7.7-.5 1.5-.7 2.2-.7.7 0 1.3.3 1.7.9.3.6.6 1.5.6 2.8zm-7.7 6.7c0 .5.1.8.3 1 .2.2.6.3 1 .3.5 0 .9-.2 1.4-.7.8-.8 1.7-2.2 2.5-4.3s1.3-3.6 1.3-4.8c0-.4-.1-.7-.3-1-.2-.2-.4-.4-.7-.4-.6 0-1.2.3-1.8 1-1.1 1.1-2 2.7-2.8 4.7-.6 1.9-.9 3.2-.9 4.2zm13.5-9.1c-.3.1-.8.5-1.4 1.1-.4.3-.7.7-1.1 1-.2.3-.4.4-.5.5l-.5-.1c.2-.3.6-.8 1.4-1.7.8-.8 1.5-1.4 2.3-1.9.4-.2.7-.3 1-.3.2 0 .3.1.5.2.1.1.2.3.2.4 0 .2-.1.5-.3.8 0 .1-.1.2-.2.5-.4 1-1.3 2.8-2.6 5.3-1.1 2.1-1.7 3.3-1.7 3.6v.1c.3 0 .6-.2 1-.6 1.3-1.1 2.3-2 2.9-2.7l.7-.7c1.1-1.2 2.1-2.3 2.8-3.4.4-.6 1.1-1.8 1.9-3.5h.7c.2 0 .4.1.5.2-.2.6-.6 1.6-1.2 3L71 19.2c-.2.4-.3.7-.3 1h.1c.1 0 .2-.1.5-.3.6-.5 1-1 1.4-1.6.2-.2.3-.4.5-.6l.5.1c-.5.9-1.3 1.9-2.4 2.9-.6.6-1.1.9-1.5.9-.1 0-.3 0-.5-.1-.2-.2-.3-.4-.3-.5 0-.5.2-1.2.6-2.2l2.1-4.9c.3.1.3 0 .3-.1-.2.2-.6.6-1.2 1.3-1.4 1.7-2.6 3-3.7 3.9-1 .9-2.1 1.8-3.3 2.4-.3.2-.6.2-.8.2-.1 0-.3 0-.3-.1-.1-.1-.1-.2-.1-.4s0-.4.1-.6c.2-.5.4-1.1.8-1.9l2.5-5 1-2.2c.2-.3.3-.5.3-.6.1-.1 0-.2 0-.3zm11.9 0c-.3.2-.6.5-.9.8-.1.1-.5.7-1.3 1.8h-.6c.2-.5.7-1.2 1.4-2s1.2-1.3 1.7-1.6c.3-.2.7-.3 1.1-.3.2.1.4.2.5.3.1.1.1.3.1.4 0 .2 0 .3-.1.5-.1.5-.3 1.3-.6 2.3-.3 1-.6 1.8-.9 2.4l-.8 1.8-.1.3.8-1.6c1.6-3 2.8-4.9 3.5-5.6.5-.5 1.1-.8 1.8-.8.4 0 .8.2 1.1.5.3.2.4.6.4 1 0 .5-.1.8-.4 1.2-.2.2-.5.3-.8.3-.3 0-.5-.1-.6-.2-.1-.1-.2-.5-.2-1.1-.1-.3-.3-.4-.4-.4-.2 0-.3.1-.5.3-.5.4-1.4 1.8-2.7 4.1-1.3 2.3-2.1 3.9-2.5 4.8-.3.9-.6 1.5-.8 1.8-.1.2-.3.3-.6.3s-.5 0-.6-.1c-.1-.1-.2-.2-.2-.4s0-.4.1-.7c.4-1 1.1-2.9 2-5.7l1-3.2c.1-.3.1-.5.1-.5l.1-.2c.2-.2.1-.4-.1-.5zm14.5 2.2l-.4-.2c.3-.9.6-1.7 1.2-2.3.5-.7 1-1 1.6-1 .4 0 .7.2 1 .5.3.3.4.9.4 1.8s-.2 2.1-.6 3.4c-.4 1.3-1.2 3.1-2.4 5.4.5-.2 1.2-.6 1.9-1.1 1.1-.8 1.9-1.6 2.7-2.4.4-.4.8-1 1.2-1.9.5-.8.8-1.4.9-1.7.2-.6.3-1.1.3-1.7 0-.3-.1-.5-.2-.6-.1-.1-.2-.1-.3-.1-.1 0-.3 0-.4.1-.2.1-.4.3-.6.6l-.8 1.2-.4-.2c.4-.8.7-1.4 1-1.9.5-.6.8-1 1.1-1.2.3-.2.5-.2.7-.2.4 0 .7.1.9.4.3.4.5 1.1.5 2 0 .9-.3 2.2-.8 3.9s-1.2 3.3-2.1 4.8c1.9-.8 3.5-2.1 5.1-3.9 1.2-1.4 1.7-2.9 1.7-4.6v-1.1c0-.3.1-.7.2-1 .2-.3.3-.5.6-.5s.5.1.6.2c.2.2.2.4.2.7 0 .9-.2 2-.7 3.1-.5 1.1-1.3 2.4-2.4 3.8-.8 1-1.8 1.8-3 2.6-.7.5-2 1.1-3.8 2l-.9.3c-.1 0-.2 0-.4-.1v-.3s.1-.2.3-.4c.9-1.3 1.6-2.5 2.1-3.6.5-1 .8-1.9 1-2.4-.8 1.3-1.6 2.3-2.2 2.9-1 .9-2.4 1.9-4.2 3.1-.8.5-1.4.8-1.8.8-.1 0-.2 0-.2-.1s-.1-.1-.1-.2 0-.3.1-.4c0 0 .2-.4.6-1.1.7-1.2 1.1-2.2 1.4-2.9.6-1.3 1-2.6 1.3-3.7.2-.8.3-1.4.3-1.9 0-.3-.1-.5-.2-.7-.1-.1-.2-.1-.3-.1-.2 0-.3.1-.6.3-.3.2-.7.8-1.1 1.6zm24.5.2c0 2.3-.7 4.3-2.1 6.1-1.4 1.8-2.8 2.7-4.3 2.7-.8 0-1.4-.3-1.9-.9-.5-.6-.7-1.5-.7-2.8 0-.9.2-1.8.6-3s.9-2 1.5-2.8c.1-.2.3-.4.5-.6.5-.7 1.1-1.3 1.9-1.7.7-.5 1.5-.7 2.2-.7.7 0 1.3.3 1.7.9.4.6.6 1.5.6 2.8zm-7.6 6.7c0 .5.1.8.3 1 .2.2.6.3 1 .3.5 0 .9-.2 1.4-.7.8-.8 1.7-2.2 2.5-4.3s1.3-3.6 1.3-4.8c0-.4-.1-.7-.3-1-.2-.2-.4-.4-.7-.4-.6 0-1.2.3-1.8 1-1.1 1.1-2 2.7-2.8 4.7-.6 1.9-.9 3.2-.9 4.2zm12.5-9.1c-.3.2-.6.5-.9.8-.1.1-.5.7-1.3 1.8h-.6c.2-.5.7-1.2 1.4-2s1.2-1.3 1.7-1.6c.3-.2.7-.3 1.1-.3.2.1.4.2.5.3.1.1.1.3.1.4 0 .2 0 .3-.1.5-.1.5-.3 1.3-.6 2.3-.3 1-.6 1.8-.9 2.4l-.8 1.8-.1.3.8-1.6c1.6-3 2.8-4.9 3.5-5.6.5-.5 1.1-.8 1.8-.8.4 0 .8.2 1.1.5.3.2.4.6.4 1 0 .5-.1.8-.4 1.2-.2.2-.5.3-.8.3-.3 0-.5-.1-.6-.2-.1-.1-.2-.5-.2-1.1-.1-.3-.3-.4-.4-.4-.2 0-.3.1-.5.3-.5.4-1.4 1.8-2.7 4.1-1.3 2.3-2.1 3.9-2.5 4.8-.3.9-.6 1.5-.8 1.8-.1.2-.3.3-.6.3s-.5 0-.6-.1c-.1-.1-.2-.2-.2-.4s0-.4.1-.7c.4-1 1.1-2.9 2-5.7l1-3.2c.1-.3.1-.5.1-.5l.1-.2c.1-.2.1-.4-.1-.5zm11.6-7.8l.1-.4c1.2 0 2.4-.2 3.4-.5h.5c-.1.2-.2.6-.4.9l-2.7 6-1.5 3.3-.7 1.7c0 .1-.1.2-.1.4.3-.2.5-.4.7-.5l2-1.9c1-.8 1.8-1.4 2.4-1.7.7-.3 1.3-.5 1.9-.5.6 0 1.2.2 1.8.7.4.3.5.7.5 1.3 0 .9-.5 1.7-1.4 2.6-1 .8-2.3 1.2-4 1.2-.7 0-1.5-.1-2.4-.2.2.7.5 1.5.9 2.2.2.4.6 1 1.2 1.9.3.4.6.8 1 1.2.5.5 1 .8 1.4.9.4.2.7.3 1.1.3.5 0 1-.1 1.3-.4.3-.3.5-.6.5-.9 0-.1 0-.2-.1-.3-.1-.1-.2-.1-.2-.1-.1 0-.3.1-.6.2-.1.1-.3.1-.4.1-.3 0-.5-.1-.7-.3-.1-.1-.2-.3-.2-.5 0-.3.1-.5.3-.7.2-.2.5-.3 1-.3.6.1.9.3 1.1.6.3.4.4.8.4 1.3s-.2.9-.7 1.3c-.4.4-1 .6-1.8.6-1.2 0-2.2-.3-3-.8-.9-.5-1.7-1.4-2.6-2.7-.5-.7-1-1.9-1.5-3.6-.2.2-.4.7-.7 1.3 0 .1-.1.3-.3.7-.2.4-.4.8-.6 1.3-.9 2.1-1.5 3.2-1.7 3.5-.1.1-.3.2-.6.2-.2 0-.4 0-.7-.1 0-.1-.1-.2-.1-.3 0-.2.3-1 1-2.3.1-.3.4-.8.7-1.5l.9-2.1 2.2-4.9.9-2c.6-1.5 1.2-3 1.8-4.4.1-.3.1-.5.1-.8 0-.2 0-.3-.1-.4-.1-.1-.3-.2-.7-.3-.3-.2-.5-.3-.6-.3zm-.4 11.5c.6.1 1 .2 1.4.2 1.6 0 3-.2 4.1-.6.9-.3 1.5-.7 1.8-1.1.3-.4.5-.8.5-1.2 0-.2-.1-.3-.2-.4-.2-.1-.4-.2-.7-.2-.6 0-1.3.1-1.9.3-1.2.4-2.1.9-2.9 1.4-.9.5-1.6 1-2.1 1.6zm22.5-11.9l.1-.3c1.7-.2 2.7-.3 3-.3h.5l-.2.3-.4 1-.8 2.4c-.1.4-.3 1-.6 1.7-.4 1.5-.9 2.8-1.4 3.9-.5 1.2-.9 2.4-1.4 3.8.2-.2.4-.5.6-.8 1.4-2 2.6-3.3 3.5-4.1.6-.5 1.3-.7 1.9-.7.5 0 .9.2 1.3.6.4.4.5 1.1.5 1.9 0 1.1-.3 2.4-.8 4-.6 1.5-1.2 2.8-2 3.7-.8 1-1.4 1.6-2 1.8-.5.3-1 .4-1.5.4-.4 0-.7-.1-.9-.3-.3-.3-.4-.6-.4-.9 0-.1.1-.3.2-.4.2-.1.4-.2.6-.2.2 0 .4 0 .5.1s.3.3.5.7c.2.2.3.2.4.2.2 0 .4-.2.8-.6.6-.8 1.4-2.5 2.2-4.8.6-1.9 1-3.3 1-4.3 0-.5-.1-.9-.2-1.1-.1-.2-.4-.3-.6-.3-.1 0-.3 0-.5.1-.5.3-1.1.7-1.7 1.4-.6.6-1.6 1.9-3 3.8-.3.4-.8 1.4-1.4 2.8-.7 1.5-1.1 2.5-1.4 3.1-.1.3-.2.5-.4.6-.1.1-.3.1-.5.1s-.4 0-.5-.1-.1-.2-.1-.3c0-.2.1-.4.2-.8l1-2.6c.1-.1.1-.3.2-.4l4.1-11.9.6-1.7c.2-.4.2-.7.2-.9 0-.1 0-.2-.1-.3s-.2-.1-.3-.1c-.2 0-.5-.1-.8-.2zm17.9 8.3c.1-.2.2-.3.2-.4.1-.3.2-.5.4-.6h.6c.2 0 .3 0 .5.1v.2c0 .1 0 .1-.1.3 0 .1-.1.2-.2.6l-.1.2-1 2.6c-.4 1.2-.8 2.1-1.1 2.8-.3.7-.6 1.4-.8 2.2s-.4 1.3-.6 1.6l-.1.1c0 .1.1.1.2.2.4-.2.8-.5 1.1-.8.7-.7 1.2-1.2 1.3-1.4.1-.1.2-.2.3-.4l.3.3c-.3.4-.7.9-1.3 1.6s-1.2 1.1-1.7 1.4c-.4.2-.8.3-1.1.3-.2 0-.4 0-.5-.1-.1-.1-.2-.2-.2-.4 0-.1 0-.4.1-.8.2-.6.4-1.1.5-1.3.1-.2.2-.5.4-1 .1-.3.3-.7.6-1.4-.2.2-.4.5-.7.8-.8 1-1.8 2-2.8 2.9-.2.2-.8.5-1.8 1-.3.1-.7.2-1.2.3-.4 0-.7 0-.8-.1-.2-.1-.4-.3-.6-.6-.1-.2-.2-.5-.2-1 0-.6.1-1.3.4-2.1.5-1.3 1-2.3 1.5-2.9.8-1.1 1.7-2 2.5-2.6.8-.6 1.6-1.1 2.3-1.4.9-.4 1.7-.6 2.4-.6.2 0 .4 0 .6.1.3.2.5.2.7.3zm-7.2 9.7c.2-.1.5-.1.6-.3.1-.1.5-.3 1.2-.8l2.1-2.1c.4-.4.8-.9 1.2-1.6.1-.2.4-.6.8-1.4l.4-1c.1-.6.2-.9.2-1 0-.3-.1-.5-.3-.8-.2-.1-.4-.2-.7-.2-.4 0-.7.1-1 .2-.6.3-1.2.7-1.7 1.1-.7.6-1.4 1.4-2.1 2.4-.7 1-1.1 1.8-1.4 2.4-.4.9-.6 1.6-.6 2 0 .4.1.6.2.8s.3.3.6.3c0 .1.2 0 .5 0zm9.7-1.5c.5 0 .9.4 1.2 1.1.2.4.3.6.5.7.1.1.3.2.5.2.4 0 .8-.2 1.2-.6.3-.3.4-.7.4-1.4 0-.5-.2-1.2-.5-2.1-.5-1.4-.7-2.4-.7-3.2 0-1.1.3-2.1.9-3 .6-.9 1.6-1.3 2.9-1.3.6 0 1 .2 1.3.5.3.3.5.7.5 1.1 0 .3-.1.5-.2.7-.2.2-.3.3-.6.3-.4 0-.8-.2-1.2-.6-.3-.4-.6-.7-.7-.7-.1-.1-.3-.1-.5-.1-.3 0-.5.1-.7.4-.2.2-.3.5-.3.9 0 .8.2 1.9.7 3.3s.7 2.5.7 3.3c0 .5-.2 1-.5 1.5s-.8 1-1.4 1.3-1.3.5-2 .5c-.8 0-1.4-.2-1.9-.5-.4-.4-.6-.8-.6-1.3 0-.3.1-.5.3-.7.2-.2.5-.3.7-.3zM46.3 31.3c-.3-.2-.7-.3-1.2-.3h-.2v-.4c.3-.1.8-.1 1.6-.1.2 0 .8 0 1.9-.1 0 .1-.3 1.1-.9 2.9l-1.1 3.5c-.1.4-.3 1.2-.7 2.3l-1.6 5.3 2.1-2.8c1.2-1.5 2-2.3 2.2-2.5.5-.5 1-.8 1.4-1 .4-.2.8-.3 1.1-.3.4 0 .7.2 1 .5.4.5.6 1 .6 1.6 0 1.3-.3 2.6-1 4s-1.6 2.6-2.7 3.8c-.8.7-1.9 1.4-3.3 2.1-.8.4-1.5.6-2 .6-.6 0-1-.2-1.4-.5-.3-.3-.5-.7-.5-1.1 0-.5.1-1.2.3-1.9l.8-2.7 2.9-8.7c.3-1.1.7-2 1-2.8.1-.3.2-.6.2-.8-.2-.2-.3-.4-.5-.6zm-2.4 18.4c.3 0 .6-.1 1-.3.7-.4 1.4-1.1 2.3-2.1.8-1 1.4-1.7 1.7-2.2.6-1.1 1.2-2.1 1.6-3.2.3-.8.5-1.5.5-2.1 0-.3-.1-.5-.3-.7-.2-.2-.4-.3-.7-.3-.3 0-.6.1-.9.3-.6.4-1.4 1.1-2.2 2.1-1.3 1.6-2.2 2.7-2.6 3.4-.4.7-.7 1.4-1 2.3-.3.8-.4 1.4-.4 1.7 0 .3.1.6.3.8.2.2.4.3.7.3zm11.5-5.1c-.3.9-.5 1.8-.5 2.7 0 .7.2 1.2.5 1.6.2.3.5.4.8.4.2 0 .4 0 .6-.1.4-.2.7-.4.9-.7.3-.3.5-.6.8-1s.5-.9.7-1.4h.6c-.3 1.1-1 2.2-2.2 3.2-.7.7-1.5 1-2.3 1-.5 0-1-.2-1.3-.7-.5-.6-.7-1.5-.7-2.6 0-.5.1-1 .2-1.7s.3-1.2.5-1.7c.3-.7.6-1.3 1-1.9l1.1-1.7c.7-.8 1.2-1.2 1.2-1.3.3-.3.7-.5 1-.7.3-.2.7-.2 1.1-.2.5 0 .9.2 1.3.6.4.4.5.9.5 1.5 0 .5-.1 1.1-.4 1.6-.3.5-.6.9-.9 1.2l-1.2.8c-.1.1-.5.2-1.1.4-.5.3-1.3.5-2.2.7zm.2-.7c.3 0 .8-.1 1.5-.4.4-.1.8-.4 1.4-.8.2-.2.5-.4.8-.8.3-.4.5-.8.7-1.2.2-.4.2-.8.2-1.3 0-.3-.1-.5-.3-.7-.2-.2-.4-.3-.6-.3-.3 0-.6.2-.9.5-.6.5-1.3 1.4-1.9 2.7-.4.9-.7 1.7-.9 2.3zm8.6.7c-.3.9-.5 1.8-.5 2.7 0 .7.2 1.2.5 1.6.2.3.5.4.8.4.2 0 .4 0 .6-.1.4-.2.7-.4.9-.7.3-.3.5-.6.8-1s.5-.9.7-1.4h.6c-.3 1.1-1 2.2-2.2 3.2-.7.7-1.5 1-2.3 1-.5 0-1-.2-1.3-.7-.5-.6-.7-1.5-.7-2.6 0-.5.1-1 .2-1.7s.3-1.2.5-1.7c.3-.7.6-1.3 1-1.9l1.1-1.7c.7-.8 1.2-1.2 1.2-1.3.3-.3.7-.5 1-.7.3-.2.7-.2 1.1-.2.5 0 .9.2 1.3.6.4.4.5.9.5 1.5 0 .5-.1 1.1-.4 1.6-.3.5-.6.9-.9 1.2l-1.2.8c-.1.1-.5.2-1.1.4-.5.3-1.2.5-2.2.7zm.3-.7c.3 0 .8-.1 1.5-.4.4-.1.8-.4 1.4-.8.2-.2.5-.4.8-.8.3-.4.5-.8.7-1.2.2-.4.2-.8.2-1.3 0-.3-.1-.5-.3-.7-.2-.2-.4-.3-.6-.3-.3 0-.6.2-.9.5-.6.5-1.3 1.4-1.9 2.7-.5.9-.8 1.7-.9 2.3zm10.3-4.2c0-.1 0-.1-.1-.2h-.1c-.5 0-1.3.8-2.4 2.4h-.5c.2-.4.5-.9 1-1.6.5-.6 1-1.2 1.5-1.6.5-.4 1-.7 1.5-.9.2-.1.3-.1.4-.1h.2c.2.2.3.4.3.5v.4c0 .1-.1.3-.2.5-.3.8-.5 1.4-.6 1.8l-.8 2.2c-.2.5-.4 1-.6 1.6.1-.1.1-.2.2-.3.9-1.3 1.9-2.6 3-3.8 1.1-1.2 1.9-2 2.6-2.5.5-.3 1-.5 1.4-.5.3 0 .6.1.8.3.2.2.3.4.3.7 0 .2 0 .3-.1.5-.1.4-.2.9-.5 1.6-.2.7-.9 2.1-1.9 4.4l-1.5 3.4-.1.2c0 .1 0 .1.1.3.6-.1 1.4-1 2.5-2.6h.6c-.3.6-.8 1.3-1.5 2.1-.5.7-1.1 1.2-1.7 1.5-.3.2-.7.3-1.1.3-.2 0-.4 0-.5-.1-.1-.1-.2-.2-.2-.3 0-.5.3-1.3.8-2.4l2.1-4.7.8-2c.2-.4.3-.7.3-.9 0-.2.1-.3.1-.5 0-.1 0-.2-.1-.3-.1-.1-.2-.1-.3-.1-.2 0-.3.1-.5.2-.7.4-1.5 1.2-2.4 2.2-1.3 1.5-2.1 2.6-2.5 3.3-1 1.6-1.9 3.3-2.7 5-.1.3-.3.5-.4.6h-.5c-.1 0-.3 0-.6-.1 0-.1-.1-.1-.1-.2s0-.3.1-.5c.2-.6.7-2 1.6-4l.3-.8 2-5zm16.8 7.7c.5 0 .9.4 1.2 1.1.2.4.3.6.5.7.1.1.3.2.5.2.4 0 .8-.2 1.2-.6.3-.3.4-.7.4-1.4 0-.5-.2-1.2-.5-2.1-.5-1.4-.7-2.4-.7-3.2 0-1.1.3-2.1.9-3 .6-.9 1.6-1.3 2.9-1.3.6 0 1 .2 1.3.5.3.3.5.7.5 1.1 0 .3-.1.5-.2.7-.2.2-.3.3-.6.3-.4 0-.8-.2-1.2-.6-.3-.4-.6-.7-.7-.7-.1-.1-.3-.1-.5-.1-.3 0-.5.1-.7.4-.2.2-.3.5-.3.9 0 .8.2 1.9.7 3.3s.7 2.5.7 3.3c0 .5-.2 1-.5 1.5s-.8 1-1.4 1.3-1.3.5-2 .5c-.8 0-1.4-.2-1.9-.5-.4-.4-.6-.8-.6-1.3 0-.3.1-.5.3-.7.2-.2.5-.3.7-.3zm10.7-2.8c-.3.9-.5 1.8-.5 2.7 0 .7.2 1.2.5 1.6.2.3.5.4.8.4.2 0 .4 0 .6-.1.4-.2.7-.4.9-.7.3-.3.5-.6.8-1s.5-.9.7-1.4h.6c-.3 1.1-1 2.2-2.2 3.2-.7.7-1.5 1-2.3 1-.5 0-1-.2-1.3-.7-.5-.6-.7-1.5-.7-2.6 0-.5.1-1 .2-1.7s.3-1.2.5-1.7c.3-.7.6-1.3 1-1.9L103 40c.7-.8 1.2-1.2 1.2-1.3.3-.3.7-.5 1-.7.3-.2.7-.2 1.1-.2.5 0 .9.2 1.3.6.4.4.5.9.5 1.5 0 .5-.1 1.1-.4 1.6-.3.5-.6.9-.9 1.2l-1.2.8c-.1.1-.5.2-1.1.4-.5.3-1.2.5-2.2.7zm.3-.7c.3 0 .8-.1 1.5-.4.4-.1.8-.4 1.4-.8.2-.2.5-.4.8-.8.3-.4.5-.8.7-1.2.2-.4.2-.8.2-1.3 0-.3-.1-.5-.3-.7-.2-.2-.4-.3-.6-.3-.3 0-.6.2-.9.5-.6.5-1.3 1.4-1.9 2.7-.4.9-.8 1.7-.9 2.3zm8.5.7c-.3.9-.5 1.8-.5 2.7 0 .7.2 1.2.5 1.6.2.3.5.4.8.4.2 0 .4 0 .6-.1.4-.2.7-.4.9-.7.3-.3.5-.6.8-1s.5-.9.7-1.4h.6c-.3 1.1-1 2.2-2.2 3.2-.7.7-1.5 1-2.3 1-.5 0-1-.2-1.3-.7-.5-.6-.7-1.5-.7-2.6 0-.5.1-1 .2-1.7s.3-1.2.5-1.7c.3-.7.6-1.3 1-1.9l1.1-1.7c.7-.8 1.2-1.2 1.2-1.3.3-.3.7-.5 1-.7.3-.2.7-.2 1.1-.2.5 0 .9.2 1.3.6.4.4.5.9.5 1.5 0 .5-.1 1.1-.4 1.6-.3.5-.6.9-.9 1.2l-1.2.8c-.1.1-.5.2-1.1.4-.4.3-1.2.5-2.2.7zm.3-.7c.3 0 .8-.1 1.5-.4.4-.1.8-.4 1.4-.8.2-.2.5-.4.8-.8.3-.4.5-.8.7-1.2.2-.4.2-.8.2-1.3 0-.3-.1-.5-.3-.7-.2-.2-.4-.3-.6-.3-.3 0-.6.2-.9.5-.6.5-1.3 1.4-1.9 2.7-.4.9-.8 1.7-.9 2.3zm10.3-4.2c0-.1 0-.1-.1-.2h-.1c-.5 0-1.3.8-2.4 2.4h-.5c.2-.4.5-.9 1-1.6.5-.6 1-1.2 1.5-1.6.5-.4 1-.7 1.5-.9.2-.1.3-.1.4-.1h.2c.2.2.3.4.3.5v.4c0 .1-.1.3-.2.5-.3.8-.5 1.4-.6 1.8l-.8 2.2c-.2.5-.4 1-.6 1.6.1-.1.1-.2.2-.3.9-1.3 1.9-2.6 3-3.8 1.1-1.2 1.9-2 2.6-2.5.5-.3 1-.5 1.4-.5.3 0 .6.1.8.3.2.2.3.4.3.7 0 .2 0 .3-.1.5-.1.4-.2.9-.5 1.6-.2.7-.9 2.1-1.9 4.4l-1.5 3.4-.1.2c0 .1 0 .1.1.3.6-.1 1.4-1 2.5-2.6h.6c-.3.6-.8 1.3-1.5 2.1-.5.7-1.1 1.2-1.7 1.5-.3.2-.7.3-1.1.3-.2 0-.4 0-.5-.1-.1-.1-.2-.2-.2-.3 0-.5.3-1.3.8-2.4l2.1-4.7.8-2c.2-.4.3-.7.3-.9 0-.2.1-.3.1-.5 0-.1 0-.2-.1-.3-.1-.1-.2-.1-.3-.1-.2 0-.3.1-.5.2-.7.4-1.5 1.2-2.4 2.2-1.3 1.5-2.1 2.6-2.5 3.3-1 1.6-1.9 3.3-2.7 5-.1.3-.3.5-.4.6h-.5c-.1 0-.3 0-.6-.1 0-.1-.1-.1-.1-.2s0-.3.1-.5c.2-.6.7-2 1.6-4l.3-.8 2-5zm26.6-.5c.1-.2.2-.3.2-.4.1-.3.2-.5.4-.6h.6c.2 0 .3 0 .5.1v.2c0 .1 0 .1-.1.3 0 .1-.1.2-.2.6l-.1.3-1 2.6c-.4 1.2-.8 2.1-1.1 2.8-.3.7-.6 1.4-.8 2.2s-.4 1.3-.6 1.6l-.1.1c0 .1.1.1.2.2.4-.2.8-.5 1.1-.8.7-.7 1.2-1.2 1.3-1.4.1-.1.2-.2.3-.4l.3.3c-.3.4-.7.9-1.3 1.6s-1.2 1.1-1.7 1.4c-.4.2-.8.3-1.1.3-.2 0-.4 0-.5-.1-.1-.1-.2-.2-.2-.4 0-.1 0-.4.1-.8.2-.6.4-1.1.5-1.3.1-.2.2-.5.4-1 .1-.3.3-.7.6-1.4-.2.2-.4.5-.7.8-.8 1-1.8 2-2.8 2.9-.2.2-.8.5-1.8 1-.3.1-.7.2-1.2.3-.4 0-.7 0-.8-.1-.2-.1-.4-.3-.6-.6-.1-.2-.2-.5-.2-1 0-.6.1-1.3.4-2.1.5-1.3 1-2.3 1.5-2.9.8-1.1 1.7-2 2.5-2.6.8-.6 1.6-1.1 2.3-1.4.9-.4 1.7-.6 2.4-.6.2 0 .4 0 .6.1.3.1.5.2.7.2zm-7.2 9.7c.2-.1.5-.1.6-.3.1-.1.5-.3 1.2-.8l2.1-2.1c.4-.4.8-.9 1.2-1.6.1-.2.4-.6.8-1.4l.4-1c.1-.6.2-.9.2-1 0-.3-.1-.5-.3-.8-.2-.1-.4-.2-.7-.2-.4 0-.7.1-1 .2-.6.3-1.2.7-1.7 1.1-.7.6-1.4 1.4-2.1 2.4-.7 1-1.1 1.8-1.4 2.4-.4.9-.6 1.6-.6 2 0 .4.1.6.2.8s.3.3.6.3c0 .1.2 0 .5 0zm16.9-8.4c-.1-.1-.3-.2-.3-.3 0-.1-.1-.3-.3-.6-.1-.3-.2-.5-.3-.6-.1-.1-.2-.2-.4-.2-.3 0-.7.2-1.1.6-.7.8-1.5 2.1-2.2 3.8-.7 1.8-1.1 3.3-1.1 4.5 0 .4.1.8.2.9.1.1.2.2.4.2.4 0 .8-.2 1.3-.6.6-.6 1.2-1.3 1.9-2.3.2 0 .3-.1.4-.1h.2c0 .2-.3.6-.8 1.4-.7 1.1-1.4 1.8-2 2.3s-1.2.6-1.7.6-.8-.2-1-.5c-.3-.4-.5-1.1-.5-2 0-.8.2-1.7.6-2.9.4-1.1.9-2.2 1.7-3.3s1.3-1.8 1.8-2.3c.5-.5 1-.8 1.7-1.2.5-.2.9-.3 1.3-.3s.8.2 1.1.5c.3.4.5.8.5 1.3 0 .3-.1.5-.2.7-.2.2-.3.2-.5.2-.3.3-.5.2-.7.2zm4.2-1.4c-.3.2-.6.5-.9.8-.1.1-.5.7-1.3 1.8h-.6c.2-.5.7-1.2 1.4-2s1.2-1.3 1.7-1.6c.3-.2.7-.3 1.1-.3.2.1.4.2.5.3.1.1.1.3.1.4 0 .2 0 .3-.1.5-.1.5-.3 1.3-.6 2.3-.3 1-.6 1.8-.9 2.4l-.8 1.8-.1.3.8-1.6c1.6-3 2.8-4.9 3.5-5.6.5-.5 1.1-.8 1.8-.8.4 0 .8.2 1.1.5.3.2.4.6.4 1 0 .5-.1.8-.4 1.2-.2.2-.5.3-.8.3-.3 0-.5-.1-.6-.2-.1-.1-.2-.5-.2-1.1-.1-.3-.3-.4-.4-.4-.2 0-.3.1-.5.3-.5.4-1.4 1.8-2.7 4.1-1.3 2.3-2.1 3.9-2.5 4.8-.3.9-.6 1.5-.8 1.8-.1.2-.3.3-.6.3s-.5 0-.6-.1c-.1-.1-.2-.2-.2-.4s0-.4.1-.7c.4-1 1.1-2.9 2-5.7l1-3.2c.1-.3.1-.5.1-.5l.1-.2c.2-.2.1-.4-.1-.5zm15.8 2.4c0 2.3-.7 4.3-2.1 6.1-1.4 1.8-2.8 2.7-4.3 2.7-.8 0-1.4-.3-1.9-.9-.5-.6-.7-1.5-.7-2.8 0-.9.2-1.8.6-3s.9-2 1.5-2.8c.1-.2.3-.4.5-.6.5-.7 1.1-1.3 1.9-1.7.7-.5 1.5-.7 2.2-.7.7 0 1.3.3 1.7.9.3.6.6 1.5.6 2.8zm-7.7 6.8c0 .5.1.8.3 1 .2.2.6.3 1 .3.5 0 .9-.2 1.4-.7.8-.8 1.7-2.2 2.5-4.3s1.3-3.6 1.3-4.8c0-.4-.1-.7-.3-1-.2-.2-.4-.4-.7-.4-.6 0-1.2.3-1.8 1-1.1 1.1-2 2.7-2.8 4.7-.6 1.8-.9 3.1-.9 4.2zm9.3-.9c.5 0 .9.4 1.2 1.1.2.4.3.6.5.7.1.1.3.2.5.2.4 0 .8-.2 1.2-.6.3-.3.4-.7.4-1.4 0-.5-.2-1.2-.5-2.1-.5-1.4-.7-2.4-.7-3.2 0-1.1.3-2.1.9-3 .6-.9 1.6-1.3 2.9-1.3.6 0 1 .2 1.3.5.3.3.5.7.5 1.1 0 .3-.1.5-.2.7-.2.2-.3.3-.6.3-.4 0-.8-.2-1.2-.6-.3-.4-.6-.7-.7-.7-.1-.1-.3-.1-.5-.1-.3 0-.5.1-.7.4-.2.2-.3.5-.3.9 0 .8.2 1.9.7 3.3s.7 2.5.7 3.3c0 .5-.2 1-.5 1.5s-.8 1-1.4 1.3-1.3.5-2 .5c-.8 0-1.4-.2-1.9-.5-.4-.4-.6-.8-.6-1.3 0-.3.1-.5.3-.7.2-.2.5-.3.7-.3zm8.9 0c.5 0 .9.4 1.2 1.1.2.4.3.6.5.7.1.1.3.2.5.2.4 0 .8-.2 1.2-.6.3-.3.4-.7.4-1.4 0-.5-.2-1.2-.5-2.1-.5-1.4-.7-2.4-.7-3.2 0-1.1.3-2.1.9-3 .6-.9 1.6-1.3 2.9-1.3.6 0 1 .2 1.3.5.3.3.5.7.5 1.1 0 .3-.1.5-.2.7-.2.2-.3.3-.6.3-.4 0-.8-.2-1.2-.6-.3-.4-.6-.7-.7-.7-.1-.1-.3-.1-.5-.1-.3 0-.5.1-.7.4-.2.2-.3.5-.3.9 0 .8.2 1.9.7 3.3s.7 2.5.7 3.3c0 .5-.2 1-.5 1.5s-.8 1-1.4 1.3-1.3.5-2 .5c-.8 0-1.4-.2-1.9-.5-.4-.4-.6-.8-.6-1.3 0-.3.1-.5.3-.7.2-.2.4-.3.7-.3zm-70.9 45.9H98.4l-.7 9.8c2.4-2.5 5.5-3.8 9.3-3.8 4 0 7.3 1.3 10.1 3.9 2.8 2.6 4.1 6 4.1 10.1 0 4.6-1.5 8.3-4.5 11.2-3 2.9-7.2 4.4-12.5 4.4-9.3 0-15.1-4.2-17.3-12.5l9.6-1.4c1 3.9 3.4 5.8 7.3 5.8 2.1 0 3.8-.7 5.1-2s1.9-2.9 1.9-4.7c0-1.9-.7-3.5-2-4.8-1.3-1.3-3-2-4.9-2-2.7 0-4.8 1.1-6.3 3.4l-8.4-1.4 1.7-24.9h27.6l-.9 8.9zm34.1 11.2c5.4 2.2 8.1 5.8 8.1 10.8 0 3.9-1.6 7.2-4.7 9.7-3.1 2.5-7.6 3.8-13.4 3.8-5.4 0-9.5-1.2-12.4-3.5-2.9-2.3-4.3-5.3-4.3-9 0-4.6 2.6-7.9 7.8-9.8-4.2-2.4-6.4-5.7-6.4-10 0-3.6 1.4-6.6 4.2-9.1 2.8-2.5 6.7-3.8 11.8-3.8 4.8 0 8.7 1.1 11.5 3.3 2.8 2.2 4.3 4.9 4.3 8.3.1 4.3-2.1 7.3-6.5 9.3zm-12 5.3c-3.6 1.1-5.5 3.1-5.5 6.1 0 1.8.7 3.2 2.1 4.3s3.4 1.6 6 1.6c2.2 0 4-.4 5.4-1.2 1.4-.8 2.1-2 2.1-3.6 0-1.2-.5-2.3-1.5-3.3-.9-1-3.8-2.3-8.6-3.9zm5.2-8.2c3-.9 4.4-2.8 4.4-5.6 0-1.7-.6-3.1-1.8-4.2-1.2-1.1-3-1.6-5.3-1.6-1.9 0-3.3.4-4.4 1.3s-1.6 2-1.6 3.4c0 1.3.5 2.4 1.5 3.4 1.1 1 3.5 2.1 7.2 3.3zM87 178.9l1.6-5.2c.1-.2.2-.6.3-1.1 0-.1 0-.2.1-.2.2-.7.3-1.1.3-1.2 0-.1-.1-.2-.2-.4-.3-.2-.7-.4-1.4-.5l-.3-.1.1-.4c1.7 0 2.8-.1 3.4-.3h.2c.1 0 .2 0 .4.1-.1.3-.1.5-.1.6v.1l-1.2 3.7-1.5 4.8c-.3.8-.4 1.4-.5 1.8-.1.6-.3 1.1-.4 1.6l-2.1 6.4v.1c.4-.1 1.3-.9 2.7-2.5.2.1.3.2.4.3-.8 1.2-1.8 2.3-2.8 3-.7.5-1.3.8-1.7.8-.1 0-.2 0-.3-.1-.1-.1-.1-.2-.1-.2 0-.3.2-1 .5-2.1s.6-1.9.7-2.4c-.3.2-.6.7-1.1 1.2-1 1.1-2 2-3 2.7-.8.5-1.5.8-2.1.8-.3 0-.6-.1-.8-.4-.3-.4-.5-1-.5-1.8 0-1 .2-2 .6-3 .3-.6.7-1.4 1.3-2.4s1.2-1.8 2-2.6c.7-.7 1.4-1.3 2.1-1.6.7-.3 1.3-.5 1.8-.5.4 0 .8.1 1.1.3 0 .1.2.4.5.7zm-6.7 9.7c.4 0 .8-.2 1.3-.6.9-.7 1.8-1.6 2.6-2.7s1.4-2.2 1.7-3.4c.3-1.1.5-1.8.5-2 0-.3-.1-.6-.4-.9-.2-.3-.5-.4-.7-.4-.4 0-.8.1-1.3.4-.5.3-1 .7-1.6 1.3-.3.3-.8 1.1-1.5 2.2s-1.1 2.1-1.5 2.9c-.3.8-.5 1.4-.5 1.8 0 .4.1.7.3 1 .6.3.8.4 1.1.4zm13.7-10h-.5c-.5.2-.8.5-1 .6-.4.3-.9.8-1.3 1.2l-.9.2c.8-1 1.6-1.9 2.6-2.4.9-.6 1.7-.9 2.2-.9.2 0 .4.1.5.2.1.1.2.3.2.4 0 .5-.3 1.3-.8 2.4-.1.1-.2.5-.5 1.1-.6 1.3-1.2 2.5-1.9 3.7-.2.4-.5.8-.7 1.3-.1.3-.3.5-.4.7-.3.5-.5.9-.5 1.2 0 .1 0 .1.1.2s.1.1.2.1.3-.1.5-.2c.4-.2.8-.5 1.3-1s1-1 1.4-1.6h.7c-.3.5-.7 1.2-1.3 1.9-.6.7-1.3 1.3-2 1.7-.6.3-1.1.5-1.5.5-.3 0-.6-.1-.7-.2-.2-.1-.2-.3-.2-.5 0-.8.6-2.2 1.7-4.3l2.4-4.5c.2-.5.4-.8.5-1.1.1-.2.1-.3.1-.3-.1-.2-.1-.3-.2-.4zm.9-6.7c0-.3.1-.7.4-.9.3-.3.6-.4.9-.4.3 0 .6.1.9.4.2.2.4.5.4.8 0 .4-.1.8-.4 1.1-.2.2-.5.3-1 .3-.3 0-.6-.1-.8-.3-.3-.4-.4-.7-.4-1z"/><path class="st0" d="M90.4 195.3c.2-.1.3-.1.4-.1.3 0 .6.2.9.7.1.2.2.4.3.5.2.2.5.4.8.4.4 0 .9-.2 1.6-.7.5-.5 1-1.3 1.5-2.4.5-1 .9-2.1 1.2-3.3l1.5-5c.1-.3.2-.6.3-1l1-3.5c.3-.9.5-1.5.6-1.9h-2.7c0-.3.1-.5.1-.7h.7l2.2-.1c.4-1.5.9-2.8 1.5-4.1.3-.8.8-1.5 1.5-2.3.5-.6 1.1-1.1 1.8-1.4.3-.2.8-.3 1.3-.3.6 0 1.2.2 1.5.5.4.3.6.7.6 1.1 0 .2-.1.4-.2.6-.2.2-.3.3-.5.3-.3 0-.5-.1-.7-.3-.2-.2-.4-.4-.4-.8-.1-.3-.2-.4-.3-.6-.1-.1-.3-.1-.5-.1s-.4 0-.5.1c-.3.2-.6.5-1 .9-.3.3-.5.8-.8 1.5-.3.6-.6 1.5-1 2.7s-.5 1.9-.6 2.2h2.3v.2c0 .1 0 .3-.1.6l-2.5.1-.5 1.7-1.3 4.5c-.1.2-.1.4-.2.6-.2.5-.3.8-.3 1.1l-1.1 3.5c-.5 1.4-1 2.5-1.5 3.4-.5.9-1.1 1.7-1.8 2.4-.5.5-1.1.9-1.7 1.1-.4.2-.9.2-1.5.2-.8 0-1.4-.1-1.7-.4-.3-.3-.5-.6-.5-.9-.1-.6 0-.8.3-1z"/><path class="st0" d="M97.8 195.3c.2-.1.3-.1.4-.1.3 0 .6.2.9.7.1.2.2.4.3.5.2.2.5.4.8.4.4 0 .9-.2 1.6-.7.5-.5 1-1.3 1.5-2.4.5-1 .9-2.1 1.2-3.3l1.5-5c.1-.3.2-.6.3-1l1-3.5c.3-.9.5-1.5.6-1.9h-2.7c0-.3.1-.5.1-.7h.7l2.2-.1c.4-1.5.9-2.8 1.5-4.1.3-.8.8-1.5 1.5-2.3.5-.6 1.1-1.1 1.8-1.4.3-.2.8-.3 1.3-.3.6 0 1.2.2 1.5.5.4.3.6.7.6 1.1 0 .2-.1.4-.2.6-.2.2-.3.3-.5.3-.3 0-.5-.1-.7-.3-.2-.2-.4-.4-.4-.8-.1-.3-.2-.4-.3-.6-.1-.1-.3-.1-.5-.1s-.4 0-.5.1c-.3.2-.6.5-1 .9-.3.3-.5.8-.8 1.5-.3.6-.6 1.5-1 2.7s-.5 1.9-.6 2.2h2.3v.2c0 .1 0 .3-.1.6l-2.5.1-.5 1.7-1.3 4.5c-.1.2-.1.4-.2.6-.2.5-.3.8-.3 1.1l-1.1 3.5c-.5 1.4-1 2.5-1.5 3.4-.5.9-1.1 1.7-1.8 2.4-.5.5-1.1.9-1.7 1.1-.4.2-.9.2-1.5.2-.8 0-1.4-.1-1.7-.4-.3-.3-.5-.6-.5-.9-.1-.6.1-.8.3-1zm15.9-11.1c-.3.9-.5 1.8-.5 2.7 0 .7.2 1.2.5 1.6.2.3.5.4.9.4.2 0 .4 0 .6-.1.4-.2.7-.4 1-.7.3-.3.5-.6.8-1 .3-.4.5-.9.7-1.4h.6c-.3 1.1-1 2.2-2.2 3.3-.7.7-1.5 1-2.3 1-.5 0-1-.2-1.3-.7-.5-.6-.7-1.5-.7-2.6 0-.5.1-1.1.2-1.7.1-.7.3-1.2.5-1.7.3-.7.6-1.4 1-2l1.2-1.7c.7-.8 1.2-1.2 1.3-1.3.3-.3.7-.5 1.1-.7.4-.2.7-.2 1.1-.2.5 0 .9.2 1.3.6.4.4.6.9.6 1.5s-.1 1.1-.4 1.6c-.3.5-.6.9-.9 1.2l-1.2.8c-.1.1-.5.2-1.1.4-1 .3-1.8.5-2.8.7zm.3-.8c.3 0 .8-.1 1.5-.4.4-.1.9-.4 1.5-.8.2-.2.5-.4.8-.8.3-.4.5-.8.7-1.2.2-.4.2-.8.2-1.3 0-.3-.1-.5-.3-.7-.2-.2-.4-.3-.6-.3-.3 0-.6.2-1 .5-.6.5-1.3 1.4-1.9 2.7-.4 1-.8 1.7-.9 2.3zm9.9-4.8c-.3.2-.6.5-.9.8-.1.1-.5.7-1.4 1.8h-.6c.2-.5.7-1.2 1.4-2s1.3-1.3 1.8-1.6c.3-.2.7-.3 1.1-.3.2.1.4.2.5.3s.1.3.1.4c0 .2 0 .3-.1.5-.1.5-.3 1.3-.7 2.3s-.6 1.8-.9 2.4l-.8 1.8-.1.3c.1-.2.4-.8.9-1.6 1.6-3.1 2.8-5 3.5-5.7.5-.5 1.1-.8 1.9-.8.4 0 .8.2 1.1.5.3.2.4.6.4 1 0 .5-.1.9-.4 1.2-.2.2-.5.3-.9.3-.3 0-.5-.1-.7-.2-.1-.1-.2-.5-.2-1.1-.1-.3-.3-.4-.4-.4s-.3.1-.5.3c-.5.4-1.4 1.8-2.7 4.1s-2.2 3.9-2.5 4.8-.6 1.5-.8 1.9c-.1.2-.3.3-.6.3s-.5 0-.6-.1c-.1-.1-.2-.2-.2-.4s0-.4.1-.7c.4-1 1.1-3 2.1-5.8l1-3.2c.1-.3.1-.5.1-.5l.1-.2c.2-.1.1-.3-.1-.4zm8.8 5.6c-.3.9-.5 1.8-.5 2.7 0 .7.2 1.2.5 1.6.2.3.5.4.9.4.2 0 .4 0 .6-.1.4-.2.7-.4 1-.7.3-.3.5-.6.8-1 .3-.4.5-.9.7-1.4h.6c-.3 1.1-1 2.2-2.2 3.3-.7.7-1.5 1-2.3 1-.5 0-1-.2-1.3-.7-.5-.6-.7-1.5-.7-2.6 0-.5.1-1.1.2-1.7.1-.7.3-1.2.5-1.7.3-.7.6-1.4 1-2l1.2-1.7c.7-.8 1.2-1.2 1.3-1.3.3-.3.7-.5 1.1-.7.4-.2.7-.2 1.1-.2.5 0 .9.2 1.3.6.4.4.6.9.6 1.5s-.1 1.1-.4 1.6c-.3.5-.6.9-.9 1.2l-1.2.8c-.1.1-.5.2-1.1.4-1.1.3-1.9.5-2.8.7zm.2-.8c.3 0 .8-.1 1.5-.4.4-.1.9-.4 1.5-.8.2-.2.5-.4.8-.8.3-.4.5-.8.7-1.2.2-.4.2-.8.2-1.3 0-.3-.1-.5-.3-.7-.2-.2-.4-.3-.6-.3-.3 0-.6.2-1 .5-.6.5-1.3 1.4-1.9 2.7-.4 1-.7 1.7-.9 2.3zm10.5-4.2c0-.1 0-.1-.1-.2h-.1c-.5 0-1.3.8-2.4 2.5h-.5c.2-.4.6-.9 1-1.6s1-1.2 1.5-1.6c.5-.4 1-.7 1.5-1 .2-.1.3-.1.4-.1h.2c.2.2.3.4.3.6v.4c0 .1-.1.3-.2.6-.3.9-.5 1.5-.7 1.8l-.9 2.2c-.2.5-.4 1-.6 1.6.1-.1.1-.2.2-.3.9-1.4 1.9-2.7 3-3.9 1.1-1.2 2-2.1 2.7-2.5.5-.3 1-.5 1.4-.5.3 0 .6.1.8.3.2.2.3.4.3.7 0 .2 0 .4-.1.5-.1.4-.2.9-.5 1.6-.2.7-.9 2.1-1.9 4.4l-1.5 3.5-.1.2c0 .1 0 .1.1.3.6-.1 1.4-1 2.5-2.7h.6c-.3.6-.8 1.3-1.5 2.2-.5.7-1.1 1.2-1.8 1.6-.3.2-.7.3-1.1.3-.2 0-.4-.1-.5-.1-.1-.1-.2-.2-.2-.3 0-.5.3-1.3.8-2.5l2.2-4.7.8-2c.2-.4.3-.7.3-.9 0-.2.1-.3.1-.5 0-.1 0-.2-.1-.3-.1-.1-.2-.1-.3-.1-.2 0-.3.1-.6.2-.7.4-1.6 1.2-2.4 2.3-1.3 1.5-2.1 2.6-2.5 3.3-1 1.7-2 3.3-2.7 5.1-.1.3-.3.5-.4.6h-.5c-.1 0-.3 0-.6-.1 0-.1-.1-.1-.1-.2s0-.3.1-.5c.2-.6.8-2 1.6-4.1l.3-.8 2.2-5.3zm13.3-.5h-2.5c0-.2.1-.5.3-.8 1.5 0 2.3-.1 2.6-.1.2-.5.4-.9.5-1.2.3-.6.6-1.4.9-2.3.1-.3.2-.6.3-.8h.8c.2 0 .5 0 .7.1v.2c0 .2-.4 1.3-1.3 3.3-.1.2-.2.5-.2.7.3 0 .5.1.5.1h2.2c0 .3-.1.6-.2.8-.4 0-.9.1-1.6.1h-.6c-.5.1-.8.1-.9.2l-2.4 5.8c-.3.6-.7 1.6-1.4 3.2 0 .1 0 .1.1.2h.2c.3 0 .6-.2 1-.5.9-.7 1.7-1.6 2.5-2.6.2.1.3.2.4.3-1 1.2-1.7 2-2.1 2.4s-.9.8-1.5 1.2-1 .6-1.1.7c-.2.1-.5.1-.7.1-.2 0-.4-.1-.5-.2-.1-.1-.2-.3-.2-.5 0-.3.2-1 .7-2l.6-1.4 2.2-5.3c.2-.6.5-1.2.7-1.7zm-73.9 29.9c-.1-.1-.3-.2-.3-.3 0-.1-.1-.3-.3-.6-.1-.3-.2-.5-.3-.6-.1-.1-.2-.2-.4-.2-.3 0-.7.2-1.1.6-.7.8-1.5 2.1-2.2 3.9S77 214.8 77 216c0 .4.1.8.2.9.1.1.2.2.4.2.4 0 .8-.2 1.3-.6.6-.6 1.3-1.3 1.9-2.3.2 0 .3-.1.4-.1h.2c0 .2-.3.7-.8 1.4-.7 1.1-1.4 1.9-2.1 2.3s-1.2.7-1.7.7-.8-.2-1.1-.5c-.3-.4-.5-1.1-.5-2 0-.8.2-1.8.6-2.9.4-1.1 1-2.3 1.7-3.3.7-1.1 1.4-1.8 1.8-2.3.5-.5 1.1-.9 1.7-1.2.5-.2.9-.3 1.3-.3s.8.2 1.1.5c.3.4.5.8.5 1.3 0 .3-.1.5-.2.7s-.3.2-.5.2c0 0-.2 0-.4-.1zm10.2 1.1c0 2.3-.7 4.4-2.1 6.2-1.4 1.8-2.9 2.7-4.4 2.7-.8 0-1.5-.3-2-.9s-.7-1.5-.7-2.8c0-.9.2-1.9.6-3s.9-2.1 1.5-2.8c.1-.2.3-.4.5-.6.5-.7 1.2-1.3 1.9-1.7.7-.5 1.5-.7 2.2-.7.7 0 1.3.3 1.8.9.5.4.7 1.3.7 2.7zm-7.8 6.8c0 .5.1.8.3 1s.6.3 1 .3c.5 0 .9-.2 1.4-.7.9-.8 1.7-2.3 2.6-4.3.9-2 1.3-3.7 1.3-4.8 0-.4-.1-.8-.3-1s-.4-.4-.7-.4c-.6 0-1.2.3-1.8 1-1.1 1.2-2 2.8-2.8 4.8-.6 1.7-1 3-1 4.1zm13.7-9.3c-.3.1-.8.5-1.4 1.2-.4.3-.8.7-1.1 1-.2.3-.4.4-.5.5l-.5-.1c.2-.3.6-.9 1.4-1.7.8-.8 1.6-1.5 2.4-1.9.4-.2.7-.3 1.1-.3.2 0 .4.1.5.2.1.1.2.3.2.4 0 .2-.1.5-.3.9 0 .1-.1.2-.2.5-.4 1-1.3 2.8-2.6 5.3-1.1 2.2-1.7 3.4-1.7 3.7v.1c.3 0 .6-.2 1-.6 1.3-1.1 2.3-2 3-2.8l.7-.7c1.1-1.2 2.1-2.3 2.8-3.4.4-.6 1.1-1.8 1.9-3.5h.7c.2 0 .4.1.5.2-.2.6-.6 1.7-1.2 3.1l-2.8 6.9c-.2.4-.3.7-.3 1h.1c.1 0 .2-.1.5-.3.6-.5 1.1-1 1.5-1.6.2-.2.3-.4.5-.6l.5.1c-.5.9-1.3 1.9-2.4 3-.6.6-1.1.9-1.5.9-.1 0-.3 0-.5-.1-.2-.2-.3-.4-.3-.5 0-.5.2-1.2.6-2.2l2.1-4.9c.1-.1.1-.2.1-.3-.2.2-.6.6-1.2 1.3-1.4 1.7-2.7 3-3.7 4s-2.1 1.8-3.3 2.5c-.3.2-.6.2-.9.2-.1 0-.3-.1-.4-.1-.1-.1-.1-.2-.1-.4s0-.4.1-.6c.2-.5.4-1.2.9-1.9l2.6-5 1-2.2c.2-.3.3-.5.3-.7 0-.4 0-.5-.1-.6zm12.6.6c0-.1 0-.1-.1-.2h-.1c-.5 0-1.3.8-2.4 2.5h-.5c.2-.4.6-.9 1-1.6s1-1.2 1.5-1.6c.5-.4 1-.7 1.5-1 .2-.1.3-.1.4-.1h.2c.2.2.3.4.3.6v.4c0 .1-.1.3-.2.6-.3.9-.5 1.5-.7 1.8l-.9 2.2c-.2.5-.4 1-.6 1.6.1-.1.1-.2.2-.3.9-1.4 1.9-2.7 3-3.9 1.1-1.2 2-2.1 2.7-2.5.5-.3 1-.5 1.4-.5.3 0 .6.1.8.3.2.2.3.4.3.7 0 .2 0 .4-.1.5-.1.4-.2.9-.5 1.6-.2.7-.9 2.1-1.9 4.4l-1.5 3.5-.1.2c0 .1 0 .1.1.3.6-.1 1.4-1 2.5-2.7h.6c-.3.6-.8 1.3-1.5 2.2-.5.7-1.1 1.2-1.8 1.6-.3.2-.7.3-1.1.3-.2 0-.4-.1-.5-.1-.1-.1-.2-.2-.2-.3 0-.5.3-1.3.8-2.5l2.2-4.7.8-2c.2-.4.3-.7.3-.9 0-.2.1-.3.1-.5 0-.1 0-.2-.1-.3-.1-.1-.2-.1-.3-.1-.2 0-.3.1-.6.2-.7.4-1.6 1.2-2.4 2.3-1.3 1.5-2.1 2.6-2.5 3.3-1 1.7-2 3.3-2.7 5.1-.1.3-.3.5-.4.6h-.5c-.1 0-.3 0-.6-.1 0-.1-.1-.1-.1-.2s0-.3.1-.5c.2-.6.8-2 1.6-4.1l.3-.8 2.2-5.3zm13.2-.5h-2.5c0-.2.1-.5.3-.8 1.5 0 2.3-.1 2.6-.1.2-.5.4-.9.5-1.2.3-.6.6-1.4.9-2.3.1-.3.2-.6.3-.8h.8c.2 0 .5 0 .7.1v.2c0 .2-.4 1.3-1.3 3.3-.1.2-.2.5-.2.7.3 0 .5.1.5.1h2.2c0 .3-.1.6-.2.8-.4 0-.9.1-1.6.1h-.6c-.5.1-.8.1-.9.2l-2.4 5.8c-.3.6-.7 1.6-1.4 3.2 0 .1 0 .1.1.2h.2c.3 0 .6-.2 1-.5.9-.7 1.7-1.6 2.5-2.6.2.1.3.2.4.3-1 1.2-1.7 2-2.1 2.4s-.9.8-1.5 1.2-1 .6-1.1.7c-.2.1-.5.1-.7.1-.2 0-.4-.1-.5-.2-.1-.1-.2-.3-.2-.5 0-.3.2-1 .7-2l.6-1.4 2.2-5.3c.3-.6.6-1.2.7-1.7zm7-.1c-.3.2-.6.5-.9.8-.1.1-.5.7-1.4 1.8h-.6c.2-.5.7-1.2 1.4-2s1.3-1.3 1.8-1.6c.3-.2.7-.3 1.1-.3.2.1.4.2.5.3s.1.3.1.4c0 .2 0 .3-.1.5-.1.5-.3 1.3-.7 2.3s-.6 1.8-.9 2.4l-.8 1.8-.1.3c.1-.2.4-.8.9-1.6 1.6-3.1 2.8-5 3.5-5.7.5-.5 1.1-.8 1.9-.8.4 0 .8.2 1.1.5.3.2.4.6.4 1 0 .5-.1.9-.4 1.2-.2.2-.5.3-.9.3-.3 0-.5-.1-.7-.2-.1-.1-.2-.5-.2-1.1-.1-.3-.3-.4-.4-.4s-.3.1-.5.3c-.5.4-1.4 1.8-2.7 4.1s-2.2 3.9-2.5 4.8-.6 1.5-.8 1.9c-.1.2-.3.3-.6.3s-.5 0-.6-.1c-.1-.1-.2-.2-.2-.4s0-.4.1-.7c.4-1 1.1-3 2.1-5.8l1-3.2c.1-.3.1-.5.1-.5l.1-.2c.2-.1.1-.3-.1-.4z"/><path class="st0" d="M141.6 207.2h-.5c-.5.2-.8.5-1 .6-.4.3-.9.8-1.3 1.2l-.9.2c.8-1 1.6-1.9 2.6-2.4.9-.6 1.7-.9 2.2-.9.2 0 .4.1.5.2.1.1.2.3.2.4 0 .5-.3 1.3-.8 2.4-.1.1-.2.5-.5 1.1-.6 1.3-1.2 2.5-1.9 3.7-.2.4-.5.8-.7 1.3-.1.3-.3.5-.4.7-.3.5-.5.9-.5 1.2 0 .1 0 .1.1.2s.1.1.2.1.3-.1.5-.2c.4-.2.8-.5 1.3-1s1-1 1.4-1.6h.7c-.3.5-.7 1.2-1.3 1.9-.6.7-1.3 1.3-2 1.7-.6.3-1.1.5-1.5.5-.3 0-.6-.1-.7-.2-.2-.1-.2-.3-.2-.5 0-.8.6-2.2 1.7-4.3l2.4-4.5c.2-.5.4-.8.5-1.1.1-.2.1-.3.1-.3-.1-.2-.1-.3-.2-.4zm.9-6.7c0-.3.1-.7.4-.9.3-.3.6-.4.9-.4.3 0 .6.1.9.4.2.2.4.5.4.8 0 .4-.1.8-.4 1.1-.2.2-.5.3-1 .3-.3 0-.6-.1-.8-.3-.3-.4-.4-.7-.4-1zm4.2 12.3c-.3.9-.5 1.8-.5 2.7 0 .7.2 1.2.5 1.6.2.3.5.4.9.4.2 0 .4 0 .6-.1.4-.2.7-.4 1-.7.3-.3.5-.6.8-1 .3-.4.5-.9.7-1.4h.6c-.3 1.1-1 2.2-2.2 3.3-.7.7-1.5 1-2.3 1-.5 0-1-.2-1.3-.7-.5-.6-.7-1.5-.7-2.6 0-.5.1-1.1.2-1.7.1-.7.3-1.2.5-1.7.3-.7.6-1.4 1-2l1.2-1.7c.7-.8 1.2-1.2 1.3-1.3.3-.3.7-.5 1.1-.7.4-.2.7-.2 1.1-.2.5 0 .9.2 1.3.6.4.4.6.9.6 1.5s-.1 1.1-.4 1.6c-.3.5-.6.9-.9 1.2l-1.2.8c-.1.1-.5.2-1.1.4-1 .3-1.8.5-2.8.7zm.3-.8c.3 0 .8-.1 1.5-.4.4-.1.9-.4 1.5-.8.2-.2.5-.4.8-.8.3-.4.5-.8.7-1.2.2-.4.2-.8.2-1.3 0-.3-.1-.5-.3-.7-.2-.2-.4-.3-.6-.3-.3 0-.6.2-1 .5-.6.5-1.3 1.4-1.9 2.7-.4 1-.7 1.7-.9 2.3zm6.8 3.6c.5 0 .9.4 1.2 1.2.2.4.3.6.5.7.1.1.3.2.6.2.4 0 .8-.2 1.2-.6.3-.3.4-.8.4-1.4 0-.5-.2-1.2-.5-2.2-.5-1.4-.7-2.5-.7-3.3 0-1.1.3-2.2.9-3.1.6-.9 1.6-1.3 2.9-1.3.6 0 1 .2 1.4.5.3.3.5.7.5 1.1 0 .3-.1.5-.2.7s-.4.3-.6.3c-.4 0-.8-.2-1.2-.6-.3-.4-.6-.7-.7-.7-.1-.1-.3-.1-.6-.1s-.5.1-.7.4c-.2.2-.3.5-.3.9 0 .8.2 1.9.7 3.4.5 1.4.7 2.6.7 3.4 0 .5-.2 1-.5 1.6-.3.5-.8 1-1.5 1.3s-1.3.5-2 .5c-.8 0-1.5-.2-1.9-.5-.4-.4-.6-.8-.6-1.3 0-.3.1-.5.3-.7.2-.3.4-.4.7-.4z"/></svg>