<?xml version="1.0" encoding="utf-8"?>
<!-- Generator: Adobe Illustrator 20.0.0, SVG Export Plug-In . SVG Version: 6.00 Build 0)  -->
<svg version="1.1" id="Layer_1" xmlns="http://www.w3.org/2000/svg" xmlns:xlink="http://www.w3.org/1999/xlink" x="0px" y="0px"
	 viewBox="0 0 1400 733.2" style="enable-background:new 0 0 1400 733.2;" xml:space="preserve">
<style type="text/css">
	.st0{fill:#FFFFFF;}
</style>
<path class="st0" d="M20.1,270.7c1.1,2.2,2,4.5,3.4,6.4c2.6,3.6,6.4,5.3,10.8,5.7c0.7,0.1,1.4,0,2.2,0c42.1,0,84.2,0,126.3,0
	c0.8,0,1.6,0,2.5,0c0-35.1,0-70.1,0-105.3c-11.7,0-23.3,0-35.1,0c0-13.8,0-27.4,0-41.3c0.9,0,1.8,0,2.6,0c9.7,0,19.4,0,29.1,0
	c3.9,0,3.5,0.4,3.6-3.7c0.1-10.7-0.2-21.5,0.3-32.2c0.6-13.9,5.2-26.2,15.6-35.9c7.6-7,16.8-10.8,26.9-12.1
	c13.5-1.7,26.9-0.4,40.3,0.8C250,53.2,250,54,250,55c0,4.1,0,8.1,0,12.2c0,6.7-0.1,13.3,0,20c0,2.1-0.5,2.9-2.7,2.8
	c-7.2-0.1-14.5-0.1-21.7,0.2c-2.5,0.1-5.1,0.6-7.5,1.3c-5.2,1.6-8.3,5.2-9.3,10.4c-0.5,2.7-0.7,5.5-0.8,8.2c-0.1,8,0,15.9-0.1,23.9
	c0,1.8,0.6,2.2,2.2,2.2c12-0.1,23.9,0,35.9-0.1c2.1,0,2.6,0.5,2.3,2.6c-1.6,12.1-3.2,24.1-4.7,36.2c-0.2,2-1,2.5-2.9,2.5
	c-10-0.1-20,0-30,0c-0.9,0-1.7,0-2.7,0c0,35.2,0,70.1,0,105.4c0.8,0,1.6,0,2.4,0c21.8,0,43.6,0,65.4,0c10,0,16.4-6.4,16.4-16.5
	c0-79.7,0-159.4,0-239.1c0-10.3-6.4-16.7-16.7-16.7c-79.4,0-158.8,0-238.3-0.1c-7.9,0-14.8,4.1-16.8,11.6
	C20.5,22.4,20.1,270.7,20.1,270.7z"/>
<path class="st0" d="M752.9,5.9c4.8,0,9.6,0,14.5,0c2,0.4,4.1,0.7,6.1,1.1c14.6,2.9,27.1,9.6,37.5,20.2c0.7,0.7,1.4,1,2.5,0.8
	c13.4-2.8,26.2-7.4,38.3-13.9c1.6-0.9,3.3-1.8,4.9-2.7c-5.3,16.6-15.6,29.3-30.1,38.7c13.6-1.4,26.6-5,39.3-10.2
	c-0.1,0.5-0.3,1-0.6,1.3C861,46.5,857,52,852.5,57.1c-5.9,6.7-12.6,12.4-19.7,17.7c-0.6,0.4-1.3,1.3-1.3,1.9
	c0.4,14.3-0.5,28.5-3,42.6c-2.8,15.5-7.2,30.5-13.3,45c-9.1,21.7-21.5,41.4-37.3,59c-13.8,15.4-29.7,28.3-47.7,38.5
	c-27.5,15.7-57.3,23.8-88.8,25.4c-8.6,0.4-17.2,0.1-25.8-0.2c-10.6-0.4-21-2.2-31.4-4.5c-21-4.8-40.6-12.8-59.1-23.8
	c-1.3-0.8-2.6-1.6-3.9-2.4c38.5,3.4,73.1-6.3,103.8-29.9c-15-0.9-28.6-5.4-40.6-14.4s-20.3-20.6-25.3-35.1
	c10.8,1.8,21.2,1.6,31.4-1.4c-16.4-3.9-30-12.1-40.6-25.1c-10.6-13.1-15.8-28.1-15.9-45.4c10.2,5.4,20.6,8.4,31.7,8.6
	c-15-10.8-25.1-25-29.3-43s-1.5-35.2,7.5-51.5c0.4,0.2,0.5,0.2,0.6,0.3c0.3,0.3,0.6,0.6,0.9,0.9C556,33,567.8,44.2,581.1,54
	c21.4,15.8,45.1,26.9,70.9,33.4c8.7,2.2,17.5,3.7,26.3,4.7c3.7,0.4,7.4,0.6,11.2,0.9c1,0.1,1.4-0.2,1.2-1.3
	c-0.3-1.5-0.6-3.1-0.8-4.6c-1.5-9.7-0.9-19.3,1.7-28.8c3.5-13.2,10.4-24.4,20.3-33.7c9.6-8.9,20.8-14.8,33.7-17.5
	C748,6.7,750.4,6.3,752.9,5.9z"/>
<g>
	<path class="st0" d="M1162.4,0c40.2,0,80.4,0,120.6,0c3.1,0.5,6.2,1.1,9.3,1.3c42.4,2.8,74.6,34.1,75.7,76.4
		c1.2,46.2,1.3,92.6,0,138.8c-1.2,42.3-33.6,74.7-75.9,75.9c-46.2,1.3-92.6,1.1-138.8,0c-35.4-0.8-63.4-23.6-72.8-57.1
		c-2.6-9.1-3.3-18.7-4.9-28c0-40.2,0-80.4,0-120.6c0.5-3.1,1.1-6.2,1.3-9.3c2.4-35.5,24-63.3,57.5-72.6
		C1143.5,2.3,1153,1.6,1162.4,0z M1222.8,266.3L1222.8,266.3c21.6-0.1,43.1,0.6,64.6-0.2c32.2-1.2,53.3-21.3,54.1-53.2
		c1.1-43.8,0.7-87.7,0.1-131.5c-0.2-15.8-5.9-30.2-18.7-40.8c-10.5-8.7-22.9-12.3-36.1-12.5c-36.2-0.7-72.5-1.1-108.8-1.1
		c-11,0-22.1,0.9-32.9,3c-25,4.9-41,24.5-41.5,52.5c-0.8,42.6-0.9,85.2-0.1,127.8c0.7,34.7,21.4,54.9,56,56
		C1180.7,266.9,1201.7,266.3,1222.8,266.3z"/>
	<path class="st0" d="M1298.2,147.3c-0.1,42.1-33.7,75.5-75.8,75.3c-42.1-0.2-75.5-33.8-75.3-75.8c0.2-42.1,33.7-75.5,75.8-75.3
		C1265,71.6,1298.3,105.2,1298.2,147.3z M1271.4,147.3c0.1-27.1-21.2-48.7-48.1-48.9c-27.5-0.2-49.2,21.1-49.3,48.4
		c-0.1,27.4,21.4,49,48.8,48.9C1249.8,195.7,1271.3,174.3,1271.4,147.3z"/>
	<path class="st0" d="M1318.8,68.7c-0.1,9.9-8.1,17.9-17.8,17.7c-9.6-0.1-17.9-8.5-17.8-18c0.1-9.7,8.2-17.5,18.1-17.5
		C1311.4,51,1318.9,58.6,1318.8,68.7z"/>
</g>
<path class="st0" d="M970.6,581.6c0-5.2,0-10.4,0-15.6c0.7-4.9,1.2-9.7,2-14.6c8.9-54.5,53.3-99,107.7-107.9
	c5.3-0.9,10.6-1.4,15.9-2.1c4.5,0,9,0,13.5,0c0.8,0.1,1.5,0.3,2.3,0.4c22.5,1.5,43.5,8.1,62.3,20.6c38.8,25.6,59.1,62.1,61.2,108.2
	c1.1,23.2-4.7,45.3-15.7,65.8c-29.2,54.4-92.9,81.9-152,65c-0.7-0.2-1.3-0.5-2.2-0.8c7.3-11.3,12.5-23.2,15.4-36.1
	c0.8-3.8,1.9-7.5,2.8-11.3c1.4-5.5,2.8-11.1,4.3-17c6,8.8,14.2,13.5,24,15.3c16.3,3,31.2-1,44.8-10.3c12.4-8.5,20.9-20.3,26.5-34.1
	c7.4-18.2,10.7-37.2,7.4-56.6c-4.7-27.8-21.5-46.6-47.1-57.5c-17.7-7.6-36.3-8.4-55-5.3c-26,4.4-47.4,16.5-62,39
	c-14,21.6-17.2,44.8-8.2,69.1c3.9,10.5,10.9,18.6,21.4,23.2c4,1.8,6.4,0.6,7.6-3.7c0.8-3.2,1.5-6.4,2.5-9.5c0.9-3,0.2-5.3-1.8-7.6
	c-4.3-4.9-7.2-10.7-8-17.2c-3-23.4,4-43.3,22.4-58.2c18.8-15.1,40.6-17.6,63.3-10.9c19.4,5.7,30.3,19.5,33.2,39.4
	c1.3,8.6,0.5,17.3-0.7,25.8c-2,13.7-6,26.7-14.4,37.9c-5.7,7.7-12.9,13.2-22.8,14.5c-16.1,2.1-28.8-10.7-24.1-26.7
	c2.7-9.4,5.5-18.7,8.2-28.1c2-6.9,3.8-13.9,2.9-21.2c-1.3-11.1-10.1-17.8-21-15.8c-9.1,1.7-14.7,7.7-18.3,15.8
	c-5.4,12.3-4.7,24.7-0.4,37.2c0.4,1.2,0.6,2.7,0.3,3.9c-4,17.3-7.9,34.5-12.2,51.7c-3.9,15.7-7.8,31.4-6.7,47.8
	c0,0.2-0.2,0.4-0.4,0.7c-0.4-0.1-0.7-0.2-1-0.3c-39.6-19-64.8-49.7-74.8-92.6C972.1,595.3,971.6,588.4,970.6,581.6z"/>
<g>
	<path class="st0" d="M646.4,433c40.2,1.2,80.4,2.4,120.7,3.8c14.2,0.5,28.2,2,40,11.7c12.8,10.4,17,25,19.2,40.1
		c4.6,30.8,4.8,61.8,3.7,92.8c-0.7,20.9-2.7,41.8-5.1,62.5c-1.3,10.6-5.4,20.7-12.9,28.8c-9.6,10.4-22,14.7-35.8,15.6
		c-59.3,3.8-118.6,4.7-177.9,3.3c-28.7-0.7-57.4-2-86-4.4c-25.5-2.2-39.7-14.3-44.4-39.6c-4-21.5-6-43.6-6.2-65.4
		c-0.3-29.7,1.7-59.5,3.3-89.2c0.4-7.7,2.7-15.4,5.1-22.7c6.7-20.2,21.5-30.9,42.2-32.2c29.1-1.9,58.2-2.9,87.3-3.8
		c15.6-0.5,31.2-0.1,46.8-0.1C646.4,433.8,646.4,433.4,646.4,433z M650.5,477.9c0,55.1,0,109.8,0,164.7c4,0,7.5,0,11,0
		c3.4,0,6.8,0,10.2,0c0.3-4,0.5-7.1,0.7-10.2c4.9,3.5,8.9,7.2,13.5,9.5c12.6,6.3,24.8,0.6,28.2-13c1.4-5.5,1.9-11.4,2-17.1
		c0.2-19.9,0.3-39.9,0-59.8c-0.1-6.5-1-13.2-2.6-19.4c-3.6-13.9-15.5-19.1-28.3-12.4c-4.6,2.4-8.5,6.1-13.4,9.7c0-17.6,0-34.7,0-52
		C664.5,477.9,657.8,477.9,650.5,477.9z M608.1,519.8c0,2.6,0,4.8,0,7c0,26.5-0.2,53,0.2,79.5c0.1,5.8-1.7,10.2-5.9,13.4
		c-2.7,2-6.4,2.7-9.7,4c-1.1-3-3.2-6.1-3.2-9.1c-0.2-29.4-0.1-58.8-0.1-88.2c0-2.2,0-4.3,0-6.5c-8.2,0-15.4,0-22.8,0
		c-0.1,1.2-0.3,2-0.3,2.8c0,33.1-0.1,66.2,0.1,99.3c0,4.4,1.1,9,2.6,13.2c1.9,5.5,6.2,9.4,12.1,8.7c5.7-0.6,11.4-2.5,16.6-5
		c3.7-1.7,6.5-5.3,10.3-8.7c0.2,4.4,0.4,8.2,0.6,12c7.8,0,15.1,0,22.5,0c0-41,0-81.5,0-122.4C623.4,519.8,616.3,519.8,608.1,519.8z
		 M775.6,600c0,4.6,0.2,8.9,0,13.1c-0.3,6.5-4,10.6-9.5,11c-5.2,0.4-9.7-2.8-10.4-9.1c-1.1-9.9-1-19.9-1.5-30.6
		c15.6,0,30.1,0,44.6,0c0-11.8,0.5-22.9-0.1-33.9c-0.6-10.5-4.3-20.1-13.2-26.7c-20-14.9-49.1-3.5-52.4,21.7
		c-2.3,17.8-1.3,36-1.5,54.1c-0.1,5.9,0.2,11.9,1.3,17.7c3,16.1,14.9,25.9,31.5,26.8c15.9,0.8,28.7-7.2,32.6-21.6
		c1.9-7.1,1.8-14.8,2.7-22.6C791.1,600,784,600,775.6,600z M518.3,500.7c0,47.9,0,94.8,0,141.4c8.4,0,16.1,0,24.3,0
		c0-47.2,0-94,0-141.5c9.2,0,17.9,0,26.6,0c0-8,0-15.3,0-22.7c-25.8,0-51.1,0-76.7,0c0,7.6,0,14.9,0,22.7
		C500.9,500.7,509.1,500.7,518.3,500.7z"/>
	<path class="st0" d="M400.9,518.4c0,14,0,27.6,0,41.1c0,18.7-0.1,37.4,0.1,56.1c0,2.5,1.3,6.7,2.9,7.1c2.3,0.7,5.9-0.6,8.1-2.2
		c4.8-3.5,7.3-8,7.2-14.6c-0.4-26.9-0.2-53.8-0.2-80.7c0-2.2,0-4.4,0-6.9c8,0,15.3,0,23.2,0c0,41.2,0,82.5,0,124.2
		c-7.6,0-15.1,0-22.9,0c-0.2-3.8-0.4-7.4-0.6-11.5c-4.1,3.4-7.4,6.7-11.2,9.3c-14.3,9.7-27.5,3.8-30.1-13.2
		c-0.1-0.4-0.1-0.8-0.1-1.2c0-35.7,0-71.4,0-107.5C385.1,518.4,392.6,518.4,400.9,518.4z"/>
	<path class="st0" d="M211.7,476.1c8.2,0,15.6,0.2,23-0.1c3.8-0.1,4.2,2.3,4.9,4.9c4.9,18.6,9.9,37.2,16.1,56.1
		c0.6-1.9,1.3-3.8,1.8-5.7c4.5-16.8,9.1-33.6,13.3-50.6c1-3.8,2.6-4.9,6.3-4.7c6.9,0.2,13.9,0.1,21.6,0.1
		c-4.9,15.7-9.5,30.8-14.2,45.8c-3.5,11.2-6.7,22.4-10.6,33.4c-4.9,13.5-7,27.2-6.4,41.6c0.6,15,0.1,30,0.1,45.5c-8.1,0-16,0-24.5,0
		c-0.1-1.2-0.4-2.8-0.5-4.3c-0.1-5.1-0.5-10.3,0-15.4c3.6-35-4.9-67.9-16.5-100.4C221,507.4,216.8,492.2,211.7,476.1z"/>
	<path class="st0" d="M360.1,581.3c0,9.9,0.3,19.7-0.1,29.6c-0.7,19.6-13.4,33.4-31.1,34.2c-18.8,0.9-33.5-10.6-34.9-30.5
		c-1.6-22.3-1.7-44.9,0.1-67.1c1.7-21.6,15.1-31.7,35.6-30.6c17.6,1,29.3,13.9,30.3,34.1C360.5,561.1,360.1,571.2,360.1,581.3
		L360.1,581.3z M317,581.1c0,6.6,0,13.1,0,19.7c0,4.3-0.2,8.6,0.2,12.9c0.6,6.4,4.4,10.1,9.6,10.1c5.1,0,8.7-3.9,9.6-10.2
		c0.2-1.2,0.1-2.5,0.1-3.7c0-19.3,0.1-38.6-0.1-57.8c0-2.8-0.1-6.3-1.7-8.2c-1.9-2.4-5.4-4.6-8.3-4.7c-2.6-0.1-5.9,2.4-7.6,4.7
		c-1.5,2.1-1.6,5.4-1.7,8.2C316.9,561.8,317,571.4,317,581.1z"/>
	<path class="st0" d="M693,580.3c0,9.6,0.1,19.3-0.1,28.9c-0.1,3-0.5,6.2-1.5,9c-1.5,4.4-5.1,6.8-9.7,5.5c-4.5-1.3-9.9-2.3-9.9-9
		c0.1-22.4,0-44.8,0-67.1c0-5,4.6-9.1,10.6-9.6c5.3-0.5,9,2,9.5,7.3c0.7,7.9,0.8,15.9,1,23.9c0.1,3.7,0,7.4,0,11.1
		C693.1,580.3,693.1,580.3,693,580.3z"/>
	<path class="st0" d="M776.2,566.1c-7.7,0-14.2,0-21.9,0c0.4-7.2,0.5-14.3,1.4-21.2c0.7-5.5,5-7,10-7c4.9,0.1,8.6,2.3,9.1,7.3
		C775.6,551.9,775.7,558.7,776.2,566.1z"/>
</g>
</svg>
