<svg id="Layer_1" xmlns="http://www.w3.org/2000/svg" viewBox="0 0 1400 733.2"><style>.st0{fill:#fff}</style><path class="st0" d="M20.1 270.7c1.1 2.2 2 4.5 3.4 6.4 2.6 3.6 6.4 5.3 10.8 5.7.7.1 1.4 0 2.2 0h128.8V177.5h-35.1v-41.3h31.7c3.9 0 3.5.4 3.6-3.7.1-10.7-.2-21.5.3-32.2.6-13.9 5.2-26.2 15.6-35.9 7.6-7 16.8-10.8 26.9-12.1 13.5-1.7 26.9-.4 40.3.8 1.4.1 1.4.9 1.4 1.9v12.2c0 6.7-.1 13.3 0 20 0 2.1-.5 2.9-2.7 2.8-7.2-.1-14.5-.1-21.7.2-2.5.1-5.1.6-7.5 1.3-5.2 1.6-8.3 5.2-9.3 10.4-.5 2.7-.7 5.5-.8 8.2-.1 8 0 15.9-.1 23.9 0 1.8.6 2.2 2.2 2.2 12-.1 23.9 0 35.9-.1 2.1 0 2.6.5 2.3 2.6-1.6 12.1-3.2 24.1-4.7 36.2-.2 2-1 2.5-2.9 2.5-10-.1-20 0-30 0H208v105.4h67.8c10 0 16.4-6.4 16.4-16.5V27.2c0-10.3-6.4-16.7-16.7-16.7-79.4 0-158.8 0-238.3-.1-7.9 0-14.8 4.1-16.8 11.6.1.4-.3 248.7-.3 248.7zM752.9 5.9h14.5c2 .4 4.1.7 6.1 1.1 14.6 2.9 27.1 9.6 37.5 20.2.7.7 1.4 1 2.5.8 13.4-2.8 26.2-7.4 38.3-13.9 1.6-.9 3.3-1.8 4.9-2.7-5.3 16.6-15.6 29.3-30.1 38.7 13.6-1.4 26.6-5 39.3-10.2-.1.5-.3 1-.6 1.3-4.3 5.3-8.3 10.8-12.8 15.9-5.9 6.7-12.6 12.4-19.7 17.7-.6.4-1.3 1.3-1.3 1.9.4 14.3-.5 28.5-3 42.6-2.8 15.5-7.2 30.5-13.3 45-9.1 21.7-21.5 41.4-37.3 59-13.8 15.4-29.7 28.3-47.7 38.5-27.5 15.7-57.3 23.8-88.8 25.4-8.6.4-17.2.1-25.8-.2-10.6-.4-21-2.2-31.4-4.5-21-4.8-40.6-12.8-59.1-23.8l-3.9-2.4c38.5 3.4 73.1-6.3 103.8-29.9-15-.9-28.6-5.4-40.6-14.4s-20.3-20.6-25.3-35.1c10.8 1.8 21.2 1.6 31.4-1.4-16.4-3.9-30-12.1-40.6-25.1-10.6-13.1-15.8-28.1-15.9-45.4 10.2 5.4 20.6 8.4 31.7 8.6-15-10.8-25.1-25-29.3-43s-1.5-35.2 7.5-51.5c.4.2.5.2.6.3l.9.9C556 33 567.8 44.2 581.1 54c21.4 15.8 45.1 26.9 70.9 33.4 8.7 2.2 17.5 3.7 26.3 4.7 3.7.4 7.4.6 11.2.9 1 .1 1.4-.2 1.2-1.3-.3-1.5-.6-3.1-.8-4.6-1.5-9.7-.9-19.3 1.7-28.8 3.5-13.2 10.4-24.4 20.3-33.7 9.6-8.9 20.8-14.8 33.7-17.5 2.4-.4 4.8-.8 7.3-1.2zM1162.4 0H1283c3.1.5 6.2 1.1 9.3 1.3 42.4 2.8 74.6 34.1 75.7 76.4 1.2 46.2 1.3 92.6 0 138.8-1.2 42.3-33.6 74.7-75.9 75.9-46.2 1.3-92.6 1.1-138.8 0-35.4-.8-63.4-23.6-72.8-57.1-2.6-9.1-3.3-18.7-4.9-28V86.7c.5-3.1 1.1-6.2 1.3-9.3 2.4-35.5 24-63.3 57.5-72.6 9.1-2.5 18.6-3.2 28-4.8zm60.4 266.3c21.6-.1 43.1.6 64.6-.2 32.2-1.2 53.3-21.3 54.1-53.2 1.1-43.8.7-87.7.1-131.5-.2-15.8-5.9-30.2-18.7-40.8-10.5-8.7-22.9-12.3-36.1-12.5-36.2-.7-72.5-1.1-108.8-1.1-11 0-22.1.9-32.9 3-25 4.9-41 24.5-41.5 52.5-.8 42.6-.9 85.2-.1 127.8.7 34.7 21.4 54.9 56 56 21.2.6 42.2 0 63.3 0z"/><path class="st0" d="M1298.2 147.3c-.1 42.1-33.7 75.5-75.8 75.3-42.1-.2-75.5-33.8-75.3-75.8.2-42.1 33.7-75.5 75.8-75.3 42.1.1 75.4 33.7 75.3 75.8zm-26.8 0c.1-27.1-21.2-48.7-48.1-48.9-27.5-.2-49.2 21.1-49.3 48.4-.1 27.4 21.4 49 48.8 48.9 27 0 48.5-21.4 48.6-48.4zm47.4-78.6c-.1 9.9-8.1 17.9-17.8 17.7-9.6-.1-17.9-8.5-17.8-18 .1-9.7 8.2-17.5 18.1-17.5 10.1.1 17.6 7.7 17.5 17.8zM970.6 581.6V566c.7-4.9 1.2-9.7 2-14.6 8.9-54.5 53.3-99 107.7-107.9 5.3-.9 10.6-1.4 15.9-2.1h13.5c.8.1 1.5.3 2.3.4 22.5 1.5 43.5 8.1 62.3 20.6 38.8 25.6 59.1 62.1 61.2 108.2 1.1 23.2-4.7 45.3-15.7 65.8-29.2 54.4-92.9 81.9-152 65-.7-.2-1.3-.5-2.2-.8 7.3-11.3 12.5-23.2 15.4-36.1.8-3.8 1.9-7.5 2.8-11.3 1.4-5.5 2.8-11.1 4.3-17 6 8.8 14.2 13.5 24 15.3 16.3 3 31.2-1 44.8-10.3 12.4-8.5 20.9-20.3 26.5-34.1 7.4-18.2 10.7-37.2 7.4-56.6-4.7-27.8-21.5-46.6-47.1-57.5-17.7-7.6-36.3-8.4-55-5.3-26 4.4-47.4 16.5-62 39-14 21.6-17.2 44.8-8.2 69.1 3.9 10.5 10.9 18.6 21.4 23.2 4 1.8 6.4.6 7.6-3.7.8-3.2 1.5-6.4 2.5-9.5.9-3 .2-5.3-1.8-7.6-4.3-4.9-7.2-10.7-8-17.2-3-23.4 4-43.3 22.4-58.2 18.8-15.1 40.6-17.6 63.3-10.9 19.4 5.7 30.3 19.5 33.2 39.4 1.3 8.6.5 17.3-.7 25.8-2 13.7-6 26.7-14.4 37.9-5.7 7.7-12.9 13.2-22.8 14.5-16.1 2.1-28.8-10.7-24.1-26.7 2.7-9.4 5.5-18.7 8.2-28.1 2-6.9 3.8-13.9 2.9-21.2-1.3-11.1-10.1-17.8-21-15.8-9.1 1.7-14.7 7.7-18.3 15.8-5.4 12.3-4.7 24.7-.4 37.2.4 1.2.6 2.7.3 3.9-4 17.3-7.9 34.5-12.2 51.7-3.9 15.7-7.8 31.4-6.7 47.8 0 .2-.2.4-.4.7-.4-.1-.7-.2-1-.3-39.6-19-64.8-49.7-74.8-92.6-1.6-6.6-2.1-13.5-3.1-20.3zM646.4 433c40.2 1.2 80.4 2.4 120.7 3.8 14.2.5 28.2 2 40 11.7 12.8 10.4 17 25 19.2 40.1 4.6 30.8 4.8 61.8 3.7 92.8-.7 20.9-2.7 41.8-5.1 62.5-1.3 10.6-5.4 20.7-12.9 28.8-9.6 10.4-22 14.7-35.8 15.6-59.3 3.8-118.6 4.7-177.9 3.3-28.7-.7-57.4-2-86-4.4-25.5-2.2-39.7-14.3-44.4-39.6-4-21.5-6-43.6-6.2-65.4-.3-29.7 1.7-59.5 3.3-89.2.4-7.7 2.7-15.4 5.1-22.7 6.7-20.2 21.5-30.9 42.2-32.2 29.1-1.9 58.2-2.9 87.3-3.8 15.6-.5 31.2-.1 46.8-.1V433zm4.1 44.9v164.7h21.2c.3-4 .5-7.1.7-10.2 4.9 3.5 8.9 7.2 13.5 9.5 12.6 6.3 24.8.6 28.2-13 1.4-5.5 1.9-11.4 2-17.1.2-19.9.3-39.9 0-59.8-.1-6.5-1-13.2-2.6-19.4-3.6-13.9-15.5-19.1-28.3-12.4-4.6 2.4-8.5 6.1-13.4 9.7v-52h-21.3zm-42.4 41.9v7c0 26.5-.2 53 .2 79.5.1 5.8-1.7 10.2-5.9 13.4-2.7 2-6.4 2.7-9.7 4-1.1-3-3.2-6.1-3.2-9.1-.2-29.4-.1-58.8-.1-88.2v-6.5h-22.8c-.1 1.2-.3 2-.3 2.8 0 33.1-.1 66.2.1 99.3 0 4.4 1.1 9 2.6 13.2 1.9 5.5 6.2 9.4 12.1 8.7 5.7-.6 11.4-2.5 16.6-5 3.7-1.7 6.5-5.3 10.3-8.7.2 4.4.4 8.2.6 12h22.5V519.8h-23zM775.6 600c0 4.6.2 8.9 0 13.1-.3 6.5-4 10.6-9.5 11-5.2.4-9.7-2.8-10.4-9.1-1.1-9.9-1-19.9-1.5-30.6h44.6c0-11.8.5-22.9-.1-33.9-.6-10.5-4.3-20.1-13.2-26.7-20-14.9-49.1-3.5-52.4 21.7-2.3 17.8-1.3 36-1.5 54.1-.1 5.9.2 11.9 1.3 17.7 3 16.1 14.9 25.9 31.5 26.8 15.9.8 28.7-7.2 32.6-21.6 1.9-7.1 1.8-14.8 2.7-22.6-8.6.1-15.7.1-24.1.1zm-257.3-99.3v141.4h24.3V500.6h26.6v-22.7h-76.7v22.7c8.4.1 16.6.1 25.8.1zm-117.4 17.7v41.1c0 18.7-.1 37.4.1 56.1 0 2.5 1.3 6.7 2.9 7.1 2.3.7 5.9-.6 8.1-2.2 4.8-3.5 7.3-8 7.2-14.6-.4-26.9-.2-53.8-.2-80.7v-6.9h23.2v124.2h-22.9c-.2-3.8-.4-7.4-.6-11.5-4.1 3.4-7.4 6.7-11.2 9.3-14.3 9.7-27.5 3.8-30.1-13.2-.1-.4-.1-.8-.1-1.2V518.4h23.6zm-189.2-42.3c8.2 0 15.6.2 23-.1 3.8-.1 4.2 2.3 4.9 4.9 4.9 18.6 9.9 37.2 16.1 56.1.6-1.9 1.3-3.8 1.8-5.7 4.5-16.8 9.1-33.6 13.3-50.6 1-3.8 2.6-4.9 6.3-4.7 6.9.2 13.9.1 21.6.1-4.9 15.7-9.5 30.8-14.2 45.8-3.5 11.2-6.7 22.4-10.6 33.4-4.9 13.5-7 27.2-6.4 41.6.6 15 .1 30 .1 45.5h-24.5c-.1-1.2-.4-2.8-.5-4.3-.1-5.1-.5-10.3 0-15.4 3.6-35-4.9-67.9-16.5-100.4-5.1-14.9-9.3-30.1-14.4-46.2zm148.4 105.2c0 9.9.3 19.7-.1 29.6-.7 19.6-13.4 33.4-31.1 34.2-18.8.9-33.5-10.6-34.9-30.5-1.6-22.3-1.7-44.9.1-67.1 1.7-21.6 15.1-31.7 35.6-30.6 17.6 1 29.3 13.9 30.3 34.1.5 10.1.1 20.2.1 30.3zm-43.1-.2v19.7c0 4.3-.2 8.6.2 12.9.6 6.4 4.4 10.1 9.6 10.1 5.1 0 8.7-3.9 9.6-10.2.2-1.2.1-2.5.1-3.7 0-19.3.1-38.6-.1-57.8 0-2.8-.1-6.3-1.7-8.2-1.9-2.4-5.4-4.6-8.3-4.7-2.6-.1-5.9 2.4-7.6 4.7-1.5 2.1-1.6 5.4-1.7 8.2-.2 9.7-.1 19.3-.1 29z"/><path class="st0" d="M693 580.3c0 9.6.1 19.3-.1 28.9-.1 3-.5 6.2-1.5 9-1.5 4.4-5.1 6.8-9.7 5.5-4.5-1.3-9.9-2.3-9.9-9 .1-22.4 0-44.8 0-67.1 0-5 4.6-9.1 10.6-9.6 5.3-.5 9 2 9.5 7.3.7 7.9.8 15.9 1 23.9.1 3.7 0 7.4 0 11.1h.1zm83.2-14.2h-21.9c.4-7.2.5-14.3 1.4-21.2.7-5.5 5-7 10-7 4.9.1 8.6 2.3 9.1 7.3.8 6.7.9 13.5 1.4 20.9z"/></svg>