<?xml version="1.0" encoding="UTF-8"?><!DOCTYPE svg PUBLIC "-//W3C//DTD SVG 1.1//EN" "http://www.w3.org/Graphics/SVG/1.1/DTD/svg11.dtd"><svg xmlns="http://www.w3.org/2000/svg"><symbol id="icon-phone" viewBox="0 0 15 17">
    <title>
        Path 6
    </title>
    <path d="M.023 2.788C-.662 7.526 5.97 16.294 10.757 16.421c.297.144.67.104 1.119-.12l1.613-1.311a1.76 1.76 0 0 0-.05-2.77l-1.018-.769a2.498 2.498 0 0 0-3.188.148c-1.133.6-4.986-4.171-4.941-5.768.196-.185.379-.356.55-.512a1.92 1.92 0 0 0 .491-2.124l-.585-1.481a1.92 1.92 0 0 0-2.97-.806C.595 1.835.01 2.462.023 2.788z" fill-rule="evenodd"/>
</symbol></svg>