<?xml version="1.0" encoding="UTF-8"?><!DOCTYPE svg PUBLIC "-//W3C//DTD SVG 1.1//EN" "http://www.w3.org/Graphics/SVG/1.1/DTD/svg11.dtd"><svg xmlns="http://www.w3.org/2000/svg"><defs>
        <style>
            .a{fill:#1b1464}.b{fill:#fff}
        </style>
    
        <style>
            .a{fill:#1b1464}
        </style>
    
        <style>
            .a{fill:none;stroke:#fff;stroke-width:3px}
        </style>
    
        <style>
            .a{fill:none;stroke:#707070}
        </style>
    
        <style>
            .a{fill:#1b1464}
        </style>
    
        <style>
            .a{fill:#1b1464}
        </style>
    </defs><symbol id="icon-bandz" viewBox="1005.999 3286.969 98.298 53.052">
    
    <path class="a" d="M1055.143 3319.639c-23.765 0-49-5.724-49-16.335s25.239-16.335 49-16.335 49 5.724 49 16.335-25.231 16.335-49 16.335zm0-28.911c-12.4 0-24.054 1.474-32.785 4.163-7.686 2.341-12.457 5.578-12.457 8.413s4.77 6.071 12.461 8.413c8.731 2.689 20.381 4.163 32.781 4.163s24.054-1.474 32.785-4.163c7.69-2.371 12.461-5.58 12.461-8.413s-4.766-6.072-12.456-8.413c-8.732-2.689-20.383-4.164-32.79-4.164z"/>
    <path class="a" d="M1055.288 3336.263c-23.765 0-49-5.724-49-16.335h3.758c0 2.833 4.77 6.071 12.461 8.413 8.731 2.687 20.354 4.163 32.781 4.163s24.054-1.474 32.785-4.163c7.69-2.342 12.461-5.58 12.461-8.413h3.758c.005 10.61-25.235 16.335-49.004 16.335z"/>
    <path class="a" d="M1093.252 3313.393c-8.587-3.787-22.782-6.042-37.96-6.042-15.121 0-29.287 2.255-37.874 6.014l-1.5-3.44c9.046-3.961 23.762-6.332 39.374-6.332 15.67 0 30.443 2.371 39.493 6.36z"/>
    <path class="a" d="M1005.999 3303.482l3.758-.068.297 16.48-3.758.067z"/>
    <path class="a" d="M1100.245 3303.482l3.758-.068.297 16.48-3.758.067z"/>
    <path class="b" d="M1068.244 3338.141h-24.777a4.09 4.09 0 0 1-4.076-4.078v-15.524a4.09 4.09 0 0 1 4.076-4.076h24.777a4.09 4.09 0 0 1 4.076 4.076v15.524a4.072 4.072 0 0 1-4.076 4.078z"/>
    <path class="a" d="M1068.245 3340.021h-24.777a5.966 5.966 0 0 1-5.956-5.956v-15.525a5.966 5.966 0 0 1 5.956-5.956h24.777a5.966 5.966 0 0 1 5.956 5.956v15.525a5.947 5.947 0 0 1-5.956 5.956zm-24.777-23.707a2.2 2.2 0 0 0-2.2 2.2v15.525a2.2 2.2 0 0 0 2.2 2.2h24.777a2.2 2.2 0 0 0 2.2-2.2v-15.528a2.2 2.2 0 0 0-2.2-2.2h-24.777z"/>
</symbol><symbol id="icon-beacons" viewBox="238 3257.465 98.298 82.226">
    
    <path class="a" d="M287.377 3318.608c-10.711 0-20.826-1.335-28.469-3.807-8.5-2.728-13.013-6.506-13.013-10.939s4.489-8.211 13.013-10.939c7.643-2.443 17.729-3.807 28.469-3.807s20.826 1.335 28.469 3.807c8.5 2.728 13.013 6.506 13.013 10.939s-4.489 8.211-13.013 10.939c-7.642 2.472-17.757 3.807-28.469 3.807zm0-25.23c-10.285 0-19.946 1.279-27.162 3.58-7.416 2.387-10.03 5.114-10.03 6.9s2.642 4.518 10.03 6.9c7.217 2.33 16.877 3.58 27.162 3.58s19.946-1.279 27.162-3.58c7.416-2.387 10.03-5.114 10.03-6.9s-2.642-4.518-10.03-6.9c-7.244-2.302-16.876-3.58-27.162-3.58z"/>
    <path class="a" d="M287.235 3339.691c-12.132 0-23.582-1.534-32.22-4.29-12.018-3.861-14.547-8.752-14.547-12.161h4.262c0 2.7 4.432 5.8 11.592 8.1 8.24 2.642 19.207 4.091 30.913 4.091s22.7-1.449 30.913-4.091c7.16-2.3 11.592-5.4 11.592-8.1h4.262c0 3.41-2.529 8.3-14.547 12.161-8.609 2.756-20.06 4.29-32.22 4.29z"/>
    <path class="a" d="M240.631 3322.779l5.398-19.466 4.107 1.138-5.398 19.467z"/>
    <path class="a" d="M324.729 3304.422l4.122-1.083 5.112 19.456-4.123 1.083z"/>
    <path class="a" d="M248.081 3287.98a2.068 2.068 0 0 1-1.421-.54 2.148 2.148 0 0 1-.17-3.012c.426-.483 10.655-11.507 40.8-11.507s40.63 11.024 41.056 11.479a2.132 2.132 0 1 1-3.125 2.9c0-.028-2.443-2.529-8.268-5.029-5.427-2.33-14.973-5.086-29.663-5.086-8.1 0-19.775.881-29.492 5.057-5.768 2.5-8.126 5.029-8.154 5.029a2.02 2.02 0 0 1-1.563.709z"/>
    <path class="a" d="M334.172 3274.626a2.134 2.134 0 0 1-1.563-.682c-.028-.028-2.926-3.069-9.973-6.08-11.819-5.086-25.912-6.137-35.657-6.137s-23.81 1.051-35.459 6.109c-6.961 3.012-9.774 6.052-9.8 6.08a2.146 2.146 0 0 1-3.012.142 2.115 2.115 0 0 1-.173-2.983c.512-.54 12.587-13.61 48.444-13.61 35.828 0 48.244 13.041 48.755 13.581a2.145 2.145 0 0 1-.114 3.012 2.085 2.085 0 0 1-1.448.568z"/>
</symbol><symbol id="icon-chevron_down" viewBox="5724.813 7472.32 78.287 33.367">
    
    <path d="M5725.75 7473.5l37.867 30.273 38.557-30.273" class="a"/>
</symbol><symbol id="icon-chevron_right" viewBox="12288.08 934.73 11.148 31.246">
    
    <path class="a" d="M12288.5 935l10.129 15.787-10.129 14.913"/>
</symbol><symbol id="icon-qr-code" viewBox="1389.998 3277.154 73.143 73.143">
    
    <path class="a" d="M1423.906 3289.581v21.481h-27.339v12.072h-6.569v-18.64h27.34v-14.913z"/>
    <path class="a" d="M1411.479 3316.566v6.569h-9.232v-6.569z"/>
    <path class="a" d="M1447.873 3304.671v12.427h-6.569v-5.859h-5.148v12.072h-12.25v5.681h11.895v21.3h-6.569v-14.731h-11.894v-18.818h12.25v-12.072z"/>
    <path class="a" d="M1423.729 3350.297h-6.569v-9.587h6.569z"/>
    <path class="a" d="M1463.14 3334.852v15.445h-6.569v-8.877h-8.7v8.877h-6.567v-15.445z"/>
    <path class="a" d="M1463.14 3304.671v24.677h-21.836v-6.569h15.268v-18.108z"/>
    <path class="a" d="M1435.801 3277.509v21.3h-6.569v-14.731h-11.894v-6.569z"/>
    <path class="a" d="M1389.998 3277.154v21.481h21.481v-21.481zm15.268 15.623h-9.054v-9.054h9.054z"/>
    <path class="a" d="M1441.304 3277.154v21.481h21.481v-21.481zm15.445 15.268h-9.054v-9.054h9.054z"/>
    <path class="a" d="M1389.998 3328.46v21.481h21.481v-21.481zm15.268 15.268h-9.054v-9.054h9.054z"/>
</symbol><symbol id="icon-tablets" viewBox="621.999 3257.465 121.217 82.226">
    
    <path class="a" d="M738.309 3339.691H626.906a4.913 4.913 0 0 1-4.907-4.907v-72.412a4.913 4.913 0 0 1 4.907-4.907h111.4a4.913 4.913 0 0 1 4.907 4.907v72.412a4.913 4.913 0 0 1-4.904 4.907zm-111.403-78.778a1.472 1.472 0 0 0-1.459 1.459v72.412a1.472 1.472 0 0 0 1.459 1.459h111.4a1.472 1.472 0 0 0 1.459-1.459v-72.412a1.472 1.472 0 0 0-1.459-1.459z"/>
    <path class="a" d="M729.158 3331.999h-93.366v-67.107h93.366zm-89.918-3.448h86.47v-60.211h-86.47z"/>
    <path class="a" d="M649.717 3281.735h19.628v19.628h-19.628z"/>
    <path class="a" d="M669.477 3301.495h-19.893v-19.893h19.893zm-19.628-.265h19.363v-19.363h-19.363z"/>
    <path class="a" d="M675.446 3281.867h39.787v3.448h-39.787z"/>
    <g>
        <path class="a" d="M675.578 3289.825h39.787v3.448h-39.787z"/>
    </g>
</symbol></svg>