<svg id="Layer_1" xmlns="http://www.w3.org/2000/svg" viewBox="0 0 1635.4 660.1"><style>.st0{fill:#fff}</style><path class="st0" d="M123.5 17.6h13c.8.2 1.6.4 2.4.5 5 .7 10.1 1.1 15.1 2 69.1 13.5 113.6 81.9 97.8 150.3-18.3 79.2-105.9 120.5-178.2 83.5-37.9-19.5-60.2-51-67.1-93.2-.6-3.8-1-7.7-1.5-11.6v-13c.2-.8.4-1.6.5-2.4C6.6 117 10.8 101 18.7 86.2c20-37.6 51-60.1 93-67.1 3.9-.6 7.9-1 11.8-1.5zM186 210.8c.4-.9.5-1.2.6-1.5 5.6-18.7 11.3-37.4 16.8-56.1 4.4-14.8 3.1-29.1-4.4-42.8-2.6-4.7-5.4-9.3-8.1-14-2.5-4.4-4.5-9.1-5.1-14.2-1.4-10.6 5.7-20.5 16.2-22.2 1.1-.2 2.2-.3 3.5-.4-25-23.5-64.2-36.1-103.7-25.8C74.1 41 52.3 56.9 35.9 81c6.2 0 11.8.1 17.3 0 6.7-.2 13.3-.8 20-1.1 2.7-.1 4.4 1.4 4.7 3.8.3 2.8-1 4.6-3.9 5.1-1.2.2-2.5.3-3.7.4-3 .3-6 .5-9.4.8 13.7 40.7 27.2 80.9 41 121.8.5-1.1.6-1.4.7-1.7 7.9-23.6 15.8-47.1 23.6-70.7.3-1 .2-2.3-.2-3.3-5.3-14.7-10.7-29.4-16-44.1-.6-1.7-1.6-2.2-3.3-2.3-3.2-.2-6.5-.5-9.7-.9-2.6-.4-3.9-2.2-3.7-4.7.2-2.5 1.9-4.1 4.4-4.2 1.1 0 2.2.1 3.2.2 12.4.3 24.8.8 37.2.9 6.5 0 13-.7 19.5-1 2.7-.1 4.6 1.5 4.8 4 .2 2.5-1.2 4.4-3.9 4.9-1.2.2-2.5.3-3.7.4-3 .3-6.1.5-9.4.8 13.6 40.1 27 80.1 40.6 120.7zm-18.7 38c-11.8-32.2-23.4-64-35-95.7-.2 0-.5.1-.7.1-11.1 32.4-22.3 64.7-33.5 97.3 23.5 6.7 46.3 6.1 69.2-1.7zM27.6 97.2c-12.9 29.5-13.6 59.1-1.4 88.6 10.7 26 29.1 45.1 54.1 57.8.2-.1.4-.3.6-.4-17.8-48.7-35.5-97.3-53.3-146zm201.3-7.5c1.6 15.4-.8 30.3-5.9 44.9-11.8 33.8-23.5 67.7-35.3 101.5-.4 1-.6 2.1-1.1 3.5 54.4-31.2 70.3-100.3 42.3-149.9zm684.5 36.1c5.1-9.8 13.4-12.4 23.9-12 12.8.6 25.7.1 38.5.1 11.7.1 18.7 7.2 18.7 18.8 0 11.4-6.9 18.1-18.5 18.1-20.8.1-41.7.1-62.5.2-.1-8.3-.1-16.7-.1-25.2zm142.7 131.3c-7.6 0-15 .8-22.1-.2-9.3-1.3-14.3-7.8-14.4-17.2-.2-15.6-.2-31.2 0-46.9.1-9.9 7.1-16.3 17.5-16.8 10.2-.5 18.6 5 18.8 14.4.7 22 .2 44 .2 66.7zM1019.5 7.7c7.8 0 14.8-.8 21.6.2 9.8 1.4 14.9 7.3 15.1 17.3.4 15.6.4 31.3 0 47-.3 10.7-8.4 17.2-19.5 16.7-10.7-.4-17.2-6.9-17.3-17.6 0-20.8.1-41.7.1-63.6zM1127.9 114c9.8 0 19.7.1 29.5-.1 3.5-.1 5.4 1 5.3 4.6-.2 6.4.3 12.9-.9 19.1-1.7 8.6-7.7 13.1-16.4 13.2-15.8.3-31.7.3-47.5 0-9.8-.2-16.6-8-16.7-18.4s6.6-18.1 16.7-18.3c10-.3 20-.1 30-.1zm-43.7-7.5c-10.4-.6-15.9-4.8-19.3-11.8-3.3-6.8-1.4-12.9 3.8-18 13.5-13.5 27-26.9 40.3-40.5 3-3 5.4-2.9 8.1-.2 2.6 2.5 5.4 4.8 7.7 7.6 8.4 9.9 8 18.2-1.2 27.4-9.9 10-19.6 20-29.8 29.7-3 2.9-7.4 4.5-9.6 5.8zm-1.2 50.8c3.4 1.9 7.3 3.2 10 5.8 13.8 13.4 27.3 27.2 41 40.7 2.6 2.6 3.3 4.9.6 7.6-3.1 3.1-5.9 6.6-9.4 9.3-9 7-17.1 6.3-25.2-1.7-10.3-10.2-20.5-20.4-30.7-30.7-5.5-5.6-6.8-12.2-4-18.7 3.1-6.9 9.8-11.3 17.7-12.3zm-70 20.3c-1.7 3.2-2.8 7.1-5.3 9.6-13.5 14-27.4 27.6-41.1 41.5-2.9 3-5.3 3-8.1.2s-6-5.4-8.4-8.5c-7.3-9.1-6.8-17.4 1.3-25.7 10.1-10.3 20.3-20.5 30.6-30.7 5.8-5.7 12.2-7.1 18.6-3.9 7 3.4 11.4 8.7 12.4 17.5zm-19.8-70c-3.5-2-7.7-3.3-10.5-6-13.7-13.2-26.9-26.9-40.5-40.3-3.1-3-3.5-5.5-.5-8.6 2.7-2.7 5.1-5.7 8.1-8 9.8-7.8 17.6-7.3 26.5 1.6 10.2 10.2 20.4 20.4 30.6 30.7 5.3 5.3 6.4 11.6 3.3 18.2-3.2 6.8-8.3 11.2-17 12.4zm224.3-9.8c11.2-1.3 14.9 1.9 15 12.2 0 6.4 0 12.7 1.1 19.6 2.7-3.8 5.3-7.7 8.1-11.4 3-4 6.4-7.8 9.1-12 6.1-9.5 14.9-10.1 25.3-8.4-7.4 9-14.5 17.6-21.5 26.3-7 8.8-7 8.9-.7 18 6.5 9.4 12.8 19 23 24.9-1.5 6.4-5.7 9-12.5 6.6-3.2-1.1-6.5-3.4-8.6-6.1-7.7-9.7-15-19.8-23-30.5v35.9c-9.3 2.2-15-.5-15.2-8-.4-22.3-.1-44.5-.1-67.1zM1011.1 132c.2-14.7 12.6-26.8 27.2-26.5 14.7.3 26.7 12.7 26.4 27.3-.3 14.8-12.6 26.7-27.3 26.4-14.7-.1-26.5-12.3-26.3-27.2zm588.1 43.2c-16.8.1-28.7-12.4-28.9-30.2-.2-19.6 11.7-32.7 29.7-32.7 16.7 0 28.5 12.6 28.6 30.5.2 19.2-11.7 32.3-29.4 32.4zm-14-32.1c.9 3.7 1.3 7.5 2.7 11 2.4 6.1 8.9 9.1 15.2 7.5 6.8-1.7 10.5-8.5 10.2-18.3-.4-10.1-4.4-16.3-11.4-17.5-9.9-1.7-16.2 5-16.7 17.3zm-285.2 7.6c2.5 12.6 17.3 15.7 34.1 7.4 1.9 6.8.3 11.9-5.4 14.3-11.2 4.7-22.4 4.5-32.5-2.8-11.5-8.3-13.9-20.1-11.4-33.2 2.2-11.5 8.6-19.7 20.3-23 16-4.5 31.3 5.1 32.3 20.3.5 8.4-2.8 13.5-11.4 14.9-8.4 1.2-17.1 1.4-26 2.1zm-.3-11.7c5.7 0 11.5.5 17.1-.2 2.3-.3 6.2-3.2 6.1-4.7-.2-2.8-2.1-6.7-4.5-8-9.1-5.2-18.7 1.6-18.7 12.9zm105.7 34.6c-11.2.5-14.8-2.8-14.8-12.6 0-7.4.1-14.9-.1-22.3-.2-8.6-4.3-13.1-11.6-13.2-7.2-.1-11.4 4.5-11.5 13.1-.2 11.6 0 23.2 0 34.7-10.6 1.4-14.9-2.1-14.9-11.6-.1-8.2-.3-16.5.1-24.7.7-13.9 9.6-23.2 22.7-24.5 15-1.4 26.5 5.3 29.1 18.2 1.3 6.4.9 13.2 1 19.8.1 7.6 0 15.2 0 23.1zm153.2-42c-13.1-6.9-23.1-6.5-29.4 1.2-5.1 6.2-4.8 16.4.6 22.8 5.8 7 16.1 7.4 28.1 1.3 2.3 9.1-.9 14.7-9.7 17.1-15.7 4.4-33-5.6-37.1-21.5-4.5-17.3 5.7-34.7 22.6-38.6 2.5-.6 5.1-1 7.7-1 12.3-.3 18.3 6.3 17.2 18.7zm-119.8-31.5v13.5h20c1.9 9.7-.8 13.1-9.8 13.2-3.2.1-6.3 0-10 0 0 9.3-.3 18 .1 26.8.3 5.1 3.8 7.8 9 7.6 3.5-.1 7.1-.6 10.6-.9 2.1 8.7-1.1 13.3-10 14.1-15.6 1.4-24.5-6.6-24.6-22.1-.1-12.6-.1-25.2 0-37.9.2-8.6 5.8-14.3 14.7-14.3zm35.4 15.3c11.1-1.1 14.7 2.1 14.8 12.5.1 7.2 0 14.4 0 21.7 0 11.5 0 11.5 11.3 13.1 1.5 8.8-1.2 12-9.9 11.6-9.6-.4-15.5-5.3-16-15.3-.7-14.4-.2-28.9-.2-43.6zm7-23.6c4.9-.1 8.9 3.8 8.9 8.5s-4 8.7-8.9 8.6c-4.6 0-8.4-3.7-8.6-8.2-.1-4.7 3.7-8.8 8.6-8.9zM187.7 648.9c5.4-25.6 10.9-51.2 16.1-76.8 7.3-36 14.3-72 21.3-108 1-5 1.9-8.6 8.5-8.5 28 .4 56-.7 83.9.5 42.6 1.8 59.7 21.8 59.9 66.9 7.8-39.1 15.6-78.3 23.6-118h46.6c-3 16.6-6 32.9-9.2 50.8 12.8 0 24.8-.9 36.7.2 12.2 1.2 24.9 2.8 36.3 6.9 15.4 5.6 22.7 18.3 20.4 34.5-4.9 33.6-10.9 67.1-16.7 100.6-.3 2-3.1 4.9-4.9 5-14.7.4-29.5.2-45.2.2 5.8-31 11.4-60.7 17-90.3 3-16 .2-19.7-15.7-19.9-10.4-.1-20.9 0-31.3 0-1 0-2 .2-4.2.5-4.8 23.6-9.6 47.6-14.4 71.5-2.1 10.6-4 21.2-6.4 31.7-.6 2.4-3.2 6.1-4.9 6.2-14 .5-28.1.3-43 .3 3.6-18.8 6.9-36.2 10.3-53.5-.5-.2-1-.3-1.4-.5-1.6 2.8-3.1 5.5-4.7 8.3-16.5 29.4-41.3 45.4-75.4 45.9-15.1.2-30.3 0-46.3 0-3.4 17.2-6.7 34-10.2 51.6h-46.6c-.1-2-.1-4.1-.1-6.1zm78.7-155.7c-4.1 24.5-8 48.2-12.1 72.9h23.3c30.7-.1 45.8-13.6 49.4-44.2 2.1-17.2-5.7-27.4-23-28.5-12.1-.8-24.2-.2-37.6-.2zm296.9 161.3h-46.7c4.6-23.7 9-46.8 13.6-69.9 7.8-39.6 16-79.1 23.4-118.8 1.5-8.1 4.6-10.3 12.5-10.2 24.9.5 49.9.1 74.8.2 6.4 0 12.9.4 19.1 1.6 34.7 6.6 50.8 31.4 45 68.9-7.4 47.7-41.6 77-89.7 77.1-11.5 0-22.9.2-34.4-.1-5.7-.2-8.3 1.5-9.2 7.6-2.3 14.3-5.5 28.4-8.4 43.6zm19.8-88.4h21.5c33 0 47-12.5 51.1-45.4 1.9-15.4-4.6-25.2-20-26.9-13.2-1.4-26.7-.3-40.6-.3-3.9 24.1-7.8 47.5-12 72.6zM459.4 63.4c5.3-.7 10.6-1.5 15.9-2.2 5.7-.8 11.5-1.5 17.2-2.3 8.9-1.2 17.9-2.4 26.8-3.7l19.5-2.7c7.1-1 14.1-1.8 21.2-2.8 1.2-.2 1.3.3 1.3 1.2v94.9c0 1.9 0 1.9-2 1.9-5.3 0-10.6 0-16 .1-10 .1-19.9.1-29.9.2-14.3.1-28.6.2-43 .2-3.1 0-6.2.1-9.3.1-1.6 0-1.6 0-1.6-1.6 0-21.9 0-43.8-.1-65.7 0-.6-.1-1.2-.2-1.8.2-5.2.2-10.5.2-15.8zM709 87.3v57.5c0 1.7 0 1.7-1.7 1.7-8.2 0-16.3.1-24.5.1-7.4 0-14.7.1-22.1.2-10.4.1-20.8.2-31.2.2-10.5.1-21 .2-31.5.2-7.5.1-15 .1-22.6.2-1.5 0-1.5 0-1.5-1.5V49.2c0-1.6 0-1.6 1.6-1.9 5.4-.8 10.9-1.6 16.3-2.4l20.7-3c8.9-1.3 17.9-2.6 26.8-3.9l24.3-3.6c8-1.2 15.9-2.3 23.9-3.4 6.6-1 13.3-2 19.9-3 1.3-.2 1.5-.1 1.5 1.3.1 19.4.1 38.7.1 58zm-72.3 72.8h58c4.3 0 8.7.1 13 .1 1.1 0 1.3.4 1.3 1.4v114.7c0 1.9 0 1.8-1.8 1.6-5.7-.8-11.3-1.6-17-2.4-5.6-.8-11.3-1.6-16.9-2.4-5.6-.8-11.3-1.6-16.9-2.4l-15-2.1c-6.9-1-13.9-1.9-20.8-2.9l-16.8-2.4-17.1-2.4c-3.9-.5-7.8-1.1-11.7-1.6-1-.1-1-.8-1-1.5v-38.6c0-5.9 0-11.9-.1-17.8 0-13.2-.1-26.4-.1-39.7 0-1.6 0-1.6 1.6-1.6h61.3zm-75.4 48.4v47.4c0 1.6 0 1.6-1.5 1.4-5.3-.7-10.5-1.4-15.8-2.2l-17.7-2.4c-5.7-.8-11.5-1.6-17.2-2.4-6.5-.9-12.9-1.8-19.4-2.6l-17.1-2.4c-3.7-.5-7.4-1-11.2-1.5-1.8-.2-1.8-.2-1.8-2v-81.4c0-1.8 0-1.8 1.8-1.8h25.4c13.3.1 26.5.1 39.8.2 9.7.1 19.4.2 29.2.2 1.4 0 2.9.1 4.3.1.9 0 1.2.4 1.1 1.2v1.4c.1 15.7.1 31.2.1 46.8zm335.5 443.3c7-28.8 12.5-57 20.7-84.4 13.7-45.6 34.2-88.1 67.5-123 10.7-11.2 24.2-20 37.3-28.3 8.7-5.5 19-6.2 28.7 4.5-70.4 39.8-86.9 110.5-107 179.3 1.2.7 2.5 1.4 3.7 2.1 1.8-3.8 3.4-7.7 5.3-11.5 18.8-37.9 36.2-76.6 57.2-113.2 9.7-16.9 26.6-29.7 40.5-44 6-6.2 12-4.8 15.6 2.8 10.5 22.4 21.8 44.6 30.7 67.7 12 30.9 21.8 62.6 33.4 93.7 7.8 21 20.3 38.6 41.8 49.2-17.8 2.5-36.3-3.5-47.2-19.2-9.8-14.1-18.5-29.9-23.5-46.2-11.1-35.8-19.6-72.4-29.2-108.7-1.3-5-2.7-10-4.7-17.6-5.8 5.2-10.5 8.7-14.3 13-24 27.5-38.4 60.2-50.5 94.1-4.1 11.5-7.6 23.2-11.4 34.9-12 36.9-51.4 61.1-94.6 54.8zm456.1-72.9c13-21.4 26.2-42.7 38.8-64.3 18.2-31.3 36.6-62.5 53.4-94.6 7-13.4 15.6-17.2 29.8-13.6-.3 1.5-.1 3.4-.9 4.7-36.7 60.9-72.3 122.5-110.7 182.3-11.7 18.1-29.7 33-47.1 46.4-16.3 12.6-24.2 9.3-36.9-9.4 33.5-40.1 49.1-89.2 66.9-137.5 6.9-18.7 16.6-36.5 26.7-53.8 12.6-21.7 33.4-30.7 60.7-33.5-28.4 58.5-55.9 115.2-83.4 171.9.8.3 1.8.8 2.7 1.4zM1071 424c33-20.9 60.7-16.1 77.9 15.8 13.1 24.4 23.2 50.7 31.6 77.2 11.4 35.8 22.3 71.6 41.6 104.2 1.8 3 .4 10.1-2.1 13-11.5 12.6-25.2 12.5-37.6.4-24.4-23.8-39.4-53.5-49.2-85.4-14-44.9-29.5-88.7-62.2-125.2z"/><path class="st0" d="M1271.5 615.9c-7.6-14.4-11.9-25-7-39.3 12.6-36.3 23.8-73 34.5-109.9 7.8-27 24.2-45.4 50.7-53.7 14.2-4.5 29.2-6.2 44.5-7.6-32.7 11-48.2 37.4-60.2 66-14.4 34.1-26.6 69.2-40.7 103.5-5.5 13.5-13.6 25.9-21.8 41zm-38.8-4.2c-9.4-25.3-18.6-48.6-26.8-72.3-9.2-26.4-16.9-53.3-26.6-79.4-7.5-20.4-19.1-38.3-42.8-48.7 28.4-3.2 48.9 5.4 63.3 26.5 6.5 9.6 11.9 20.6 15.2 31.7 10 33.4 18.9 67.2 27.9 100.9 4.4 16.7 2.8 22.9-10.2 41.3zM850.5 652c22.4-106.5 100-229.7 155.9-238.4-75.9 51.8-104.2 130.5-121.7 215.3-.2.9-.2 1.7-.3 2.6-4.3 24.6-7.9 26.8-33.9 20.5zm402.7-42.1c3.9 9.8 12.4 17.8-.5 25.4-10.6-8-10.6-8 .5-25.4z"/></svg>